<?xml version="1.0" standalone="no"?>
<!DOCTYPE svg PUBLIC "-//W3C//DTD SVG 1.1//EN" "http://www.w3.org/Graphics/SVG/1.1/DTD/svg11.dtd" >
<svg xmlns="http://www.w3.org/2000/svg" xmlns:xlink="http://www.w3.org/1999/xlink" version="1.1">
<metadata></metadata>
<defs>
<font id="ignore_17regular" horiz-adv-x="832" >
<font-face units-per-em="2048" ascent="1536" descent="-512" />
<missing-glyph horiz-adv-x="512" />
<glyph horiz-adv-x="0" />
<glyph unicode="&#xd;" horiz-adv-x="128" />
<glyph unicode=" "  horiz-adv-x="512" />
<glyph unicode="&#x09;" horiz-adv-x="512" />
<glyph unicode="&#xa0;" horiz-adv-x="512" />
<glyph unicode="!" horiz-adv-x="384" d="M64 1088h64v-64h-64v64zM128 1088h64v-64h-64v64zM192 1088h64v-64h-64v64zM64 1024h64v-64h-64v64zM128 1024h64v-64h-64v64zM192 1024h64v-64h-64v64zM64 960h64v-64h-64v64zM128 960h64v-64h-64v64zM192 960h64v-64h-64v64zM64 896h64v-64h-64v64zM128 896h64v-64h-64 v64zM192 896h64v-64h-64v64zM64 832h64v-64h-64v64zM128 832h64v-64h-64v64zM192 832h64v-64h-64v64zM64 768h64v-64h-64v64zM128 768h64v-64h-64v64zM192 768h64v-64h-64v64zM64 704h64v-64h-64v64zM128 704h64v-64h-64v64zM192 704h64v-64h-64v64zM64 640h64v-64h-64v64z M128 640h64v-64h-64v64zM192 640h64v-64h-64v64zM64 576h64v-64h-64v64zM128 576h64v-64h-64v64zM192 576h64v-64h-64v64zM64 512h64v-64h-64v64zM128 512h64v-64h-64v64zM192 512h64v-64h-64v64zM64 448h64v-64h-64v64zM128 448h64v-64h-64v64zM192 448h64v-64h-64v64z M64 384h64v-64h-64v64zM128 384h64v-64h-64v64zM192 384h64v-64h-64v64zM64 192h64v-64h-64v64zM128 192h64v-64h-64v64zM192 192h64v-64h-64v64zM64 128h64v-64h-64v64zM128 128h64v-64h-64v64zM192 128h64v-64h-64v64zM64 64h64v-64h-64v64zM128 64h64v-64h-64v64zM192 64 h64v-64h-64v64z" />
<glyph unicode="&#x22;" horiz-adv-x="640" d="M0 1088h64v-64h-64v64zM64 1088h64v-64h-64v64zM128 1088h64v-64h-64v64zM320 1088h64v-64h-64v64zM384 1088h64v-64h-64v64zM448 1088h64v-64h-64v64zM0 1024h64v-64h-64v64zM64 1024h64v-64h-64v64zM128 1024h64v-64h-64v64zM320 1024h64v-64h-64v64zM384 1024h64v-64 h-64v64zM448 1024h64v-64h-64v64zM0 960h64v-64h-64v64zM64 960h64v-64h-64v64zM128 960h64v-64h-64v64zM320 960h64v-64h-64v64zM384 960h64v-64h-64v64zM448 960h64v-64h-64v64zM0 896h64v-64h-64v64zM64 896h64v-64h-64v64zM128 896h64v-64h-64v64zM320 896h64v-64h-64 v64zM384 896h64v-64h-64v64zM448 896h64v-64h-64v64zM0 832h64v-64h-64v64zM64 832h64v-64h-64v64zM128 832h64v-64h-64v64zM320 832h64v-64h-64v64zM384 832h64v-64h-64v64zM448 832h64v-64h-64v64zM0 768h64v-64h-64v64zM64 768h64v-64h-64v64zM128 768h64v-64h-64v64z M320 768h64v-64h-64v64zM384 768h64v-64h-64v64zM448 768h64v-64h-64v64z" />
<glyph unicode="#" horiz-adv-x="960" d="M128 1088h64v-64h-64v64zM192 1088h64v-64h-64v64zM256 1088h64v-64h-64v64zM512 1088h64v-64h-64v64zM576 1088h64v-64h-64v64zM640 1088h64v-64h-64v64zM128 1024h64v-64h-64v64zM192 1024h64v-64h-64v64zM256 1024h64v-64h-64v64zM512 1024h64v-64h-64v64zM576 1024 h64v-64h-64v64zM640 1024h64v-64h-64v64zM128 960h64v-64h-64v64zM192 960h64v-64h-64v64zM256 960h64v-64h-64v64zM512 960h64v-64h-64v64zM576 960h64v-64h-64v64zM640 960h64v-64h-64v64zM0 896h64v-64h-64v64zM64 896h64v-64h-64v64zM128 896h64v-64h-64v64zM192 896h64 v-64h-64v64zM256 896h64v-64h-64v64zM320 896h64v-64h-64v64zM384 896h64v-64h-64v64zM448 896h64v-64h-64v64zM512 896h64v-64h-64v64zM576 896h64v-64h-64v64zM640 896h64v-64h-64v64zM704 896h64v-64h-64v64zM768 896h64v-64h-64v64zM0 832h64v-64h-64v64zM64 832h64v-64 h-64v64zM128 832h64v-64h-64v64zM192 832h64v-64h-64v64zM256 832h64v-64h-64v64zM320 832h64v-64h-64v64zM384 832h64v-64h-64v64zM448 832h64v-64h-64v64zM512 832h64v-64h-64v64zM576 832h64v-64h-64v64zM640 832h64v-64h-64v64zM704 832h64v-64h-64v64zM768 832h64v-64 h-64v64zM0 768h64v-64h-64v64zM64 768h64v-64h-64v64zM128 768h64v-64h-64v64zM192 768h64v-64h-64v64zM256 768h64v-64h-64v64zM320 768h64v-64h-64v64zM384 768h64v-64h-64v64zM448 768h64v-64h-64v64zM512 768h64v-64h-64v64zM576 768h64v-64h-64v64zM640 768h64v-64h-64 v64zM704 768h64v-64h-64v64zM768 768h64v-64h-64v64zM128 704h64v-64h-64v64zM192 704h64v-64h-64v64zM256 704h64v-64h-64v64zM512 704h64v-64h-64v64zM576 704h64v-64h-64v64zM640 704h64v-64h-64v64zM128 640h64v-64h-64v64zM192 640h64v-64h-64v64zM256 640h64v-64h-64 v64zM512 640h64v-64h-64v64zM576 640h64v-64h-64v64zM640 640h64v-64h-64v64zM128 576h64v-64h-64v64zM192 576h64v-64h-64v64zM256 576h64v-64h-64v64zM512 576h64v-64h-64v64zM576 576h64v-64h-64v64zM640 576h64v-64h-64v64zM128 512h64v-64h-64v64zM192 512h64v-64h-64 v64zM256 512h64v-64h-64v64zM512 512h64v-64h-64v64zM576 512h64v-64h-64v64zM640 512h64v-64h-64v64zM128 448h64v-64h-64v64zM192 448h64v-64h-64v64zM256 448h64v-64h-64v64zM512 448h64v-64h-64v64zM576 448h64v-64h-64v64zM640 448h64v-64h-64v64zM0 384h64v-64h-64v64 zM64 384h64v-64h-64v64zM128 384h64v-64h-64v64zM192 384h64v-64h-64v64zM256 384h64v-64h-64v64zM320 384h64v-64h-64v64zM384 384h64v-64h-64v64zM448 384h64v-64h-64v64zM512 384h64v-64h-64v64zM576 384h64v-64h-64v64zM640 384h64v-64h-64v64zM704 384h64v-64h-64v64z M768 384h64v-64h-64v64zM0 320h64v-64h-64v64zM64 320h64v-64h-64v64zM128 320h64v-64h-64v64zM192 320h64v-64h-64v64zM256 320h64v-64h-64v64zM320 320h64v-64h-64v64zM384 320h64v-64h-64v64zM448 320h64v-64h-64v64zM512 320h64v-64h-64v64zM576 320h64v-64h-64v64z M640 320h64v-64h-64v64zM704 320h64v-64h-64v64zM768 320h64v-64h-64v64zM0 256h64v-64h-64v64zM64 256h64v-64h-64v64zM128 256h64v-64h-64v64zM192 256h64v-64h-64v64zM256 256h64v-64h-64v64zM320 256h64v-64h-64v64zM384 256h64v-64h-64v64zM448 256h64v-64h-64v64z M512 256h64v-64h-64v64zM576 256h64v-64h-64v64zM640 256h64v-64h-64v64zM704 256h64v-64h-64v64zM768 256h64v-64h-64v64zM128 192h64v-64h-64v64zM192 192h64v-64h-64v64zM256 192h64v-64h-64v64zM512 192h64v-64h-64v64zM576 192h64v-64h-64v64zM640 192h64v-64h-64v64z M128 128h64v-64h-64v64zM192 128h64v-64h-64v64zM256 128h64v-64h-64v64zM512 128h64v-64h-64v64zM576 128h64v-64h-64v64zM640 128h64v-64h-64v64zM128 64h64v-64h-64v64zM192 64h64v-64h-64v64zM256 64h64v-64h-64v64zM512 64h64v-64h-64v64zM576 64h64v-64h-64v64z M640 64h64v-64h-64v64z" />
<glyph unicode="$" d="M384 1152h64v-64h-64v64zM448 1152h64v-64h-64v64zM128 1088h64v-64h-64v64zM192 1088h64v-64h-64v64zM256 1088h64v-64h-64v64zM320 1088h64v-64h-64v64zM384 1088h64v-64h-64v64zM448 1088h64v-64h-64v64zM512 1088h64v-64h-64v64zM576 1088h64v-64h-64v64zM64 1024h64 v-64h-64v64zM128 1024h64v-64h-64v64zM192 1024h64v-64h-64v64zM256 1024h64v-64h-64v64zM320 1024h64v-64h-64v64zM384 1024h64v-64h-64v64zM448 1024h64v-64h-64v64zM512 1024h64v-64h-64v64zM576 1024h64v-64h-64v64zM0 960h64v-64h-64v64zM64 960h64v-64h-64v64z M128 960h64v-64h-64v64zM192 960h64v-64h-64v64zM256 960h64v-64h-64v64zM320 960h64v-64h-64v64zM384 960h64v-64h-64v64zM448 960h64v-64h-64v64zM512 960h64v-64h-64v64zM576 960h64v-64h-64v64zM0 896h64v-64h-64v64zM64 896h64v-64h-64v64zM128 896h64v-64h-64v64z M320 896h64v-64h-64v64zM384 896h64v-64h-64v64zM0 832h64v-64h-64v64zM64 832h64v-64h-64v64zM128 832h64v-64h-64v64zM320 832h64v-64h-64v64zM384 832h64v-64h-64v64zM0 768h64v-64h-64v64zM64 768h64v-64h-64v64zM128 768h64v-64h-64v64zM320 768h64v-64h-64v64z M384 768h64v-64h-64v64zM0 704h64v-64h-64v64zM64 704h64v-64h-64v64zM128 704h64v-64h-64v64zM320 704h64v-64h-64v64zM384 704h64v-64h-64v64zM0 640h64v-64h-64v64zM64 640h64v-64h-64v64zM128 640h64v-64h-64v64zM192 640h64v-64h-64v64zM256 640h64v-64h-64v64z M320 640h64v-64h-64v64zM384 640h64v-64h-64v64zM448 640h64v-64h-64v64zM512 640h64v-64h-64v64zM64 576h64v-64h-64v64zM128 576h64v-64h-64v64zM192 576h64v-64h-64v64zM256 576h64v-64h-64v64zM320 576h64v-64h-64v64zM384 576h64v-64h-64v64zM448 576h64v-64h-64v64z M512 576h64v-64h-64v64zM576 576h64v-64h-64v64zM128 512h64v-64h-64v64zM192 512h64v-64h-64v64zM256 512h64v-64h-64v64zM320 512h64v-64h-64v64zM384 512h64v-64h-64v64zM448 512h64v-64h-64v64zM512 512h64v-64h-64v64zM576 512h64v-64h-64v64zM640 512h64v-64h-64v64z M256 448h64v-64h-64v64zM320 448h64v-64h-64v64zM512 448h64v-64h-64v64zM576 448h64v-64h-64v64zM640 448h64v-64h-64v64zM256 384h64v-64h-64v64zM320 384h64v-64h-64v64zM512 384h64v-64h-64v64zM576 384h64v-64h-64v64zM640 384h64v-64h-64v64zM256 320h64v-64h-64v64z M320 320h64v-64h-64v64zM512 320h64v-64h-64v64zM576 320h64v-64h-64v64zM640 320h64v-64h-64v64zM256 256h64v-64h-64v64zM320 256h64v-64h-64v64zM512 256h64v-64h-64v64zM576 256h64v-64h-64v64zM640 256h64v-64h-64v64zM0 192h64v-64h-64v64zM64 192h64v-64h-64v64z M128 192h64v-64h-64v64zM192 192h64v-64h-64v64zM256 192h64v-64h-64v64zM320 192h64v-64h-64v64zM384 192h64v-64h-64v64zM448 192h64v-64h-64v64zM512 192h64v-64h-64v64zM576 192h64v-64h-64v64zM640 192h64v-64h-64v64zM0 128h64v-64h-64v64zM64 128h64v-64h-64v64z M128 128h64v-64h-64v64zM192 128h64v-64h-64v64zM256 128h64v-64h-64v64zM320 128h64v-64h-64v64zM384 128h64v-64h-64v64zM448 128h64v-64h-64v64zM512 128h64v-64h-64v64zM576 128h64v-64h-64v64zM0 64h64v-64h-64v64zM64 64h64v-64h-64v64zM128 64h64v-64h-64v64zM192 64 h64v-64h-64v64zM256 64h64v-64h-64v64zM320 64h64v-64h-64v64zM384 64h64v-64h-64v64zM448 64h64v-64h-64v64zM512 64h64v-64h-64v64zM192 0h64v-64h-64v64zM256 0h64v-64h-64v64z" />
<glyph unicode="%" horiz-adv-x="1216" d="M128 1088h64v-64h-64v64zM192 1088h64v-64h-64v64zM256 1088h64v-64h-64v64zM320 1088h64v-64h-64v64zM64 1024h64v-64h-64v64zM128 1024h64v-64h-64v64zM192 1024h64v-64h-64v64zM256 1024h64v-64h-64v64zM320 1024h64v-64h-64v64zM384 1024h64v-64h-64v64zM0 960h64 v-64h-64v64zM64 960h64v-64h-64v64zM128 960h64v-64h-64v64zM192 960h64v-64h-64v64zM256 960h64v-64h-64v64zM320 960h64v-64h-64v64zM384 960h64v-64h-64v64zM448 960h64v-64h-64v64zM0 896h64v-64h-64v64zM64 896h64v-64h-64v64zM128 896h64v-64h-64v64zM320 896h64v-64 h-64v64zM384 896h64v-64h-64v64zM448 896h64v-64h-64v64zM768 896h64v-64h-64v64zM832 896h64v-64h-64v64zM0 832h64v-64h-64v64zM64 832h64v-64h-64v64zM128 832h64v-64h-64v64zM320 832h64v-64h-64v64zM384 832h64v-64h-64v64zM448 832h64v-64h-64v64zM704 832h64v-64h-64 v64zM768 832h64v-64h-64v64zM832 832h64v-64h-64v64zM0 768h64v-64h-64v64zM64 768h64v-64h-64v64zM128 768h64v-64h-64v64zM192 768h64v-64h-64v64zM256 768h64v-64h-64v64zM320 768h64v-64h-64v64zM384 768h64v-64h-64v64zM448 768h64v-64h-64v64zM640 768h64v-64h-64v64z M704 768h64v-64h-64v64zM768 768h64v-64h-64v64zM64 704h64v-64h-64v64zM128 704h64v-64h-64v64zM192 704h64v-64h-64v64zM256 704h64v-64h-64v64zM320 704h64v-64h-64v64zM384 704h64v-64h-64v64zM576 704h64v-64h-64v64zM640 704h64v-64h-64v64zM704 704h64v-64h-64v64z M128 640h64v-64h-64v64zM192 640h64v-64h-64v64zM256 640h64v-64h-64v64zM320 640h64v-64h-64v64zM512 640h64v-64h-64v64zM576 640h64v-64h-64v64zM640 640h64v-64h-64v64zM448 576h64v-64h-64v64zM512 576h64v-64h-64v64zM576 576h64v-64h-64v64zM384 512h64v-64h-64v64z M448 512h64v-64h-64v64zM512 512h64v-64h-64v64zM704 512h64v-64h-64v64zM768 512h64v-64h-64v64zM832 512h64v-64h-64v64zM896 512h64v-64h-64v64zM320 448h64v-64h-64v64zM384 448h64v-64h-64v64zM448 448h64v-64h-64v64zM640 448h64v-64h-64v64zM704 448h64v-64h-64v64z M768 448h64v-64h-64v64zM832 448h64v-64h-64v64zM896 448h64v-64h-64v64zM960 448h64v-64h-64v64zM256 384h64v-64h-64v64zM320 384h64v-64h-64v64zM384 384h64v-64h-64v64zM576 384h64v-64h-64v64zM640 384h64v-64h-64v64zM704 384h64v-64h-64v64zM768 384h64v-64h-64v64z M832 384h64v-64h-64v64zM896 384h64v-64h-64v64zM960 384h64v-64h-64v64zM1024 384h64v-64h-64v64zM192 320h64v-64h-64v64zM256 320h64v-64h-64v64zM320 320h64v-64h-64v64zM576 320h64v-64h-64v64zM640 320h64v-64h-64v64zM704 320h64v-64h-64v64zM896 320h64v-64h-64v64z M960 320h64v-64h-64v64zM1024 320h64v-64h-64v64zM192 256h64v-64h-64v64zM256 256h64v-64h-64v64zM576 256h64v-64h-64v64zM640 256h64v-64h-64v64zM704 256h64v-64h-64v64zM896 256h64v-64h-64v64zM960 256h64v-64h-64v64zM1024 256h64v-64h-64v64zM576 192h64v-64h-64v64 zM640 192h64v-64h-64v64zM704 192h64v-64h-64v64zM768 192h64v-64h-64v64zM832 192h64v-64h-64v64zM896 192h64v-64h-64v64zM960 192h64v-64h-64v64zM1024 192h64v-64h-64v64zM640 128h64v-64h-64v64zM704 128h64v-64h-64v64zM768 128h64v-64h-64v64zM832 128h64v-64h-64v64 zM896 128h64v-64h-64v64zM960 128h64v-64h-64v64zM704 64h64v-64h-64v64zM768 64h64v-64h-64v64zM832 64h64v-64h-64v64zM896 64h64v-64h-64v64z" />
<glyph unicode="&#x26;" horiz-adv-x="960" d="M128 1088h64v-64h-64v64zM192 1088h64v-64h-64v64zM256 1088h64v-64h-64v64zM320 1088h64v-64h-64v64zM384 1088h64v-64h-64v64zM448 1088h64v-64h-64v64zM512 1088h64v-64h-64v64zM64 1024h64v-64h-64v64zM128 1024h64v-64h-64v64zM192 1024h64v-64h-64v64zM256 1024h64 v-64h-64v64zM320 1024h64v-64h-64v64zM384 1024h64v-64h-64v64zM448 1024h64v-64h-64v64zM512 1024h64v-64h-64v64zM576 1024h64v-64h-64v64zM0 960h64v-64h-64v64zM64 960h64v-64h-64v64zM128 960h64v-64h-64v64zM192 960h64v-64h-64v64zM256 960h64v-64h-64v64zM320 960 h64v-64h-64v64zM384 960h64v-64h-64v64zM448 960h64v-64h-64v64zM512 960h64v-64h-64v64zM576 960h64v-64h-64v64zM640 960h64v-64h-64v64zM0 896h64v-64h-64v64zM64 896h64v-64h-64v64zM128 896h64v-64h-64v64zM512 896h64v-64h-64v64zM576 896h64v-64h-64v64zM640 896h64 v-64h-64v64zM0 832h64v-64h-64v64zM64 832h64v-64h-64v64zM128 832h64v-64h-64v64zM512 832h64v-64h-64v64zM576 832h64v-64h-64v64zM640 832h64v-64h-64v64zM0 768h64v-64h-64v64zM64 768h64v-64h-64v64zM128 768h64v-64h-64v64zM512 768h64v-64h-64v64zM576 768h64v-64 h-64v64zM640 768h64v-64h-64v64zM0 704h64v-64h-64v64zM64 704h64v-64h-64v64zM128 704h64v-64h-64v64zM192 704h64v-64h-64v64zM448 704h64v-64h-64v64zM512 704h64v-64h-64v64zM576 704h64v-64h-64v64zM640 704h64v-64h-64v64zM64 640h64v-64h-64v64zM128 640h64v-64h-64 v64zM192 640h64v-64h-64v64zM256 640h64v-64h-64v64zM320 640h64v-64h-64v64zM384 640h64v-64h-64v64zM448 640h64v-64h-64v64zM512 640h64v-64h-64v64zM576 640h64v-64h-64v64zM128 576h64v-64h-64v64zM192 576h64v-64h-64v64zM256 576h64v-64h-64v64zM320 576h64v-64h-64 v64zM384 576h64v-64h-64v64zM448 576h64v-64h-64v64zM512 576h64v-64h-64v64zM128 512h64v-64h-64v64zM192 512h64v-64h-64v64zM256 512h64v-64h-64v64zM320 512h64v-64h-64v64zM384 512h64v-64h-64v64zM448 512h64v-64h-64v64zM512 512h64v-64h-64v64zM576 512h64v-64h-64 v64zM640 512h64v-64h-64v64zM704 512h64v-64h-64v64zM768 512h64v-64h-64v64zM64 448h64v-64h-64v64zM128 448h64v-64h-64v64zM192 448h64v-64h-64v64zM448 448h64v-64h-64v64zM512 448h64v-64h-64v64zM576 448h64v-64h-64v64zM640 448h64v-64h-64v64zM704 448h64v-64h-64 v64zM768 448h64v-64h-64v64zM0 384h64v-64h-64v64zM64 384h64v-64h-64v64zM128 384h64v-64h-64v64zM512 384h64v-64h-64v64zM576 384h64v-64h-64v64zM640 384h64v-64h-64v64zM704 384h64v-64h-64v64zM768 384h64v-64h-64v64zM0 320h64v-64h-64v64zM64 320h64v-64h-64v64z M128 320h64v-64h-64v64zM512 320h64v-64h-64v64zM576 320h64v-64h-64v64zM640 320h64v-64h-64v64zM0 256h64v-64h-64v64zM64 256h64v-64h-64v64zM128 256h64v-64h-64v64zM512 256h64v-64h-64v64zM576 256h64v-64h-64v64zM640 256h64v-64h-64v64zM0 192h64v-64h-64v64z M64 192h64v-64h-64v64zM128 192h64v-64h-64v64zM192 192h64v-64h-64v64zM256 192h64v-64h-64v64zM320 192h64v-64h-64v64zM384 192h64v-64h-64v64zM448 192h64v-64h-64v64zM512 192h64v-64h-64v64zM576 192h64v-64h-64v64zM640 192h64v-64h-64v64zM704 192h64v-64h-64v64z M768 192h64v-64h-64v64zM64 128h64v-64h-64v64zM128 128h64v-64h-64v64zM192 128h64v-64h-64v64zM256 128h64v-64h-64v64zM320 128h64v-64h-64v64zM384 128h64v-64h-64v64zM448 128h64v-64h-64v64zM512 128h64v-64h-64v64zM576 128h64v-64h-64v64zM640 128h64v-64h-64v64z M704 128h64v-64h-64v64zM768 128h64v-64h-64v64zM128 64h64v-64h-64v64zM192 64h64v-64h-64v64zM256 64h64v-64h-64v64zM320 64h64v-64h-64v64zM384 64h64v-64h-64v64zM448 64h64v-64h-64v64zM640 64h64v-64h-64v64zM704 64h64v-64h-64v64zM768 64h64v-64h-64v64z" />
<glyph unicode="'" horiz-adv-x="384" d="M64 1088h64v-64h-64v64zM128 1088h64v-64h-64v64zM192 1088h64v-64h-64v64zM64 1024h64v-64h-64v64zM128 1024h64v-64h-64v64zM192 1024h64v-64h-64v64zM64 960h64v-64h-64v64zM128 960h64v-64h-64v64zM192 960h64v-64h-64v64zM64 896h64v-64h-64v64zM128 896h64v-64h-64 v64zM192 896h64v-64h-64v64zM64 832h64v-64h-64v64zM128 832h64v-64h-64v64zM192 832h64v-64h-64v64zM64 768h64v-64h-64v64zM128 768h64v-64h-64v64zM192 768h64v-64h-64v64z" />
<glyph unicode="(" horiz-adv-x="512" d="M192 1152h64v-64h-64v64zM256 1152h64v-64h-64v64zM320 1152h64v-64h-64v64zM128 1088h64v-64h-64v64zM192 1088h64v-64h-64v64zM256 1088h64v-64h-64v64zM320 1088h64v-64h-64v64zM64 1024h64v-64h-64v64zM128 1024h64v-64h-64v64zM192 1024h64v-64h-64v64zM256 1024h64 v-64h-64v64zM320 1024h64v-64h-64v64zM0 960h64v-64h-64v64zM64 960h64v-64h-64v64zM128 960h64v-64h-64v64zM192 960h64v-64h-64v64zM0 896h64v-64h-64v64zM64 896h64v-64h-64v64zM128 896h64v-64h-64v64zM0 832h64v-64h-64v64zM64 832h64v-64h-64v64zM128 832h64v-64h-64 v64zM0 768h64v-64h-64v64zM64 768h64v-64h-64v64zM128 768h64v-64h-64v64zM0 704h64v-64h-64v64zM64 704h64v-64h-64v64zM128 704h64v-64h-64v64zM0 640h64v-64h-64v64zM64 640h64v-64h-64v64zM128 640h64v-64h-64v64zM0 576h64v-64h-64v64zM64 576h64v-64h-64v64zM128 576 h64v-64h-64v64zM0 512h64v-64h-64v64zM64 512h64v-64h-64v64zM128 512h64v-64h-64v64zM0 448h64v-64h-64v64zM64 448h64v-64h-64v64zM128 448h64v-64h-64v64zM0 384h64v-64h-64v64zM64 384h64v-64h-64v64zM128 384h64v-64h-64v64zM0 320h64v-64h-64v64zM64 320h64v-64h-64 v64zM128 320h64v-64h-64v64zM0 256h64v-64h-64v64zM64 256h64v-64h-64v64zM128 256h64v-64h-64v64zM0 192h64v-64h-64v64zM64 192h64v-64h-64v64zM128 192h64v-64h-64v64zM192 192h64v-64h-64v64zM64 128h64v-64h-64v64zM128 128h64v-64h-64v64zM192 128h64v-64h-64v64z M256 128h64v-64h-64v64zM320 128h64v-64h-64v64zM128 64h64v-64h-64v64zM192 64h64v-64h-64v64zM256 64h64v-64h-64v64zM320 64h64v-64h-64v64zM192 0h64v-64h-64v64zM256 0h64v-64h-64v64zM320 0h64v-64h-64v64z" />
<glyph unicode=")" horiz-adv-x="512" d="M0 1152h64v-64h-64v64zM64 1152h64v-64h-64v64zM128 1152h64v-64h-64v64zM0 1088h64v-64h-64v64zM64 1088h64v-64h-64v64zM128 1088h64v-64h-64v64zM192 1088h64v-64h-64v64zM0 1024h64v-64h-64v64zM64 1024h64v-64h-64v64zM128 1024h64v-64h-64v64zM192 1024h64v-64h-64 v64zM256 1024h64v-64h-64v64zM128 960h64v-64h-64v64zM192 960h64v-64h-64v64zM256 960h64v-64h-64v64zM320 960h64v-64h-64v64zM192 896h64v-64h-64v64zM256 896h64v-64h-64v64zM320 896h64v-64h-64v64zM192 832h64v-64h-64v64zM256 832h64v-64h-64v64zM320 832h64v-64h-64 v64zM192 768h64v-64h-64v64zM256 768h64v-64h-64v64zM320 768h64v-64h-64v64zM192 704h64v-64h-64v64zM256 704h64v-64h-64v64zM320 704h64v-64h-64v64zM192 640h64v-64h-64v64zM256 640h64v-64h-64v64zM320 640h64v-64h-64v64zM192 576h64v-64h-64v64zM256 576h64v-64h-64 v64zM320 576h64v-64h-64v64zM192 512h64v-64h-64v64zM256 512h64v-64h-64v64zM320 512h64v-64h-64v64zM192 448h64v-64h-64v64zM256 448h64v-64h-64v64zM320 448h64v-64h-64v64zM192 384h64v-64h-64v64zM256 384h64v-64h-64v64zM320 384h64v-64h-64v64zM192 320h64v-64h-64 v64zM256 320h64v-64h-64v64zM320 320h64v-64h-64v64zM192 256h64v-64h-64v64zM256 256h64v-64h-64v64zM320 256h64v-64h-64v64zM128 192h64v-64h-64v64zM192 192h64v-64h-64v64zM256 192h64v-64h-64v64zM320 192h64v-64h-64v64zM0 128h64v-64h-64v64zM64 128h64v-64h-64v64z M128 128h64v-64h-64v64zM192 128h64v-64h-64v64zM256 128h64v-64h-64v64zM0 64h64v-64h-64v64zM64 64h64v-64h-64v64zM128 64h64v-64h-64v64zM192 64h64v-64h-64v64zM0 0h64v-64h-64v64zM64 0h64v-64h-64v64zM128 0h64v-64h-64v64z" />
<glyph unicode="*" horiz-adv-x="704" d="M192 1088h64v-64h-64v64zM256 1088h64v-64h-64v64zM320 1088h64v-64h-64v64zM192 1024h64v-64h-64v64zM256 1024h64v-64h-64v64zM320 1024h64v-64h-64v64zM0 960h64v-64h-64v64zM64 960h64v-64h-64v64zM128 960h64v-64h-64v64zM192 960h64v-64h-64v64zM256 960h64v-64 h-64v64zM320 960h64v-64h-64v64zM384 960h64v-64h-64v64zM448 960h64v-64h-64v64zM512 960h64v-64h-64v64zM0 896h64v-64h-64v64zM64 896h64v-64h-64v64zM128 896h64v-64h-64v64zM192 896h64v-64h-64v64zM256 896h64v-64h-64v64zM320 896h64v-64h-64v64zM384 896h64v-64h-64 v64zM448 896h64v-64h-64v64zM512 896h64v-64h-64v64zM0 832h64v-64h-64v64zM64 832h64v-64h-64v64zM128 832h64v-64h-64v64zM192 832h64v-64h-64v64zM256 832h64v-64h-64v64zM320 832h64v-64h-64v64zM384 832h64v-64h-64v64zM448 832h64v-64h-64v64zM512 832h64v-64h-64v64z M128 768h64v-64h-64v64zM192 768h64v-64h-64v64zM256 768h64v-64h-64v64zM320 768h64v-64h-64v64zM384 768h64v-64h-64v64zM64 704h64v-64h-64v64zM128 704h64v-64h-64v64zM192 704h64v-64h-64v64zM256 704h64v-64h-64v64zM320 704h64v-64h-64v64zM384 704h64v-64h-64v64z M448 704h64v-64h-64v64zM0 640h64v-64h-64v64zM64 640h64v-64h-64v64zM128 640h64v-64h-64v64zM192 640h64v-64h-64v64zM320 640h64v-64h-64v64zM384 640h64v-64h-64v64zM448 640h64v-64h-64v64zM512 640h64v-64h-64v64zM0 576h64v-64h-64v64zM64 576h64v-64h-64v64z M128 576h64v-64h-64v64zM384 576h64v-64h-64v64zM448 576h64v-64h-64v64zM512 576h64v-64h-64v64z" />
<glyph unicode="+" horiz-adv-x="704" d="M192 704h64v-64h-64v64zM256 704h64v-64h-64v64zM320 704h64v-64h-64v64zM192 640h64v-64h-64v64zM256 640h64v-64h-64v64zM320 640h64v-64h-64v64zM192 576h64v-64h-64v64zM256 576h64v-64h-64v64zM320 576h64v-64h-64v64zM0 512h64v-64h-64v64zM64 512h64v-64h-64v64z M128 512h64v-64h-64v64zM192 512h64v-64h-64v64zM256 512h64v-64h-64v64zM320 512h64v-64h-64v64zM384 512h64v-64h-64v64zM448 512h64v-64h-64v64zM512 512h64v-64h-64v64zM0 448h64v-64h-64v64zM64 448h64v-64h-64v64zM128 448h64v-64h-64v64zM192 448h64v-64h-64v64z M256 448h64v-64h-64v64zM320 448h64v-64h-64v64zM384 448h64v-64h-64v64zM448 448h64v-64h-64v64zM512 448h64v-64h-64v64zM0 384h64v-64h-64v64zM64 384h64v-64h-64v64zM128 384h64v-64h-64v64zM192 384h64v-64h-64v64zM256 384h64v-64h-64v64zM320 384h64v-64h-64v64z M384 384h64v-64h-64v64zM448 384h64v-64h-64v64zM512 384h64v-64h-64v64zM192 320h64v-64h-64v64zM256 320h64v-64h-64v64zM320 320h64v-64h-64v64zM192 256h64v-64h-64v64zM256 256h64v-64h-64v64zM320 256h64v-64h-64v64zM192 192h64v-64h-64v64zM256 192h64v-64h-64v64z M320 192h64v-64h-64v64z" />
<glyph unicode="," horiz-adv-x="384" d="M0 192h64v-64h-64v64zM64 192h64v-64h-64v64zM128 192h64v-64h-64v64zM192 192h64v-64h-64v64zM0 128h64v-64h-64v64zM64 128h64v-64h-64v64zM128 128h64v-64h-64v64zM192 128h64v-64h-64v64zM64 64h64v-64h-64v64zM128 64h64v-64h-64v64zM192 64h64v-64h-64v64zM64 0h64 v-64h-64v64zM128 0h64v-64h-64v64zM192 0h64v-64h-64v64zM0 -64h64v-64h-64v64zM64 -64h64v-64h-64v64zM128 -64h64v-64h-64v64zM0 -128h64v-64h-64v64zM64 -128h64v-64h-64v64z" />
<glyph unicode="-" horiz-adv-x="704" d="M0 512h64v-64h-64v64zM64 512h64v-64h-64v64zM128 512h64v-64h-64v64zM192 512h64v-64h-64v64zM256 512h64v-64h-64v64zM320 512h64v-64h-64v64zM384 512h64v-64h-64v64zM448 512h64v-64h-64v64zM512 512h64v-64h-64v64zM0 448h64v-64h-64v64zM64 448h64v-64h-64v64z M128 448h64v-64h-64v64zM192 448h64v-64h-64v64zM256 448h64v-64h-64v64zM320 448h64v-64h-64v64zM384 448h64v-64h-64v64zM448 448h64v-64h-64v64zM512 448h64v-64h-64v64zM0 384h64v-64h-64v64zM64 384h64v-64h-64v64zM128 384h64v-64h-64v64zM192 384h64v-64h-64v64z M256 384h64v-64h-64v64zM320 384h64v-64h-64v64zM384 384h64v-64h-64v64zM448 384h64v-64h-64v64zM512 384h64v-64h-64v64z" />
<glyph unicode="." horiz-adv-x="384" d="M64 192h64v-64h-64v64zM128 192h64v-64h-64v64zM192 192h64v-64h-64v64zM64 128h64v-64h-64v64zM128 128h64v-64h-64v64zM192 128h64v-64h-64v64zM64 64h64v-64h-64v64zM128 64h64v-64h-64v64zM192 64h64v-64h-64v64z" />
<glyph unicode="/" horiz-adv-x="768" d="M448 1024h64v-64h-64v64zM512 1024h64v-64h-64v64zM576 1024h64v-64h-64v64zM448 960h64v-64h-64v64zM512 960h64v-64h-64v64zM576 960h64v-64h-64v64zM384 896h64v-64h-64v64zM448 896h64v-64h-64v64zM512 896h64v-64h-64v64zM384 832h64v-64h-64v64zM448 832h64v-64 h-64v64zM512 832h64v-64h-64v64zM320 768h64v-64h-64v64zM384 768h64v-64h-64v64zM448 768h64v-64h-64v64zM320 704h64v-64h-64v64zM384 704h64v-64h-64v64zM448 704h64v-64h-64v64zM256 640h64v-64h-64v64zM320 640h64v-64h-64v64zM384 640h64v-64h-64v64zM256 576h64v-64 h-64v64zM320 576h64v-64h-64v64zM384 576h64v-64h-64v64zM192 512h64v-64h-64v64zM256 512h64v-64h-64v64zM320 512h64v-64h-64v64zM192 448h64v-64h-64v64zM256 448h64v-64h-64v64zM320 448h64v-64h-64v64zM128 384h64v-64h-64v64zM192 384h64v-64h-64v64zM256 384h64v-64 h-64v64zM128 320h64v-64h-64v64zM192 320h64v-64h-64v64zM256 320h64v-64h-64v64zM64 256h64v-64h-64v64zM128 256h64v-64h-64v64zM192 256h64v-64h-64v64zM64 192h64v-64h-64v64zM128 192h64v-64h-64v64zM192 192h64v-64h-64v64zM0 128h64v-64h-64v64zM64 128h64v-64h-64 v64zM128 128h64v-64h-64v64zM0 64h64v-64h-64v64zM64 64h64v-64h-64v64zM128 64h64v-64h-64v64z" />
<glyph unicode="0" d="M128 1088h64v-64h-64v64zM192 1088h64v-64h-64v64zM256 1088h64v-64h-64v64zM320 1088h64v-64h-64v64zM384 1088h64v-64h-64v64zM448 1088h64v-64h-64v64zM512 1088h64v-64h-64v64zM64 1024h64v-64h-64v64zM128 1024h64v-64h-64v64zM192 1024h64v-64h-64v64zM256 1024h64 v-64h-64v64zM320 1024h64v-64h-64v64zM384 1024h64v-64h-64v64zM448 1024h64v-64h-64v64zM512 1024h64v-64h-64v64zM576 1024h64v-64h-64v64zM0 960h64v-64h-64v64zM64 960h64v-64h-64v64zM128 960h64v-64h-64v64zM192 960h64v-64h-64v64zM256 960h64v-64h-64v64zM320 960 h64v-64h-64v64zM384 960h64v-64h-64v64zM448 960h64v-64h-64v64zM512 960h64v-64h-64v64zM576 960h64v-64h-64v64zM640 960h64v-64h-64v64zM0 896h64v-64h-64v64zM64 896h64v-64h-64v64zM128 896h64v-64h-64v64zM512 896h64v-64h-64v64zM576 896h64v-64h-64v64zM640 896h64 v-64h-64v64zM0 832h64v-64h-64v64zM64 832h64v-64h-64v64zM128 832h64v-64h-64v64zM512 832h64v-64h-64v64zM576 832h64v-64h-64v64zM640 832h64v-64h-64v64zM0 768h64v-64h-64v64zM64 768h64v-64h-64v64zM128 768h64v-64h-64v64zM448 768h64v-64h-64v64zM512 768h64v-64 h-64v64zM576 768h64v-64h-64v64zM640 768h64v-64h-64v64zM0 704h64v-64h-64v64zM64 704h64v-64h-64v64zM128 704h64v-64h-64v64zM384 704h64v-64h-64v64zM448 704h64v-64h-64v64zM512 704h64v-64h-64v64zM576 704h64v-64h-64v64zM640 704h64v-64h-64v64zM0 640h64v-64h-64 v64zM64 640h64v-64h-64v64zM128 640h64v-64h-64v64zM320 640h64v-64h-64v64zM384 640h64v-64h-64v64zM448 640h64v-64h-64v64zM512 640h64v-64h-64v64zM576 640h64v-64h-64v64zM640 640h64v-64h-64v64zM0 576h64v-64h-64v64zM64 576h64v-64h-64v64zM128 576h64v-64h-64v64z M256 576h64v-64h-64v64zM320 576h64v-64h-64v64zM384 576h64v-64h-64v64zM512 576h64v-64h-64v64zM576 576h64v-64h-64v64zM640 576h64v-64h-64v64zM0 512h64v-64h-64v64zM64 512h64v-64h-64v64zM128 512h64v-64h-64v64zM192 512h64v-64h-64v64zM256 512h64v-64h-64v64z M320 512h64v-64h-64v64zM512 512h64v-64h-64v64zM576 512h64v-64h-64v64zM640 512h64v-64h-64v64zM0 448h64v-64h-64v64zM64 448h64v-64h-64v64zM128 448h64v-64h-64v64zM192 448h64v-64h-64v64zM256 448h64v-64h-64v64zM512 448h64v-64h-64v64zM576 448h64v-64h-64v64z M640 448h64v-64h-64v64zM0 384h64v-64h-64v64zM64 384h64v-64h-64v64zM128 384h64v-64h-64v64zM192 384h64v-64h-64v64zM512 384h64v-64h-64v64zM576 384h64v-64h-64v64zM640 384h64v-64h-64v64zM0 320h64v-64h-64v64zM64 320h64v-64h-64v64zM128 320h64v-64h-64v64z M512 320h64v-64h-64v64zM576 320h64v-64h-64v64zM640 320h64v-64h-64v64zM0 256h64v-64h-64v64zM64 256h64v-64h-64v64zM128 256h64v-64h-64v64zM512 256h64v-64h-64v64zM576 256h64v-64h-64v64zM640 256h64v-64h-64v64zM0 192h64v-64h-64v64zM64 192h64v-64h-64v64z M128 192h64v-64h-64v64zM192 192h64v-64h-64v64zM256 192h64v-64h-64v64zM320 192h64v-64h-64v64zM384 192h64v-64h-64v64zM448 192h64v-64h-64v64zM512 192h64v-64h-64v64zM576 192h64v-64h-64v64zM640 192h64v-64h-64v64zM64 128h64v-64h-64v64zM128 128h64v-64h-64v64z M192 128h64v-64h-64v64zM256 128h64v-64h-64v64zM320 128h64v-64h-64v64zM384 128h64v-64h-64v64zM448 128h64v-64h-64v64zM512 128h64v-64h-64v64zM576 128h64v-64h-64v64zM128 64h64v-64h-64v64zM192 64h64v-64h-64v64zM256 64h64v-64h-64v64zM320 64h64v-64h-64v64z M384 64h64v-64h-64v64zM448 64h64v-64h-64v64zM512 64h64v-64h-64v64z" />
<glyph unicode="1" d="M256 1088h64v-64h-64v64zM320 1088h64v-64h-64v64zM384 1088h64v-64h-64v64zM256 1024h64v-64h-64v64zM320 1024h64v-64h-64v64zM384 1024h64v-64h-64v64zM64 960h64v-64h-64v64zM128 960h64v-64h-64v64zM192 960h64v-64h-64v64zM256 960h64v-64h-64v64zM320 960h64v-64 h-64v64zM384 960h64v-64h-64v64zM64 896h64v-64h-64v64zM128 896h64v-64h-64v64zM192 896h64v-64h-64v64zM256 896h64v-64h-64v64zM320 896h64v-64h-64v64zM384 896h64v-64h-64v64zM64 832h64v-64h-64v64zM128 832h64v-64h-64v64zM192 832h64v-64h-64v64zM256 832h64v-64 h-64v64zM320 832h64v-64h-64v64zM384 832h64v-64h-64v64zM256 768h64v-64h-64v64zM320 768h64v-64h-64v64zM384 768h64v-64h-64v64zM256 704h64v-64h-64v64zM320 704h64v-64h-64v64zM384 704h64v-64h-64v64zM256 640h64v-64h-64v64zM320 640h64v-64h-64v64zM384 640h64v-64 h-64v64zM256 576h64v-64h-64v64zM320 576h64v-64h-64v64zM384 576h64v-64h-64v64zM256 512h64v-64h-64v64zM320 512h64v-64h-64v64zM384 512h64v-64h-64v64zM256 448h64v-64h-64v64zM320 448h64v-64h-64v64zM384 448h64v-64h-64v64zM256 384h64v-64h-64v64zM320 384h64v-64 h-64v64zM384 384h64v-64h-64v64zM256 320h64v-64h-64v64zM320 320h64v-64h-64v64zM384 320h64v-64h-64v64zM256 256h64v-64h-64v64zM320 256h64v-64h-64v64zM384 256h64v-64h-64v64zM0 192h64v-64h-64v64zM64 192h64v-64h-64v64zM128 192h64v-64h-64v64zM192 192h64v-64h-64 v64zM256 192h64v-64h-64v64zM320 192h64v-64h-64v64zM384 192h64v-64h-64v64zM448 192h64v-64h-64v64zM512 192h64v-64h-64v64zM576 192h64v-64h-64v64zM640 192h64v-64h-64v64zM0 128h64v-64h-64v64zM64 128h64v-64h-64v64zM128 128h64v-64h-64v64zM192 128h64v-64h-64v64z M256 128h64v-64h-64v64zM320 128h64v-64h-64v64zM384 128h64v-64h-64v64zM448 128h64v-64h-64v64zM512 128h64v-64h-64v64zM576 128h64v-64h-64v64zM640 128h64v-64h-64v64zM0 64h64v-64h-64v64zM64 64h64v-64h-64v64zM128 64h64v-64h-64v64zM192 64h64v-64h-64v64zM256 64 h64v-64h-64v64zM320 64h64v-64h-64v64zM384 64h64v-64h-64v64zM448 64h64v-64h-64v64zM512 64h64v-64h-64v64zM576 64h64v-64h-64v64zM640 64h64v-64h-64v64z" />
<glyph unicode="2" d="M0 1088h64v-64h-64v64zM64 1088h64v-64h-64v64zM128 1088h64v-64h-64v64zM192 1088h64v-64h-64v64zM256 1088h64v-64h-64v64zM320 1088h64v-64h-64v64zM384 1088h64v-64h-64v64zM448 1088h64v-64h-64v64zM512 1088h64v-64h-64v64zM0 1024h64v-64h-64v64zM64 1024h64v-64 h-64v64zM128 1024h64v-64h-64v64zM192 1024h64v-64h-64v64zM256 1024h64v-64h-64v64zM320 1024h64v-64h-64v64zM384 1024h64v-64h-64v64zM448 1024h64v-64h-64v64zM512 1024h64v-64h-64v64zM576 1024h64v-64h-64v64zM0 960h64v-64h-64v64zM64 960h64v-64h-64v64zM128 960h64 v-64h-64v64zM192 960h64v-64h-64v64zM256 960h64v-64h-64v64zM320 960h64v-64h-64v64zM384 960h64v-64h-64v64zM448 960h64v-64h-64v64zM512 960h64v-64h-64v64zM576 960h64v-64h-64v64zM640 960h64v-64h-64v64zM512 896h64v-64h-64v64zM576 896h64v-64h-64v64zM640 896h64 v-64h-64v64zM512 832h64v-64h-64v64zM576 832h64v-64h-64v64zM640 832h64v-64h-64v64zM512 768h64v-64h-64v64zM576 768h64v-64h-64v64zM640 768h64v-64h-64v64zM512 704h64v-64h-64v64zM576 704h64v-64h-64v64zM640 704h64v-64h-64v64zM128 640h64v-64h-64v64zM192 640h64 v-64h-64v64zM256 640h64v-64h-64v64zM320 640h64v-64h-64v64zM384 640h64v-64h-64v64zM448 640h64v-64h-64v64zM512 640h64v-64h-64v64zM576 640h64v-64h-64v64zM640 640h64v-64h-64v64zM64 576h64v-64h-64v64zM128 576h64v-64h-64v64zM192 576h64v-64h-64v64zM256 576h64 v-64h-64v64zM320 576h64v-64h-64v64zM384 576h64v-64h-64v64zM448 576h64v-64h-64v64zM512 576h64v-64h-64v64zM576 576h64v-64h-64v64zM0 512h64v-64h-64v64zM64 512h64v-64h-64v64zM128 512h64v-64h-64v64zM192 512h64v-64h-64v64zM256 512h64v-64h-64v64zM320 512h64v-64 h-64v64zM384 512h64v-64h-64v64zM448 512h64v-64h-64v64zM512 512h64v-64h-64v64zM0 448h64v-64h-64v64zM64 448h64v-64h-64v64zM128 448h64v-64h-64v64zM0 384h64v-64h-64v64zM64 384h64v-64h-64v64zM128 384h64v-64h-64v64zM0 320h64v-64h-64v64zM64 320h64v-64h-64v64z M128 320h64v-64h-64v64zM0 256h64v-64h-64v64zM64 256h64v-64h-64v64zM128 256h64v-64h-64v64zM0 192h64v-64h-64v64zM64 192h64v-64h-64v64zM128 192h64v-64h-64v64zM192 192h64v-64h-64v64zM256 192h64v-64h-64v64zM320 192h64v-64h-64v64zM384 192h64v-64h-64v64z M448 192h64v-64h-64v64zM512 192h64v-64h-64v64zM576 192h64v-64h-64v64zM640 192h64v-64h-64v64zM0 128h64v-64h-64v64zM64 128h64v-64h-64v64zM128 128h64v-64h-64v64zM192 128h64v-64h-64v64zM256 128h64v-64h-64v64zM320 128h64v-64h-64v64zM384 128h64v-64h-64v64z M448 128h64v-64h-64v64zM512 128h64v-64h-64v64zM576 128h64v-64h-64v64zM640 128h64v-64h-64v64zM0 64h64v-64h-64v64zM64 64h64v-64h-64v64zM128 64h64v-64h-64v64zM192 64h64v-64h-64v64zM256 64h64v-64h-64v64zM320 64h64v-64h-64v64zM384 64h64v-64h-64v64zM448 64h64 v-64h-64v64zM512 64h64v-64h-64v64zM576 64h64v-64h-64v64zM640 64h64v-64h-64v64z" />
<glyph unicode="3" d="M0 1088h64v-64h-64v64zM64 1088h64v-64h-64v64zM128 1088h64v-64h-64v64zM192 1088h64v-64h-64v64zM256 1088h64v-64h-64v64zM320 1088h64v-64h-64v64zM384 1088h64v-64h-64v64zM448 1088h64v-64h-64v64zM512 1088h64v-64h-64v64zM0 1024h64v-64h-64v64zM64 1024h64v-64 h-64v64zM128 1024h64v-64h-64v64zM192 1024h64v-64h-64v64zM256 1024h64v-64h-64v64zM320 1024h64v-64h-64v64zM384 1024h64v-64h-64v64zM448 1024h64v-64h-64v64zM512 1024h64v-64h-64v64zM576 1024h64v-64h-64v64zM0 960h64v-64h-64v64zM64 960h64v-64h-64v64zM128 960h64 v-64h-64v64zM192 960h64v-64h-64v64zM256 960h64v-64h-64v64zM320 960h64v-64h-64v64zM384 960h64v-64h-64v64zM448 960h64v-64h-64v64zM512 960h64v-64h-64v64zM576 960h64v-64h-64v64zM640 960h64v-64h-64v64zM512 896h64v-64h-64v64zM576 896h64v-64h-64v64zM640 896h64 v-64h-64v64zM512 832h64v-64h-64v64zM576 832h64v-64h-64v64zM640 832h64v-64h-64v64zM512 768h64v-64h-64v64zM576 768h64v-64h-64v64zM640 768h64v-64h-64v64zM512 704h64v-64h-64v64zM576 704h64v-64h-64v64zM640 704h64v-64h-64v64zM128 640h64v-64h-64v64zM192 640h64 v-64h-64v64zM256 640h64v-64h-64v64zM320 640h64v-64h-64v64zM384 640h64v-64h-64v64zM448 640h64v-64h-64v64zM512 640h64v-64h-64v64zM576 640h64v-64h-64v64zM640 640h64v-64h-64v64zM128 576h64v-64h-64v64zM192 576h64v-64h-64v64zM256 576h64v-64h-64v64zM320 576h64 v-64h-64v64zM384 576h64v-64h-64v64zM448 576h64v-64h-64v64zM512 576h64v-64h-64v64zM576 576h64v-64h-64v64zM128 512h64v-64h-64v64zM192 512h64v-64h-64v64zM256 512h64v-64h-64v64zM320 512h64v-64h-64v64zM384 512h64v-64h-64v64zM448 512h64v-64h-64v64zM512 512h64 v-64h-64v64zM576 512h64v-64h-64v64zM512 448h64v-64h-64v64zM576 448h64v-64h-64v64zM640 448h64v-64h-64v64zM512 384h64v-64h-64v64zM576 384h64v-64h-64v64zM640 384h64v-64h-64v64zM512 320h64v-64h-64v64zM576 320h64v-64h-64v64zM640 320h64v-64h-64v64zM512 256h64 v-64h-64v64zM576 256h64v-64h-64v64zM640 256h64v-64h-64v64zM0 192h64v-64h-64v64zM64 192h64v-64h-64v64zM128 192h64v-64h-64v64zM192 192h64v-64h-64v64zM256 192h64v-64h-64v64zM320 192h64v-64h-64v64zM384 192h64v-64h-64v64zM448 192h64v-64h-64v64zM512 192h64v-64 h-64v64zM576 192h64v-64h-64v64zM640 192h64v-64h-64v64zM0 128h64v-64h-64v64zM64 128h64v-64h-64v64zM128 128h64v-64h-64v64zM192 128h64v-64h-64v64zM256 128h64v-64h-64v64zM320 128h64v-64h-64v64zM384 128h64v-64h-64v64zM448 128h64v-64h-64v64zM512 128h64v-64h-64 v64zM576 128h64v-64h-64v64zM0 64h64v-64h-64v64zM64 64h64v-64h-64v64zM128 64h64v-64h-64v64zM192 64h64v-64h-64v64zM256 64h64v-64h-64v64zM320 64h64v-64h-64v64zM384 64h64v-64h-64v64zM448 64h64v-64h-64v64zM512 64h64v-64h-64v64z" />
<glyph unicode="4" d="M0 1088h64v-64h-64v64zM64 1088h64v-64h-64v64zM128 1088h64v-64h-64v64zM512 1088h64v-64h-64v64zM576 1088h64v-64h-64v64zM640 1088h64v-64h-64v64zM0 1024h64v-64h-64v64zM64 1024h64v-64h-64v64zM128 1024h64v-64h-64v64zM512 1024h64v-64h-64v64zM576 1024h64v-64 h-64v64zM640 1024h64v-64h-64v64zM0 960h64v-64h-64v64zM64 960h64v-64h-64v64zM128 960h64v-64h-64v64zM512 960h64v-64h-64v64zM576 960h64v-64h-64v64zM640 960h64v-64h-64v64zM0 896h64v-64h-64v64zM64 896h64v-64h-64v64zM128 896h64v-64h-64v64zM512 896h64v-64h-64 v64zM576 896h64v-64h-64v64zM640 896h64v-64h-64v64zM0 832h64v-64h-64v64zM64 832h64v-64h-64v64zM128 832h64v-64h-64v64zM512 832h64v-64h-64v64zM576 832h64v-64h-64v64zM640 832h64v-64h-64v64zM0 768h64v-64h-64v64zM64 768h64v-64h-64v64zM128 768h64v-64h-64v64z M512 768h64v-64h-64v64zM576 768h64v-64h-64v64zM640 768h64v-64h-64v64zM0 704h64v-64h-64v64zM64 704h64v-64h-64v64zM128 704h64v-64h-64v64zM512 704h64v-64h-64v64zM576 704h64v-64h-64v64zM640 704h64v-64h-64v64zM0 640h64v-64h-64v64zM64 640h64v-64h-64v64z M128 640h64v-64h-64v64zM192 640h64v-64h-64v64zM256 640h64v-64h-64v64zM320 640h64v-64h-64v64zM384 640h64v-64h-64v64zM448 640h64v-64h-64v64zM512 640h64v-64h-64v64zM576 640h64v-64h-64v64zM640 640h64v-64h-64v64zM0 576h64v-64h-64v64zM64 576h64v-64h-64v64z M128 576h64v-64h-64v64zM192 576h64v-64h-64v64zM256 576h64v-64h-64v64zM320 576h64v-64h-64v64zM384 576h64v-64h-64v64zM448 576h64v-64h-64v64zM512 576h64v-64h-64v64zM576 576h64v-64h-64v64zM640 576h64v-64h-64v64zM64 512h64v-64h-64v64zM128 512h64v-64h-64v64z M192 512h64v-64h-64v64zM256 512h64v-64h-64v64zM320 512h64v-64h-64v64zM384 512h64v-64h-64v64zM448 512h64v-64h-64v64zM512 512h64v-64h-64v64zM576 512h64v-64h-64v64zM640 512h64v-64h-64v64zM512 448h64v-64h-64v64zM576 448h64v-64h-64v64zM640 448h64v-64h-64v64z M512 384h64v-64h-64v64zM576 384h64v-64h-64v64zM640 384h64v-64h-64v64zM512 320h64v-64h-64v64zM576 320h64v-64h-64v64zM640 320h64v-64h-64v64zM512 256h64v-64h-64v64zM576 256h64v-64h-64v64zM640 256h64v-64h-64v64zM512 192h64v-64h-64v64zM576 192h64v-64h-64v64z M640 192h64v-64h-64v64zM512 128h64v-64h-64v64zM576 128h64v-64h-64v64zM640 128h64v-64h-64v64zM512 64h64v-64h-64v64zM576 64h64v-64h-64v64zM640 64h64v-64h-64v64z" />
<glyph unicode="5" d="M0 1088h64v-64h-64v64zM64 1088h64v-64h-64v64zM128 1088h64v-64h-64v64zM192 1088h64v-64h-64v64zM256 1088h64v-64h-64v64zM320 1088h64v-64h-64v64zM384 1088h64v-64h-64v64zM448 1088h64v-64h-64v64zM512 1088h64v-64h-64v64zM576 1088h64v-64h-64v64zM640 1088h64 v-64h-64v64zM0 1024h64v-64h-64v64zM64 1024h64v-64h-64v64zM128 1024h64v-64h-64v64zM192 1024h64v-64h-64v64zM256 1024h64v-64h-64v64zM320 1024h64v-64h-64v64zM384 1024h64v-64h-64v64zM448 1024h64v-64h-64v64zM512 1024h64v-64h-64v64zM576 1024h64v-64h-64v64z M640 1024h64v-64h-64v64zM0 960h64v-64h-64v64zM64 960h64v-64h-64v64zM128 960h64v-64h-64v64zM192 960h64v-64h-64v64zM256 960h64v-64h-64v64zM320 960h64v-64h-64v64zM384 960h64v-64h-64v64zM448 960h64v-64h-64v64zM512 960h64v-64h-64v64zM576 960h64v-64h-64v64z M640 960h64v-64h-64v64zM0 896h64v-64h-64v64zM64 896h64v-64h-64v64zM128 896h64v-64h-64v64zM0 832h64v-64h-64v64zM64 832h64v-64h-64v64zM128 832h64v-64h-64v64zM0 768h64v-64h-64v64zM64 768h64v-64h-64v64zM128 768h64v-64h-64v64zM0 704h64v-64h-64v64zM64 704h64 v-64h-64v64zM128 704h64v-64h-64v64zM0 640h64v-64h-64v64zM64 640h64v-64h-64v64zM128 640h64v-64h-64v64zM192 640h64v-64h-64v64zM256 640h64v-64h-64v64zM320 640h64v-64h-64v64zM384 640h64v-64h-64v64zM448 640h64v-64h-64v64zM512 640h64v-64h-64v64zM0 576h64v-64 h-64v64zM64 576h64v-64h-64v64zM128 576h64v-64h-64v64zM192 576h64v-64h-64v64zM256 576h64v-64h-64v64zM320 576h64v-64h-64v64zM384 576h64v-64h-64v64zM448 576h64v-64h-64v64zM512 576h64v-64h-64v64zM576 576h64v-64h-64v64zM0 512h64v-64h-64v64zM64 512h64v-64h-64 v64zM128 512h64v-64h-64v64zM192 512h64v-64h-64v64zM256 512h64v-64h-64v64zM320 512h64v-64h-64v64zM384 512h64v-64h-64v64zM448 512h64v-64h-64v64zM512 512h64v-64h-64v64zM576 512h64v-64h-64v64zM640 512h64v-64h-64v64zM512 448h64v-64h-64v64zM576 448h64v-64h-64 v64zM640 448h64v-64h-64v64zM512 384h64v-64h-64v64zM576 384h64v-64h-64v64zM640 384h64v-64h-64v64zM512 320h64v-64h-64v64zM576 320h64v-64h-64v64zM640 320h64v-64h-64v64zM512 256h64v-64h-64v64zM576 256h64v-64h-64v64zM640 256h64v-64h-64v64zM0 192h64v-64h-64v64 zM64 192h64v-64h-64v64zM128 192h64v-64h-64v64zM192 192h64v-64h-64v64zM256 192h64v-64h-64v64zM320 192h64v-64h-64v64zM384 192h64v-64h-64v64zM448 192h64v-64h-64v64zM512 192h64v-64h-64v64zM576 192h64v-64h-64v64zM640 192h64v-64h-64v64zM0 128h64v-64h-64v64z M64 128h64v-64h-64v64zM128 128h64v-64h-64v64zM192 128h64v-64h-64v64zM256 128h64v-64h-64v64zM320 128h64v-64h-64v64zM384 128h64v-64h-64v64zM448 128h64v-64h-64v64zM512 128h64v-64h-64v64zM576 128h64v-64h-64v64zM0 64h64v-64h-64v64zM64 64h64v-64h-64v64zM128 64 h64v-64h-64v64zM192 64h64v-64h-64v64zM256 64h64v-64h-64v64zM320 64h64v-64h-64v64zM384 64h64v-64h-64v64zM448 64h64v-64h-64v64zM512 64h64v-64h-64v64z" />
<glyph unicode="6" d="M128 1088h64v-64h-64v64zM192 1088h64v-64h-64v64zM256 1088h64v-64h-64v64zM320 1088h64v-64h-64v64zM384 1088h64v-64h-64v64zM448 1088h64v-64h-64v64zM512 1088h64v-64h-64v64zM576 1088h64v-64h-64v64zM64 1024h64v-64h-64v64zM128 1024h64v-64h-64v64zM192 1024h64 v-64h-64v64zM256 1024h64v-64h-64v64zM320 1024h64v-64h-64v64zM384 1024h64v-64h-64v64zM448 1024h64v-64h-64v64zM512 1024h64v-64h-64v64zM576 1024h64v-64h-64v64zM0 960h64v-64h-64v64zM64 960h64v-64h-64v64zM128 960h64v-64h-64v64zM192 960h64v-64h-64v64zM256 960 h64v-64h-64v64zM320 960h64v-64h-64v64zM384 960h64v-64h-64v64zM448 960h64v-64h-64v64zM512 960h64v-64h-64v64zM576 960h64v-64h-64v64zM0 896h64v-64h-64v64zM64 896h64v-64h-64v64zM128 896h64v-64h-64v64zM0 832h64v-64h-64v64zM64 832h64v-64h-64v64zM128 832h64v-64 h-64v64zM0 768h64v-64h-64v64zM64 768h64v-64h-64v64zM128 768h64v-64h-64v64zM0 704h64v-64h-64v64zM64 704h64v-64h-64v64zM128 704h64v-64h-64v64zM0 640h64v-64h-64v64zM64 640h64v-64h-64v64zM128 640h64v-64h-64v64zM192 640h64v-64h-64v64zM256 640h64v-64h-64v64z M320 640h64v-64h-64v64zM384 640h64v-64h-64v64zM448 640h64v-64h-64v64zM512 640h64v-64h-64v64zM0 576h64v-64h-64v64zM64 576h64v-64h-64v64zM128 576h64v-64h-64v64zM192 576h64v-64h-64v64zM256 576h64v-64h-64v64zM320 576h64v-64h-64v64zM384 576h64v-64h-64v64z M448 576h64v-64h-64v64zM512 576h64v-64h-64v64zM576 576h64v-64h-64v64zM0 512h64v-64h-64v64zM64 512h64v-64h-64v64zM128 512h64v-64h-64v64zM192 512h64v-64h-64v64zM256 512h64v-64h-64v64zM320 512h64v-64h-64v64zM384 512h64v-64h-64v64zM448 512h64v-64h-64v64z M512 512h64v-64h-64v64zM576 512h64v-64h-64v64zM640 512h64v-64h-64v64zM0 448h64v-64h-64v64zM64 448h64v-64h-64v64zM128 448h64v-64h-64v64zM512 448h64v-64h-64v64zM576 448h64v-64h-64v64zM640 448h64v-64h-64v64zM0 384h64v-64h-64v64zM64 384h64v-64h-64v64z M128 384h64v-64h-64v64zM512 384h64v-64h-64v64zM576 384h64v-64h-64v64zM640 384h64v-64h-64v64zM0 320h64v-64h-64v64zM64 320h64v-64h-64v64zM128 320h64v-64h-64v64zM512 320h64v-64h-64v64zM576 320h64v-64h-64v64zM640 320h64v-64h-64v64zM0 256h64v-64h-64v64z M64 256h64v-64h-64v64zM128 256h64v-64h-64v64zM512 256h64v-64h-64v64zM576 256h64v-64h-64v64zM640 256h64v-64h-64v64zM0 192h64v-64h-64v64zM64 192h64v-64h-64v64zM128 192h64v-64h-64v64zM192 192h64v-64h-64v64zM256 192h64v-64h-64v64zM320 192h64v-64h-64v64z M384 192h64v-64h-64v64zM448 192h64v-64h-64v64zM512 192h64v-64h-64v64zM576 192h64v-64h-64v64zM640 192h64v-64h-64v64zM64 128h64v-64h-64v64zM128 128h64v-64h-64v64zM192 128h64v-64h-64v64zM256 128h64v-64h-64v64zM320 128h64v-64h-64v64zM384 128h64v-64h-64v64z M448 128h64v-64h-64v64zM512 128h64v-64h-64v64zM576 128h64v-64h-64v64zM128 64h64v-64h-64v64zM192 64h64v-64h-64v64zM256 64h64v-64h-64v64zM320 64h64v-64h-64v64zM384 64h64v-64h-64v64zM448 64h64v-64h-64v64zM512 64h64v-64h-64v64z" />
<glyph unicode="7" d="M0 1088h64v-64h-64v64zM64 1088h64v-64h-64v64zM128 1088h64v-64h-64v64zM192 1088h64v-64h-64v64zM256 1088h64v-64h-64v64zM320 1088h64v-64h-64v64zM384 1088h64v-64h-64v64zM448 1088h64v-64h-64v64zM512 1088h64v-64h-64v64zM576 1088h64v-64h-64v64zM640 1088h64 v-64h-64v64zM0 1024h64v-64h-64v64zM64 1024h64v-64h-64v64zM128 1024h64v-64h-64v64zM192 1024h64v-64h-64v64zM256 1024h64v-64h-64v64zM320 1024h64v-64h-64v64zM384 1024h64v-64h-64v64zM448 1024h64v-64h-64v64zM512 1024h64v-64h-64v64zM576 1024h64v-64h-64v64z M640 1024h64v-64h-64v64zM0 960h64v-64h-64v64zM64 960h64v-64h-64v64zM128 960h64v-64h-64v64zM192 960h64v-64h-64v64zM256 960h64v-64h-64v64zM320 960h64v-64h-64v64zM384 960h64v-64h-64v64zM448 960h64v-64h-64v64zM512 960h64v-64h-64v64zM576 960h64v-64h-64v64z M640 960h64v-64h-64v64zM512 896h64v-64h-64v64zM576 896h64v-64h-64v64zM640 896h64v-64h-64v64zM512 832h64v-64h-64v64zM576 832h64v-64h-64v64zM640 832h64v-64h-64v64zM448 768h64v-64h-64v64zM512 768h64v-64h-64v64zM576 768h64v-64h-64v64zM640 768h64v-64h-64v64z M384 704h64v-64h-64v64zM448 704h64v-64h-64v64zM512 704h64v-64h-64v64zM576 704h64v-64h-64v64zM320 640h64v-64h-64v64zM384 640h64v-64h-64v64zM448 640h64v-64h-64v64zM512 640h64v-64h-64v64zM256 576h64v-64h-64v64zM320 576h64v-64h-64v64zM384 576h64v-64h-64v64z M448 576h64v-64h-64v64zM192 512h64v-64h-64v64zM256 512h64v-64h-64v64zM320 512h64v-64h-64v64zM384 512h64v-64h-64v64zM192 448h64v-64h-64v64zM256 448h64v-64h-64v64zM320 448h64v-64h-64v64zM192 384h64v-64h-64v64zM256 384h64v-64h-64v64zM320 384h64v-64h-64v64z M192 320h64v-64h-64v64zM256 320h64v-64h-64v64zM320 320h64v-64h-64v64zM192 256h64v-64h-64v64zM256 256h64v-64h-64v64zM320 256h64v-64h-64v64zM192 192h64v-64h-64v64zM256 192h64v-64h-64v64zM320 192h64v-64h-64v64zM192 128h64v-64h-64v64zM256 128h64v-64h-64v64z M320 128h64v-64h-64v64zM192 64h64v-64h-64v64zM256 64h64v-64h-64v64zM320 64h64v-64h-64v64z" />
<glyph unicode="8" d="M128 1088h64v-64h-64v64zM192 1088h64v-64h-64v64zM256 1088h64v-64h-64v64zM320 1088h64v-64h-64v64zM384 1088h64v-64h-64v64zM448 1088h64v-64h-64v64zM512 1088h64v-64h-64v64zM64 1024h64v-64h-64v64zM128 1024h64v-64h-64v64zM192 1024h64v-64h-64v64zM256 1024h64 v-64h-64v64zM320 1024h64v-64h-64v64zM384 1024h64v-64h-64v64zM448 1024h64v-64h-64v64zM512 1024h64v-64h-64v64zM576 1024h64v-64h-64v64zM0 960h64v-64h-64v64zM64 960h64v-64h-64v64zM128 960h64v-64h-64v64zM192 960h64v-64h-64v64zM256 960h64v-64h-64v64zM320 960 h64v-64h-64v64zM384 960h64v-64h-64v64zM448 960h64v-64h-64v64zM512 960h64v-64h-64v64zM576 960h64v-64h-64v64zM640 960h64v-64h-64v64zM0 896h64v-64h-64v64zM64 896h64v-64h-64v64zM128 896h64v-64h-64v64zM512 896h64v-64h-64v64zM576 896h64v-64h-64v64zM640 896h64 v-64h-64v64zM0 832h64v-64h-64v64zM64 832h64v-64h-64v64zM128 832h64v-64h-64v64zM512 832h64v-64h-64v64zM576 832h64v-64h-64v64zM640 832h64v-64h-64v64zM0 768h64v-64h-64v64zM64 768h64v-64h-64v64zM128 768h64v-64h-64v64zM512 768h64v-64h-64v64zM576 768h64v-64 h-64v64zM640 768h64v-64h-64v64zM0 704h64v-64h-64v64zM64 704h64v-64h-64v64zM128 704h64v-64h-64v64zM512 704h64v-64h-64v64zM576 704h64v-64h-64v64zM640 704h64v-64h-64v64zM0 640h64v-64h-64v64zM64 640h64v-64h-64v64zM128 640h64v-64h-64v64zM192 640h64v-64h-64v64 zM256 640h64v-64h-64v64zM320 640h64v-64h-64v64zM384 640h64v-64h-64v64zM448 640h64v-64h-64v64zM512 640h64v-64h-64v64zM576 640h64v-64h-64v64zM640 640h64v-64h-64v64zM64 576h64v-64h-64v64zM128 576h64v-64h-64v64zM192 576h64v-64h-64v64zM256 576h64v-64h-64v64z M320 576h64v-64h-64v64zM384 576h64v-64h-64v64zM448 576h64v-64h-64v64zM512 576h64v-64h-64v64zM576 576h64v-64h-64v64zM64 512h64v-64h-64v64zM128 512h64v-64h-64v64zM192 512h64v-64h-64v64zM256 512h64v-64h-64v64zM320 512h64v-64h-64v64zM384 512h64v-64h-64v64z M448 512h64v-64h-64v64zM512 512h64v-64h-64v64zM576 512h64v-64h-64v64zM0 448h64v-64h-64v64zM64 448h64v-64h-64v64zM128 448h64v-64h-64v64zM512 448h64v-64h-64v64zM576 448h64v-64h-64v64zM640 448h64v-64h-64v64zM0 384h64v-64h-64v64zM64 384h64v-64h-64v64z M128 384h64v-64h-64v64zM512 384h64v-64h-64v64zM576 384h64v-64h-64v64zM640 384h64v-64h-64v64zM0 320h64v-64h-64v64zM64 320h64v-64h-64v64zM128 320h64v-64h-64v64zM512 320h64v-64h-64v64zM576 320h64v-64h-64v64zM640 320h64v-64h-64v64zM0 256h64v-64h-64v64z M64 256h64v-64h-64v64zM128 256h64v-64h-64v64zM512 256h64v-64h-64v64zM576 256h64v-64h-64v64zM640 256h64v-64h-64v64zM0 192h64v-64h-64v64zM64 192h64v-64h-64v64zM128 192h64v-64h-64v64zM192 192h64v-64h-64v64zM256 192h64v-64h-64v64zM320 192h64v-64h-64v64z M384 192h64v-64h-64v64zM448 192h64v-64h-64v64zM512 192h64v-64h-64v64zM576 192h64v-64h-64v64zM640 192h64v-64h-64v64zM64 128h64v-64h-64v64zM128 128h64v-64h-64v64zM192 128h64v-64h-64v64zM256 128h64v-64h-64v64zM320 128h64v-64h-64v64zM384 128h64v-64h-64v64z M448 128h64v-64h-64v64zM512 128h64v-64h-64v64zM576 128h64v-64h-64v64zM128 64h64v-64h-64v64zM192 64h64v-64h-64v64zM256 64h64v-64h-64v64zM320 64h64v-64h-64v64zM384 64h64v-64h-64v64zM448 64h64v-64h-64v64zM512 64h64v-64h-64v64z" />
<glyph unicode="9" d="M128 1088h64v-64h-64v64zM192 1088h64v-64h-64v64zM256 1088h64v-64h-64v64zM320 1088h64v-64h-64v64zM384 1088h64v-64h-64v64zM448 1088h64v-64h-64v64zM512 1088h64v-64h-64v64zM64 1024h64v-64h-64v64zM128 1024h64v-64h-64v64zM192 1024h64v-64h-64v64zM256 1024h64 v-64h-64v64zM320 1024h64v-64h-64v64zM384 1024h64v-64h-64v64zM448 1024h64v-64h-64v64zM512 1024h64v-64h-64v64zM576 1024h64v-64h-64v64zM0 960h64v-64h-64v64zM64 960h64v-64h-64v64zM128 960h64v-64h-64v64zM192 960h64v-64h-64v64zM256 960h64v-64h-64v64zM320 960 h64v-64h-64v64zM384 960h64v-64h-64v64zM448 960h64v-64h-64v64zM512 960h64v-64h-64v64zM576 960h64v-64h-64v64zM640 960h64v-64h-64v64zM0 896h64v-64h-64v64zM64 896h64v-64h-64v64zM128 896h64v-64h-64v64zM512 896h64v-64h-64v64zM576 896h64v-64h-64v64zM640 896h64 v-64h-64v64zM0 832h64v-64h-64v64zM64 832h64v-64h-64v64zM128 832h64v-64h-64v64zM512 832h64v-64h-64v64zM576 832h64v-64h-64v64zM640 832h64v-64h-64v64zM0 768h64v-64h-64v64zM64 768h64v-64h-64v64zM128 768h64v-64h-64v64zM512 768h64v-64h-64v64zM576 768h64v-64 h-64v64zM640 768h64v-64h-64v64zM0 704h64v-64h-64v64zM64 704h64v-64h-64v64zM128 704h64v-64h-64v64zM512 704h64v-64h-64v64zM576 704h64v-64h-64v64zM640 704h64v-64h-64v64zM0 640h64v-64h-64v64zM64 640h64v-64h-64v64zM128 640h64v-64h-64v64zM192 640h64v-64h-64v64 zM256 640h64v-64h-64v64zM320 640h64v-64h-64v64zM384 640h64v-64h-64v64zM448 640h64v-64h-64v64zM512 640h64v-64h-64v64zM576 640h64v-64h-64v64zM640 640h64v-64h-64v64zM64 576h64v-64h-64v64zM128 576h64v-64h-64v64zM192 576h64v-64h-64v64zM256 576h64v-64h-64v64z M320 576h64v-64h-64v64zM384 576h64v-64h-64v64zM448 576h64v-64h-64v64zM512 576h64v-64h-64v64zM576 576h64v-64h-64v64zM640 576h64v-64h-64v64zM128 512h64v-64h-64v64zM192 512h64v-64h-64v64zM256 512h64v-64h-64v64zM320 512h64v-64h-64v64zM384 512h64v-64h-64v64z M448 512h64v-64h-64v64zM512 512h64v-64h-64v64zM576 512h64v-64h-64v64zM640 512h64v-64h-64v64zM512 448h64v-64h-64v64zM576 448h64v-64h-64v64zM640 448h64v-64h-64v64zM512 384h64v-64h-64v64zM576 384h64v-64h-64v64zM640 384h64v-64h-64v64zM512 320h64v-64h-64v64z M576 320h64v-64h-64v64zM640 320h64v-64h-64v64zM512 256h64v-64h-64v64zM576 256h64v-64h-64v64zM640 256h64v-64h-64v64zM64 192h64v-64h-64v64zM128 192h64v-64h-64v64zM192 192h64v-64h-64v64zM256 192h64v-64h-64v64zM320 192h64v-64h-64v64zM384 192h64v-64h-64v64z M448 192h64v-64h-64v64zM512 192h64v-64h-64v64zM576 192h64v-64h-64v64zM640 192h64v-64h-64v64zM64 128h64v-64h-64v64zM128 128h64v-64h-64v64zM192 128h64v-64h-64v64zM256 128h64v-64h-64v64zM320 128h64v-64h-64v64zM384 128h64v-64h-64v64zM448 128h64v-64h-64v64z M512 128h64v-64h-64v64zM576 128h64v-64h-64v64zM64 64h64v-64h-64v64zM128 64h64v-64h-64v64zM192 64h64v-64h-64v64zM256 64h64v-64h-64v64zM320 64h64v-64h-64v64zM384 64h64v-64h-64v64zM448 64h64v-64h-64v64zM512 64h64v-64h-64v64z" />
<glyph unicode=":" horiz-adv-x="384" d="M64 768h64v-64h-64v64zM128 768h64v-64h-64v64zM192 768h64v-64h-64v64zM64 704h64v-64h-64v64zM128 704h64v-64h-64v64zM192 704h64v-64h-64v64zM64 640h64v-64h-64v64zM128 640h64v-64h-64v64zM192 640h64v-64h-64v64zM64 192h64v-64h-64v64zM128 192h64v-64h-64v64z M192 192h64v-64h-64v64zM64 128h64v-64h-64v64zM128 128h64v-64h-64v64zM192 128h64v-64h-64v64zM64 64h64v-64h-64v64zM128 64h64v-64h-64v64zM192 64h64v-64h-64v64z" />
<glyph unicode=";" horiz-adv-x="384" d="M64 768h64v-64h-64v64zM128 768h64v-64h-64v64zM192 768h64v-64h-64v64zM64 704h64v-64h-64v64zM128 704h64v-64h-64v64zM192 704h64v-64h-64v64zM64 640h64v-64h-64v64zM128 640h64v-64h-64v64zM192 640h64v-64h-64v64zM0 192h64v-64h-64v64zM64 192h64v-64h-64v64z M128 192h64v-64h-64v64zM192 192h64v-64h-64v64zM0 128h64v-64h-64v64zM64 128h64v-64h-64v64zM128 128h64v-64h-64v64zM192 128h64v-64h-64v64zM64 64h64v-64h-64v64zM128 64h64v-64h-64v64zM192 64h64v-64h-64v64zM64 0h64v-64h-64v64zM128 0h64v-64h-64v64zM192 0h64v-64 h-64v64zM0 -64h64v-64h-64v64zM64 -64h64v-64h-64v64zM128 -64h64v-64h-64v64zM0 -128h64v-64h-64v64zM64 -128h64v-64h-64v64z" />
<glyph unicode="&#x3c;" horiz-adv-x="512" d="M256 832h64v-64h-64v64zM320 832h64v-64h-64v64zM192 768h64v-64h-64v64zM256 768h64v-64h-64v64zM320 768h64v-64h-64v64zM128 704h64v-64h-64v64zM192 704h64v-64h-64v64zM256 704h64v-64h-64v64zM320 704h64v-64h-64v64zM64 640h64v-64h-64v64zM128 640h64v-64h-64v64 zM192 640h64v-64h-64v64zM256 640h64v-64h-64v64zM0 576h64v-64h-64v64zM64 576h64v-64h-64v64zM128 576h64v-64h-64v64zM192 576h64v-64h-64v64zM0 512h64v-64h-64v64zM64 512h64v-64h-64v64zM128 512h64v-64h-64v64zM192 512h64v-64h-64v64zM64 448h64v-64h-64v64z M128 448h64v-64h-64v64zM192 448h64v-64h-64v64zM256 448h64v-64h-64v64zM128 384h64v-64h-64v64zM192 384h64v-64h-64v64zM256 384h64v-64h-64v64zM320 384h64v-64h-64v64zM192 320h64v-64h-64v64zM256 320h64v-64h-64v64zM320 320h64v-64h-64v64zM256 256h64v-64h-64v64z M320 256h64v-64h-64v64z" />
<glyph unicode="=" horiz-adv-x="704" d="M0 640h64v-64h-64v64zM64 640h64v-64h-64v64zM128 640h64v-64h-64v64zM192 640h64v-64h-64v64zM256 640h64v-64h-64v64zM320 640h64v-64h-64v64zM384 640h64v-64h-64v64zM448 640h64v-64h-64v64zM512 640h64v-64h-64v64zM0 576h64v-64h-64v64zM64 576h64v-64h-64v64z M128 576h64v-64h-64v64zM192 576h64v-64h-64v64zM256 576h64v-64h-64v64zM320 576h64v-64h-64v64zM384 576h64v-64h-64v64zM448 576h64v-64h-64v64zM512 576h64v-64h-64v64zM0 512h64v-64h-64v64zM64 512h64v-64h-64v64zM128 512h64v-64h-64v64zM192 512h64v-64h-64v64z M256 512h64v-64h-64v64zM320 512h64v-64h-64v64zM384 512h64v-64h-64v64zM448 512h64v-64h-64v64zM512 512h64v-64h-64v64zM0 320h64v-64h-64v64zM64 320h64v-64h-64v64zM128 320h64v-64h-64v64zM192 320h64v-64h-64v64zM256 320h64v-64h-64v64zM320 320h64v-64h-64v64z M384 320h64v-64h-64v64zM448 320h64v-64h-64v64zM512 320h64v-64h-64v64zM0 256h64v-64h-64v64zM64 256h64v-64h-64v64zM128 256h64v-64h-64v64zM192 256h64v-64h-64v64zM256 256h64v-64h-64v64zM320 256h64v-64h-64v64zM384 256h64v-64h-64v64zM448 256h64v-64h-64v64z M512 256h64v-64h-64v64zM0 192h64v-64h-64v64zM64 192h64v-64h-64v64zM128 192h64v-64h-64v64zM192 192h64v-64h-64v64zM256 192h64v-64h-64v64zM320 192h64v-64h-64v64zM384 192h64v-64h-64v64zM448 192h64v-64h-64v64zM512 192h64v-64h-64v64z" />
<glyph unicode="&#x3e;" horiz-adv-x="512" d="M0 832h64v-64h-64v64zM64 832h64v-64h-64v64zM0 768h64v-64h-64v64zM64 768h64v-64h-64v64zM128 768h64v-64h-64v64zM0 704h64v-64h-64v64zM64 704h64v-64h-64v64zM128 704h64v-64h-64v64zM192 704h64v-64h-64v64zM64 640h64v-64h-64v64zM128 640h64v-64h-64v64zM192 640 h64v-64h-64v64zM256 640h64v-64h-64v64zM128 576h64v-64h-64v64zM192 576h64v-64h-64v64zM256 576h64v-64h-64v64zM320 576h64v-64h-64v64zM128 512h64v-64h-64v64zM192 512h64v-64h-64v64zM256 512h64v-64h-64v64zM320 512h64v-64h-64v64zM64 448h64v-64h-64v64zM128 448 h64v-64h-64v64zM192 448h64v-64h-64v64zM256 448h64v-64h-64v64zM0 384h64v-64h-64v64zM64 384h64v-64h-64v64zM128 384h64v-64h-64v64zM192 384h64v-64h-64v64zM0 320h64v-64h-64v64zM64 320h64v-64h-64v64zM128 320h64v-64h-64v64zM0 256h64v-64h-64v64zM64 256h64v-64 h-64v64z" />
<glyph unicode="?" d="M128 1088h64v-64h-64v64zM192 1088h64v-64h-64v64zM256 1088h64v-64h-64v64zM320 1088h64v-64h-64v64zM384 1088h64v-64h-64v64zM448 1088h64v-64h-64v64zM512 1088h64v-64h-64v64zM64 1024h64v-64h-64v64zM128 1024h64v-64h-64v64zM192 1024h64v-64h-64v64zM256 1024h64 v-64h-64v64zM320 1024h64v-64h-64v64zM384 1024h64v-64h-64v64zM448 1024h64v-64h-64v64zM512 1024h64v-64h-64v64zM576 1024h64v-64h-64v64zM0 960h64v-64h-64v64zM64 960h64v-64h-64v64zM128 960h64v-64h-64v64zM192 960h64v-64h-64v64zM256 960h64v-64h-64v64zM320 960 h64v-64h-64v64zM384 960h64v-64h-64v64zM448 960h64v-64h-64v64zM512 960h64v-64h-64v64zM576 960h64v-64h-64v64zM640 960h64v-64h-64v64zM0 896h64v-64h-64v64zM64 896h64v-64h-64v64zM128 896h64v-64h-64v64zM512 896h64v-64h-64v64zM576 896h64v-64h-64v64zM640 896h64 v-64h-64v64zM0 832h64v-64h-64v64zM64 832h64v-64h-64v64zM128 832h64v-64h-64v64zM512 832h64v-64h-64v64zM576 832h64v-64h-64v64zM640 832h64v-64h-64v64zM512 768h64v-64h-64v64zM576 768h64v-64h-64v64zM640 768h64v-64h-64v64zM512 704h64v-64h-64v64zM576 704h64v-64 h-64v64zM640 704h64v-64h-64v64zM512 640h64v-64h-64v64zM576 640h64v-64h-64v64zM640 640h64v-64h-64v64zM256 576h64v-64h-64v64zM320 576h64v-64h-64v64zM384 576h64v-64h-64v64zM448 576h64v-64h-64v64zM512 576h64v-64h-64v64zM576 576h64v-64h-64v64zM640 576h64v-64 h-64v64zM256 512h64v-64h-64v64zM320 512h64v-64h-64v64zM384 512h64v-64h-64v64zM448 512h64v-64h-64v64zM512 512h64v-64h-64v64zM576 512h64v-64h-64v64zM256 448h64v-64h-64v64zM320 448h64v-64h-64v64zM384 448h64v-64h-64v64zM448 448h64v-64h-64v64zM512 448h64v-64 h-64v64zM256 384h64v-64h-64v64zM320 384h64v-64h-64v64zM384 384h64v-64h-64v64zM256 192h64v-64h-64v64zM320 192h64v-64h-64v64zM384 192h64v-64h-64v64zM256 128h64v-64h-64v64zM320 128h64v-64h-64v64zM384 128h64v-64h-64v64zM256 64h64v-64h-64v64zM320 64h64v-64 h-64v64zM384 64h64v-64h-64v64z" />
<glyph unicode="@" horiz-adv-x="1024" d="M128 1088h64v-64h-64v64zM192 1088h64v-64h-64v64zM256 1088h64v-64h-64v64zM320 1088h64v-64h-64v64zM384 1088h64v-64h-64v64zM448 1088h64v-64h-64v64zM512 1088h64v-64h-64v64zM576 1088h64v-64h-64v64zM640 1088h64v-64h-64v64zM704 1088h64v-64h-64v64zM64 1024h64 v-64h-64v64zM128 1024h64v-64h-64v64zM192 1024h64v-64h-64v64zM256 1024h64v-64h-64v64zM320 1024h64v-64h-64v64zM384 1024h64v-64h-64v64zM448 1024h64v-64h-64v64zM512 1024h64v-64h-64v64zM576 1024h64v-64h-64v64zM640 1024h64v-64h-64v64zM704 1024h64v-64h-64v64z M768 1024h64v-64h-64v64zM0 960h64v-64h-64v64zM64 960h64v-64h-64v64zM128 960h64v-64h-64v64zM192 960h64v-64h-64v64zM256 960h64v-64h-64v64zM320 960h64v-64h-64v64zM384 960h64v-64h-64v64zM448 960h64v-64h-64v64zM512 960h64v-64h-64v64zM576 960h64v-64h-64v64z M640 960h64v-64h-64v64zM704 960h64v-64h-64v64zM768 960h64v-64h-64v64zM832 960h64v-64h-64v64zM0 896h64v-64h-64v64zM64 896h64v-64h-64v64zM128 896h64v-64h-64v64zM704 896h64v-64h-64v64zM768 896h64v-64h-64v64zM832 896h64v-64h-64v64zM0 832h64v-64h-64v64z M64 832h64v-64h-64v64zM128 832h64v-64h-64v64zM704 832h64v-64h-64v64zM768 832h64v-64h-64v64zM832 832h64v-64h-64v64zM0 768h64v-64h-64v64zM64 768h64v-64h-64v64zM128 768h64v-64h-64v64zM704 768h64v-64h-64v64zM768 768h64v-64h-64v64zM832 768h64v-64h-64v64z M0 704h64v-64h-64v64zM64 704h64v-64h-64v64zM128 704h64v-64h-64v64zM448 704h64v-64h-64v64zM512 704h64v-64h-64v64zM576 704h64v-64h-64v64zM640 704h64v-64h-64v64zM704 704h64v-64h-64v64zM768 704h64v-64h-64v64zM832 704h64v-64h-64v64zM0 640h64v-64h-64v64z M64 640h64v-64h-64v64zM128 640h64v-64h-64v64zM384 640h64v-64h-64v64zM448 640h64v-64h-64v64zM512 640h64v-64h-64v64zM576 640h64v-64h-64v64zM640 640h64v-64h-64v64zM704 640h64v-64h-64v64zM768 640h64v-64h-64v64zM832 640h64v-64h-64v64zM0 576h64v-64h-64v64z M64 576h64v-64h-64v64zM128 576h64v-64h-64v64zM384 576h64v-64h-64v64zM448 576h64v-64h-64v64zM512 576h64v-64h-64v64zM576 576h64v-64h-64v64zM640 576h64v-64h-64v64zM704 576h64v-64h-64v64zM768 576h64v-64h-64v64zM832 576h64v-64h-64v64zM0 512h64v-64h-64v64z M64 512h64v-64h-64v64zM128 512h64v-64h-64v64zM384 512h64v-64h-64v64zM448 512h64v-64h-64v64zM512 512h64v-64h-64v64zM704 512h64v-64h-64v64zM768 512h64v-64h-64v64zM832 512h64v-64h-64v64zM0 448h64v-64h-64v64zM64 448h64v-64h-64v64zM128 448h64v-64h-64v64z M384 448h64v-64h-64v64zM448 448h64v-64h-64v64zM512 448h64v-64h-64v64zM704 448h64v-64h-64v64zM768 448h64v-64h-64v64zM832 448h64v-64h-64v64zM0 384h64v-64h-64v64zM64 384h64v-64h-64v64zM128 384h64v-64h-64v64zM384 384h64v-64h-64v64zM448 384h64v-64h-64v64z M512 384h64v-64h-64v64zM576 384h64v-64h-64v64zM640 384h64v-64h-64v64zM704 384h64v-64h-64v64zM768 384h64v-64h-64v64zM832 384h64v-64h-64v64zM0 320h64v-64h-64v64zM64 320h64v-64h-64v64zM128 320h64v-64h-64v64zM384 320h64v-64h-64v64zM448 320h64v-64h-64v64z M512 320h64v-64h-64v64zM576 320h64v-64h-64v64zM640 320h64v-64h-64v64zM704 320h64v-64h-64v64zM768 320h64v-64h-64v64zM832 320h64v-64h-64v64zM0 256h64v-64h-64v64zM64 256h64v-64h-64v64zM128 256h64v-64h-64v64zM448 256h64v-64h-64v64zM512 256h64v-64h-64v64z M576 256h64v-64h-64v64zM640 256h64v-64h-64v64zM704 256h64v-64h-64v64zM768 256h64v-64h-64v64zM0 192h64v-64h-64v64zM64 192h64v-64h-64v64zM128 192h64v-64h-64v64zM0 128h64v-64h-64v64zM64 128h64v-64h-64v64zM128 128h64v-64h-64v64zM0 64h64v-64h-64v64zM64 64h64 v-64h-64v64zM128 64h64v-64h-64v64zM0 0h64v-64h-64v64zM64 0h64v-64h-64v64zM128 0h64v-64h-64v64zM192 0h64v-64h-64v64zM256 0h64v-64h-64v64zM320 0h64v-64h-64v64zM384 0h64v-64h-64v64zM448 0h64v-64h-64v64zM512 0h64v-64h-64v64zM576 0h64v-64h-64v64zM640 0h64v-64 h-64v64zM704 0h64v-64h-64v64zM768 0h64v-64h-64v64zM832 0h64v-64h-64v64zM64 -64h64v-64h-64v64zM128 -64h64v-64h-64v64zM192 -64h64v-64h-64v64zM256 -64h64v-64h-64v64zM320 -64h64v-64h-64v64zM384 -64h64v-64h-64v64zM448 -64h64v-64h-64v64zM512 -64h64v-64h-64v64z M576 -64h64v-64h-64v64zM640 -64h64v-64h-64v64zM704 -64h64v-64h-64v64zM768 -64h64v-64h-64v64zM832 -64h64v-64h-64v64zM128 -128h64v-64h-64v64zM192 -128h64v-64h-64v64zM256 -128h64v-64h-64v64zM320 -128h64v-64h-64v64zM384 -128h64v-64h-64v64zM448 -128h64v-64 h-64v64zM512 -128h64v-64h-64v64zM576 -128h64v-64h-64v64zM640 -128h64v-64h-64v64zM704 -128h64v-64h-64v64zM768 -128h64v-64h-64v64zM832 -128h64v-64h-64v64z" />
<glyph unicode="A" d="M128 1088h64v-64h-64v64zM192 1088h64v-64h-64v64zM256 1088h64v-64h-64v64zM320 1088h64v-64h-64v64zM384 1088h64v-64h-64v64zM448 1088h64v-64h-64v64zM512 1088h64v-64h-64v64zM64 1024h64v-64h-64v64zM128 1024h64v-64h-64v64zM192 1024h64v-64h-64v64zM256 1024h64 v-64h-64v64zM320 1024h64v-64h-64v64zM384 1024h64v-64h-64v64zM448 1024h64v-64h-64v64zM512 1024h64v-64h-64v64zM576 1024h64v-64h-64v64zM0 960h64v-64h-64v64zM64 960h64v-64h-64v64zM128 960h64v-64h-64v64zM192 960h64v-64h-64v64zM256 960h64v-64h-64v64zM320 960 h64v-64h-64v64zM384 960h64v-64h-64v64zM448 960h64v-64h-64v64zM512 960h64v-64h-64v64zM576 960h64v-64h-64v64zM640 960h64v-64h-64v64zM0 896h64v-64h-64v64zM64 896h64v-64h-64v64zM128 896h64v-64h-64v64zM512 896h64v-64h-64v64zM576 896h64v-64h-64v64zM640 896h64 v-64h-64v64zM0 832h64v-64h-64v64zM64 832h64v-64h-64v64zM128 832h64v-64h-64v64zM512 832h64v-64h-64v64zM576 832h64v-64h-64v64zM640 832h64v-64h-64v64zM0 768h64v-64h-64v64zM64 768h64v-64h-64v64zM128 768h64v-64h-64v64zM512 768h64v-64h-64v64zM576 768h64v-64 h-64v64zM640 768h64v-64h-64v64zM0 704h64v-64h-64v64zM64 704h64v-64h-64v64zM128 704h64v-64h-64v64zM512 704h64v-64h-64v64zM576 704h64v-64h-64v64zM640 704h64v-64h-64v64zM0 640h64v-64h-64v64zM64 640h64v-64h-64v64zM128 640h64v-64h-64v64zM192 640h64v-64h-64v64 zM256 640h64v-64h-64v64zM320 640h64v-64h-64v64zM384 640h64v-64h-64v64zM448 640h64v-64h-64v64zM512 640h64v-64h-64v64zM576 640h64v-64h-64v64zM640 640h64v-64h-64v64zM0 576h64v-64h-64v64zM64 576h64v-64h-64v64zM128 576h64v-64h-64v64zM192 576h64v-64h-64v64z M256 576h64v-64h-64v64zM320 576h64v-64h-64v64zM384 576h64v-64h-64v64zM448 576h64v-64h-64v64zM512 576h64v-64h-64v64zM576 576h64v-64h-64v64zM640 576h64v-64h-64v64zM0 512h64v-64h-64v64zM64 512h64v-64h-64v64zM128 512h64v-64h-64v64zM192 512h64v-64h-64v64z M256 512h64v-64h-64v64zM320 512h64v-64h-64v64zM384 512h64v-64h-64v64zM448 512h64v-64h-64v64zM512 512h64v-64h-64v64zM576 512h64v-64h-64v64zM640 512h64v-64h-64v64zM0 448h64v-64h-64v64zM64 448h64v-64h-64v64zM128 448h64v-64h-64v64zM512 448h64v-64h-64v64z M576 448h64v-64h-64v64zM640 448h64v-64h-64v64zM0 384h64v-64h-64v64zM64 384h64v-64h-64v64zM128 384h64v-64h-64v64zM512 384h64v-64h-64v64zM576 384h64v-64h-64v64zM640 384h64v-64h-64v64zM0 320h64v-64h-64v64zM64 320h64v-64h-64v64zM128 320h64v-64h-64v64z M512 320h64v-64h-64v64zM576 320h64v-64h-64v64zM640 320h64v-64h-64v64zM0 256h64v-64h-64v64zM64 256h64v-64h-64v64zM128 256h64v-64h-64v64zM512 256h64v-64h-64v64zM576 256h64v-64h-64v64zM640 256h64v-64h-64v64zM0 192h64v-64h-64v64zM64 192h64v-64h-64v64z M128 192h64v-64h-64v64zM512 192h64v-64h-64v64zM576 192h64v-64h-64v64zM640 192h64v-64h-64v64zM0 128h64v-64h-64v64zM64 128h64v-64h-64v64zM128 128h64v-64h-64v64zM512 128h64v-64h-64v64zM576 128h64v-64h-64v64zM640 128h64v-64h-64v64zM0 64h64v-64h-64v64zM64 64 h64v-64h-64v64zM128 64h64v-64h-64v64zM512 64h64v-64h-64v64zM576 64h64v-64h-64v64zM640 64h64v-64h-64v64z" />
<glyph unicode="B" d="M0 1088h64v-64h-64v64zM64 1088h64v-64h-64v64zM128 1088h64v-64h-64v64zM192 1088h64v-64h-64v64zM256 1088h64v-64h-64v64zM320 1088h64v-64h-64v64zM384 1088h64v-64h-64v64zM448 1088h64v-64h-64v64zM512 1088h64v-64h-64v64zM0 1024h64v-64h-64v64zM64 1024h64v-64 h-64v64zM128 1024h64v-64h-64v64zM192 1024h64v-64h-64v64zM256 1024h64v-64h-64v64zM320 1024h64v-64h-64v64zM384 1024h64v-64h-64v64zM448 1024h64v-64h-64v64zM512 1024h64v-64h-64v64zM576 1024h64v-64h-64v64zM0 960h64v-64h-64v64zM64 960h64v-64h-64v64zM128 960h64 v-64h-64v64zM192 960h64v-64h-64v64zM256 960h64v-64h-64v64zM320 960h64v-64h-64v64zM384 960h64v-64h-64v64zM448 960h64v-64h-64v64zM512 960h64v-64h-64v64zM576 960h64v-64h-64v64zM640 960h64v-64h-64v64zM0 896h64v-64h-64v64zM64 896h64v-64h-64v64zM128 896h64v-64 h-64v64zM512 896h64v-64h-64v64zM576 896h64v-64h-64v64zM640 896h64v-64h-64v64zM0 832h64v-64h-64v64zM64 832h64v-64h-64v64zM128 832h64v-64h-64v64zM512 832h64v-64h-64v64zM576 832h64v-64h-64v64zM640 832h64v-64h-64v64zM0 768h64v-64h-64v64zM64 768h64v-64h-64v64 zM128 768h64v-64h-64v64zM512 768h64v-64h-64v64zM576 768h64v-64h-64v64zM640 768h64v-64h-64v64zM0 704h64v-64h-64v64zM64 704h64v-64h-64v64zM128 704h64v-64h-64v64zM512 704h64v-64h-64v64zM576 704h64v-64h-64v64zM640 704h64v-64h-64v64zM0 640h64v-64h-64v64z M64 640h64v-64h-64v64zM128 640h64v-64h-64v64zM192 640h64v-64h-64v64zM256 640h64v-64h-64v64zM320 640h64v-64h-64v64zM384 640h64v-64h-64v64zM448 640h64v-64h-64v64zM512 640h64v-64h-64v64zM576 640h64v-64h-64v64zM640 640h64v-64h-64v64zM0 576h64v-64h-64v64z M64 576h64v-64h-64v64zM128 576h64v-64h-64v64zM192 576h64v-64h-64v64zM256 576h64v-64h-64v64zM320 576h64v-64h-64v64zM384 576h64v-64h-64v64zM448 576h64v-64h-64v64zM512 576h64v-64h-64v64zM576 576h64v-64h-64v64zM0 512h64v-64h-64v64zM64 512h64v-64h-64v64z M128 512h64v-64h-64v64zM192 512h64v-64h-64v64zM256 512h64v-64h-64v64zM320 512h64v-64h-64v64zM384 512h64v-64h-64v64zM448 512h64v-64h-64v64zM512 512h64v-64h-64v64zM576 512h64v-64h-64v64zM0 448h64v-64h-64v64zM64 448h64v-64h-64v64zM128 448h64v-64h-64v64z M512 448h64v-64h-64v64zM576 448h64v-64h-64v64zM640 448h64v-64h-64v64zM0 384h64v-64h-64v64zM64 384h64v-64h-64v64zM128 384h64v-64h-64v64zM512 384h64v-64h-64v64zM576 384h64v-64h-64v64zM640 384h64v-64h-64v64zM0 320h64v-64h-64v64zM64 320h64v-64h-64v64z M128 320h64v-64h-64v64zM512 320h64v-64h-64v64zM576 320h64v-64h-64v64zM640 320h64v-64h-64v64zM0 256h64v-64h-64v64zM64 256h64v-64h-64v64zM128 256h64v-64h-64v64zM512 256h64v-64h-64v64zM576 256h64v-64h-64v64zM640 256h64v-64h-64v64zM0 192h64v-64h-64v64z M64 192h64v-64h-64v64zM128 192h64v-64h-64v64zM192 192h64v-64h-64v64zM256 192h64v-64h-64v64zM320 192h64v-64h-64v64zM384 192h64v-64h-64v64zM448 192h64v-64h-64v64zM512 192h64v-64h-64v64zM576 192h64v-64h-64v64zM640 192h64v-64h-64v64zM0 128h64v-64h-64v64z M64 128h64v-64h-64v64zM128 128h64v-64h-64v64zM192 128h64v-64h-64v64zM256 128h64v-64h-64v64zM320 128h64v-64h-64v64zM384 128h64v-64h-64v64zM448 128h64v-64h-64v64zM512 128h64v-64h-64v64zM576 128h64v-64h-64v64zM0 64h64v-64h-64v64zM64 64h64v-64h-64v64zM128 64 h64v-64h-64v64zM192 64h64v-64h-64v64zM256 64h64v-64h-64v64zM320 64h64v-64h-64v64zM384 64h64v-64h-64v64zM448 64h64v-64h-64v64zM512 64h64v-64h-64v64z" />
<glyph unicode="C" d="M128 1088h64v-64h-64v64zM192 1088h64v-64h-64v64zM256 1088h64v-64h-64v64zM320 1088h64v-64h-64v64zM384 1088h64v-64h-64v64zM448 1088h64v-64h-64v64zM512 1088h64v-64h-64v64zM64 1024h64v-64h-64v64zM128 1024h64v-64h-64v64zM192 1024h64v-64h-64v64zM256 1024h64 v-64h-64v64zM320 1024h64v-64h-64v64zM384 1024h64v-64h-64v64zM448 1024h64v-64h-64v64zM512 1024h64v-64h-64v64zM576 1024h64v-64h-64v64zM0 960h64v-64h-64v64zM64 960h64v-64h-64v64zM128 960h64v-64h-64v64zM192 960h64v-64h-64v64zM256 960h64v-64h-64v64zM320 960 h64v-64h-64v64zM384 960h64v-64h-64v64zM448 960h64v-64h-64v64zM512 960h64v-64h-64v64zM576 960h64v-64h-64v64zM640 960h64v-64h-64v64zM0 896h64v-64h-64v64zM64 896h64v-64h-64v64zM128 896h64v-64h-64v64zM512 896h64v-64h-64v64zM576 896h64v-64h-64v64zM640 896h64 v-64h-64v64zM0 832h64v-64h-64v64zM64 832h64v-64h-64v64zM128 832h64v-64h-64v64zM512 832h64v-64h-64v64zM576 832h64v-64h-64v64zM640 832h64v-64h-64v64zM0 768h64v-64h-64v64zM64 768h64v-64h-64v64zM128 768h64v-64h-64v64zM0 704h64v-64h-64v64zM64 704h64v-64h-64 v64zM128 704h64v-64h-64v64zM0 640h64v-64h-64v64zM64 640h64v-64h-64v64zM128 640h64v-64h-64v64zM0 576h64v-64h-64v64zM64 576h64v-64h-64v64zM128 576h64v-64h-64v64zM0 512h64v-64h-64v64zM64 512h64v-64h-64v64zM128 512h64v-64h-64v64zM0 448h64v-64h-64v64zM64 448 h64v-64h-64v64zM128 448h64v-64h-64v64zM0 384h64v-64h-64v64zM64 384h64v-64h-64v64zM128 384h64v-64h-64v64zM0 320h64v-64h-64v64zM64 320h64v-64h-64v64zM128 320h64v-64h-64v64zM512 320h64v-64h-64v64zM576 320h64v-64h-64v64zM640 320h64v-64h-64v64zM0 256h64v-64 h-64v64zM64 256h64v-64h-64v64zM128 256h64v-64h-64v64zM512 256h64v-64h-64v64zM576 256h64v-64h-64v64zM640 256h64v-64h-64v64zM0 192h64v-64h-64v64zM64 192h64v-64h-64v64zM128 192h64v-64h-64v64zM192 192h64v-64h-64v64zM256 192h64v-64h-64v64zM320 192h64v-64h-64 v64zM384 192h64v-64h-64v64zM448 192h64v-64h-64v64zM512 192h64v-64h-64v64zM576 192h64v-64h-64v64zM640 192h64v-64h-64v64zM64 128h64v-64h-64v64zM128 128h64v-64h-64v64zM192 128h64v-64h-64v64zM256 128h64v-64h-64v64zM320 128h64v-64h-64v64zM384 128h64v-64h-64 v64zM448 128h64v-64h-64v64zM512 128h64v-64h-64v64zM576 128h64v-64h-64v64zM128 64h64v-64h-64v64zM192 64h64v-64h-64v64zM256 64h64v-64h-64v64zM320 64h64v-64h-64v64zM384 64h64v-64h-64v64zM448 64h64v-64h-64v64zM512 64h64v-64h-64v64z" />
<glyph unicode="D" d="M0 1088h64v-64h-64v64zM64 1088h64v-64h-64v64zM128 1088h64v-64h-64v64zM192 1088h64v-64h-64v64zM256 1088h64v-64h-64v64zM320 1088h64v-64h-64v64zM384 1088h64v-64h-64v64zM448 1088h64v-64h-64v64zM0 1024h64v-64h-64v64zM64 1024h64v-64h-64v64zM128 1024h64v-64 h-64v64zM192 1024h64v-64h-64v64zM256 1024h64v-64h-64v64zM320 1024h64v-64h-64v64zM384 1024h64v-64h-64v64zM448 1024h64v-64h-64v64zM512 1024h64v-64h-64v64zM0 960h64v-64h-64v64zM64 960h64v-64h-64v64zM128 960h64v-64h-64v64zM192 960h64v-64h-64v64zM256 960h64 v-64h-64v64zM320 960h64v-64h-64v64zM384 960h64v-64h-64v64zM448 960h64v-64h-64v64zM512 960h64v-64h-64v64zM576 960h64v-64h-64v64zM0 896h64v-64h-64v64zM64 896h64v-64h-64v64zM128 896h64v-64h-64v64zM448 896h64v-64h-64v64zM512 896h64v-64h-64v64zM576 896h64v-64 h-64v64zM640 896h64v-64h-64v64zM0 832h64v-64h-64v64zM64 832h64v-64h-64v64zM128 832h64v-64h-64v64zM512 832h64v-64h-64v64zM576 832h64v-64h-64v64zM640 832h64v-64h-64v64zM0 768h64v-64h-64v64zM64 768h64v-64h-64v64zM128 768h64v-64h-64v64zM512 768h64v-64h-64v64 zM576 768h64v-64h-64v64zM640 768h64v-64h-64v64zM0 704h64v-64h-64v64zM64 704h64v-64h-64v64zM128 704h64v-64h-64v64zM512 704h64v-64h-64v64zM576 704h64v-64h-64v64zM640 704h64v-64h-64v64zM0 640h64v-64h-64v64zM64 640h64v-64h-64v64zM128 640h64v-64h-64v64z M512 640h64v-64h-64v64zM576 640h64v-64h-64v64zM640 640h64v-64h-64v64zM0 576h64v-64h-64v64zM64 576h64v-64h-64v64zM128 576h64v-64h-64v64zM512 576h64v-64h-64v64zM576 576h64v-64h-64v64zM640 576h64v-64h-64v64zM0 512h64v-64h-64v64zM64 512h64v-64h-64v64z M128 512h64v-64h-64v64zM512 512h64v-64h-64v64zM576 512h64v-64h-64v64zM640 512h64v-64h-64v64zM0 448h64v-64h-64v64zM64 448h64v-64h-64v64zM128 448h64v-64h-64v64zM512 448h64v-64h-64v64zM576 448h64v-64h-64v64zM640 448h64v-64h-64v64zM0 384h64v-64h-64v64z M64 384h64v-64h-64v64zM128 384h64v-64h-64v64zM512 384h64v-64h-64v64zM576 384h64v-64h-64v64zM640 384h64v-64h-64v64zM0 320h64v-64h-64v64zM64 320h64v-64h-64v64zM128 320h64v-64h-64v64zM512 320h64v-64h-64v64zM576 320h64v-64h-64v64zM640 320h64v-64h-64v64z M0 256h64v-64h-64v64zM64 256h64v-64h-64v64zM128 256h64v-64h-64v64zM448 256h64v-64h-64v64zM512 256h64v-64h-64v64zM576 256h64v-64h-64v64zM640 256h64v-64h-64v64zM0 192h64v-64h-64v64zM64 192h64v-64h-64v64zM128 192h64v-64h-64v64zM192 192h64v-64h-64v64z M256 192h64v-64h-64v64zM320 192h64v-64h-64v64zM384 192h64v-64h-64v64zM448 192h64v-64h-64v64zM512 192h64v-64h-64v64zM576 192h64v-64h-64v64zM0 128h64v-64h-64v64zM64 128h64v-64h-64v64zM128 128h64v-64h-64v64zM192 128h64v-64h-64v64zM256 128h64v-64h-64v64z M320 128h64v-64h-64v64zM384 128h64v-64h-64v64zM448 128h64v-64h-64v64zM512 128h64v-64h-64v64zM0 64h64v-64h-64v64zM64 64h64v-64h-64v64zM128 64h64v-64h-64v64zM192 64h64v-64h-64v64zM256 64h64v-64h-64v64zM320 64h64v-64h-64v64zM384 64h64v-64h-64v64zM448 64h64 v-64h-64v64z" />
<glyph unicode="E" horiz-adv-x="768" d="M128 1088h64v-64h-64v64zM192 1088h64v-64h-64v64zM256 1088h64v-64h-64v64zM320 1088h64v-64h-64v64zM384 1088h64v-64h-64v64zM448 1088h64v-64h-64v64zM512 1088h64v-64h-64v64zM576 1088h64v-64h-64v64zM64 1024h64v-64h-64v64zM128 1024h64v-64h-64v64zM192 1024h64 v-64h-64v64zM256 1024h64v-64h-64v64zM320 1024h64v-64h-64v64zM384 1024h64v-64h-64v64zM448 1024h64v-64h-64v64zM512 1024h64v-64h-64v64zM576 1024h64v-64h-64v64zM0 960h64v-64h-64v64zM64 960h64v-64h-64v64zM128 960h64v-64h-64v64zM192 960h64v-64h-64v64zM256 960 h64v-64h-64v64zM320 960h64v-64h-64v64zM384 960h64v-64h-64v64zM448 960h64v-64h-64v64zM512 960h64v-64h-64v64zM576 960h64v-64h-64v64zM0 896h64v-64h-64v64zM64 896h64v-64h-64v64zM128 896h64v-64h-64v64zM0 832h64v-64h-64v64zM64 832h64v-64h-64v64zM128 832h64v-64 h-64v64zM0 768h64v-64h-64v64zM64 768h64v-64h-64v64zM128 768h64v-64h-64v64zM0 704h64v-64h-64v64zM64 704h64v-64h-64v64zM128 704h64v-64h-64v64zM0 640h64v-64h-64v64zM64 640h64v-64h-64v64zM128 640h64v-64h-64v64zM192 640h64v-64h-64v64zM256 640h64v-64h-64v64z M320 640h64v-64h-64v64zM384 640h64v-64h-64v64zM448 640h64v-64h-64v64zM0 576h64v-64h-64v64zM64 576h64v-64h-64v64zM128 576h64v-64h-64v64zM192 576h64v-64h-64v64zM256 576h64v-64h-64v64zM320 576h64v-64h-64v64zM384 576h64v-64h-64v64zM448 576h64v-64h-64v64z M0 512h64v-64h-64v64zM64 512h64v-64h-64v64zM128 512h64v-64h-64v64zM192 512h64v-64h-64v64zM256 512h64v-64h-64v64zM320 512h64v-64h-64v64zM384 512h64v-64h-64v64zM448 512h64v-64h-64v64zM0 448h64v-64h-64v64zM64 448h64v-64h-64v64zM128 448h64v-64h-64v64zM0 384 h64v-64h-64v64zM64 384h64v-64h-64v64zM128 384h64v-64h-64v64zM0 320h64v-64h-64v64zM64 320h64v-64h-64v64zM128 320h64v-64h-64v64zM0 256h64v-64h-64v64zM64 256h64v-64h-64v64zM128 256h64v-64h-64v64zM0 192h64v-64h-64v64zM64 192h64v-64h-64v64zM128 192h64v-64h-64 v64zM192 192h64v-64h-64v64zM256 192h64v-64h-64v64zM320 192h64v-64h-64v64zM384 192h64v-64h-64v64zM448 192h64v-64h-64v64zM512 192h64v-64h-64v64zM576 192h64v-64h-64v64zM64 128h64v-64h-64v64zM128 128h64v-64h-64v64zM192 128h64v-64h-64v64zM256 128h64v-64h-64 v64zM320 128h64v-64h-64v64zM384 128h64v-64h-64v64zM448 128h64v-64h-64v64zM512 128h64v-64h-64v64zM576 128h64v-64h-64v64zM128 64h64v-64h-64v64zM192 64h64v-64h-64v64zM256 64h64v-64h-64v64zM320 64h64v-64h-64v64zM384 64h64v-64h-64v64zM448 64h64v-64h-64v64z M512 64h64v-64h-64v64zM576 64h64v-64h-64v64z" />
<glyph unicode="F" horiz-adv-x="768" d="M128 1088h64v-64h-64v64zM192 1088h64v-64h-64v64zM256 1088h64v-64h-64v64zM320 1088h64v-64h-64v64zM384 1088h64v-64h-64v64zM448 1088h64v-64h-64v64zM512 1088h64v-64h-64v64zM576 1088h64v-64h-64v64zM64 1024h64v-64h-64v64zM128 1024h64v-64h-64v64zM192 1024h64 v-64h-64v64zM256 1024h64v-64h-64v64zM320 1024h64v-64h-64v64zM384 1024h64v-64h-64v64zM448 1024h64v-64h-64v64zM512 1024h64v-64h-64v64zM576 1024h64v-64h-64v64zM0 960h64v-64h-64v64zM64 960h64v-64h-64v64zM128 960h64v-64h-64v64zM192 960h64v-64h-64v64zM256 960 h64v-64h-64v64zM320 960h64v-64h-64v64zM384 960h64v-64h-64v64zM448 960h64v-64h-64v64zM512 960h64v-64h-64v64zM576 960h64v-64h-64v64zM0 896h64v-64h-64v64zM64 896h64v-64h-64v64zM128 896h64v-64h-64v64zM0 832h64v-64h-64v64zM64 832h64v-64h-64v64zM128 832h64v-64 h-64v64zM0 768h64v-64h-64v64zM64 768h64v-64h-64v64zM128 768h64v-64h-64v64zM0 704h64v-64h-64v64zM64 704h64v-64h-64v64zM128 704h64v-64h-64v64zM0 640h64v-64h-64v64zM64 640h64v-64h-64v64zM128 640h64v-64h-64v64zM192 640h64v-64h-64v64zM256 640h64v-64h-64v64z M320 640h64v-64h-64v64zM384 640h64v-64h-64v64zM448 640h64v-64h-64v64zM0 576h64v-64h-64v64zM64 576h64v-64h-64v64zM128 576h64v-64h-64v64zM192 576h64v-64h-64v64zM256 576h64v-64h-64v64zM320 576h64v-64h-64v64zM384 576h64v-64h-64v64zM448 576h64v-64h-64v64z M0 512h64v-64h-64v64zM64 512h64v-64h-64v64zM128 512h64v-64h-64v64zM192 512h64v-64h-64v64zM256 512h64v-64h-64v64zM320 512h64v-64h-64v64zM384 512h64v-64h-64v64zM448 512h64v-64h-64v64zM0 448h64v-64h-64v64zM64 448h64v-64h-64v64zM128 448h64v-64h-64v64zM0 384 h64v-64h-64v64zM64 384h64v-64h-64v64zM128 384h64v-64h-64v64zM0 320h64v-64h-64v64zM64 320h64v-64h-64v64zM128 320h64v-64h-64v64zM0 256h64v-64h-64v64zM64 256h64v-64h-64v64zM128 256h64v-64h-64v64zM0 192h64v-64h-64v64zM64 192h64v-64h-64v64zM128 192h64v-64h-64 v64zM0 128h64v-64h-64v64zM64 128h64v-64h-64v64zM128 128h64v-64h-64v64zM0 64h64v-64h-64v64zM64 64h64v-64h-64v64zM128 64h64v-64h-64v64z" />
<glyph unicode="G" d="M128 1088h64v-64h-64v64zM192 1088h64v-64h-64v64zM256 1088h64v-64h-64v64zM320 1088h64v-64h-64v64zM384 1088h64v-64h-64v64zM448 1088h64v-64h-64v64zM512 1088h64v-64h-64v64zM64 1024h64v-64h-64v64zM128 1024h64v-64h-64v64zM192 1024h64v-64h-64v64zM256 1024h64 v-64h-64v64zM320 1024h64v-64h-64v64zM384 1024h64v-64h-64v64zM448 1024h64v-64h-64v64zM512 1024h64v-64h-64v64zM576 1024h64v-64h-64v64zM0 960h64v-64h-64v64zM64 960h64v-64h-64v64zM128 960h64v-64h-64v64zM192 960h64v-64h-64v64zM256 960h64v-64h-64v64zM320 960 h64v-64h-64v64zM384 960h64v-64h-64v64zM448 960h64v-64h-64v64zM512 960h64v-64h-64v64zM576 960h64v-64h-64v64zM640 960h64v-64h-64v64zM0 896h64v-64h-64v64zM64 896h64v-64h-64v64zM128 896h64v-64h-64v64zM512 896h64v-64h-64v64zM576 896h64v-64h-64v64zM640 896h64 v-64h-64v64zM0 832h64v-64h-64v64zM64 832h64v-64h-64v64zM128 832h64v-64h-64v64zM512 832h64v-64h-64v64zM576 832h64v-64h-64v64zM640 832h64v-64h-64v64zM0 768h64v-64h-64v64zM64 768h64v-64h-64v64zM128 768h64v-64h-64v64zM0 704h64v-64h-64v64zM64 704h64v-64h-64 v64zM128 704h64v-64h-64v64zM0 640h64v-64h-64v64zM64 640h64v-64h-64v64zM128 640h64v-64h-64v64zM384 640h64v-64h-64v64zM448 640h64v-64h-64v64zM512 640h64v-64h-64v64zM576 640h64v-64h-64v64zM640 640h64v-64h-64v64zM0 576h64v-64h-64v64zM64 576h64v-64h-64v64z M128 576h64v-64h-64v64zM384 576h64v-64h-64v64zM448 576h64v-64h-64v64zM512 576h64v-64h-64v64zM576 576h64v-64h-64v64zM640 576h64v-64h-64v64zM0 512h64v-64h-64v64zM64 512h64v-64h-64v64zM128 512h64v-64h-64v64zM384 512h64v-64h-64v64zM448 512h64v-64h-64v64z M512 512h64v-64h-64v64zM576 512h64v-64h-64v64zM640 512h64v-64h-64v64zM0 448h64v-64h-64v64zM64 448h64v-64h-64v64zM128 448h64v-64h-64v64zM512 448h64v-64h-64v64zM576 448h64v-64h-64v64zM640 448h64v-64h-64v64zM0 384h64v-64h-64v64zM64 384h64v-64h-64v64z M128 384h64v-64h-64v64zM512 384h64v-64h-64v64zM576 384h64v-64h-64v64zM640 384h64v-64h-64v64zM0 320h64v-64h-64v64zM64 320h64v-64h-64v64zM128 320h64v-64h-64v64zM512 320h64v-64h-64v64zM576 320h64v-64h-64v64zM640 320h64v-64h-64v64zM0 256h64v-64h-64v64z M64 256h64v-64h-64v64zM128 256h64v-64h-64v64zM512 256h64v-64h-64v64zM576 256h64v-64h-64v64zM640 256h64v-64h-64v64zM0 192h64v-64h-64v64zM64 192h64v-64h-64v64zM128 192h64v-64h-64v64zM192 192h64v-64h-64v64zM256 192h64v-64h-64v64zM320 192h64v-64h-64v64z M384 192h64v-64h-64v64zM448 192h64v-64h-64v64zM512 192h64v-64h-64v64zM576 192h64v-64h-64v64zM640 192h64v-64h-64v64zM64 128h64v-64h-64v64zM128 128h64v-64h-64v64zM192 128h64v-64h-64v64zM256 128h64v-64h-64v64zM320 128h64v-64h-64v64zM384 128h64v-64h-64v64z M448 128h64v-64h-64v64zM512 128h64v-64h-64v64zM576 128h64v-64h-64v64zM128 64h64v-64h-64v64zM192 64h64v-64h-64v64zM256 64h64v-64h-64v64zM320 64h64v-64h-64v64zM384 64h64v-64h-64v64zM448 64h64v-64h-64v64zM512 64h64v-64h-64v64z" />
<glyph unicode="H" d="M0 1088h64v-64h-64v64zM64 1088h64v-64h-64v64zM128 1088h64v-64h-64v64zM512 1088h64v-64h-64v64zM576 1088h64v-64h-64v64zM640 1088h64v-64h-64v64zM0 1024h64v-64h-64v64zM64 1024h64v-64h-64v64zM128 1024h64v-64h-64v64zM512 1024h64v-64h-64v64zM576 1024h64v-64 h-64v64zM640 1024h64v-64h-64v64zM0 960h64v-64h-64v64zM64 960h64v-64h-64v64zM128 960h64v-64h-64v64zM512 960h64v-64h-64v64zM576 960h64v-64h-64v64zM640 960h64v-64h-64v64zM0 896h64v-64h-64v64zM64 896h64v-64h-64v64zM128 896h64v-64h-64v64zM512 896h64v-64h-64 v64zM576 896h64v-64h-64v64zM640 896h64v-64h-64v64zM0 832h64v-64h-64v64zM64 832h64v-64h-64v64zM128 832h64v-64h-64v64zM512 832h64v-64h-64v64zM576 832h64v-64h-64v64zM640 832h64v-64h-64v64zM0 768h64v-64h-64v64zM64 768h64v-64h-64v64zM128 768h64v-64h-64v64z M512 768h64v-64h-64v64zM576 768h64v-64h-64v64zM640 768h64v-64h-64v64zM0 704h64v-64h-64v64zM64 704h64v-64h-64v64zM128 704h64v-64h-64v64zM512 704h64v-64h-64v64zM576 704h64v-64h-64v64zM640 704h64v-64h-64v64zM0 640h64v-64h-64v64zM64 640h64v-64h-64v64z M128 640h64v-64h-64v64zM192 640h64v-64h-64v64zM256 640h64v-64h-64v64zM320 640h64v-64h-64v64zM384 640h64v-64h-64v64zM448 640h64v-64h-64v64zM512 640h64v-64h-64v64zM576 640h64v-64h-64v64zM640 640h64v-64h-64v64zM0 576h64v-64h-64v64zM64 576h64v-64h-64v64z M128 576h64v-64h-64v64zM192 576h64v-64h-64v64zM256 576h64v-64h-64v64zM320 576h64v-64h-64v64zM384 576h64v-64h-64v64zM448 576h64v-64h-64v64zM512 576h64v-64h-64v64zM576 576h64v-64h-64v64zM640 576h64v-64h-64v64zM0 512h64v-64h-64v64zM64 512h64v-64h-64v64z M128 512h64v-64h-64v64zM192 512h64v-64h-64v64zM256 512h64v-64h-64v64zM320 512h64v-64h-64v64zM384 512h64v-64h-64v64zM448 512h64v-64h-64v64zM512 512h64v-64h-64v64zM576 512h64v-64h-64v64zM640 512h64v-64h-64v64zM0 448h64v-64h-64v64zM64 448h64v-64h-64v64z M128 448h64v-64h-64v64zM512 448h64v-64h-64v64zM576 448h64v-64h-64v64zM640 448h64v-64h-64v64zM0 384h64v-64h-64v64zM64 384h64v-64h-64v64zM128 384h64v-64h-64v64zM512 384h64v-64h-64v64zM576 384h64v-64h-64v64zM640 384h64v-64h-64v64zM0 320h64v-64h-64v64z M64 320h64v-64h-64v64zM128 320h64v-64h-64v64zM512 320h64v-64h-64v64zM576 320h64v-64h-64v64zM640 320h64v-64h-64v64zM0 256h64v-64h-64v64zM64 256h64v-64h-64v64zM128 256h64v-64h-64v64zM512 256h64v-64h-64v64zM576 256h64v-64h-64v64zM640 256h64v-64h-64v64z M0 192h64v-64h-64v64zM64 192h64v-64h-64v64zM128 192h64v-64h-64v64zM512 192h64v-64h-64v64zM576 192h64v-64h-64v64zM640 192h64v-64h-64v64zM0 128h64v-64h-64v64zM64 128h64v-64h-64v64zM128 128h64v-64h-64v64zM512 128h64v-64h-64v64zM576 128h64v-64h-64v64z M640 128h64v-64h-64v64zM0 64h64v-64h-64v64zM64 64h64v-64h-64v64zM128 64h64v-64h-64v64zM512 64h64v-64h-64v64zM576 64h64v-64h-64v64zM640 64h64v-64h-64v64z" />
<glyph unicode="I" horiz-adv-x="704" d="M0 1088h64v-64h-64v64zM64 1088h64v-64h-64v64zM128 1088h64v-64h-64v64zM192 1088h64v-64h-64v64zM256 1088h64v-64h-64v64zM320 1088h64v-64h-64v64zM384 1088h64v-64h-64v64zM448 1088h64v-64h-64v64zM512 1088h64v-64h-64v64zM0 1024h64v-64h-64v64zM64 1024h64v-64 h-64v64zM128 1024h64v-64h-64v64zM192 1024h64v-64h-64v64zM256 1024h64v-64h-64v64zM320 1024h64v-64h-64v64zM384 1024h64v-64h-64v64zM448 1024h64v-64h-64v64zM512 1024h64v-64h-64v64zM0 960h64v-64h-64v64zM64 960h64v-64h-64v64zM128 960h64v-64h-64v64zM192 960h64 v-64h-64v64zM256 960h64v-64h-64v64zM320 960h64v-64h-64v64zM384 960h64v-64h-64v64zM448 960h64v-64h-64v64zM512 960h64v-64h-64v64zM192 896h64v-64h-64v64zM256 896h64v-64h-64v64zM320 896h64v-64h-64v64zM192 832h64v-64h-64v64zM256 832h64v-64h-64v64zM320 832h64 v-64h-64v64zM192 768h64v-64h-64v64zM256 768h64v-64h-64v64zM320 768h64v-64h-64v64zM192 704h64v-64h-64v64zM256 704h64v-64h-64v64zM320 704h64v-64h-64v64zM192 640h64v-64h-64v64zM256 640h64v-64h-64v64zM320 640h64v-64h-64v64zM192 576h64v-64h-64v64zM256 576h64 v-64h-64v64zM320 576h64v-64h-64v64zM192 512h64v-64h-64v64zM256 512h64v-64h-64v64zM320 512h64v-64h-64v64zM192 448h64v-64h-64v64zM256 448h64v-64h-64v64zM320 448h64v-64h-64v64zM192 384h64v-64h-64v64zM256 384h64v-64h-64v64zM320 384h64v-64h-64v64zM192 320h64 v-64h-64v64zM256 320h64v-64h-64v64zM320 320h64v-64h-64v64zM192 256h64v-64h-64v64zM256 256h64v-64h-64v64zM320 256h64v-64h-64v64zM0 192h64v-64h-64v64zM64 192h64v-64h-64v64zM128 192h64v-64h-64v64zM192 192h64v-64h-64v64zM256 192h64v-64h-64v64zM320 192h64v-64 h-64v64zM384 192h64v-64h-64v64zM448 192h64v-64h-64v64zM512 192h64v-64h-64v64zM0 128h64v-64h-64v64zM64 128h64v-64h-64v64zM128 128h64v-64h-64v64zM192 128h64v-64h-64v64zM256 128h64v-64h-64v64zM320 128h64v-64h-64v64zM384 128h64v-64h-64v64zM448 128h64v-64h-64 v64zM512 128h64v-64h-64v64zM0 64h64v-64h-64v64zM64 64h64v-64h-64v64zM128 64h64v-64h-64v64zM192 64h64v-64h-64v64zM256 64h64v-64h-64v64zM320 64h64v-64h-64v64zM384 64h64v-64h-64v64zM448 64h64v-64h-64v64zM512 64h64v-64h-64v64z" />
<glyph unicode="J" horiz-adv-x="768" d="M256 1088h64v-64h-64v64zM320 1088h64v-64h-64v64zM384 1088h64v-64h-64v64zM448 1088h64v-64h-64v64zM512 1088h64v-64h-64v64zM576 1088h64v-64h-64v64zM256 1024h64v-64h-64v64zM320 1024h64v-64h-64v64zM384 1024h64v-64h-64v64zM448 1024h64v-64h-64v64zM512 1024 h64v-64h-64v64zM576 1024h64v-64h-64v64zM256 960h64v-64h-64v64zM320 960h64v-64h-64v64zM384 960h64v-64h-64v64zM448 960h64v-64h-64v64zM512 960h64v-64h-64v64zM576 960h64v-64h-64v64zM448 896h64v-64h-64v64zM512 896h64v-64h-64v64zM576 896h64v-64h-64v64zM448 832 h64v-64h-64v64zM512 832h64v-64h-64v64zM576 832h64v-64h-64v64zM448 768h64v-64h-64v64zM512 768h64v-64h-64v64zM576 768h64v-64h-64v64zM448 704h64v-64h-64v64zM512 704h64v-64h-64v64zM576 704h64v-64h-64v64zM448 640h64v-64h-64v64zM512 640h64v-64h-64v64zM576 640 h64v-64h-64v64zM448 576h64v-64h-64v64zM512 576h64v-64h-64v64zM576 576h64v-64h-64v64zM448 512h64v-64h-64v64zM512 512h64v-64h-64v64zM576 512h64v-64h-64v64zM448 448h64v-64h-64v64zM512 448h64v-64h-64v64zM576 448h64v-64h-64v64zM448 384h64v-64h-64v64zM512 384 h64v-64h-64v64zM576 384h64v-64h-64v64zM448 320h64v-64h-64v64zM512 320h64v-64h-64v64zM576 320h64v-64h-64v64zM448 256h64v-64h-64v64zM512 256h64v-64h-64v64zM576 256h64v-64h-64v64zM0 192h64v-64h-64v64zM64 192h64v-64h-64v64zM128 192h64v-64h-64v64zM192 192h64 v-64h-64v64zM256 192h64v-64h-64v64zM320 192h64v-64h-64v64zM384 192h64v-64h-64v64zM448 192h64v-64h-64v64zM512 192h64v-64h-64v64zM576 192h64v-64h-64v64zM0 128h64v-64h-64v64zM64 128h64v-64h-64v64zM128 128h64v-64h-64v64zM192 128h64v-64h-64v64zM256 128h64v-64 h-64v64zM320 128h64v-64h-64v64zM384 128h64v-64h-64v64zM448 128h64v-64h-64v64zM512 128h64v-64h-64v64zM0 64h64v-64h-64v64zM64 64h64v-64h-64v64zM128 64h64v-64h-64v64zM192 64h64v-64h-64v64zM256 64h64v-64h-64v64zM320 64h64v-64h-64v64zM384 64h64v-64h-64v64z M448 64h64v-64h-64v64z" />
<glyph unicode="K" d="M0 1088h64v-64h-64v64zM64 1088h64v-64h-64v64zM128 1088h64v-64h-64v64zM512 1088h64v-64h-64v64zM576 1088h64v-64h-64v64zM640 1088h64v-64h-64v64zM0 1024h64v-64h-64v64zM64 1024h64v-64h-64v64zM128 1024h64v-64h-64v64zM448 1024h64v-64h-64v64zM512 1024h64v-64 h-64v64zM576 1024h64v-64h-64v64zM640 1024h64v-64h-64v64zM0 960h64v-64h-64v64zM64 960h64v-64h-64v64zM128 960h64v-64h-64v64zM384 960h64v-64h-64v64zM448 960h64v-64h-64v64zM512 960h64v-64h-64v64zM576 960h64v-64h-64v64zM0 896h64v-64h-64v64zM64 896h64v-64h-64 v64zM128 896h64v-64h-64v64zM320 896h64v-64h-64v64zM384 896h64v-64h-64v64zM448 896h64v-64h-64v64zM512 896h64v-64h-64v64zM0 832h64v-64h-64v64zM64 832h64v-64h-64v64zM128 832h64v-64h-64v64zM256 832h64v-64h-64v64zM320 832h64v-64h-64v64zM384 832h64v-64h-64v64z M448 832h64v-64h-64v64zM0 768h64v-64h-64v64zM64 768h64v-64h-64v64zM128 768h64v-64h-64v64zM192 768h64v-64h-64v64zM256 768h64v-64h-64v64zM320 768h64v-64h-64v64zM384 768h64v-64h-64v64zM0 704h64v-64h-64v64zM64 704h64v-64h-64v64zM128 704h64v-64h-64v64z M192 704h64v-64h-64v64zM256 704h64v-64h-64v64zM320 704h64v-64h-64v64zM0 640h64v-64h-64v64zM64 640h64v-64h-64v64zM128 640h64v-64h-64v64zM192 640h64v-64h-64v64zM256 640h64v-64h-64v64zM0 576h64v-64h-64v64zM64 576h64v-64h-64v64zM128 576h64v-64h-64v64z M192 576h64v-64h-64v64zM0 512h64v-64h-64v64zM64 512h64v-64h-64v64zM128 512h64v-64h-64v64zM192 512h64v-64h-64v64zM256 512h64v-64h-64v64zM0 448h64v-64h-64v64zM64 448h64v-64h-64v64zM128 448h64v-64h-64v64zM192 448h64v-64h-64v64zM256 448h64v-64h-64v64z M320 448h64v-64h-64v64zM0 384h64v-64h-64v64zM64 384h64v-64h-64v64zM128 384h64v-64h-64v64zM192 384h64v-64h-64v64zM256 384h64v-64h-64v64zM320 384h64v-64h-64v64zM384 384h64v-64h-64v64zM0 320h64v-64h-64v64zM64 320h64v-64h-64v64zM128 320h64v-64h-64v64z M256 320h64v-64h-64v64zM320 320h64v-64h-64v64zM384 320h64v-64h-64v64zM448 320h64v-64h-64v64zM0 256h64v-64h-64v64zM64 256h64v-64h-64v64zM128 256h64v-64h-64v64zM320 256h64v-64h-64v64zM384 256h64v-64h-64v64zM448 256h64v-64h-64v64zM512 256h64v-64h-64v64z M0 192h64v-64h-64v64zM64 192h64v-64h-64v64zM128 192h64v-64h-64v64zM384 192h64v-64h-64v64zM448 192h64v-64h-64v64zM512 192h64v-64h-64v64zM576 192h64v-64h-64v64zM0 128h64v-64h-64v64zM64 128h64v-64h-64v64zM128 128h64v-64h-64v64zM448 128h64v-64h-64v64z M512 128h64v-64h-64v64zM576 128h64v-64h-64v64zM640 128h64v-64h-64v64zM0 64h64v-64h-64v64zM64 64h64v-64h-64v64zM128 64h64v-64h-64v64zM512 64h64v-64h-64v64zM576 64h64v-64h-64v64zM640 64h64v-64h-64v64z" />
<glyph unicode="L" horiz-adv-x="768" d="M0 1088h64v-64h-64v64zM64 1088h64v-64h-64v64zM128 1088h64v-64h-64v64zM0 1024h64v-64h-64v64zM64 1024h64v-64h-64v64zM128 1024h64v-64h-64v64zM0 960h64v-64h-64v64zM64 960h64v-64h-64v64zM128 960h64v-64h-64v64zM0 896h64v-64h-64v64zM64 896h64v-64h-64v64z M128 896h64v-64h-64v64zM0 832h64v-64h-64v64zM64 832h64v-64h-64v64zM128 832h64v-64h-64v64zM0 768h64v-64h-64v64zM64 768h64v-64h-64v64zM128 768h64v-64h-64v64zM0 704h64v-64h-64v64zM64 704h64v-64h-64v64zM128 704h64v-64h-64v64zM0 640h64v-64h-64v64zM64 640h64 v-64h-64v64zM128 640h64v-64h-64v64zM0 576h64v-64h-64v64zM64 576h64v-64h-64v64zM128 576h64v-64h-64v64zM0 512h64v-64h-64v64zM64 512h64v-64h-64v64zM128 512h64v-64h-64v64zM0 448h64v-64h-64v64zM64 448h64v-64h-64v64zM128 448h64v-64h-64v64zM0 384h64v-64h-64v64z M64 384h64v-64h-64v64zM128 384h64v-64h-64v64zM0 320h64v-64h-64v64zM64 320h64v-64h-64v64zM128 320h64v-64h-64v64zM0 256h64v-64h-64v64zM64 256h64v-64h-64v64zM128 256h64v-64h-64v64zM0 192h64v-64h-64v64zM64 192h64v-64h-64v64zM128 192h64v-64h-64v64zM192 192h64 v-64h-64v64zM256 192h64v-64h-64v64zM320 192h64v-64h-64v64zM384 192h64v-64h-64v64zM448 192h64v-64h-64v64zM512 192h64v-64h-64v64zM576 192h64v-64h-64v64zM64 128h64v-64h-64v64zM128 128h64v-64h-64v64zM192 128h64v-64h-64v64zM256 128h64v-64h-64v64zM320 128h64 v-64h-64v64zM384 128h64v-64h-64v64zM448 128h64v-64h-64v64zM512 128h64v-64h-64v64zM576 128h64v-64h-64v64zM128 64h64v-64h-64v64zM192 64h64v-64h-64v64zM256 64h64v-64h-64v64zM320 64h64v-64h-64v64zM384 64h64v-64h-64v64zM448 64h64v-64h-64v64zM512 64h64v-64h-64 v64zM576 64h64v-64h-64v64z" />
<glyph unicode="M" d="M0 1088h64v-64h-64v64zM64 1088h64v-64h-64v64zM576 1088h64v-64h-64v64zM640 1088h64v-64h-64v64zM0 1024h64v-64h-64v64zM64 1024h64v-64h-64v64zM128 1024h64v-64h-64v64zM512 1024h64v-64h-64v64zM576 1024h64v-64h-64v64zM640 1024h64v-64h-64v64zM0 960h64v-64h-64 v64zM64 960h64v-64h-64v64zM128 960h64v-64h-64v64zM192 960h64v-64h-64v64zM448 960h64v-64h-64v64zM512 960h64v-64h-64v64zM576 960h64v-64h-64v64zM640 960h64v-64h-64v64zM0 896h64v-64h-64v64zM64 896h64v-64h-64v64zM128 896h64v-64h-64v64zM192 896h64v-64h-64v64z M256 896h64v-64h-64v64zM384 896h64v-64h-64v64zM448 896h64v-64h-64v64zM512 896h64v-64h-64v64zM576 896h64v-64h-64v64zM640 896h64v-64h-64v64zM0 832h64v-64h-64v64zM64 832h64v-64h-64v64zM128 832h64v-64h-64v64zM192 832h64v-64h-64v64zM256 832h64v-64h-64v64z M320 832h64v-64h-64v64zM384 832h64v-64h-64v64zM448 832h64v-64h-64v64zM512 832h64v-64h-64v64zM576 832h64v-64h-64v64zM640 832h64v-64h-64v64zM0 768h64v-64h-64v64zM64 768h64v-64h-64v64zM128 768h64v-64h-64v64zM192 768h64v-64h-64v64zM256 768h64v-64h-64v64z M320 768h64v-64h-64v64zM384 768h64v-64h-64v64zM448 768h64v-64h-64v64zM512 768h64v-64h-64v64zM576 768h64v-64h-64v64zM640 768h64v-64h-64v64zM0 704h64v-64h-64v64zM64 704h64v-64h-64v64zM128 704h64v-64h-64v64zM256 704h64v-64h-64v64zM320 704h64v-64h-64v64z M384 704h64v-64h-64v64zM512 704h64v-64h-64v64zM576 704h64v-64h-64v64zM640 704h64v-64h-64v64zM0 640h64v-64h-64v64zM64 640h64v-64h-64v64zM128 640h64v-64h-64v64zM320 640h64v-64h-64v64zM512 640h64v-64h-64v64zM576 640h64v-64h-64v64zM640 640h64v-64h-64v64z M0 576h64v-64h-64v64zM64 576h64v-64h-64v64zM128 576h64v-64h-64v64zM512 576h64v-64h-64v64zM576 576h64v-64h-64v64zM640 576h64v-64h-64v64zM0 512h64v-64h-64v64zM64 512h64v-64h-64v64zM128 512h64v-64h-64v64zM512 512h64v-64h-64v64zM576 512h64v-64h-64v64z M640 512h64v-64h-64v64zM0 448h64v-64h-64v64zM64 448h64v-64h-64v64zM128 448h64v-64h-64v64zM512 448h64v-64h-64v64zM576 448h64v-64h-64v64zM640 448h64v-64h-64v64zM0 384h64v-64h-64v64zM64 384h64v-64h-64v64zM128 384h64v-64h-64v64zM512 384h64v-64h-64v64z M576 384h64v-64h-64v64zM640 384h64v-64h-64v64zM0 320h64v-64h-64v64zM64 320h64v-64h-64v64zM128 320h64v-64h-64v64zM512 320h64v-64h-64v64zM576 320h64v-64h-64v64zM640 320h64v-64h-64v64zM0 256h64v-64h-64v64zM64 256h64v-64h-64v64zM128 256h64v-64h-64v64z M512 256h64v-64h-64v64zM576 256h64v-64h-64v64zM640 256h64v-64h-64v64zM0 192h64v-64h-64v64zM64 192h64v-64h-64v64zM128 192h64v-64h-64v64zM512 192h64v-64h-64v64zM576 192h64v-64h-64v64zM640 192h64v-64h-64v64zM0 128h64v-64h-64v64zM64 128h64v-64h-64v64z M128 128h64v-64h-64v64zM512 128h64v-64h-64v64zM576 128h64v-64h-64v64zM640 128h64v-64h-64v64zM0 64h64v-64h-64v64zM64 64h64v-64h-64v64zM128 64h64v-64h-64v64zM512 64h64v-64h-64v64zM576 64h64v-64h-64v64zM640 64h64v-64h-64v64z" />
<glyph unicode="N" d="M0 1088h64v-64h-64v64zM64 1088h64v-64h-64v64zM512 1088h64v-64h-64v64zM576 1088h64v-64h-64v64zM640 1088h64v-64h-64v64zM0 1024h64v-64h-64v64zM64 1024h64v-64h-64v64zM128 1024h64v-64h-64v64zM512 1024h64v-64h-64v64zM576 1024h64v-64h-64v64zM640 1024h64v-64 h-64v64zM0 960h64v-64h-64v64zM64 960h64v-64h-64v64zM128 960h64v-64h-64v64zM192 960h64v-64h-64v64zM512 960h64v-64h-64v64zM576 960h64v-64h-64v64zM640 960h64v-64h-64v64zM0 896h64v-64h-64v64zM64 896h64v-64h-64v64zM128 896h64v-64h-64v64zM192 896h64v-64h-64v64 zM256 896h64v-64h-64v64zM512 896h64v-64h-64v64zM576 896h64v-64h-64v64zM640 896h64v-64h-64v64zM0 832h64v-64h-64v64zM64 832h64v-64h-64v64zM128 832h64v-64h-64v64zM192 832h64v-64h-64v64zM256 832h64v-64h-64v64zM320 832h64v-64h-64v64zM512 832h64v-64h-64v64z M576 832h64v-64h-64v64zM640 832h64v-64h-64v64zM0 768h64v-64h-64v64zM64 768h64v-64h-64v64zM128 768h64v-64h-64v64zM192 768h64v-64h-64v64zM256 768h64v-64h-64v64zM320 768h64v-64h-64v64zM384 768h64v-64h-64v64zM512 768h64v-64h-64v64zM576 768h64v-64h-64v64z M640 768h64v-64h-64v64zM0 704h64v-64h-64v64zM64 704h64v-64h-64v64zM128 704h64v-64h-64v64zM256 704h64v-64h-64v64zM320 704h64v-64h-64v64zM384 704h64v-64h-64v64zM448 704h64v-64h-64v64zM512 704h64v-64h-64v64zM576 704h64v-64h-64v64zM640 704h64v-64h-64v64z M0 640h64v-64h-64v64zM64 640h64v-64h-64v64zM128 640h64v-64h-64v64zM320 640h64v-64h-64v64zM384 640h64v-64h-64v64zM448 640h64v-64h-64v64zM512 640h64v-64h-64v64zM576 640h64v-64h-64v64zM640 640h64v-64h-64v64zM0 576h64v-64h-64v64zM64 576h64v-64h-64v64z M128 576h64v-64h-64v64zM384 576h64v-64h-64v64zM448 576h64v-64h-64v64zM512 576h64v-64h-64v64zM576 576h64v-64h-64v64zM640 576h64v-64h-64v64zM0 512h64v-64h-64v64zM64 512h64v-64h-64v64zM128 512h64v-64h-64v64zM448 512h64v-64h-64v64zM512 512h64v-64h-64v64z M576 512h64v-64h-64v64zM640 512h64v-64h-64v64zM0 448h64v-64h-64v64zM64 448h64v-64h-64v64zM128 448h64v-64h-64v64zM512 448h64v-64h-64v64zM576 448h64v-64h-64v64zM640 448h64v-64h-64v64zM0 384h64v-64h-64v64zM64 384h64v-64h-64v64zM128 384h64v-64h-64v64z M512 384h64v-64h-64v64zM576 384h64v-64h-64v64zM640 384h64v-64h-64v64zM0 320h64v-64h-64v64zM64 320h64v-64h-64v64zM128 320h64v-64h-64v64zM512 320h64v-64h-64v64zM576 320h64v-64h-64v64zM640 320h64v-64h-64v64zM0 256h64v-64h-64v64zM64 256h64v-64h-64v64z M128 256h64v-64h-64v64zM512 256h64v-64h-64v64zM576 256h64v-64h-64v64zM640 256h64v-64h-64v64zM0 192h64v-64h-64v64zM64 192h64v-64h-64v64zM128 192h64v-64h-64v64zM512 192h64v-64h-64v64zM576 192h64v-64h-64v64zM640 192h64v-64h-64v64zM0 128h64v-64h-64v64z M64 128h64v-64h-64v64zM128 128h64v-64h-64v64zM512 128h64v-64h-64v64zM576 128h64v-64h-64v64zM640 128h64v-64h-64v64zM0 64h64v-64h-64v64zM64 64h64v-64h-64v64zM128 64h64v-64h-64v64zM512 64h64v-64h-64v64zM576 64h64v-64h-64v64zM640 64h64v-64h-64v64z" />
<glyph unicode="O" d="M128 1088h64v-64h-64v64zM192 1088h64v-64h-64v64zM256 1088h64v-64h-64v64zM320 1088h64v-64h-64v64zM384 1088h64v-64h-64v64zM448 1088h64v-64h-64v64zM512 1088h64v-64h-64v64zM64 1024h64v-64h-64v64zM128 1024h64v-64h-64v64zM192 1024h64v-64h-64v64zM256 1024h64 v-64h-64v64zM320 1024h64v-64h-64v64zM384 1024h64v-64h-64v64zM448 1024h64v-64h-64v64zM512 1024h64v-64h-64v64zM576 1024h64v-64h-64v64zM0 960h64v-64h-64v64zM64 960h64v-64h-64v64zM128 960h64v-64h-64v64zM192 960h64v-64h-64v64zM256 960h64v-64h-64v64zM320 960 h64v-64h-64v64zM384 960h64v-64h-64v64zM448 960h64v-64h-64v64zM512 960h64v-64h-64v64zM576 960h64v-64h-64v64zM640 960h64v-64h-64v64zM0 896h64v-64h-64v64zM64 896h64v-64h-64v64zM128 896h64v-64h-64v64zM512 896h64v-64h-64v64zM576 896h64v-64h-64v64zM640 896h64 v-64h-64v64zM0 832h64v-64h-64v64zM64 832h64v-64h-64v64zM128 832h64v-64h-64v64zM512 832h64v-64h-64v64zM576 832h64v-64h-64v64zM640 832h64v-64h-64v64zM0 768h64v-64h-64v64zM64 768h64v-64h-64v64zM128 768h64v-64h-64v64zM512 768h64v-64h-64v64zM576 768h64v-64 h-64v64zM640 768h64v-64h-64v64zM0 704h64v-64h-64v64zM64 704h64v-64h-64v64zM128 704h64v-64h-64v64zM512 704h64v-64h-64v64zM576 704h64v-64h-64v64zM640 704h64v-64h-64v64zM0 640h64v-64h-64v64zM64 640h64v-64h-64v64zM128 640h64v-64h-64v64zM512 640h64v-64h-64v64 zM576 640h64v-64h-64v64zM640 640h64v-64h-64v64zM0 576h64v-64h-64v64zM64 576h64v-64h-64v64zM128 576h64v-64h-64v64zM512 576h64v-64h-64v64zM576 576h64v-64h-64v64zM640 576h64v-64h-64v64zM0 512h64v-64h-64v64zM64 512h64v-64h-64v64zM128 512h64v-64h-64v64z M512 512h64v-64h-64v64zM576 512h64v-64h-64v64zM640 512h64v-64h-64v64zM0 448h64v-64h-64v64zM64 448h64v-64h-64v64zM128 448h64v-64h-64v64zM512 448h64v-64h-64v64zM576 448h64v-64h-64v64zM640 448h64v-64h-64v64zM0 384h64v-64h-64v64zM64 384h64v-64h-64v64z M128 384h64v-64h-64v64zM512 384h64v-64h-64v64zM576 384h64v-64h-64v64zM640 384h64v-64h-64v64zM0 320h64v-64h-64v64zM64 320h64v-64h-64v64zM128 320h64v-64h-64v64zM512 320h64v-64h-64v64zM576 320h64v-64h-64v64zM640 320h64v-64h-64v64zM0 256h64v-64h-64v64z M64 256h64v-64h-64v64zM128 256h64v-64h-64v64zM512 256h64v-64h-64v64zM576 256h64v-64h-64v64zM640 256h64v-64h-64v64zM0 192h64v-64h-64v64zM64 192h64v-64h-64v64zM128 192h64v-64h-64v64zM192 192h64v-64h-64v64zM256 192h64v-64h-64v64zM320 192h64v-64h-64v64z M384 192h64v-64h-64v64zM448 192h64v-64h-64v64zM512 192h64v-64h-64v64zM576 192h64v-64h-64v64zM640 192h64v-64h-64v64zM64 128h64v-64h-64v64zM128 128h64v-64h-64v64zM192 128h64v-64h-64v64zM256 128h64v-64h-64v64zM320 128h64v-64h-64v64zM384 128h64v-64h-64v64z M448 128h64v-64h-64v64zM512 128h64v-64h-64v64zM576 128h64v-64h-64v64zM128 64h64v-64h-64v64zM192 64h64v-64h-64v64zM256 64h64v-64h-64v64zM320 64h64v-64h-64v64zM384 64h64v-64h-64v64zM448 64h64v-64h-64v64zM512 64h64v-64h-64v64z" />
<glyph unicode="P" d="M0 1088h64v-64h-64v64zM64 1088h64v-64h-64v64zM128 1088h64v-64h-64v64zM192 1088h64v-64h-64v64zM256 1088h64v-64h-64v64zM320 1088h64v-64h-64v64zM384 1088h64v-64h-64v64zM448 1088h64v-64h-64v64zM512 1088h64v-64h-64v64zM0 1024h64v-64h-64v64zM64 1024h64v-64 h-64v64zM128 1024h64v-64h-64v64zM192 1024h64v-64h-64v64zM256 1024h64v-64h-64v64zM320 1024h64v-64h-64v64zM384 1024h64v-64h-64v64zM448 1024h64v-64h-64v64zM512 1024h64v-64h-64v64zM576 1024h64v-64h-64v64zM0 960h64v-64h-64v64zM64 960h64v-64h-64v64zM128 960h64 v-64h-64v64zM192 960h64v-64h-64v64zM256 960h64v-64h-64v64zM320 960h64v-64h-64v64zM384 960h64v-64h-64v64zM448 960h64v-64h-64v64zM512 960h64v-64h-64v64zM576 960h64v-64h-64v64zM640 960h64v-64h-64v64zM0 896h64v-64h-64v64zM64 896h64v-64h-64v64zM128 896h64v-64 h-64v64zM512 896h64v-64h-64v64zM576 896h64v-64h-64v64zM640 896h64v-64h-64v64zM0 832h64v-64h-64v64zM64 832h64v-64h-64v64zM128 832h64v-64h-64v64zM512 832h64v-64h-64v64zM576 832h64v-64h-64v64zM640 832h64v-64h-64v64zM0 768h64v-64h-64v64zM64 768h64v-64h-64v64 zM128 768h64v-64h-64v64zM512 768h64v-64h-64v64zM576 768h64v-64h-64v64zM640 768h64v-64h-64v64zM0 704h64v-64h-64v64zM64 704h64v-64h-64v64zM128 704h64v-64h-64v64zM512 704h64v-64h-64v64zM576 704h64v-64h-64v64zM640 704h64v-64h-64v64zM0 640h64v-64h-64v64z M64 640h64v-64h-64v64zM128 640h64v-64h-64v64zM192 640h64v-64h-64v64zM256 640h64v-64h-64v64zM320 640h64v-64h-64v64zM384 640h64v-64h-64v64zM448 640h64v-64h-64v64zM512 640h64v-64h-64v64zM576 640h64v-64h-64v64zM640 640h64v-64h-64v64zM0 576h64v-64h-64v64z M64 576h64v-64h-64v64zM128 576h64v-64h-64v64zM192 576h64v-64h-64v64zM256 576h64v-64h-64v64zM320 576h64v-64h-64v64zM384 576h64v-64h-64v64zM448 576h64v-64h-64v64zM512 576h64v-64h-64v64zM576 576h64v-64h-64v64zM0 512h64v-64h-64v64zM64 512h64v-64h-64v64z M128 512h64v-64h-64v64zM192 512h64v-64h-64v64zM256 512h64v-64h-64v64zM320 512h64v-64h-64v64zM384 512h64v-64h-64v64zM448 512h64v-64h-64v64zM512 512h64v-64h-64v64zM0 448h64v-64h-64v64zM64 448h64v-64h-64v64zM128 448h64v-64h-64v64zM0 384h64v-64h-64v64z M64 384h64v-64h-64v64zM128 384h64v-64h-64v64zM0 320h64v-64h-64v64zM64 320h64v-64h-64v64zM128 320h64v-64h-64v64zM0 256h64v-64h-64v64zM64 256h64v-64h-64v64zM128 256h64v-64h-64v64zM0 192h64v-64h-64v64zM64 192h64v-64h-64v64zM128 192h64v-64h-64v64zM0 128h64 v-64h-64v64zM64 128h64v-64h-64v64zM128 128h64v-64h-64v64zM0 64h64v-64h-64v64zM64 64h64v-64h-64v64zM128 64h64v-64h-64v64z" />
<glyph unicode="Q" d="M128 1088h64v-64h-64v64zM192 1088h64v-64h-64v64zM256 1088h64v-64h-64v64zM320 1088h64v-64h-64v64zM384 1088h64v-64h-64v64zM448 1088h64v-64h-64v64zM512 1088h64v-64h-64v64zM64 1024h64v-64h-64v64zM128 1024h64v-64h-64v64zM192 1024h64v-64h-64v64zM256 1024h64 v-64h-64v64zM320 1024h64v-64h-64v64zM384 1024h64v-64h-64v64zM448 1024h64v-64h-64v64zM512 1024h64v-64h-64v64zM576 1024h64v-64h-64v64zM0 960h64v-64h-64v64zM64 960h64v-64h-64v64zM128 960h64v-64h-64v64zM192 960h64v-64h-64v64zM256 960h64v-64h-64v64zM320 960 h64v-64h-64v64zM384 960h64v-64h-64v64zM448 960h64v-64h-64v64zM512 960h64v-64h-64v64zM576 960h64v-64h-64v64zM640 960h64v-64h-64v64zM0 896h64v-64h-64v64zM64 896h64v-64h-64v64zM128 896h64v-64h-64v64zM512 896h64v-64h-64v64zM576 896h64v-64h-64v64zM640 896h64 v-64h-64v64zM0 832h64v-64h-64v64zM64 832h64v-64h-64v64zM128 832h64v-64h-64v64zM512 832h64v-64h-64v64zM576 832h64v-64h-64v64zM640 832h64v-64h-64v64zM0 768h64v-64h-64v64zM64 768h64v-64h-64v64zM128 768h64v-64h-64v64zM512 768h64v-64h-64v64zM576 768h64v-64 h-64v64zM640 768h64v-64h-64v64zM0 704h64v-64h-64v64zM64 704h64v-64h-64v64zM128 704h64v-64h-64v64zM512 704h64v-64h-64v64zM576 704h64v-64h-64v64zM640 704h64v-64h-64v64zM0 640h64v-64h-64v64zM64 640h64v-64h-64v64zM128 640h64v-64h-64v64zM512 640h64v-64h-64v64 zM576 640h64v-64h-64v64zM640 640h64v-64h-64v64zM0 576h64v-64h-64v64zM64 576h64v-64h-64v64zM128 576h64v-64h-64v64zM512 576h64v-64h-64v64zM576 576h64v-64h-64v64zM640 576h64v-64h-64v64zM0 512h64v-64h-64v64zM64 512h64v-64h-64v64zM128 512h64v-64h-64v64z M512 512h64v-64h-64v64zM576 512h64v-64h-64v64zM640 512h64v-64h-64v64zM0 448h64v-64h-64v64zM64 448h64v-64h-64v64zM128 448h64v-64h-64v64zM512 448h64v-64h-64v64zM576 448h64v-64h-64v64zM640 448h64v-64h-64v64zM0 384h64v-64h-64v64zM64 384h64v-64h-64v64z M128 384h64v-64h-64v64zM512 384h64v-64h-64v64zM576 384h64v-64h-64v64zM640 384h64v-64h-64v64zM0 320h64v-64h-64v64zM64 320h64v-64h-64v64zM128 320h64v-64h-64v64zM512 320h64v-64h-64v64zM576 320h64v-64h-64v64zM640 320h64v-64h-64v64zM0 256h64v-64h-64v64z M64 256h64v-64h-64v64zM128 256h64v-64h-64v64zM512 256h64v-64h-64v64zM576 256h64v-64h-64v64zM640 256h64v-64h-64v64zM0 192h64v-64h-64v64zM64 192h64v-64h-64v64zM128 192h64v-64h-64v64zM192 192h64v-64h-64v64zM256 192h64v-64h-64v64zM320 192h64v-64h-64v64z M384 192h64v-64h-64v64zM448 192h64v-64h-64v64zM512 192h64v-64h-64v64zM576 192h64v-64h-64v64zM640 192h64v-64h-64v64zM64 128h64v-64h-64v64zM128 128h64v-64h-64v64zM192 128h64v-64h-64v64zM256 128h64v-64h-64v64zM320 128h64v-64h-64v64zM384 128h64v-64h-64v64z M448 128h64v-64h-64v64zM512 128h64v-64h-64v64zM576 128h64v-64h-64v64zM128 64h64v-64h-64v64zM192 64h64v-64h-64v64zM256 64h64v-64h-64v64zM320 64h64v-64h-64v64zM384 64h64v-64h-64v64zM448 64h64v-64h-64v64zM512 64h64v-64h-64v64zM384 0h64v-64h-64v64zM448 0h64 v-64h-64v64zM512 0h64v-64h-64v64zM576 0h64v-64h-64v64zM448 -64h64v-64h-64v64zM512 -64h64v-64h-64v64zM576 -64h64v-64h-64v64z" />
<glyph unicode="R" d="M0 1088h64v-64h-64v64zM64 1088h64v-64h-64v64zM128 1088h64v-64h-64v64zM192 1088h64v-64h-64v64zM256 1088h64v-64h-64v64zM320 1088h64v-64h-64v64zM384 1088h64v-64h-64v64zM448 1088h64v-64h-64v64zM512 1088h64v-64h-64v64zM0 1024h64v-64h-64v64zM64 1024h64v-64 h-64v64zM128 1024h64v-64h-64v64zM192 1024h64v-64h-64v64zM256 1024h64v-64h-64v64zM320 1024h64v-64h-64v64zM384 1024h64v-64h-64v64zM448 1024h64v-64h-64v64zM512 1024h64v-64h-64v64zM576 1024h64v-64h-64v64zM0 960h64v-64h-64v64zM64 960h64v-64h-64v64zM128 960h64 v-64h-64v64zM192 960h64v-64h-64v64zM256 960h64v-64h-64v64zM320 960h64v-64h-64v64zM384 960h64v-64h-64v64zM448 960h64v-64h-64v64zM512 960h64v-64h-64v64zM576 960h64v-64h-64v64zM640 960h64v-64h-64v64zM0 896h64v-64h-64v64zM64 896h64v-64h-64v64zM128 896h64v-64 h-64v64zM512 896h64v-64h-64v64zM576 896h64v-64h-64v64zM640 896h64v-64h-64v64zM0 832h64v-64h-64v64zM64 832h64v-64h-64v64zM128 832h64v-64h-64v64zM512 832h64v-64h-64v64zM576 832h64v-64h-64v64zM640 832h64v-64h-64v64zM0 768h64v-64h-64v64zM64 768h64v-64h-64v64 zM128 768h64v-64h-64v64zM512 768h64v-64h-64v64zM576 768h64v-64h-64v64zM640 768h64v-64h-64v64zM0 704h64v-64h-64v64zM64 704h64v-64h-64v64zM128 704h64v-64h-64v64zM512 704h64v-64h-64v64zM576 704h64v-64h-64v64zM640 704h64v-64h-64v64zM0 640h64v-64h-64v64z M64 640h64v-64h-64v64zM128 640h64v-64h-64v64zM192 640h64v-64h-64v64zM256 640h64v-64h-64v64zM320 640h64v-64h-64v64zM384 640h64v-64h-64v64zM448 640h64v-64h-64v64zM512 640h64v-64h-64v64zM576 640h64v-64h-64v64zM640 640h64v-64h-64v64zM0 576h64v-64h-64v64z M64 576h64v-64h-64v64zM128 576h64v-64h-64v64zM192 576h64v-64h-64v64zM256 576h64v-64h-64v64zM320 576h64v-64h-64v64zM384 576h64v-64h-64v64zM448 576h64v-64h-64v64zM512 576h64v-64h-64v64zM576 576h64v-64h-64v64zM0 512h64v-64h-64v64zM64 512h64v-64h-64v64z M128 512h64v-64h-64v64zM192 512h64v-64h-64v64zM256 512h64v-64h-64v64zM320 512h64v-64h-64v64zM384 512h64v-64h-64v64zM448 512h64v-64h-64v64zM512 512h64v-64h-64v64zM576 512h64v-64h-64v64zM0 448h64v-64h-64v64zM64 448h64v-64h-64v64zM128 448h64v-64h-64v64z M512 448h64v-64h-64v64zM576 448h64v-64h-64v64zM640 448h64v-64h-64v64zM0 384h64v-64h-64v64zM64 384h64v-64h-64v64zM128 384h64v-64h-64v64zM512 384h64v-64h-64v64zM576 384h64v-64h-64v64zM640 384h64v-64h-64v64zM0 320h64v-64h-64v64zM64 320h64v-64h-64v64z M128 320h64v-64h-64v64zM512 320h64v-64h-64v64zM576 320h64v-64h-64v64zM640 320h64v-64h-64v64zM0 256h64v-64h-64v64zM64 256h64v-64h-64v64zM128 256h64v-64h-64v64zM512 256h64v-64h-64v64zM576 256h64v-64h-64v64zM640 256h64v-64h-64v64zM0 192h64v-64h-64v64z M64 192h64v-64h-64v64zM128 192h64v-64h-64v64zM512 192h64v-64h-64v64zM576 192h64v-64h-64v64zM640 192h64v-64h-64v64zM0 128h64v-64h-64v64zM64 128h64v-64h-64v64zM128 128h64v-64h-64v64zM512 128h64v-64h-64v64zM576 128h64v-64h-64v64zM640 128h64v-64h-64v64zM0 64 h64v-64h-64v64zM64 64h64v-64h-64v64zM128 64h64v-64h-64v64zM512 64h64v-64h-64v64zM576 64h64v-64h-64v64zM640 64h64v-64h-64v64z" />
<glyph unicode="S" d="M128 1088h64v-64h-64v64zM192 1088h64v-64h-64v64zM256 1088h64v-64h-64v64zM320 1088h64v-64h-64v64zM384 1088h64v-64h-64v64zM448 1088h64v-64h-64v64zM512 1088h64v-64h-64v64zM576 1088h64v-64h-64v64zM64 1024h64v-64h-64v64zM128 1024h64v-64h-64v64zM192 1024h64 v-64h-64v64zM256 1024h64v-64h-64v64zM320 1024h64v-64h-64v64zM384 1024h64v-64h-64v64zM448 1024h64v-64h-64v64zM512 1024h64v-64h-64v64zM576 1024h64v-64h-64v64zM0 960h64v-64h-64v64zM64 960h64v-64h-64v64zM128 960h64v-64h-64v64zM192 960h64v-64h-64v64zM256 960 h64v-64h-64v64zM320 960h64v-64h-64v64zM384 960h64v-64h-64v64zM448 960h64v-64h-64v64zM512 960h64v-64h-64v64zM576 960h64v-64h-64v64zM0 896h64v-64h-64v64zM64 896h64v-64h-64v64zM128 896h64v-64h-64v64zM0 832h64v-64h-64v64zM64 832h64v-64h-64v64zM128 832h64v-64 h-64v64zM0 768h64v-64h-64v64zM64 768h64v-64h-64v64zM128 768h64v-64h-64v64zM0 704h64v-64h-64v64zM64 704h64v-64h-64v64zM128 704h64v-64h-64v64zM0 640h64v-64h-64v64zM64 640h64v-64h-64v64zM128 640h64v-64h-64v64zM192 640h64v-64h-64v64zM256 640h64v-64h-64v64z M320 640h64v-64h-64v64zM384 640h64v-64h-64v64zM448 640h64v-64h-64v64zM512 640h64v-64h-64v64zM64 576h64v-64h-64v64zM128 576h64v-64h-64v64zM192 576h64v-64h-64v64zM256 576h64v-64h-64v64zM320 576h64v-64h-64v64zM384 576h64v-64h-64v64zM448 576h64v-64h-64v64z M512 576h64v-64h-64v64zM576 576h64v-64h-64v64zM128 512h64v-64h-64v64zM192 512h64v-64h-64v64zM256 512h64v-64h-64v64zM320 512h64v-64h-64v64zM384 512h64v-64h-64v64zM448 512h64v-64h-64v64zM512 512h64v-64h-64v64zM576 512h64v-64h-64v64zM640 512h64v-64h-64v64z M512 448h64v-64h-64v64zM576 448h64v-64h-64v64zM640 448h64v-64h-64v64zM512 384h64v-64h-64v64zM576 384h64v-64h-64v64zM640 384h64v-64h-64v64zM512 320h64v-64h-64v64zM576 320h64v-64h-64v64zM640 320h64v-64h-64v64zM512 256h64v-64h-64v64zM576 256h64v-64h-64v64z M640 256h64v-64h-64v64zM0 192h64v-64h-64v64zM64 192h64v-64h-64v64zM128 192h64v-64h-64v64zM192 192h64v-64h-64v64zM256 192h64v-64h-64v64zM320 192h64v-64h-64v64zM384 192h64v-64h-64v64zM448 192h64v-64h-64v64zM512 192h64v-64h-64v64zM576 192h64v-64h-64v64z M640 192h64v-64h-64v64zM0 128h64v-64h-64v64zM64 128h64v-64h-64v64zM128 128h64v-64h-64v64zM192 128h64v-64h-64v64zM256 128h64v-64h-64v64zM320 128h64v-64h-64v64zM384 128h64v-64h-64v64zM448 128h64v-64h-64v64zM512 128h64v-64h-64v64zM576 128h64v-64h-64v64z M0 64h64v-64h-64v64zM64 64h64v-64h-64v64zM128 64h64v-64h-64v64zM192 64h64v-64h-64v64zM256 64h64v-64h-64v64zM320 64h64v-64h-64v64zM384 64h64v-64h-64v64zM448 64h64v-64h-64v64zM512 64h64v-64h-64v64z" />
<glyph unicode="T" d="M0 1088h64v-64h-64v64zM64 1088h64v-64h-64v64zM128 1088h64v-64h-64v64zM192 1088h64v-64h-64v64zM256 1088h64v-64h-64v64zM320 1088h64v-64h-64v64zM384 1088h64v-64h-64v64zM448 1088h64v-64h-64v64zM512 1088h64v-64h-64v64zM576 1088h64v-64h-64v64zM640 1088h64 v-64h-64v64zM0 1024h64v-64h-64v64zM64 1024h64v-64h-64v64zM128 1024h64v-64h-64v64zM192 1024h64v-64h-64v64zM256 1024h64v-64h-64v64zM320 1024h64v-64h-64v64zM384 1024h64v-64h-64v64zM448 1024h64v-64h-64v64zM512 1024h64v-64h-64v64zM576 1024h64v-64h-64v64z M640 1024h64v-64h-64v64zM0 960h64v-64h-64v64zM64 960h64v-64h-64v64zM128 960h64v-64h-64v64zM192 960h64v-64h-64v64zM256 960h64v-64h-64v64zM320 960h64v-64h-64v64zM384 960h64v-64h-64v64zM448 960h64v-64h-64v64zM512 960h64v-64h-64v64zM576 960h64v-64h-64v64z M640 960h64v-64h-64v64zM256 896h64v-64h-64v64zM320 896h64v-64h-64v64zM384 896h64v-64h-64v64zM256 832h64v-64h-64v64zM320 832h64v-64h-64v64zM384 832h64v-64h-64v64zM256 768h64v-64h-64v64zM320 768h64v-64h-64v64zM384 768h64v-64h-64v64zM256 704h64v-64h-64v64z M320 704h64v-64h-64v64zM384 704h64v-64h-64v64zM256 640h64v-64h-64v64zM320 640h64v-64h-64v64zM384 640h64v-64h-64v64zM256 576h64v-64h-64v64zM320 576h64v-64h-64v64zM384 576h64v-64h-64v64zM256 512h64v-64h-64v64zM320 512h64v-64h-64v64zM384 512h64v-64h-64v64z M256 448h64v-64h-64v64zM320 448h64v-64h-64v64zM384 448h64v-64h-64v64zM256 384h64v-64h-64v64zM320 384h64v-64h-64v64zM384 384h64v-64h-64v64zM256 320h64v-64h-64v64zM320 320h64v-64h-64v64zM384 320h64v-64h-64v64zM256 256h64v-64h-64v64zM320 256h64v-64h-64v64z M384 256h64v-64h-64v64zM256 192h64v-64h-64v64zM320 192h64v-64h-64v64zM384 192h64v-64h-64v64zM256 128h64v-64h-64v64zM320 128h64v-64h-64v64zM384 128h64v-64h-64v64zM256 64h64v-64h-64v64zM320 64h64v-64h-64v64zM384 64h64v-64h-64v64z" />
<glyph unicode="U" d="M0 1088h64v-64h-64v64zM64 1088h64v-64h-64v64zM128 1088h64v-64h-64v64zM512 1088h64v-64h-64v64zM576 1088h64v-64h-64v64zM640 1088h64v-64h-64v64zM0 1024h64v-64h-64v64zM64 1024h64v-64h-64v64zM128 1024h64v-64h-64v64zM512 1024h64v-64h-64v64zM576 1024h64v-64 h-64v64zM640 1024h64v-64h-64v64zM0 960h64v-64h-64v64zM64 960h64v-64h-64v64zM128 960h64v-64h-64v64zM512 960h64v-64h-64v64zM576 960h64v-64h-64v64zM640 960h64v-64h-64v64zM0 896h64v-64h-64v64zM64 896h64v-64h-64v64zM128 896h64v-64h-64v64zM512 896h64v-64h-64 v64zM576 896h64v-64h-64v64zM640 896h64v-64h-64v64zM0 832h64v-64h-64v64zM64 832h64v-64h-64v64zM128 832h64v-64h-64v64zM512 832h64v-64h-64v64zM576 832h64v-64h-64v64zM640 832h64v-64h-64v64zM0 768h64v-64h-64v64zM64 768h64v-64h-64v64zM128 768h64v-64h-64v64z M512 768h64v-64h-64v64zM576 768h64v-64h-64v64zM640 768h64v-64h-64v64zM0 704h64v-64h-64v64zM64 704h64v-64h-64v64zM128 704h64v-64h-64v64zM512 704h64v-64h-64v64zM576 704h64v-64h-64v64zM640 704h64v-64h-64v64zM0 640h64v-64h-64v64zM64 640h64v-64h-64v64z M128 640h64v-64h-64v64zM512 640h64v-64h-64v64zM576 640h64v-64h-64v64zM640 640h64v-64h-64v64zM0 576h64v-64h-64v64zM64 576h64v-64h-64v64zM128 576h64v-64h-64v64zM512 576h64v-64h-64v64zM576 576h64v-64h-64v64zM640 576h64v-64h-64v64zM0 512h64v-64h-64v64z M64 512h64v-64h-64v64zM128 512h64v-64h-64v64zM512 512h64v-64h-64v64zM576 512h64v-64h-64v64zM640 512h64v-64h-64v64zM0 448h64v-64h-64v64zM64 448h64v-64h-64v64zM128 448h64v-64h-64v64zM512 448h64v-64h-64v64zM576 448h64v-64h-64v64zM640 448h64v-64h-64v64z M0 384h64v-64h-64v64zM64 384h64v-64h-64v64zM128 384h64v-64h-64v64zM512 384h64v-64h-64v64zM576 384h64v-64h-64v64zM640 384h64v-64h-64v64zM0 320h64v-64h-64v64zM64 320h64v-64h-64v64zM128 320h64v-64h-64v64zM512 320h64v-64h-64v64zM576 320h64v-64h-64v64z M640 320h64v-64h-64v64zM0 256h64v-64h-64v64zM64 256h64v-64h-64v64zM128 256h64v-64h-64v64zM512 256h64v-64h-64v64zM576 256h64v-64h-64v64zM640 256h64v-64h-64v64zM0 192h64v-64h-64v64zM64 192h64v-64h-64v64zM128 192h64v-64h-64v64zM192 192h64v-64h-64v64z M256 192h64v-64h-64v64zM320 192h64v-64h-64v64zM384 192h64v-64h-64v64zM448 192h64v-64h-64v64zM512 192h64v-64h-64v64zM576 192h64v-64h-64v64zM640 192h64v-64h-64v64zM64 128h64v-64h-64v64zM128 128h64v-64h-64v64zM192 128h64v-64h-64v64zM256 128h64v-64h-64v64z M320 128h64v-64h-64v64zM384 128h64v-64h-64v64zM448 128h64v-64h-64v64zM512 128h64v-64h-64v64zM576 128h64v-64h-64v64zM128 64h64v-64h-64v64zM192 64h64v-64h-64v64zM256 64h64v-64h-64v64zM320 64h64v-64h-64v64zM384 64h64v-64h-64v64zM448 64h64v-64h-64v64zM512 64 h64v-64h-64v64z" />
<glyph unicode="V" d="M0 1088h64v-64h-64v64zM64 1088h64v-64h-64v64zM128 1088h64v-64h-64v64zM512 1088h64v-64h-64v64zM576 1088h64v-64h-64v64zM640 1088h64v-64h-64v64zM0 1024h64v-64h-64v64zM64 1024h64v-64h-64v64zM128 1024h64v-64h-64v64zM512 1024h64v-64h-64v64zM576 1024h64v-64 h-64v64zM640 1024h64v-64h-64v64zM0 960h64v-64h-64v64zM64 960h64v-64h-64v64zM128 960h64v-64h-64v64zM512 960h64v-64h-64v64zM576 960h64v-64h-64v64zM640 960h64v-64h-64v64zM0 896h64v-64h-64v64zM64 896h64v-64h-64v64zM128 896h64v-64h-64v64zM512 896h64v-64h-64 v64zM576 896h64v-64h-64v64zM640 896h64v-64h-64v64zM0 832h64v-64h-64v64zM64 832h64v-64h-64v64zM128 832h64v-64h-64v64zM512 832h64v-64h-64v64zM576 832h64v-64h-64v64zM640 832h64v-64h-64v64zM0 768h64v-64h-64v64zM64 768h64v-64h-64v64zM128 768h64v-64h-64v64z M512 768h64v-64h-64v64zM576 768h64v-64h-64v64zM640 768h64v-64h-64v64zM0 704h64v-64h-64v64zM64 704h64v-64h-64v64zM128 704h64v-64h-64v64zM512 704h64v-64h-64v64zM576 704h64v-64h-64v64zM640 704h64v-64h-64v64zM0 640h64v-64h-64v64zM64 640h64v-64h-64v64z M128 640h64v-64h-64v64zM512 640h64v-64h-64v64zM576 640h64v-64h-64v64zM640 640h64v-64h-64v64zM0 576h64v-64h-64v64zM64 576h64v-64h-64v64zM128 576h64v-64h-64v64zM512 576h64v-64h-64v64zM576 576h64v-64h-64v64zM640 576h64v-64h-64v64zM0 512h64v-64h-64v64z M64 512h64v-64h-64v64zM128 512h64v-64h-64v64zM512 512h64v-64h-64v64zM576 512h64v-64h-64v64zM640 512h64v-64h-64v64zM0 448h64v-64h-64v64zM64 448h64v-64h-64v64zM128 448h64v-64h-64v64zM512 448h64v-64h-64v64zM576 448h64v-64h-64v64zM640 448h64v-64h-64v64z M0 384h64v-64h-64v64zM64 384h64v-64h-64v64zM128 384h64v-64h-64v64zM512 384h64v-64h-64v64zM576 384h64v-64h-64v64zM640 384h64v-64h-64v64zM0 320h64v-64h-64v64zM64 320h64v-64h-64v64zM128 320h64v-64h-64v64zM192 320h64v-64h-64v64zM448 320h64v-64h-64v64z M512 320h64v-64h-64v64zM576 320h64v-64h-64v64zM640 320h64v-64h-64v64zM64 256h64v-64h-64v64zM128 256h64v-64h-64v64zM192 256h64v-64h-64v64zM256 256h64v-64h-64v64zM384 256h64v-64h-64v64zM448 256h64v-64h-64v64zM512 256h64v-64h-64v64zM576 256h64v-64h-64v64z M128 192h64v-64h-64v64zM192 192h64v-64h-64v64zM256 192h64v-64h-64v64zM320 192h64v-64h-64v64zM384 192h64v-64h-64v64zM448 192h64v-64h-64v64zM512 192h64v-64h-64v64zM192 128h64v-64h-64v64zM256 128h64v-64h-64v64zM320 128h64v-64h-64v64zM384 128h64v-64h-64v64z M448 128h64v-64h-64v64zM256 64h64v-64h-64v64zM320 64h64v-64h-64v64zM384 64h64v-64h-64v64z" />
<glyph unicode="W" horiz-adv-x="1088" d="M0 1088h64v-64h-64v64zM64 1088h64v-64h-64v64zM128 1088h64v-64h-64v64zM384 1088h64v-64h-64v64zM448 1088h64v-64h-64v64zM512 1088h64v-64h-64v64zM768 1088h64v-64h-64v64zM832 1088h64v-64h-64v64zM896 1088h64v-64h-64v64zM0 1024h64v-64h-64v64zM64 1024h64v-64 h-64v64zM128 1024h64v-64h-64v64zM384 1024h64v-64h-64v64zM448 1024h64v-64h-64v64zM512 1024h64v-64h-64v64zM768 1024h64v-64h-64v64zM832 1024h64v-64h-64v64zM896 1024h64v-64h-64v64zM0 960h64v-64h-64v64zM64 960h64v-64h-64v64zM128 960h64v-64h-64v64zM384 960h64 v-64h-64v64zM448 960h64v-64h-64v64zM512 960h64v-64h-64v64zM768 960h64v-64h-64v64zM832 960h64v-64h-64v64zM896 960h64v-64h-64v64zM0 896h64v-64h-64v64zM64 896h64v-64h-64v64zM128 896h64v-64h-64v64zM384 896h64v-64h-64v64zM448 896h64v-64h-64v64zM512 896h64v-64 h-64v64zM768 896h64v-64h-64v64zM832 896h64v-64h-64v64zM896 896h64v-64h-64v64zM0 832h64v-64h-64v64zM64 832h64v-64h-64v64zM128 832h64v-64h-64v64zM384 832h64v-64h-64v64zM448 832h64v-64h-64v64zM512 832h64v-64h-64v64zM768 832h64v-64h-64v64zM832 832h64v-64h-64 v64zM896 832h64v-64h-64v64zM0 768h64v-64h-64v64zM64 768h64v-64h-64v64zM128 768h64v-64h-64v64zM384 768h64v-64h-64v64zM448 768h64v-64h-64v64zM512 768h64v-64h-64v64zM768 768h64v-64h-64v64zM832 768h64v-64h-64v64zM896 768h64v-64h-64v64zM0 704h64v-64h-64v64z M64 704h64v-64h-64v64zM128 704h64v-64h-64v64zM384 704h64v-64h-64v64zM448 704h64v-64h-64v64zM512 704h64v-64h-64v64zM768 704h64v-64h-64v64zM832 704h64v-64h-64v64zM896 704h64v-64h-64v64zM0 640h64v-64h-64v64zM64 640h64v-64h-64v64zM128 640h64v-64h-64v64z M384 640h64v-64h-64v64zM448 640h64v-64h-64v64zM512 640h64v-64h-64v64zM768 640h64v-64h-64v64zM832 640h64v-64h-64v64zM896 640h64v-64h-64v64zM0 576h64v-64h-64v64zM64 576h64v-64h-64v64zM128 576h64v-64h-64v64zM384 576h64v-64h-64v64zM448 576h64v-64h-64v64z M512 576h64v-64h-64v64zM768 576h64v-64h-64v64zM832 576h64v-64h-64v64zM896 576h64v-64h-64v64zM0 512h64v-64h-64v64zM64 512h64v-64h-64v64zM128 512h64v-64h-64v64zM384 512h64v-64h-64v64zM448 512h64v-64h-64v64zM512 512h64v-64h-64v64zM768 512h64v-64h-64v64z M832 512h64v-64h-64v64zM896 512h64v-64h-64v64zM0 448h64v-64h-64v64zM64 448h64v-64h-64v64zM128 448h64v-64h-64v64zM384 448h64v-64h-64v64zM448 448h64v-64h-64v64zM512 448h64v-64h-64v64zM768 448h64v-64h-64v64zM832 448h64v-64h-64v64zM896 448h64v-64h-64v64z M0 384h64v-64h-64v64zM64 384h64v-64h-64v64zM128 384h64v-64h-64v64zM384 384h64v-64h-64v64zM448 384h64v-64h-64v64zM512 384h64v-64h-64v64zM768 384h64v-64h-64v64zM832 384h64v-64h-64v64zM896 384h64v-64h-64v64zM0 320h64v-64h-64v64zM64 320h64v-64h-64v64z M128 320h64v-64h-64v64zM384 320h64v-64h-64v64zM448 320h64v-64h-64v64zM512 320h64v-64h-64v64zM768 320h64v-64h-64v64zM832 320h64v-64h-64v64zM896 320h64v-64h-64v64zM0 256h64v-64h-64v64zM64 256h64v-64h-64v64zM128 256h64v-64h-64v64zM384 256h64v-64h-64v64z M448 256h64v-64h-64v64zM512 256h64v-64h-64v64zM768 256h64v-64h-64v64zM832 256h64v-64h-64v64zM896 256h64v-64h-64v64zM0 192h64v-64h-64v64zM64 192h64v-64h-64v64zM128 192h64v-64h-64v64zM192 192h64v-64h-64v64zM256 192h64v-64h-64v64zM320 192h64v-64h-64v64z M384 192h64v-64h-64v64zM448 192h64v-64h-64v64zM512 192h64v-64h-64v64zM576 192h64v-64h-64v64zM640 192h64v-64h-64v64zM704 192h64v-64h-64v64zM768 192h64v-64h-64v64zM832 192h64v-64h-64v64zM896 192h64v-64h-64v64zM64 128h64v-64h-64v64zM128 128h64v-64h-64v64z M192 128h64v-64h-64v64zM256 128h64v-64h-64v64zM320 128h64v-64h-64v64zM384 128h64v-64h-64v64zM448 128h64v-64h-64v64zM512 128h64v-64h-64v64zM576 128h64v-64h-64v64zM640 128h64v-64h-64v64zM704 128h64v-64h-64v64zM768 128h64v-64h-64v64zM832 128h64v-64h-64v64z M128 64h64v-64h-64v64zM192 64h64v-64h-64v64zM256 64h64v-64h-64v64zM320 64h64v-64h-64v64zM576 64h64v-64h-64v64zM640 64h64v-64h-64v64zM704 64h64v-64h-64v64zM768 64h64v-64h-64v64z" />
<glyph unicode="X" d="M0 1088h64v-64h-64v64zM64 1088h64v-64h-64v64zM128 1088h64v-64h-64v64zM512 1088h64v-64h-64v64zM576 1088h64v-64h-64v64zM640 1088h64v-64h-64v64zM0 1024h64v-64h-64v64zM64 1024h64v-64h-64v64zM128 1024h64v-64h-64v64zM512 1024h64v-64h-64v64zM576 1024h64v-64 h-64v64zM640 1024h64v-64h-64v64zM0 960h64v-64h-64v64zM64 960h64v-64h-64v64zM128 960h64v-64h-64v64zM512 960h64v-64h-64v64zM576 960h64v-64h-64v64zM640 960h64v-64h-64v64zM0 896h64v-64h-64v64zM64 896h64v-64h-64v64zM128 896h64v-64h-64v64zM512 896h64v-64h-64 v64zM576 896h64v-64h-64v64zM640 896h64v-64h-64v64zM0 832h64v-64h-64v64zM64 832h64v-64h-64v64zM128 832h64v-64h-64v64zM512 832h64v-64h-64v64zM576 832h64v-64h-64v64zM640 832h64v-64h-64v64zM0 768h64v-64h-64v64zM64 768h64v-64h-64v64zM128 768h64v-64h-64v64z M512 768h64v-64h-64v64zM576 768h64v-64h-64v64zM640 768h64v-64h-64v64zM0 704h64v-64h-64v64zM64 704h64v-64h-64v64zM128 704h64v-64h-64v64zM192 704h64v-64h-64v64zM448 704h64v-64h-64v64zM512 704h64v-64h-64v64zM576 704h64v-64h-64v64zM640 704h64v-64h-64v64z M64 640h64v-64h-64v64zM128 640h64v-64h-64v64zM192 640h64v-64h-64v64zM256 640h64v-64h-64v64zM320 640h64v-64h-64v64zM384 640h64v-64h-64v64zM448 640h64v-64h-64v64zM512 640h64v-64h-64v64zM576 640h64v-64h-64v64zM128 576h64v-64h-64v64zM192 576h64v-64h-64v64z M256 576h64v-64h-64v64zM320 576h64v-64h-64v64zM384 576h64v-64h-64v64zM448 576h64v-64h-64v64zM512 576h64v-64h-64v64zM128 512h64v-64h-64v64zM192 512h64v-64h-64v64zM256 512h64v-64h-64v64zM320 512h64v-64h-64v64zM384 512h64v-64h-64v64zM448 512h64v-64h-64v64z M512 512h64v-64h-64v64zM64 448h64v-64h-64v64zM128 448h64v-64h-64v64zM192 448h64v-64h-64v64zM448 448h64v-64h-64v64zM512 448h64v-64h-64v64zM576 448h64v-64h-64v64zM0 384h64v-64h-64v64zM64 384h64v-64h-64v64zM128 384h64v-64h-64v64zM512 384h64v-64h-64v64z M576 384h64v-64h-64v64zM640 384h64v-64h-64v64zM0 320h64v-64h-64v64zM64 320h64v-64h-64v64zM128 320h64v-64h-64v64zM512 320h64v-64h-64v64zM576 320h64v-64h-64v64zM640 320h64v-64h-64v64zM0 256h64v-64h-64v64zM64 256h64v-64h-64v64zM128 256h64v-64h-64v64z M512 256h64v-64h-64v64zM576 256h64v-64h-64v64zM640 256h64v-64h-64v64zM0 192h64v-64h-64v64zM64 192h64v-64h-64v64zM128 192h64v-64h-64v64zM512 192h64v-64h-64v64zM576 192h64v-64h-64v64zM640 192h64v-64h-64v64zM0 128h64v-64h-64v64zM64 128h64v-64h-64v64z M128 128h64v-64h-64v64zM512 128h64v-64h-64v64zM576 128h64v-64h-64v64zM640 128h64v-64h-64v64zM0 64h64v-64h-64v64zM64 64h64v-64h-64v64zM128 64h64v-64h-64v64zM512 64h64v-64h-64v64zM576 64h64v-64h-64v64zM640 64h64v-64h-64v64z" />
<glyph unicode="Y" d="M0 1088h64v-64h-64v64zM64 1088h64v-64h-64v64zM128 1088h64v-64h-64v64zM512 1088h64v-64h-64v64zM576 1088h64v-64h-64v64zM640 1088h64v-64h-64v64zM0 1024h64v-64h-64v64zM64 1024h64v-64h-64v64zM128 1024h64v-64h-64v64zM512 1024h64v-64h-64v64zM576 1024h64v-64 h-64v64zM640 1024h64v-64h-64v64zM0 960h64v-64h-64v64zM64 960h64v-64h-64v64zM128 960h64v-64h-64v64zM512 960h64v-64h-64v64zM576 960h64v-64h-64v64zM640 960h64v-64h-64v64zM0 896h64v-64h-64v64zM64 896h64v-64h-64v64zM128 896h64v-64h-64v64zM512 896h64v-64h-64 v64zM576 896h64v-64h-64v64zM640 896h64v-64h-64v64zM0 832h64v-64h-64v64zM64 832h64v-64h-64v64zM128 832h64v-64h-64v64zM512 832h64v-64h-64v64zM576 832h64v-64h-64v64zM640 832h64v-64h-64v64zM0 768h64v-64h-64v64zM64 768h64v-64h-64v64zM128 768h64v-64h-64v64z M512 768h64v-64h-64v64zM576 768h64v-64h-64v64zM640 768h64v-64h-64v64zM0 704h64v-64h-64v64zM64 704h64v-64h-64v64zM128 704h64v-64h-64v64zM512 704h64v-64h-64v64zM576 704h64v-64h-64v64zM640 704h64v-64h-64v64zM0 640h64v-64h-64v64zM64 640h64v-64h-64v64z M128 640h64v-64h-64v64zM512 640h64v-64h-64v64zM576 640h64v-64h-64v64zM640 640h64v-64h-64v64zM0 576h64v-64h-64v64zM64 576h64v-64h-64v64zM128 576h64v-64h-64v64zM512 576h64v-64h-64v64zM576 576h64v-64h-64v64zM640 576h64v-64h-64v64zM0 512h64v-64h-64v64z M64 512h64v-64h-64v64zM128 512h64v-64h-64v64zM192 512h64v-64h-64v64zM256 512h64v-64h-64v64zM320 512h64v-64h-64v64zM384 512h64v-64h-64v64zM448 512h64v-64h-64v64zM512 512h64v-64h-64v64zM576 512h64v-64h-64v64zM640 512h64v-64h-64v64zM64 448h64v-64h-64v64z M128 448h64v-64h-64v64zM192 448h64v-64h-64v64zM256 448h64v-64h-64v64zM320 448h64v-64h-64v64zM384 448h64v-64h-64v64zM448 448h64v-64h-64v64zM512 448h64v-64h-64v64zM576 448h64v-64h-64v64zM640 448h64v-64h-64v64zM128 384h64v-64h-64v64zM192 384h64v-64h-64v64z M256 384h64v-64h-64v64zM320 384h64v-64h-64v64zM384 384h64v-64h-64v64zM448 384h64v-64h-64v64zM512 384h64v-64h-64v64zM576 384h64v-64h-64v64zM640 384h64v-64h-64v64zM512 320h64v-64h-64v64zM576 320h64v-64h-64v64zM640 320h64v-64h-64v64zM512 256h64v-64h-64v64z M576 256h64v-64h-64v64zM640 256h64v-64h-64v64zM64 192h64v-64h-64v64zM128 192h64v-64h-64v64zM192 192h64v-64h-64v64zM256 192h64v-64h-64v64zM320 192h64v-64h-64v64zM384 192h64v-64h-64v64zM448 192h64v-64h-64v64zM512 192h64v-64h-64v64zM576 192h64v-64h-64v64z M640 192h64v-64h-64v64zM64 128h64v-64h-64v64zM128 128h64v-64h-64v64zM192 128h64v-64h-64v64zM256 128h64v-64h-64v64zM320 128h64v-64h-64v64zM384 128h64v-64h-64v64zM448 128h64v-64h-64v64zM512 128h64v-64h-64v64zM576 128h64v-64h-64v64zM64 64h64v-64h-64v64z M128 64h64v-64h-64v64zM192 64h64v-64h-64v64zM256 64h64v-64h-64v64zM320 64h64v-64h-64v64zM384 64h64v-64h-64v64zM448 64h64v-64h-64v64zM512 64h64v-64h-64v64z" />
<glyph unicode="Z" horiz-adv-x="768" d="M0 1088h64v-64h-64v64zM64 1088h64v-64h-64v64zM128 1088h64v-64h-64v64zM192 1088h64v-64h-64v64zM256 1088h64v-64h-64v64zM320 1088h64v-64h-64v64zM384 1088h64v-64h-64v64zM448 1088h64v-64h-64v64zM512 1088h64v-64h-64v64zM576 1088h64v-64h-64v64zM0 1024h64v-64 h-64v64zM64 1024h64v-64h-64v64zM128 1024h64v-64h-64v64zM192 1024h64v-64h-64v64zM256 1024h64v-64h-64v64zM320 1024h64v-64h-64v64zM384 1024h64v-64h-64v64zM448 1024h64v-64h-64v64zM512 1024h64v-64h-64v64zM576 1024h64v-64h-64v64zM0 960h64v-64h-64v64zM64 960h64 v-64h-64v64zM128 960h64v-64h-64v64zM192 960h64v-64h-64v64zM256 960h64v-64h-64v64zM320 960h64v-64h-64v64zM384 960h64v-64h-64v64zM448 960h64v-64h-64v64zM512 960h64v-64h-64v64zM576 960h64v-64h-64v64zM448 896h64v-64h-64v64zM512 896h64v-64h-64v64zM576 896h64 v-64h-64v64zM448 832h64v-64h-64v64zM512 832h64v-64h-64v64zM576 832h64v-64h-64v64zM384 768h64v-64h-64v64zM448 768h64v-64h-64v64zM512 768h64v-64h-64v64zM576 768h64v-64h-64v64zM320 704h64v-64h-64v64zM384 704h64v-64h-64v64zM448 704h64v-64h-64v64zM512 704h64 v-64h-64v64zM256 640h64v-64h-64v64zM320 640h64v-64h-64v64zM384 640h64v-64h-64v64zM448 640h64v-64h-64v64zM192 576h64v-64h-64v64zM256 576h64v-64h-64v64zM320 576h64v-64h-64v64zM384 576h64v-64h-64v64zM128 512h64v-64h-64v64zM192 512h64v-64h-64v64zM256 512h64 v-64h-64v64zM320 512h64v-64h-64v64zM64 448h64v-64h-64v64zM128 448h64v-64h-64v64zM192 448h64v-64h-64v64zM256 448h64v-64h-64v64zM0 384h64v-64h-64v64zM64 384h64v-64h-64v64zM128 384h64v-64h-64v64zM192 384h64v-64h-64v64zM0 320h64v-64h-64v64zM64 320h64v-64h-64 v64zM128 320h64v-64h-64v64zM0 256h64v-64h-64v64zM64 256h64v-64h-64v64zM128 256h64v-64h-64v64zM0 192h64v-64h-64v64zM64 192h64v-64h-64v64zM128 192h64v-64h-64v64zM192 192h64v-64h-64v64zM256 192h64v-64h-64v64zM320 192h64v-64h-64v64zM384 192h64v-64h-64v64z M448 192h64v-64h-64v64zM512 192h64v-64h-64v64zM576 192h64v-64h-64v64zM0 128h64v-64h-64v64zM64 128h64v-64h-64v64zM128 128h64v-64h-64v64zM192 128h64v-64h-64v64zM256 128h64v-64h-64v64zM320 128h64v-64h-64v64zM384 128h64v-64h-64v64zM448 128h64v-64h-64v64z M512 128h64v-64h-64v64zM576 128h64v-64h-64v64zM0 64h64v-64h-64v64zM64 64h64v-64h-64v64zM128 64h64v-64h-64v64zM192 64h64v-64h-64v64zM256 64h64v-64h-64v64zM320 64h64v-64h-64v64zM384 64h64v-64h-64v64zM448 64h64v-64h-64v64zM512 64h64v-64h-64v64zM576 64h64 v-64h-64v64z" />
<glyph unicode="[" horiz-adv-x="512" d="M0 1152h64v-64h-64v64zM64 1152h64v-64h-64v64zM128 1152h64v-64h-64v64zM192 1152h64v-64h-64v64zM256 1152h64v-64h-64v64zM320 1152h64v-64h-64v64zM0 1088h64v-64h-64v64zM64 1088h64v-64h-64v64zM128 1088h64v-64h-64v64zM192 1088h64v-64h-64v64zM256 1088h64v-64 h-64v64zM320 1088h64v-64h-64v64zM0 1024h64v-64h-64v64zM64 1024h64v-64h-64v64zM128 1024h64v-64h-64v64zM192 1024h64v-64h-64v64zM256 1024h64v-64h-64v64zM320 1024h64v-64h-64v64zM0 960h64v-64h-64v64zM64 960h64v-64h-64v64zM128 960h64v-64h-64v64zM0 896h64v-64 h-64v64zM64 896h64v-64h-64v64zM128 896h64v-64h-64v64zM0 832h64v-64h-64v64zM64 832h64v-64h-64v64zM128 832h64v-64h-64v64zM0 768h64v-64h-64v64zM64 768h64v-64h-64v64zM128 768h64v-64h-64v64zM0 704h64v-64h-64v64zM64 704h64v-64h-64v64zM128 704h64v-64h-64v64z M0 640h64v-64h-64v64zM64 640h64v-64h-64v64zM128 640h64v-64h-64v64zM0 576h64v-64h-64v64zM64 576h64v-64h-64v64zM128 576h64v-64h-64v64zM0 512h64v-64h-64v64zM64 512h64v-64h-64v64zM128 512h64v-64h-64v64zM0 448h64v-64h-64v64zM64 448h64v-64h-64v64zM128 448h64 v-64h-64v64zM0 384h64v-64h-64v64zM64 384h64v-64h-64v64zM128 384h64v-64h-64v64zM0 320h64v-64h-64v64zM64 320h64v-64h-64v64zM128 320h64v-64h-64v64zM0 256h64v-64h-64v64zM64 256h64v-64h-64v64zM128 256h64v-64h-64v64zM0 192h64v-64h-64v64zM64 192h64v-64h-64v64z M128 192h64v-64h-64v64zM0 128h64v-64h-64v64zM64 128h64v-64h-64v64zM128 128h64v-64h-64v64zM192 128h64v-64h-64v64zM256 128h64v-64h-64v64zM320 128h64v-64h-64v64zM0 64h64v-64h-64v64zM64 64h64v-64h-64v64zM128 64h64v-64h-64v64zM192 64h64v-64h-64v64zM256 64h64 v-64h-64v64zM320 64h64v-64h-64v64zM0 0h64v-64h-64v64zM64 0h64v-64h-64v64zM128 0h64v-64h-64v64zM192 0h64v-64h-64v64zM256 0h64v-64h-64v64zM320 0h64v-64h-64v64z" />
<glyph unicode="\" horiz-adv-x="768" d="M0 1024h64v-64h-64v64zM64 1024h64v-64h-64v64zM128 1024h64v-64h-64v64zM0 960h64v-64h-64v64zM64 960h64v-64h-64v64zM128 960h64v-64h-64v64zM64 896h64v-64h-64v64zM128 896h64v-64h-64v64zM192 896h64v-64h-64v64zM64 832h64v-64h-64v64zM128 832h64v-64h-64v64z M192 832h64v-64h-64v64zM128 768h64v-64h-64v64zM192 768h64v-64h-64v64zM256 768h64v-64h-64v64zM128 704h64v-64h-64v64zM192 704h64v-64h-64v64zM256 704h64v-64h-64v64zM192 640h64v-64h-64v64zM256 640h64v-64h-64v64zM320 640h64v-64h-64v64zM192 576h64v-64h-64v64z M256 576h64v-64h-64v64zM320 576h64v-64h-64v64zM256 512h64v-64h-64v64zM320 512h64v-64h-64v64zM384 512h64v-64h-64v64zM256 448h64v-64h-64v64zM320 448h64v-64h-64v64zM384 448h64v-64h-64v64zM320 384h64v-64h-64v64zM384 384h64v-64h-64v64zM448 384h64v-64h-64v64z M320 320h64v-64h-64v64zM384 320h64v-64h-64v64zM448 320h64v-64h-64v64zM384 256h64v-64h-64v64zM448 256h64v-64h-64v64zM512 256h64v-64h-64v64zM384 192h64v-64h-64v64zM448 192h64v-64h-64v64zM512 192h64v-64h-64v64zM448 128h64v-64h-64v64zM512 128h64v-64h-64v64z M576 128h64v-64h-64v64zM448 64h64v-64h-64v64zM512 64h64v-64h-64v64zM576 64h64v-64h-64v64z" />
<glyph unicode="]" horiz-adv-x="512" d="M0 1152h64v-64h-64v64zM64 1152h64v-64h-64v64zM128 1152h64v-64h-64v64zM192 1152h64v-64h-64v64zM256 1152h64v-64h-64v64zM320 1152h64v-64h-64v64zM0 1088h64v-64h-64v64zM64 1088h64v-64h-64v64zM128 1088h64v-64h-64v64zM192 1088h64v-64h-64v64zM256 1088h64v-64 h-64v64zM320 1088h64v-64h-64v64zM0 1024h64v-64h-64v64zM64 1024h64v-64h-64v64zM128 1024h64v-64h-64v64zM192 1024h64v-64h-64v64zM256 1024h64v-64h-64v64zM320 1024h64v-64h-64v64zM192 960h64v-64h-64v64zM256 960h64v-64h-64v64zM320 960h64v-64h-64v64zM192 896h64 v-64h-64v64zM256 896h64v-64h-64v64zM320 896h64v-64h-64v64zM192 832h64v-64h-64v64zM256 832h64v-64h-64v64zM320 832h64v-64h-64v64zM192 768h64v-64h-64v64zM256 768h64v-64h-64v64zM320 768h64v-64h-64v64zM192 704h64v-64h-64v64zM256 704h64v-64h-64v64zM320 704h64 v-64h-64v64zM192 640h64v-64h-64v64zM256 640h64v-64h-64v64zM320 640h64v-64h-64v64zM192 576h64v-64h-64v64zM256 576h64v-64h-64v64zM320 576h64v-64h-64v64zM192 512h64v-64h-64v64zM256 512h64v-64h-64v64zM320 512h64v-64h-64v64zM192 448h64v-64h-64v64zM256 448h64 v-64h-64v64zM320 448h64v-64h-64v64zM192 384h64v-64h-64v64zM256 384h64v-64h-64v64zM320 384h64v-64h-64v64zM192 320h64v-64h-64v64zM256 320h64v-64h-64v64zM320 320h64v-64h-64v64zM192 256h64v-64h-64v64zM256 256h64v-64h-64v64zM320 256h64v-64h-64v64zM192 192h64 v-64h-64v64zM256 192h64v-64h-64v64zM320 192h64v-64h-64v64zM0 128h64v-64h-64v64zM64 128h64v-64h-64v64zM128 128h64v-64h-64v64zM192 128h64v-64h-64v64zM256 128h64v-64h-64v64zM320 128h64v-64h-64v64zM0 64h64v-64h-64v64zM64 64h64v-64h-64v64zM128 64h64v-64h-64 v64zM192 64h64v-64h-64v64zM256 64h64v-64h-64v64zM320 64h64v-64h-64v64zM0 0h64v-64h-64v64zM64 0h64v-64h-64v64zM128 0h64v-64h-64v64zM192 0h64v-64h-64v64zM256 0h64v-64h-64v64zM320 0h64v-64h-64v64z" />
<glyph unicode="^" horiz-adv-x="704" d="M192 1088h64v-64h-64v64zM256 1088h64v-64h-64v64zM320 1088h64v-64h-64v64zM128 1024h64v-64h-64v64zM192 1024h64v-64h-64v64zM256 1024h64v-64h-64v64zM320 1024h64v-64h-64v64zM384 1024h64v-64h-64v64zM64 960h64v-64h-64v64zM128 960h64v-64h-64v64zM192 960h64 v-64h-64v64zM256 960h64v-64h-64v64zM320 960h64v-64h-64v64zM384 960h64v-64h-64v64zM448 960h64v-64h-64v64zM0 896h64v-64h-64v64zM64 896h64v-64h-64v64zM128 896h64v-64h-64v64zM192 896h64v-64h-64v64zM320 896h64v-64h-64v64zM384 896h64v-64h-64v64zM448 896h64v-64 h-64v64zM512 896h64v-64h-64v64zM0 832h64v-64h-64v64zM64 832h64v-64h-64v64zM128 832h64v-64h-64v64zM384 832h64v-64h-64v64zM448 832h64v-64h-64v64zM512 832h64v-64h-64v64z" />
<glyph unicode="_" d="M0 0h64v-64h-64v64zM64 0h64v-64h-64v64zM128 0h64v-64h-64v64zM192 0h64v-64h-64v64zM256 0h64v-64h-64v64zM320 0h64v-64h-64v64zM384 0h64v-64h-64v64zM448 0h64v-64h-64v64zM512 0h64v-64h-64v64zM576 0h64v-64h-64v64zM640 0h64v-64h-64v64zM0 -64h64v-64h-64v64z M64 -64h64v-64h-64v64zM128 -64h64v-64h-64v64zM192 -64h64v-64h-64v64zM256 -64h64v-64h-64v64zM320 -64h64v-64h-64v64zM384 -64h64v-64h-64v64zM448 -64h64v-64h-64v64zM512 -64h64v-64h-64v64zM576 -64h64v-64h-64v64zM640 -64h64v-64h-64v64zM0 -128h64v-64h-64v64z M64 -128h64v-64h-64v64zM128 -128h64v-64h-64v64zM192 -128h64v-64h-64v64zM256 -128h64v-64h-64v64zM320 -128h64v-64h-64v64zM384 -128h64v-64h-64v64zM448 -128h64v-64h-64v64zM512 -128h64v-64h-64v64zM576 -128h64v-64h-64v64zM640 -128h64v-64h-64v64z" />
<glyph unicode="`" horiz-adv-x="512" d="M64 1088h64v-64h-64v64zM128 1088h64v-64h-64v64zM192 1088h64v-64h-64v64zM64 1024h64v-64h-64v64zM128 1024h64v-64h-64v64zM192 1024h64v-64h-64v64zM64 960h64v-64h-64v64zM128 960h64v-64h-64v64zM192 960h64v-64h-64v64zM64 896h64v-64h-64v64zM128 896h64v-64h-64 v64zM192 896h64v-64h-64v64zM256 896h64v-64h-64v64zM320 896h64v-64h-64v64zM128 832h64v-64h-64v64zM192 832h64v-64h-64v64zM256 832h64v-64h-64v64zM320 832h64v-64h-64v64zM192 768h64v-64h-64v64zM256 768h64v-64h-64v64zM320 768h64v-64h-64v64z" />
<glyph unicode="a" d="M64 768h64v-64h-64v64zM128 768h64v-64h-64v64zM192 768h64v-64h-64v64zM256 768h64v-64h-64v64zM320 768h64v-64h-64v64zM384 768h64v-64h-64v64zM448 768h64v-64h-64v64zM512 768h64v-64h-64v64zM64 704h64v-64h-64v64zM128 704h64v-64h-64v64zM192 704h64v-64h-64v64z M256 704h64v-64h-64v64zM320 704h64v-64h-64v64zM384 704h64v-64h-64v64zM448 704h64v-64h-64v64zM512 704h64v-64h-64v64zM576 704h64v-64h-64v64zM64 640h64v-64h-64v64zM128 640h64v-64h-64v64zM192 640h64v-64h-64v64zM256 640h64v-64h-64v64zM320 640h64v-64h-64v64z M384 640h64v-64h-64v64zM448 640h64v-64h-64v64zM512 640h64v-64h-64v64zM576 640h64v-64h-64v64zM640 640h64v-64h-64v64zM512 576h64v-64h-64v64zM576 576h64v-64h-64v64zM640 576h64v-64h-64v64zM512 512h64v-64h-64v64zM576 512h64v-64h-64v64zM640 512h64v-64h-64v64z M128 448h64v-64h-64v64zM192 448h64v-64h-64v64zM256 448h64v-64h-64v64zM320 448h64v-64h-64v64zM384 448h64v-64h-64v64zM448 448h64v-64h-64v64zM512 448h64v-64h-64v64zM576 448h64v-64h-64v64zM640 448h64v-64h-64v64zM64 384h64v-64h-64v64zM128 384h64v-64h-64v64z M192 384h64v-64h-64v64zM256 384h64v-64h-64v64zM320 384h64v-64h-64v64zM384 384h64v-64h-64v64zM448 384h64v-64h-64v64zM512 384h64v-64h-64v64zM576 384h64v-64h-64v64zM640 384h64v-64h-64v64zM0 320h64v-64h-64v64zM64 320h64v-64h-64v64zM128 320h64v-64h-64v64z M512 320h64v-64h-64v64zM576 320h64v-64h-64v64zM640 320h64v-64h-64v64zM0 256h64v-64h-64v64zM64 256h64v-64h-64v64zM128 256h64v-64h-64v64zM512 256h64v-64h-64v64zM576 256h64v-64h-64v64zM640 256h64v-64h-64v64zM0 192h64v-64h-64v64zM64 192h64v-64h-64v64z M128 192h64v-64h-64v64zM192 192h64v-64h-64v64zM256 192h64v-64h-64v64zM320 192h64v-64h-64v64zM384 192h64v-64h-64v64zM448 192h64v-64h-64v64zM512 192h64v-64h-64v64zM576 192h64v-64h-64v64zM640 192h64v-64h-64v64zM64 128h64v-64h-64v64zM128 128h64v-64h-64v64z M192 128h64v-64h-64v64zM256 128h64v-64h-64v64zM320 128h64v-64h-64v64zM384 128h64v-64h-64v64zM448 128h64v-64h-64v64zM512 128h64v-64h-64v64zM576 128h64v-64h-64v64zM640 128h64v-64h-64v64zM128 64h64v-64h-64v64zM192 64h64v-64h-64v64zM256 64h64v-64h-64v64z M320 64h64v-64h-64v64zM512 64h64v-64h-64v64zM576 64h64v-64h-64v64zM640 64h64v-64h-64v64z" />
<glyph unicode="b" d="M0 1088h64v-64h-64v64zM64 1088h64v-64h-64v64zM128 1088h64v-64h-64v64zM0 1024h64v-64h-64v64zM64 1024h64v-64h-64v64zM128 1024h64v-64h-64v64zM0 960h64v-64h-64v64zM64 960h64v-64h-64v64zM128 960h64v-64h-64v64zM0 896h64v-64h-64v64zM64 896h64v-64h-64v64z M128 896h64v-64h-64v64zM0 832h64v-64h-64v64zM64 832h64v-64h-64v64zM128 832h64v-64h-64v64zM0 768h64v-64h-64v64zM64 768h64v-64h-64v64zM128 768h64v-64h-64v64zM192 768h64v-64h-64v64zM256 768h64v-64h-64v64zM320 768h64v-64h-64v64zM384 768h64v-64h-64v64z M448 768h64v-64h-64v64zM512 768h64v-64h-64v64zM0 704h64v-64h-64v64zM64 704h64v-64h-64v64zM128 704h64v-64h-64v64zM192 704h64v-64h-64v64zM256 704h64v-64h-64v64zM320 704h64v-64h-64v64zM384 704h64v-64h-64v64zM448 704h64v-64h-64v64zM512 704h64v-64h-64v64z M576 704h64v-64h-64v64zM0 640h64v-64h-64v64zM64 640h64v-64h-64v64zM128 640h64v-64h-64v64zM192 640h64v-64h-64v64zM256 640h64v-64h-64v64zM320 640h64v-64h-64v64zM384 640h64v-64h-64v64zM448 640h64v-64h-64v64zM512 640h64v-64h-64v64zM576 640h64v-64h-64v64z M640 640h64v-64h-64v64zM0 576h64v-64h-64v64zM64 576h64v-64h-64v64zM128 576h64v-64h-64v64zM512 576h64v-64h-64v64zM576 576h64v-64h-64v64zM640 576h64v-64h-64v64zM0 512h64v-64h-64v64zM64 512h64v-64h-64v64zM128 512h64v-64h-64v64zM512 512h64v-64h-64v64z M576 512h64v-64h-64v64zM640 512h64v-64h-64v64zM0 448h64v-64h-64v64zM64 448h64v-64h-64v64zM128 448h64v-64h-64v64zM512 448h64v-64h-64v64zM576 448h64v-64h-64v64zM640 448h64v-64h-64v64zM0 384h64v-64h-64v64zM64 384h64v-64h-64v64zM128 384h64v-64h-64v64z M512 384h64v-64h-64v64zM576 384h64v-64h-64v64zM640 384h64v-64h-64v64zM0 320h64v-64h-64v64zM64 320h64v-64h-64v64zM128 320h64v-64h-64v64zM512 320h64v-64h-64v64zM576 320h64v-64h-64v64zM640 320h64v-64h-64v64zM0 256h64v-64h-64v64zM64 256h64v-64h-64v64z M128 256h64v-64h-64v64zM512 256h64v-64h-64v64zM576 256h64v-64h-64v64zM640 256h64v-64h-64v64zM0 192h64v-64h-64v64zM64 192h64v-64h-64v64zM128 192h64v-64h-64v64zM192 192h64v-64h-64v64zM256 192h64v-64h-64v64zM320 192h64v-64h-64v64zM384 192h64v-64h-64v64z M448 192h64v-64h-64v64zM512 192h64v-64h-64v64zM576 192h64v-64h-64v64zM640 192h64v-64h-64v64zM0 128h64v-64h-64v64zM64 128h64v-64h-64v64zM128 128h64v-64h-64v64zM192 128h64v-64h-64v64zM256 128h64v-64h-64v64zM320 128h64v-64h-64v64zM384 128h64v-64h-64v64z M448 128h64v-64h-64v64zM512 128h64v-64h-64v64zM576 128h64v-64h-64v64zM64 64h64v-64h-64v64zM128 64h64v-64h-64v64zM192 64h64v-64h-64v64zM256 64h64v-64h-64v64zM320 64h64v-64h-64v64zM384 64h64v-64h-64v64zM448 64h64v-64h-64v64zM512 64h64v-64h-64v64z" />
<glyph unicode="c" d="M128 768h64v-64h-64v64zM192 768h64v-64h-64v64zM256 768h64v-64h-64v64zM320 768h64v-64h-64v64zM384 768h64v-64h-64v64zM448 768h64v-64h-64v64zM512 768h64v-64h-64v64zM64 704h64v-64h-64v64zM128 704h64v-64h-64v64zM192 704h64v-64h-64v64zM256 704h64v-64h-64v64 zM320 704h64v-64h-64v64zM384 704h64v-64h-64v64zM448 704h64v-64h-64v64zM512 704h64v-64h-64v64zM576 704h64v-64h-64v64zM0 640h64v-64h-64v64zM64 640h64v-64h-64v64zM128 640h64v-64h-64v64zM192 640h64v-64h-64v64zM256 640h64v-64h-64v64zM320 640h64v-64h-64v64z M384 640h64v-64h-64v64zM448 640h64v-64h-64v64zM512 640h64v-64h-64v64zM576 640h64v-64h-64v64zM640 640h64v-64h-64v64zM0 576h64v-64h-64v64zM64 576h64v-64h-64v64zM128 576h64v-64h-64v64zM512 576h64v-64h-64v64zM576 576h64v-64h-64v64zM640 576h64v-64h-64v64z M0 512h64v-64h-64v64zM64 512h64v-64h-64v64zM128 512h64v-64h-64v64zM512 512h64v-64h-64v64zM576 512h64v-64h-64v64zM640 512h64v-64h-64v64zM0 448h64v-64h-64v64zM64 448h64v-64h-64v64zM128 448h64v-64h-64v64zM0 384h64v-64h-64v64zM64 384h64v-64h-64v64zM128 384 h64v-64h-64v64zM0 320h64v-64h-64v64zM64 320h64v-64h-64v64zM128 320h64v-64h-64v64zM512 320h64v-64h-64v64zM576 320h64v-64h-64v64zM640 320h64v-64h-64v64zM0 256h64v-64h-64v64zM64 256h64v-64h-64v64zM128 256h64v-64h-64v64zM512 256h64v-64h-64v64zM576 256h64v-64 h-64v64zM640 256h64v-64h-64v64zM0 192h64v-64h-64v64zM64 192h64v-64h-64v64zM128 192h64v-64h-64v64zM192 192h64v-64h-64v64zM256 192h64v-64h-64v64zM320 192h64v-64h-64v64zM384 192h64v-64h-64v64zM448 192h64v-64h-64v64zM512 192h64v-64h-64v64zM576 192h64v-64h-64 v64zM640 192h64v-64h-64v64zM64 128h64v-64h-64v64zM128 128h64v-64h-64v64zM192 128h64v-64h-64v64zM256 128h64v-64h-64v64zM320 128h64v-64h-64v64zM384 128h64v-64h-64v64zM448 128h64v-64h-64v64zM512 128h64v-64h-64v64zM576 128h64v-64h-64v64zM128 64h64v-64h-64v64 zM192 64h64v-64h-64v64zM256 64h64v-64h-64v64zM320 64h64v-64h-64v64zM384 64h64v-64h-64v64zM448 64h64v-64h-64v64zM512 64h64v-64h-64v64z" />
<glyph unicode="d" horiz-adv-x="896" d="M512 1088h64v-64h-64v64zM576 1088h64v-64h-64v64zM640 1088h64v-64h-64v64zM512 1024h64v-64h-64v64zM576 1024h64v-64h-64v64zM640 1024h64v-64h-64v64zM512 960h64v-64h-64v64zM576 960h64v-64h-64v64zM640 960h64v-64h-64v64zM512 896h64v-64h-64v64zM576 896h64v-64 h-64v64zM640 896h64v-64h-64v64zM512 832h64v-64h-64v64zM576 832h64v-64h-64v64zM640 832h64v-64h-64v64zM128 768h64v-64h-64v64zM192 768h64v-64h-64v64zM256 768h64v-64h-64v64zM320 768h64v-64h-64v64zM384 768h64v-64h-64v64zM448 768h64v-64h-64v64zM512 768h64v-64 h-64v64zM576 768h64v-64h-64v64zM640 768h64v-64h-64v64zM64 704h64v-64h-64v64zM128 704h64v-64h-64v64zM192 704h64v-64h-64v64zM256 704h64v-64h-64v64zM320 704h64v-64h-64v64zM384 704h64v-64h-64v64zM448 704h64v-64h-64v64zM512 704h64v-64h-64v64zM576 704h64v-64 h-64v64zM640 704h64v-64h-64v64zM0 640h64v-64h-64v64zM64 640h64v-64h-64v64zM128 640h64v-64h-64v64zM192 640h64v-64h-64v64zM256 640h64v-64h-64v64zM320 640h64v-64h-64v64zM384 640h64v-64h-64v64zM448 640h64v-64h-64v64zM512 640h64v-64h-64v64zM576 640h64v-64h-64 v64zM640 640h64v-64h-64v64zM0 576h64v-64h-64v64zM64 576h64v-64h-64v64zM128 576h64v-64h-64v64zM512 576h64v-64h-64v64zM576 576h64v-64h-64v64zM640 576h64v-64h-64v64zM0 512h64v-64h-64v64zM64 512h64v-64h-64v64zM128 512h64v-64h-64v64zM512 512h64v-64h-64v64z M576 512h64v-64h-64v64zM640 512h64v-64h-64v64zM0 448h64v-64h-64v64zM64 448h64v-64h-64v64zM128 448h64v-64h-64v64zM512 448h64v-64h-64v64zM576 448h64v-64h-64v64zM640 448h64v-64h-64v64zM0 384h64v-64h-64v64zM64 384h64v-64h-64v64zM128 384h64v-64h-64v64z M512 384h64v-64h-64v64zM576 384h64v-64h-64v64zM640 384h64v-64h-64v64zM0 320h64v-64h-64v64zM64 320h64v-64h-64v64zM128 320h64v-64h-64v64zM512 320h64v-64h-64v64zM576 320h64v-64h-64v64zM640 320h64v-64h-64v64zM0 256h64v-64h-64v64zM64 256h64v-64h-64v64z M128 256h64v-64h-64v64zM512 256h64v-64h-64v64zM576 256h64v-64h-64v64zM640 256h64v-64h-64v64zM0 192h64v-64h-64v64zM64 192h64v-64h-64v64zM128 192h64v-64h-64v64zM192 192h64v-64h-64v64zM256 192h64v-64h-64v64zM320 192h64v-64h-64v64zM384 192h64v-64h-64v64z M448 192h64v-64h-64v64zM512 192h64v-64h-64v64zM576 192h64v-64h-64v64zM640 192h64v-64h-64v64zM704 192h64v-64h-64v64zM64 128h64v-64h-64v64zM128 128h64v-64h-64v64zM192 128h64v-64h-64v64zM256 128h64v-64h-64v64zM320 128h64v-64h-64v64zM384 128h64v-64h-64v64z M448 128h64v-64h-64v64zM512 128h64v-64h-64v64zM576 128h64v-64h-64v64zM640 128h64v-64h-64v64zM704 128h64v-64h-64v64zM128 64h64v-64h-64v64zM192 64h64v-64h-64v64zM256 64h64v-64h-64v64zM320 64h64v-64h-64v64zM512 64h64v-64h-64v64zM576 64h64v-64h-64v64zM640 64 h64v-64h-64v64zM704 64h64v-64h-64v64z" />
<glyph unicode="e" d="M128 768h64v-64h-64v64zM192 768h64v-64h-64v64zM256 768h64v-64h-64v64zM320 768h64v-64h-64v64zM384 768h64v-64h-64v64zM448 768h64v-64h-64v64zM512 768h64v-64h-64v64zM64 704h64v-64h-64v64zM128 704h64v-64h-64v64zM192 704h64v-64h-64v64zM256 704h64v-64h-64v64 zM320 704h64v-64h-64v64zM384 704h64v-64h-64v64zM448 704h64v-64h-64v64zM512 704h64v-64h-64v64zM576 704h64v-64h-64v64zM0 640h64v-64h-64v64zM64 640h64v-64h-64v64zM128 640h64v-64h-64v64zM192 640h64v-64h-64v64zM256 640h64v-64h-64v64zM320 640h64v-64h-64v64z M384 640h64v-64h-64v64zM448 640h64v-64h-64v64zM512 640h64v-64h-64v64zM576 640h64v-64h-64v64zM640 640h64v-64h-64v64zM0 576h64v-64h-64v64zM64 576h64v-64h-64v64zM128 576h64v-64h-64v64zM512 576h64v-64h-64v64zM576 576h64v-64h-64v64zM640 576h64v-64h-64v64z M0 512h64v-64h-64v64zM64 512h64v-64h-64v64zM128 512h64v-64h-64v64zM512 512h64v-64h-64v64zM576 512h64v-64h-64v64zM640 512h64v-64h-64v64zM0 448h64v-64h-64v64zM64 448h64v-64h-64v64zM128 448h64v-64h-64v64zM192 448h64v-64h-64v64zM256 448h64v-64h-64v64z M320 448h64v-64h-64v64zM384 448h64v-64h-64v64zM448 448h64v-64h-64v64zM512 448h64v-64h-64v64zM576 448h64v-64h-64v64zM640 448h64v-64h-64v64zM0 384h64v-64h-64v64zM64 384h64v-64h-64v64zM128 384h64v-64h-64v64zM192 384h64v-64h-64v64zM256 384h64v-64h-64v64z M320 384h64v-64h-64v64zM384 384h64v-64h-64v64zM448 384h64v-64h-64v64zM512 384h64v-64h-64v64zM576 384h64v-64h-64v64zM0 320h64v-64h-64v64zM64 320h64v-64h-64v64zM128 320h64v-64h-64v64zM0 256h64v-64h-64v64zM64 256h64v-64h-64v64zM128 256h64v-64h-64v64zM0 192 h64v-64h-64v64zM64 192h64v-64h-64v64zM128 192h64v-64h-64v64zM192 192h64v-64h-64v64zM256 192h64v-64h-64v64zM320 192h64v-64h-64v64zM384 192h64v-64h-64v64zM448 192h64v-64h-64v64zM512 192h64v-64h-64v64zM576 192h64v-64h-64v64zM64 128h64v-64h-64v64zM128 128h64 v-64h-64v64zM192 128h64v-64h-64v64zM256 128h64v-64h-64v64zM320 128h64v-64h-64v64zM384 128h64v-64h-64v64zM448 128h64v-64h-64v64zM512 128h64v-64h-64v64zM576 128h64v-64h-64v64zM128 64h64v-64h-64v64zM192 64h64v-64h-64v64zM256 64h64v-64h-64v64zM320 64h64v-64 h-64v64zM384 64h64v-64h-64v64zM448 64h64v-64h-64v64zM512 64h64v-64h-64v64zM576 64h64v-64h-64v64z" />
<glyph unicode="f" horiz-adv-x="704" d="M256 1088h64v-64h-64v64zM320 1088h64v-64h-64v64zM384 1088h64v-64h-64v64zM448 1088h64v-64h-64v64zM512 1088h64v-64h-64v64zM192 1024h64v-64h-64v64zM256 1024h64v-64h-64v64zM320 1024h64v-64h-64v64zM384 1024h64v-64h-64v64zM448 1024h64v-64h-64v64zM512 1024 h64v-64h-64v64zM128 960h64v-64h-64v64zM192 960h64v-64h-64v64zM256 960h64v-64h-64v64zM320 960h64v-64h-64v64zM384 960h64v-64h-64v64zM448 960h64v-64h-64v64zM512 960h64v-64h-64v64zM128 896h64v-64h-64v64zM192 896h64v-64h-64v64zM256 896h64v-64h-64v64zM128 832 h64v-64h-64v64zM192 832h64v-64h-64v64zM256 832h64v-64h-64v64zM128 768h64v-64h-64v64zM192 768h64v-64h-64v64zM256 768h64v-64h-64v64zM0 704h64v-64h-64v64zM64 704h64v-64h-64v64zM128 704h64v-64h-64v64zM192 704h64v-64h-64v64zM256 704h64v-64h-64v64zM320 704h64 v-64h-64v64zM384 704h64v-64h-64v64zM448 704h64v-64h-64v64zM0 640h64v-64h-64v64zM64 640h64v-64h-64v64zM128 640h64v-64h-64v64zM192 640h64v-64h-64v64zM256 640h64v-64h-64v64zM320 640h64v-64h-64v64zM384 640h64v-64h-64v64zM448 640h64v-64h-64v64zM0 576h64v-64 h-64v64zM64 576h64v-64h-64v64zM128 576h64v-64h-64v64zM192 576h64v-64h-64v64zM256 576h64v-64h-64v64zM320 576h64v-64h-64v64zM384 576h64v-64h-64v64zM448 576h64v-64h-64v64zM128 512h64v-64h-64v64zM192 512h64v-64h-64v64zM256 512h64v-64h-64v64zM128 448h64v-64 h-64v64zM192 448h64v-64h-64v64zM256 448h64v-64h-64v64zM128 384h64v-64h-64v64zM192 384h64v-64h-64v64zM256 384h64v-64h-64v64zM128 320h64v-64h-64v64zM192 320h64v-64h-64v64zM256 320h64v-64h-64v64zM128 256h64v-64h-64v64zM192 256h64v-64h-64v64zM256 256h64v-64 h-64v64zM128 192h64v-64h-64v64zM192 192h64v-64h-64v64zM256 192h64v-64h-64v64zM128 128h64v-64h-64v64zM192 128h64v-64h-64v64zM256 128h64v-64h-64v64zM128 64h64v-64h-64v64zM192 64h64v-64h-64v64zM256 64h64v-64h-64v64z" />
<glyph unicode="g" d="M128 768h64v-64h-64v64zM192 768h64v-64h-64v64zM256 768h64v-64h-64v64zM320 768h64v-64h-64v64zM384 768h64v-64h-64v64zM448 768h64v-64h-64v64zM512 768h64v-64h-64v64zM576 768h64v-64h-64v64zM640 768h64v-64h-64v64zM64 704h64v-64h-64v64zM128 704h64v-64h-64v64 zM192 704h64v-64h-64v64zM256 704h64v-64h-64v64zM320 704h64v-64h-64v64zM384 704h64v-64h-64v64zM448 704h64v-64h-64v64zM512 704h64v-64h-64v64zM576 704h64v-64h-64v64zM640 704h64v-64h-64v64zM0 640h64v-64h-64v64zM64 640h64v-64h-64v64zM128 640h64v-64h-64v64z M192 640h64v-64h-64v64zM256 640h64v-64h-64v64zM320 640h64v-64h-64v64zM384 640h64v-64h-64v64zM448 640h64v-64h-64v64zM512 640h64v-64h-64v64zM576 640h64v-64h-64v64zM640 640h64v-64h-64v64zM0 576h64v-64h-64v64zM64 576h64v-64h-64v64zM128 576h64v-64h-64v64z M512 576h64v-64h-64v64zM576 576h64v-64h-64v64zM640 576h64v-64h-64v64zM0 512h64v-64h-64v64zM64 512h64v-64h-64v64zM128 512h64v-64h-64v64zM512 512h64v-64h-64v64zM576 512h64v-64h-64v64zM640 512h64v-64h-64v64zM0 448h64v-64h-64v64zM64 448h64v-64h-64v64z M128 448h64v-64h-64v64zM512 448h64v-64h-64v64zM576 448h64v-64h-64v64zM640 448h64v-64h-64v64zM0 384h64v-64h-64v64zM64 384h64v-64h-64v64zM128 384h64v-64h-64v64zM512 384h64v-64h-64v64zM576 384h64v-64h-64v64zM640 384h64v-64h-64v64zM0 320h64v-64h-64v64z M64 320h64v-64h-64v64zM128 320h64v-64h-64v64zM192 320h64v-64h-64v64zM256 320h64v-64h-64v64zM320 320h64v-64h-64v64zM384 320h64v-64h-64v64zM448 320h64v-64h-64v64zM512 320h64v-64h-64v64zM576 320h64v-64h-64v64zM640 320h64v-64h-64v64zM64 256h64v-64h-64v64z M128 256h64v-64h-64v64zM192 256h64v-64h-64v64zM256 256h64v-64h-64v64zM320 256h64v-64h-64v64zM384 256h64v-64h-64v64zM448 256h64v-64h-64v64zM512 256h64v-64h-64v64zM576 256h64v-64h-64v64zM640 256h64v-64h-64v64zM128 192h64v-64h-64v64zM192 192h64v-64h-64v64z M256 192h64v-64h-64v64zM320 192h64v-64h-64v64zM384 192h64v-64h-64v64zM448 192h64v-64h-64v64zM512 192h64v-64h-64v64zM576 192h64v-64h-64v64zM640 192h64v-64h-64v64zM512 128h64v-64h-64v64zM576 128h64v-64h-64v64zM640 128h64v-64h-64v64zM512 64h64v-64h-64v64z M576 64h64v-64h-64v64zM640 64h64v-64h-64v64zM128 0h64v-64h-64v64zM192 0h64v-64h-64v64zM256 0h64v-64h-64v64zM320 0h64v-64h-64v64zM384 0h64v-64h-64v64zM448 0h64v-64h-64v64zM512 0h64v-64h-64v64zM576 0h64v-64h-64v64zM640 0h64v-64h-64v64zM128 -64h64v-64h-64 v64zM192 -64h64v-64h-64v64zM256 -64h64v-64h-64v64zM320 -64h64v-64h-64v64zM384 -64h64v-64h-64v64zM448 -64h64v-64h-64v64zM512 -64h64v-64h-64v64zM576 -64h64v-64h-64v64zM128 -128h64v-64h-64v64zM192 -128h64v-64h-64v64zM256 -128h64v-64h-64v64zM320 -128h64v-64 h-64v64zM384 -128h64v-64h-64v64zM448 -128h64v-64h-64v64zM512 -128h64v-64h-64v64z" />
<glyph unicode="h" d="M0 1088h64v-64h-64v64zM64 1088h64v-64h-64v64zM128 1088h64v-64h-64v64zM0 1024h64v-64h-64v64zM64 1024h64v-64h-64v64zM128 1024h64v-64h-64v64zM0 960h64v-64h-64v64zM64 960h64v-64h-64v64zM128 960h64v-64h-64v64zM0 896h64v-64h-64v64zM64 896h64v-64h-64v64z M128 896h64v-64h-64v64zM0 832h64v-64h-64v64zM64 832h64v-64h-64v64zM128 832h64v-64h-64v64zM0 768h64v-64h-64v64zM64 768h64v-64h-64v64zM128 768h64v-64h-64v64zM192 768h64v-64h-64v64zM256 768h64v-64h-64v64zM320 768h64v-64h-64v64zM384 768h64v-64h-64v64z M448 768h64v-64h-64v64zM512 768h64v-64h-64v64zM0 704h64v-64h-64v64zM64 704h64v-64h-64v64zM128 704h64v-64h-64v64zM192 704h64v-64h-64v64zM256 704h64v-64h-64v64zM320 704h64v-64h-64v64zM384 704h64v-64h-64v64zM448 704h64v-64h-64v64zM512 704h64v-64h-64v64z M576 704h64v-64h-64v64zM0 640h64v-64h-64v64zM64 640h64v-64h-64v64zM128 640h64v-64h-64v64zM192 640h64v-64h-64v64zM256 640h64v-64h-64v64zM320 640h64v-64h-64v64zM384 640h64v-64h-64v64zM448 640h64v-64h-64v64zM512 640h64v-64h-64v64zM576 640h64v-64h-64v64z M640 640h64v-64h-64v64zM0 576h64v-64h-64v64zM64 576h64v-64h-64v64zM128 576h64v-64h-64v64zM512 576h64v-64h-64v64zM576 576h64v-64h-64v64zM640 576h64v-64h-64v64zM0 512h64v-64h-64v64zM64 512h64v-64h-64v64zM128 512h64v-64h-64v64zM512 512h64v-64h-64v64z M576 512h64v-64h-64v64zM640 512h64v-64h-64v64zM0 448h64v-64h-64v64zM64 448h64v-64h-64v64zM128 448h64v-64h-64v64zM512 448h64v-64h-64v64zM576 448h64v-64h-64v64zM640 448h64v-64h-64v64zM0 384h64v-64h-64v64zM64 384h64v-64h-64v64zM128 384h64v-64h-64v64z M512 384h64v-64h-64v64zM576 384h64v-64h-64v64zM640 384h64v-64h-64v64zM0 320h64v-64h-64v64zM64 320h64v-64h-64v64zM128 320h64v-64h-64v64zM512 320h64v-64h-64v64zM576 320h64v-64h-64v64zM640 320h64v-64h-64v64zM0 256h64v-64h-64v64zM64 256h64v-64h-64v64z M128 256h64v-64h-64v64zM512 256h64v-64h-64v64zM576 256h64v-64h-64v64zM640 256h64v-64h-64v64zM0 192h64v-64h-64v64zM64 192h64v-64h-64v64zM128 192h64v-64h-64v64zM512 192h64v-64h-64v64zM576 192h64v-64h-64v64zM640 192h64v-64h-64v64zM0 128h64v-64h-64v64z M64 128h64v-64h-64v64zM128 128h64v-64h-64v64zM512 128h64v-64h-64v64zM576 128h64v-64h-64v64zM640 128h64v-64h-64v64zM0 64h64v-64h-64v64zM64 64h64v-64h-64v64zM128 64h64v-64h-64v64zM512 64h64v-64h-64v64zM576 64h64v-64h-64v64zM640 64h64v-64h-64v64z" />
<glyph unicode="i" horiz-adv-x="448" d="M64 1088h64v-64h-64v64zM128 1088h64v-64h-64v64zM192 1088h64v-64h-64v64zM64 1024h64v-64h-64v64zM128 1024h64v-64h-64v64zM192 1024h64v-64h-64v64zM64 960h64v-64h-64v64zM128 960h64v-64h-64v64zM192 960h64v-64h-64v64zM0 768h64v-64h-64v64zM64 768h64v-64h-64 v64zM128 768h64v-64h-64v64zM192 768h64v-64h-64v64zM0 704h64v-64h-64v64zM64 704h64v-64h-64v64zM128 704h64v-64h-64v64zM192 704h64v-64h-64v64zM0 640h64v-64h-64v64zM64 640h64v-64h-64v64zM128 640h64v-64h-64v64zM192 640h64v-64h-64v64zM64 576h64v-64h-64v64z M128 576h64v-64h-64v64zM192 576h64v-64h-64v64zM64 512h64v-64h-64v64zM128 512h64v-64h-64v64zM192 512h64v-64h-64v64zM64 448h64v-64h-64v64zM128 448h64v-64h-64v64zM192 448h64v-64h-64v64zM64 384h64v-64h-64v64zM128 384h64v-64h-64v64zM192 384h64v-64h-64v64z M64 320h64v-64h-64v64zM128 320h64v-64h-64v64zM192 320h64v-64h-64v64zM64 256h64v-64h-64v64zM128 256h64v-64h-64v64zM192 256h64v-64h-64v64zM64 192h64v-64h-64v64zM128 192h64v-64h-64v64zM192 192h64v-64h-64v64zM256 192h64v-64h-64v64zM64 128h64v-64h-64v64z M128 128h64v-64h-64v64zM192 128h64v-64h-64v64zM256 128h64v-64h-64v64zM128 64h64v-64h-64v64zM192 64h64v-64h-64v64zM256 64h64v-64h-64v64z" />
<glyph unicode="j" horiz-adv-x="448" d="M128 1088h64v-64h-64v64zM192 1088h64v-64h-64v64zM256 1088h64v-64h-64v64zM128 1024h64v-64h-64v64zM192 1024h64v-64h-64v64zM256 1024h64v-64h-64v64zM128 960h64v-64h-64v64zM192 960h64v-64h-64v64zM256 960h64v-64h-64v64zM64 768h64v-64h-64v64zM128 768h64v-64 h-64v64zM192 768h64v-64h-64v64zM256 768h64v-64h-64v64zM64 704h64v-64h-64v64zM128 704h64v-64h-64v64zM192 704h64v-64h-64v64zM256 704h64v-64h-64v64zM64 640h64v-64h-64v64zM128 640h64v-64h-64v64zM192 640h64v-64h-64v64zM256 640h64v-64h-64v64zM128 576h64v-64 h-64v64zM192 576h64v-64h-64v64zM256 576h64v-64h-64v64zM128 512h64v-64h-64v64zM192 512h64v-64h-64v64zM256 512h64v-64h-64v64zM128 448h64v-64h-64v64zM192 448h64v-64h-64v64zM256 448h64v-64h-64v64zM128 384h64v-64h-64v64zM192 384h64v-64h-64v64zM256 384h64v-64 h-64v64zM128 320h64v-64h-64v64zM192 320h64v-64h-64v64zM256 320h64v-64h-64v64zM128 256h64v-64h-64v64zM192 256h64v-64h-64v64zM256 256h64v-64h-64v64zM128 192h64v-64h-64v64zM192 192h64v-64h-64v64zM256 192h64v-64h-64v64zM128 128h64v-64h-64v64zM192 128h64v-64 h-64v64zM256 128h64v-64h-64v64zM128 64h64v-64h-64v64zM192 64h64v-64h-64v64zM256 64h64v-64h-64v64zM0 0h64v-64h-64v64zM64 0h64v-64h-64v64zM128 0h64v-64h-64v64zM192 0h64v-64h-64v64zM256 0h64v-64h-64v64zM0 -64h64v-64h-64v64zM64 -64h64v-64h-64v64zM128 -64h64 v-64h-64v64zM192 -64h64v-64h-64v64zM0 -128h64v-64h-64v64zM64 -128h64v-64h-64v64zM128 -128h64v-64h-64v64z" />
<glyph unicode="k" horiz-adv-x="768" d="M0 1088h64v-64h-64v64zM64 1088h64v-64h-64v64zM128 1088h64v-64h-64v64zM0 1024h64v-64h-64v64zM64 1024h64v-64h-64v64zM128 1024h64v-64h-64v64zM0 960h64v-64h-64v64zM64 960h64v-64h-64v64zM128 960h64v-64h-64v64zM0 896h64v-64h-64v64zM64 896h64v-64h-64v64z M128 896h64v-64h-64v64zM0 832h64v-64h-64v64zM64 832h64v-64h-64v64zM128 832h64v-64h-64v64zM0 768h64v-64h-64v64zM64 768h64v-64h-64v64zM128 768h64v-64h-64v64zM448 768h64v-64h-64v64zM512 768h64v-64h-64v64zM576 768h64v-64h-64v64zM0 704h64v-64h-64v64zM64 704 h64v-64h-64v64zM128 704h64v-64h-64v64zM384 704h64v-64h-64v64zM448 704h64v-64h-64v64zM512 704h64v-64h-64v64zM576 704h64v-64h-64v64zM0 640h64v-64h-64v64zM64 640h64v-64h-64v64zM128 640h64v-64h-64v64zM320 640h64v-64h-64v64zM384 640h64v-64h-64v64zM448 640h64 v-64h-64v64zM512 640h64v-64h-64v64zM0 576h64v-64h-64v64zM64 576h64v-64h-64v64zM128 576h64v-64h-64v64zM256 576h64v-64h-64v64zM320 576h64v-64h-64v64zM384 576h64v-64h-64v64zM448 576h64v-64h-64v64zM0 512h64v-64h-64v64zM64 512h64v-64h-64v64zM128 512h64v-64 h-64v64zM192 512h64v-64h-64v64zM256 512h64v-64h-64v64zM320 512h64v-64h-64v64zM384 512h64v-64h-64v64zM0 448h64v-64h-64v64zM64 448h64v-64h-64v64zM128 448h64v-64h-64v64zM192 448h64v-64h-64v64zM256 448h64v-64h-64v64zM320 448h64v-64h-64v64zM0 384h64v-64h-64 v64zM64 384h64v-64h-64v64zM128 384h64v-64h-64v64zM192 384h64v-64h-64v64zM256 384h64v-64h-64v64zM320 384h64v-64h-64v64zM0 320h64v-64h-64v64zM64 320h64v-64h-64v64zM128 320h64v-64h-64v64zM192 320h64v-64h-64v64zM256 320h64v-64h-64v64zM320 320h64v-64h-64v64z M384 320h64v-64h-64v64zM0 256h64v-64h-64v64zM64 256h64v-64h-64v64zM128 256h64v-64h-64v64zM256 256h64v-64h-64v64zM320 256h64v-64h-64v64zM384 256h64v-64h-64v64zM448 256h64v-64h-64v64zM0 192h64v-64h-64v64zM64 192h64v-64h-64v64zM128 192h64v-64h-64v64z M320 192h64v-64h-64v64zM384 192h64v-64h-64v64zM448 192h64v-64h-64v64zM512 192h64v-64h-64v64zM0 128h64v-64h-64v64zM64 128h64v-64h-64v64zM128 128h64v-64h-64v64zM384 128h64v-64h-64v64zM448 128h64v-64h-64v64zM512 128h64v-64h-64v64zM576 128h64v-64h-64v64z M0 64h64v-64h-64v64zM64 64h64v-64h-64v64zM128 64h64v-64h-64v64zM448 64h64v-64h-64v64zM512 64h64v-64h-64v64zM576 64h64v-64h-64v64z" />
<glyph unicode="l" horiz-adv-x="448" d="M0 1088h64v-64h-64v64zM64 1088h64v-64h-64v64zM128 1088h64v-64h-64v64zM192 1088h64v-64h-64v64zM0 1024h64v-64h-64v64zM64 1024h64v-64h-64v64zM128 1024h64v-64h-64v64zM192 1024h64v-64h-64v64zM0 960h64v-64h-64v64zM64 960h64v-64h-64v64zM128 960h64v-64h-64v64 zM192 960h64v-64h-64v64zM64 896h64v-64h-64v64zM128 896h64v-64h-64v64zM192 896h64v-64h-64v64zM64 832h64v-64h-64v64zM128 832h64v-64h-64v64zM192 832h64v-64h-64v64zM64 768h64v-64h-64v64zM128 768h64v-64h-64v64zM192 768h64v-64h-64v64zM64 704h64v-64h-64v64z M128 704h64v-64h-64v64zM192 704h64v-64h-64v64zM64 640h64v-64h-64v64zM128 640h64v-64h-64v64zM192 640h64v-64h-64v64zM64 576h64v-64h-64v64zM128 576h64v-64h-64v64zM192 576h64v-64h-64v64zM64 512h64v-64h-64v64zM128 512h64v-64h-64v64zM192 512h64v-64h-64v64z M64 448h64v-64h-64v64zM128 448h64v-64h-64v64zM192 448h64v-64h-64v64zM64 384h64v-64h-64v64zM128 384h64v-64h-64v64zM192 384h64v-64h-64v64zM64 320h64v-64h-64v64zM128 320h64v-64h-64v64zM192 320h64v-64h-64v64zM64 256h64v-64h-64v64zM128 256h64v-64h-64v64z M192 256h64v-64h-64v64zM64 192h64v-64h-64v64zM128 192h64v-64h-64v64zM192 192h64v-64h-64v64zM256 192h64v-64h-64v64zM64 128h64v-64h-64v64zM128 128h64v-64h-64v64zM192 128h64v-64h-64v64zM256 128h64v-64h-64v64zM128 64h64v-64h-64v64zM192 64h64v-64h-64v64z M256 64h64v-64h-64v64z" />
<glyph unicode="m" horiz-adv-x="1088" d="M0 768h64v-64h-64v64zM64 768h64v-64h-64v64zM128 768h64v-64h-64v64zM320 768h64v-64h-64v64zM384 768h64v-64h-64v64zM448 768h64v-64h-64v64zM640 768h64v-64h-64v64zM704 768h64v-64h-64v64zM768 768h64v-64h-64v64zM0 704h64v-64h-64v64zM64 704h64v-64h-64v64z M128 704h64v-64h-64v64zM192 704h64v-64h-64v64zM256 704h64v-64h-64v64zM320 704h64v-64h-64v64zM384 704h64v-64h-64v64zM448 704h64v-64h-64v64zM512 704h64v-64h-64v64zM576 704h64v-64h-64v64zM640 704h64v-64h-64v64zM704 704h64v-64h-64v64zM768 704h64v-64h-64v64z M832 704h64v-64h-64v64zM0 640h64v-64h-64v64zM64 640h64v-64h-64v64zM128 640h64v-64h-64v64zM192 640h64v-64h-64v64zM256 640h64v-64h-64v64zM320 640h64v-64h-64v64zM384 640h64v-64h-64v64zM448 640h64v-64h-64v64zM512 640h64v-64h-64v64zM576 640h64v-64h-64v64z M640 640h64v-64h-64v64zM704 640h64v-64h-64v64zM768 640h64v-64h-64v64zM832 640h64v-64h-64v64zM896 640h64v-64h-64v64zM0 576h64v-64h-64v64zM64 576h64v-64h-64v64zM128 576h64v-64h-64v64zM384 576h64v-64h-64v64zM448 576h64v-64h-64v64zM512 576h64v-64h-64v64z M768 576h64v-64h-64v64zM832 576h64v-64h-64v64zM896 576h64v-64h-64v64zM0 512h64v-64h-64v64zM64 512h64v-64h-64v64zM128 512h64v-64h-64v64zM384 512h64v-64h-64v64zM448 512h64v-64h-64v64zM512 512h64v-64h-64v64zM768 512h64v-64h-64v64zM832 512h64v-64h-64v64z M896 512h64v-64h-64v64zM0 448h64v-64h-64v64zM64 448h64v-64h-64v64zM128 448h64v-64h-64v64zM384 448h64v-64h-64v64zM448 448h64v-64h-64v64zM512 448h64v-64h-64v64zM768 448h64v-64h-64v64zM832 448h64v-64h-64v64zM896 448h64v-64h-64v64zM0 384h64v-64h-64v64z M64 384h64v-64h-64v64zM128 384h64v-64h-64v64zM384 384h64v-64h-64v64zM448 384h64v-64h-64v64zM512 384h64v-64h-64v64zM768 384h64v-64h-64v64zM832 384h64v-64h-64v64zM896 384h64v-64h-64v64zM0 320h64v-64h-64v64zM64 320h64v-64h-64v64zM128 320h64v-64h-64v64z M384 320h64v-64h-64v64zM448 320h64v-64h-64v64zM512 320h64v-64h-64v64zM768 320h64v-64h-64v64zM832 320h64v-64h-64v64zM896 320h64v-64h-64v64zM0 256h64v-64h-64v64zM64 256h64v-64h-64v64zM128 256h64v-64h-64v64zM384 256h64v-64h-64v64zM448 256h64v-64h-64v64z M512 256h64v-64h-64v64zM768 256h64v-64h-64v64zM832 256h64v-64h-64v64zM896 256h64v-64h-64v64zM0 192h64v-64h-64v64zM64 192h64v-64h-64v64zM128 192h64v-64h-64v64zM384 192h64v-64h-64v64zM448 192h64v-64h-64v64zM512 192h64v-64h-64v64zM768 192h64v-64h-64v64z M832 192h64v-64h-64v64zM896 192h64v-64h-64v64zM0 128h64v-64h-64v64zM64 128h64v-64h-64v64zM128 128h64v-64h-64v64zM384 128h64v-64h-64v64zM448 128h64v-64h-64v64zM512 128h64v-64h-64v64zM768 128h64v-64h-64v64zM832 128h64v-64h-64v64zM896 128h64v-64h-64v64z M0 64h64v-64h-64v64zM64 64h64v-64h-64v64zM128 64h64v-64h-64v64zM384 64h64v-64h-64v64zM448 64h64v-64h-64v64zM512 64h64v-64h-64v64zM768 64h64v-64h-64v64zM832 64h64v-64h-64v64zM896 64h64v-64h-64v64z" />
<glyph unicode="n" horiz-adv-x="896" d="M0 768h64v-64h-64v64zM64 768h64v-64h-64v64zM128 768h64v-64h-64v64zM192 768h64v-64h-64v64zM384 768h64v-64h-64v64zM448 768h64v-64h-64v64zM512 768h64v-64h-64v64zM576 768h64v-64h-64v64zM0 704h64v-64h-64v64zM64 704h64v-64h-64v64zM128 704h64v-64h-64v64z M192 704h64v-64h-64v64zM256 704h64v-64h-64v64zM320 704h64v-64h-64v64zM384 704h64v-64h-64v64zM448 704h64v-64h-64v64zM512 704h64v-64h-64v64zM576 704h64v-64h-64v64zM640 704h64v-64h-64v64zM0 640h64v-64h-64v64zM64 640h64v-64h-64v64zM128 640h64v-64h-64v64z M192 640h64v-64h-64v64zM256 640h64v-64h-64v64zM320 640h64v-64h-64v64zM384 640h64v-64h-64v64zM448 640h64v-64h-64v64zM512 640h64v-64h-64v64zM576 640h64v-64h-64v64zM640 640h64v-64h-64v64zM704 640h64v-64h-64v64zM64 576h64v-64h-64v64zM128 576h64v-64h-64v64z M192 576h64v-64h-64v64zM576 576h64v-64h-64v64zM640 576h64v-64h-64v64zM704 576h64v-64h-64v64zM64 512h64v-64h-64v64zM128 512h64v-64h-64v64zM192 512h64v-64h-64v64zM576 512h64v-64h-64v64zM640 512h64v-64h-64v64zM704 512h64v-64h-64v64zM64 448h64v-64h-64v64z M128 448h64v-64h-64v64zM192 448h64v-64h-64v64zM576 448h64v-64h-64v64zM640 448h64v-64h-64v64zM704 448h64v-64h-64v64zM64 384h64v-64h-64v64zM128 384h64v-64h-64v64zM192 384h64v-64h-64v64zM576 384h64v-64h-64v64zM640 384h64v-64h-64v64zM704 384h64v-64h-64v64z M64 320h64v-64h-64v64zM128 320h64v-64h-64v64zM192 320h64v-64h-64v64zM576 320h64v-64h-64v64zM640 320h64v-64h-64v64zM704 320h64v-64h-64v64zM64 256h64v-64h-64v64zM128 256h64v-64h-64v64zM192 256h64v-64h-64v64zM576 256h64v-64h-64v64zM640 256h64v-64h-64v64z M704 256h64v-64h-64v64zM64 192h64v-64h-64v64zM128 192h64v-64h-64v64zM192 192h64v-64h-64v64zM576 192h64v-64h-64v64zM640 192h64v-64h-64v64zM704 192h64v-64h-64v64zM64 128h64v-64h-64v64zM128 128h64v-64h-64v64zM192 128h64v-64h-64v64zM576 128h64v-64h-64v64z M640 128h64v-64h-64v64zM704 128h64v-64h-64v64zM64 64h64v-64h-64v64zM128 64h64v-64h-64v64zM192 64h64v-64h-64v64zM576 64h64v-64h-64v64zM640 64h64v-64h-64v64zM704 64h64v-64h-64v64z" />
<glyph unicode="o" d="M128 768h64v-64h-64v64zM192 768h64v-64h-64v64zM256 768h64v-64h-64v64zM320 768h64v-64h-64v64zM384 768h64v-64h-64v64zM448 768h64v-64h-64v64zM512 768h64v-64h-64v64zM64 704h64v-64h-64v64zM128 704h64v-64h-64v64zM192 704h64v-64h-64v64zM256 704h64v-64h-64v64 zM320 704h64v-64h-64v64zM384 704h64v-64h-64v64zM448 704h64v-64h-64v64zM512 704h64v-64h-64v64zM576 704h64v-64h-64v64zM0 640h64v-64h-64v64zM64 640h64v-64h-64v64zM128 640h64v-64h-64v64zM192 640h64v-64h-64v64zM256 640h64v-64h-64v64zM320 640h64v-64h-64v64z M384 640h64v-64h-64v64zM448 640h64v-64h-64v64zM512 640h64v-64h-64v64zM576 640h64v-64h-64v64zM640 640h64v-64h-64v64zM0 576h64v-64h-64v64zM64 576h64v-64h-64v64zM128 576h64v-64h-64v64zM512 576h64v-64h-64v64zM576 576h64v-64h-64v64zM640 576h64v-64h-64v64z M0 512h64v-64h-64v64zM64 512h64v-64h-64v64zM128 512h64v-64h-64v64zM512 512h64v-64h-64v64zM576 512h64v-64h-64v64zM640 512h64v-64h-64v64zM0 448h64v-64h-64v64zM64 448h64v-64h-64v64zM128 448h64v-64h-64v64zM512 448h64v-64h-64v64zM576 448h64v-64h-64v64z M640 448h64v-64h-64v64zM0 384h64v-64h-64v64zM64 384h64v-64h-64v64zM128 384h64v-64h-64v64zM512 384h64v-64h-64v64zM576 384h64v-64h-64v64zM640 384h64v-64h-64v64zM0 320h64v-64h-64v64zM64 320h64v-64h-64v64zM128 320h64v-64h-64v64zM512 320h64v-64h-64v64z M576 320h64v-64h-64v64zM640 320h64v-64h-64v64zM0 256h64v-64h-64v64zM64 256h64v-64h-64v64zM128 256h64v-64h-64v64zM512 256h64v-64h-64v64zM576 256h64v-64h-64v64zM640 256h64v-64h-64v64zM0 192h64v-64h-64v64zM64 192h64v-64h-64v64zM128 192h64v-64h-64v64z M192 192h64v-64h-64v64zM256 192h64v-64h-64v64zM320 192h64v-64h-64v64zM384 192h64v-64h-64v64zM448 192h64v-64h-64v64zM512 192h64v-64h-64v64zM576 192h64v-64h-64v64zM640 192h64v-64h-64v64zM64 128h64v-64h-64v64zM128 128h64v-64h-64v64zM192 128h64v-64h-64v64z M256 128h64v-64h-64v64zM320 128h64v-64h-64v64zM384 128h64v-64h-64v64zM448 128h64v-64h-64v64zM512 128h64v-64h-64v64zM576 128h64v-64h-64v64zM128 64h64v-64h-64v64zM192 64h64v-64h-64v64zM256 64h64v-64h-64v64zM320 64h64v-64h-64v64zM384 64h64v-64h-64v64z M448 64h64v-64h-64v64zM512 64h64v-64h-64v64z" />
<glyph unicode="p" horiz-adv-x="896" d="M0 768h64v-64h-64v64zM64 768h64v-64h-64v64zM128 768h64v-64h-64v64zM192 768h64v-64h-64v64zM256 768h64v-64h-64v64zM320 768h64v-64h-64v64zM384 768h64v-64h-64v64zM448 768h64v-64h-64v64zM512 768h64v-64h-64v64zM576 768h64v-64h-64v64zM0 704h64v-64h-64v64z M64 704h64v-64h-64v64zM128 704h64v-64h-64v64zM192 704h64v-64h-64v64zM256 704h64v-64h-64v64zM320 704h64v-64h-64v64zM384 704h64v-64h-64v64zM448 704h64v-64h-64v64zM512 704h64v-64h-64v64zM576 704h64v-64h-64v64zM640 704h64v-64h-64v64zM0 640h64v-64h-64v64z M64 640h64v-64h-64v64zM128 640h64v-64h-64v64zM192 640h64v-64h-64v64zM256 640h64v-64h-64v64zM320 640h64v-64h-64v64zM384 640h64v-64h-64v64zM448 640h64v-64h-64v64zM512 640h64v-64h-64v64zM576 640h64v-64h-64v64zM640 640h64v-64h-64v64zM704 640h64v-64h-64v64z M64 576h64v-64h-64v64zM128 576h64v-64h-64v64zM192 576h64v-64h-64v64zM576 576h64v-64h-64v64zM640 576h64v-64h-64v64zM704 576h64v-64h-64v64zM64 512h64v-64h-64v64zM128 512h64v-64h-64v64zM192 512h64v-64h-64v64zM576 512h64v-64h-64v64zM640 512h64v-64h-64v64z M704 512h64v-64h-64v64zM64 448h64v-64h-64v64zM128 448h64v-64h-64v64zM192 448h64v-64h-64v64zM576 448h64v-64h-64v64zM640 448h64v-64h-64v64zM704 448h64v-64h-64v64zM64 384h64v-64h-64v64zM128 384h64v-64h-64v64zM192 384h64v-64h-64v64zM576 384h64v-64h-64v64z M640 384h64v-64h-64v64zM704 384h64v-64h-64v64zM64 320h64v-64h-64v64zM128 320h64v-64h-64v64zM192 320h64v-64h-64v64zM256 320h64v-64h-64v64zM320 320h64v-64h-64v64zM384 320h64v-64h-64v64zM448 320h64v-64h-64v64zM512 320h64v-64h-64v64zM576 320h64v-64h-64v64z M640 320h64v-64h-64v64zM704 320h64v-64h-64v64zM64 256h64v-64h-64v64zM128 256h64v-64h-64v64zM192 256h64v-64h-64v64zM256 256h64v-64h-64v64zM320 256h64v-64h-64v64zM384 256h64v-64h-64v64zM448 256h64v-64h-64v64zM512 256h64v-64h-64v64zM576 256h64v-64h-64v64z M640 256h64v-64h-64v64zM64 192h64v-64h-64v64zM128 192h64v-64h-64v64zM192 192h64v-64h-64v64zM256 192h64v-64h-64v64zM320 192h64v-64h-64v64zM384 192h64v-64h-64v64zM448 192h64v-64h-64v64zM512 192h64v-64h-64v64zM576 192h64v-64h-64v64zM64 128h64v-64h-64v64z M128 128h64v-64h-64v64zM192 128h64v-64h-64v64zM64 64h64v-64h-64v64zM128 64h64v-64h-64v64zM192 64h64v-64h-64v64zM64 0h64v-64h-64v64zM128 0h64v-64h-64v64zM192 0h64v-64h-64v64zM64 -64h64v-64h-64v64zM128 -64h64v-64h-64v64zM192 -64h64v-64h-64v64zM64 -128h64 v-64h-64v64zM128 -128h64v-64h-64v64zM192 -128h64v-64h-64v64z" />
<glyph unicode="q" d="M128 768h64v-64h-64v64zM192 768h64v-64h-64v64zM256 768h64v-64h-64v64zM320 768h64v-64h-64v64zM384 768h64v-64h-64v64zM448 768h64v-64h-64v64zM512 768h64v-64h-64v64zM576 768h64v-64h-64v64zM640 768h64v-64h-64v64zM64 704h64v-64h-64v64zM128 704h64v-64h-64v64 zM192 704h64v-64h-64v64zM256 704h64v-64h-64v64zM320 704h64v-64h-64v64zM384 704h64v-64h-64v64zM448 704h64v-64h-64v64zM512 704h64v-64h-64v64zM576 704h64v-64h-64v64zM640 704h64v-64h-64v64zM0 640h64v-64h-64v64zM64 640h64v-64h-64v64zM128 640h64v-64h-64v64z M192 640h64v-64h-64v64zM256 640h64v-64h-64v64zM320 640h64v-64h-64v64zM384 640h64v-64h-64v64zM448 640h64v-64h-64v64zM512 640h64v-64h-64v64zM576 640h64v-64h-64v64zM640 640h64v-64h-64v64zM0 576h64v-64h-64v64zM64 576h64v-64h-64v64zM128 576h64v-64h-64v64z M512 576h64v-64h-64v64zM576 576h64v-64h-64v64zM640 576h64v-64h-64v64zM0 512h64v-64h-64v64zM64 512h64v-64h-64v64zM128 512h64v-64h-64v64zM512 512h64v-64h-64v64zM576 512h64v-64h-64v64zM640 512h64v-64h-64v64zM0 448h64v-64h-64v64zM64 448h64v-64h-64v64z M128 448h64v-64h-64v64zM512 448h64v-64h-64v64zM576 448h64v-64h-64v64zM640 448h64v-64h-64v64zM0 384h64v-64h-64v64zM64 384h64v-64h-64v64zM128 384h64v-64h-64v64zM512 384h64v-64h-64v64zM576 384h64v-64h-64v64zM640 384h64v-64h-64v64zM0 320h64v-64h-64v64z M64 320h64v-64h-64v64zM128 320h64v-64h-64v64zM192 320h64v-64h-64v64zM256 320h64v-64h-64v64zM320 320h64v-64h-64v64zM384 320h64v-64h-64v64zM448 320h64v-64h-64v64zM512 320h64v-64h-64v64zM576 320h64v-64h-64v64zM640 320h64v-64h-64v64zM64 256h64v-64h-64v64z M128 256h64v-64h-64v64zM192 256h64v-64h-64v64zM256 256h64v-64h-64v64zM320 256h64v-64h-64v64zM384 256h64v-64h-64v64zM448 256h64v-64h-64v64zM512 256h64v-64h-64v64zM576 256h64v-64h-64v64zM640 256h64v-64h-64v64zM128 192h64v-64h-64v64zM192 192h64v-64h-64v64z M256 192h64v-64h-64v64zM320 192h64v-64h-64v64zM384 192h64v-64h-64v64zM448 192h64v-64h-64v64zM512 192h64v-64h-64v64zM576 192h64v-64h-64v64zM640 192h64v-64h-64v64zM512 128h64v-64h-64v64zM576 128h64v-64h-64v64zM640 128h64v-64h-64v64zM512 64h64v-64h-64v64z M576 64h64v-64h-64v64zM640 64h64v-64h-64v64zM512 0h64v-64h-64v64zM576 0h64v-64h-64v64zM640 0h64v-64h-64v64zM512 -64h64v-64h-64v64zM576 -64h64v-64h-64v64zM640 -64h64v-64h-64v64zM512 -128h64v-64h-64v64zM576 -128h64v-64h-64v64zM640 -128h64v-64h-64v64z" />
<glyph unicode="r" d="M0 768h64v-64h-64v64zM64 768h64v-64h-64v64zM128 768h64v-64h-64v64zM192 768h64v-64h-64v64zM384 768h64v-64h-64v64zM448 768h64v-64h-64v64zM512 768h64v-64h-64v64zM576 768h64v-64h-64v64zM0 704h64v-64h-64v64zM64 704h64v-64h-64v64zM128 704h64v-64h-64v64z M192 704h64v-64h-64v64zM256 704h64v-64h-64v64zM320 704h64v-64h-64v64zM384 704h64v-64h-64v64zM448 704h64v-64h-64v64zM512 704h64v-64h-64v64zM576 704h64v-64h-64v64zM640 704h64v-64h-64v64zM0 640h64v-64h-64v64zM64 640h64v-64h-64v64zM128 640h64v-64h-64v64z M192 640h64v-64h-64v64zM256 640h64v-64h-64v64zM320 640h64v-64h-64v64zM384 640h64v-64h-64v64zM448 640h64v-64h-64v64zM512 640h64v-64h-64v64zM576 640h64v-64h-64v64zM640 640h64v-64h-64v64zM64 576h64v-64h-64v64zM128 576h64v-64h-64v64zM192 576h64v-64h-64v64z M512 576h64v-64h-64v64zM576 576h64v-64h-64v64zM640 576h64v-64h-64v64zM64 512h64v-64h-64v64zM128 512h64v-64h-64v64zM192 512h64v-64h-64v64zM512 512h64v-64h-64v64zM576 512h64v-64h-64v64zM640 512h64v-64h-64v64zM64 448h64v-64h-64v64zM128 448h64v-64h-64v64z M192 448h64v-64h-64v64zM64 384h64v-64h-64v64zM128 384h64v-64h-64v64zM192 384h64v-64h-64v64zM64 320h64v-64h-64v64zM128 320h64v-64h-64v64zM192 320h64v-64h-64v64zM64 256h64v-64h-64v64zM128 256h64v-64h-64v64zM192 256h64v-64h-64v64zM64 192h64v-64h-64v64z M128 192h64v-64h-64v64zM192 192h64v-64h-64v64zM64 128h64v-64h-64v64zM128 128h64v-64h-64v64zM192 128h64v-64h-64v64zM64 64h64v-64h-64v64zM128 64h64v-64h-64v64zM192 64h64v-64h-64v64z" />
<glyph unicode="s" d="M128 768h64v-64h-64v64zM192 768h64v-64h-64v64zM256 768h64v-64h-64v64zM320 768h64v-64h-64v64zM384 768h64v-64h-64v64zM448 768h64v-64h-64v64zM512 768h64v-64h-64v64zM576 768h64v-64h-64v64zM64 704h64v-64h-64v64zM128 704h64v-64h-64v64zM192 704h64v-64h-64v64 zM256 704h64v-64h-64v64zM320 704h64v-64h-64v64zM384 704h64v-64h-64v64zM448 704h64v-64h-64v64zM512 704h64v-64h-64v64zM576 704h64v-64h-64v64zM0 640h64v-64h-64v64zM64 640h64v-64h-64v64zM128 640h64v-64h-64v64zM192 640h64v-64h-64v64zM256 640h64v-64h-64v64z M320 640h64v-64h-64v64zM384 640h64v-64h-64v64zM448 640h64v-64h-64v64zM512 640h64v-64h-64v64zM576 640h64v-64h-64v64zM0 576h64v-64h-64v64zM64 576h64v-64h-64v64zM128 576h64v-64h-64v64zM0 512h64v-64h-64v64zM64 512h64v-64h-64v64zM128 512h64v-64h-64v64zM0 448 h64v-64h-64v64zM64 448h64v-64h-64v64zM128 448h64v-64h-64v64zM192 448h64v-64h-64v64zM256 448h64v-64h-64v64zM320 448h64v-64h-64v64zM384 448h64v-64h-64v64zM448 448h64v-64h-64v64zM512 448h64v-64h-64v64zM576 448h64v-64h-64v64zM64 384h64v-64h-64v64zM128 384h64 v-64h-64v64zM192 384h64v-64h-64v64zM256 384h64v-64h-64v64zM320 384h64v-64h-64v64zM384 384h64v-64h-64v64zM448 384h64v-64h-64v64zM512 384h64v-64h-64v64zM576 384h64v-64h-64v64zM640 384h64v-64h-64v64zM512 320h64v-64h-64v64zM576 320h64v-64h-64v64zM640 320h64 v-64h-64v64zM512 256h64v-64h-64v64zM576 256h64v-64h-64v64zM640 256h64v-64h-64v64zM0 192h64v-64h-64v64zM64 192h64v-64h-64v64zM128 192h64v-64h-64v64zM192 192h64v-64h-64v64zM256 192h64v-64h-64v64zM320 192h64v-64h-64v64zM384 192h64v-64h-64v64zM448 192h64v-64 h-64v64zM512 192h64v-64h-64v64zM576 192h64v-64h-64v64zM640 192h64v-64h-64v64zM0 128h64v-64h-64v64zM64 128h64v-64h-64v64zM128 128h64v-64h-64v64zM192 128h64v-64h-64v64zM256 128h64v-64h-64v64zM320 128h64v-64h-64v64zM384 128h64v-64h-64v64zM448 128h64v-64h-64 v64zM512 128h64v-64h-64v64zM576 128h64v-64h-64v64zM0 64h64v-64h-64v64zM64 64h64v-64h-64v64zM128 64h64v-64h-64v64zM192 64h64v-64h-64v64zM256 64h64v-64h-64v64zM320 64h64v-64h-64v64zM384 64h64v-64h-64v64zM448 64h64v-64h-64v64zM512 64h64v-64h-64v64z" />
<glyph unicode="t" horiz-adv-x="640" d="M128 1024h64v-64h-64v64zM192 1024h64v-64h-64v64zM256 1024h64v-64h-64v64zM128 960h64v-64h-64v64zM192 960h64v-64h-64v64zM256 960h64v-64h-64v64zM128 896h64v-64h-64v64zM192 896h64v-64h-64v64zM256 896h64v-64h-64v64zM128 832h64v-64h-64v64zM192 832h64v-64 h-64v64zM256 832h64v-64h-64v64zM0 768h64v-64h-64v64zM64 768h64v-64h-64v64zM128 768h64v-64h-64v64zM192 768h64v-64h-64v64zM256 768h64v-64h-64v64zM320 768h64v-64h-64v64zM384 768h64v-64h-64v64zM448 768h64v-64h-64v64zM0 704h64v-64h-64v64zM64 704h64v-64h-64v64 zM128 704h64v-64h-64v64zM192 704h64v-64h-64v64zM256 704h64v-64h-64v64zM320 704h64v-64h-64v64zM384 704h64v-64h-64v64zM448 704h64v-64h-64v64zM0 640h64v-64h-64v64zM64 640h64v-64h-64v64zM128 640h64v-64h-64v64zM192 640h64v-64h-64v64zM256 640h64v-64h-64v64z M320 640h64v-64h-64v64zM384 640h64v-64h-64v64zM448 640h64v-64h-64v64zM128 576h64v-64h-64v64zM192 576h64v-64h-64v64zM256 576h64v-64h-64v64zM128 512h64v-64h-64v64zM192 512h64v-64h-64v64zM256 512h64v-64h-64v64zM128 448h64v-64h-64v64zM192 448h64v-64h-64v64z M256 448h64v-64h-64v64zM128 384h64v-64h-64v64zM192 384h64v-64h-64v64zM256 384h64v-64h-64v64zM128 320h64v-64h-64v64zM192 320h64v-64h-64v64zM256 320h64v-64h-64v64zM128 256h64v-64h-64v64zM192 256h64v-64h-64v64zM256 256h64v-64h-64v64zM128 192h64v-64h-64v64z M192 192h64v-64h-64v64zM256 192h64v-64h-64v64zM320 192h64v-64h-64v64zM384 192h64v-64h-64v64zM448 192h64v-64h-64v64zM128 128h64v-64h-64v64zM192 128h64v-64h-64v64zM256 128h64v-64h-64v64zM320 128h64v-64h-64v64zM384 128h64v-64h-64v64zM448 128h64v-64h-64v64z M192 64h64v-64h-64v64zM256 64h64v-64h-64v64zM320 64h64v-64h-64v64zM384 64h64v-64h-64v64zM448 64h64v-64h-64v64z" />
<glyph unicode="u" d="M0 768h64v-64h-64v64zM64 768h64v-64h-64v64zM128 768h64v-64h-64v64zM512 768h64v-64h-64v64zM576 768h64v-64h-64v64zM640 768h64v-64h-64v64zM0 704h64v-64h-64v64zM64 704h64v-64h-64v64zM128 704h64v-64h-64v64zM512 704h64v-64h-64v64zM576 704h64v-64h-64v64z M640 704h64v-64h-64v64zM0 640h64v-64h-64v64zM64 640h64v-64h-64v64zM128 640h64v-64h-64v64zM512 640h64v-64h-64v64zM576 640h64v-64h-64v64zM640 640h64v-64h-64v64zM0 576h64v-64h-64v64zM64 576h64v-64h-64v64zM128 576h64v-64h-64v64zM512 576h64v-64h-64v64z M576 576h64v-64h-64v64zM640 576h64v-64h-64v64zM0 512h64v-64h-64v64zM64 512h64v-64h-64v64zM128 512h64v-64h-64v64zM512 512h64v-64h-64v64zM576 512h64v-64h-64v64zM640 512h64v-64h-64v64zM0 448h64v-64h-64v64zM64 448h64v-64h-64v64zM128 448h64v-64h-64v64z M512 448h64v-64h-64v64zM576 448h64v-64h-64v64zM640 448h64v-64h-64v64zM0 384h64v-64h-64v64zM64 384h64v-64h-64v64zM128 384h64v-64h-64v64zM512 384h64v-64h-64v64zM576 384h64v-64h-64v64zM640 384h64v-64h-64v64zM0 320h64v-64h-64v64zM64 320h64v-64h-64v64z M128 320h64v-64h-64v64zM512 320h64v-64h-64v64zM576 320h64v-64h-64v64zM640 320h64v-64h-64v64zM0 256h64v-64h-64v64zM64 256h64v-64h-64v64zM128 256h64v-64h-64v64zM512 256h64v-64h-64v64zM576 256h64v-64h-64v64zM640 256h64v-64h-64v64zM0 192h64v-64h-64v64z M64 192h64v-64h-64v64zM128 192h64v-64h-64v64zM192 192h64v-64h-64v64zM256 192h64v-64h-64v64zM320 192h64v-64h-64v64zM384 192h64v-64h-64v64zM448 192h64v-64h-64v64zM512 192h64v-64h-64v64zM576 192h64v-64h-64v64zM640 192h64v-64h-64v64zM64 128h64v-64h-64v64z M128 128h64v-64h-64v64zM192 128h64v-64h-64v64zM256 128h64v-64h-64v64zM320 128h64v-64h-64v64zM384 128h64v-64h-64v64zM448 128h64v-64h-64v64zM512 128h64v-64h-64v64zM576 128h64v-64h-64v64zM128 64h64v-64h-64v64zM192 64h64v-64h-64v64zM256 64h64v-64h-64v64z M320 64h64v-64h-64v64zM384 64h64v-64h-64v64zM448 64h64v-64h-64v64zM512 64h64v-64h-64v64z" />
<glyph unicode="v" d="M0 768h64v-64h-64v64zM64 768h64v-64h-64v64zM128 768h64v-64h-64v64zM512 768h64v-64h-64v64zM576 768h64v-64h-64v64zM640 768h64v-64h-64v64zM0 704h64v-64h-64v64zM64 704h64v-64h-64v64zM128 704h64v-64h-64v64zM512 704h64v-64h-64v64zM576 704h64v-64h-64v64z M640 704h64v-64h-64v64zM0 640h64v-64h-64v64zM64 640h64v-64h-64v64zM128 640h64v-64h-64v64zM512 640h64v-64h-64v64zM576 640h64v-64h-64v64zM640 640h64v-64h-64v64zM0 576h64v-64h-64v64zM64 576h64v-64h-64v64zM128 576h64v-64h-64v64zM512 576h64v-64h-64v64z M576 576h64v-64h-64v64zM640 576h64v-64h-64v64zM0 512h64v-64h-64v64zM64 512h64v-64h-64v64zM128 512h64v-64h-64v64zM512 512h64v-64h-64v64zM576 512h64v-64h-64v64zM640 512h64v-64h-64v64zM0 448h64v-64h-64v64zM64 448h64v-64h-64v64zM128 448h64v-64h-64v64z M512 448h64v-64h-64v64zM576 448h64v-64h-64v64zM640 448h64v-64h-64v64zM0 384h64v-64h-64v64zM64 384h64v-64h-64v64zM128 384h64v-64h-64v64zM512 384h64v-64h-64v64zM576 384h64v-64h-64v64zM640 384h64v-64h-64v64zM0 320h64v-64h-64v64zM64 320h64v-64h-64v64z M128 320h64v-64h-64v64zM192 320h64v-64h-64v64zM448 320h64v-64h-64v64zM512 320h64v-64h-64v64zM576 320h64v-64h-64v64zM640 320h64v-64h-64v64zM64 256h64v-64h-64v64zM128 256h64v-64h-64v64zM192 256h64v-64h-64v64zM256 256h64v-64h-64v64zM384 256h64v-64h-64v64z M448 256h64v-64h-64v64zM512 256h64v-64h-64v64zM576 256h64v-64h-64v64zM128 192h64v-64h-64v64zM192 192h64v-64h-64v64zM256 192h64v-64h-64v64zM320 192h64v-64h-64v64zM384 192h64v-64h-64v64zM448 192h64v-64h-64v64zM512 192h64v-64h-64v64zM192 128h64v-64h-64v64z M256 128h64v-64h-64v64zM320 128h64v-64h-64v64zM384 128h64v-64h-64v64zM448 128h64v-64h-64v64zM256 64h64v-64h-64v64zM320 64h64v-64h-64v64zM384 64h64v-64h-64v64z" />
<glyph unicode="w" horiz-adv-x="1088" d="M0 768h64v-64h-64v64zM64 768h64v-64h-64v64zM128 768h64v-64h-64v64zM384 768h64v-64h-64v64zM448 768h64v-64h-64v64zM512 768h64v-64h-64v64zM768 768h64v-64h-64v64zM832 768h64v-64h-64v64zM896 768h64v-64h-64v64zM0 704h64v-64h-64v64zM64 704h64v-64h-64v64z M128 704h64v-64h-64v64zM384 704h64v-64h-64v64zM448 704h64v-64h-64v64zM512 704h64v-64h-64v64zM768 704h64v-64h-64v64zM832 704h64v-64h-64v64zM896 704h64v-64h-64v64zM0 640h64v-64h-64v64zM64 640h64v-64h-64v64zM128 640h64v-64h-64v64zM384 640h64v-64h-64v64z M448 640h64v-64h-64v64zM512 640h64v-64h-64v64zM768 640h64v-64h-64v64zM832 640h64v-64h-64v64zM896 640h64v-64h-64v64zM0 576h64v-64h-64v64zM64 576h64v-64h-64v64zM128 576h64v-64h-64v64zM384 576h64v-64h-64v64zM448 576h64v-64h-64v64zM512 576h64v-64h-64v64z M768 576h64v-64h-64v64zM832 576h64v-64h-64v64zM896 576h64v-64h-64v64zM0 512h64v-64h-64v64zM64 512h64v-64h-64v64zM128 512h64v-64h-64v64zM384 512h64v-64h-64v64zM448 512h64v-64h-64v64zM512 512h64v-64h-64v64zM768 512h64v-64h-64v64zM832 512h64v-64h-64v64z M896 512h64v-64h-64v64zM0 448h64v-64h-64v64zM64 448h64v-64h-64v64zM128 448h64v-64h-64v64zM384 448h64v-64h-64v64zM448 448h64v-64h-64v64zM512 448h64v-64h-64v64zM768 448h64v-64h-64v64zM832 448h64v-64h-64v64zM896 448h64v-64h-64v64zM0 384h64v-64h-64v64z M64 384h64v-64h-64v64zM128 384h64v-64h-64v64zM384 384h64v-64h-64v64zM448 384h64v-64h-64v64zM512 384h64v-64h-64v64zM768 384h64v-64h-64v64zM832 384h64v-64h-64v64zM896 384h64v-64h-64v64zM0 320h64v-64h-64v64zM64 320h64v-64h-64v64zM128 320h64v-64h-64v64z M384 320h64v-64h-64v64zM448 320h64v-64h-64v64zM512 320h64v-64h-64v64zM768 320h64v-64h-64v64zM832 320h64v-64h-64v64zM896 320h64v-64h-64v64zM0 256h64v-64h-64v64zM64 256h64v-64h-64v64zM128 256h64v-64h-64v64zM384 256h64v-64h-64v64zM448 256h64v-64h-64v64z M512 256h64v-64h-64v64zM768 256h64v-64h-64v64zM832 256h64v-64h-64v64zM896 256h64v-64h-64v64zM0 192h64v-64h-64v64zM64 192h64v-64h-64v64zM128 192h64v-64h-64v64zM192 192h64v-64h-64v64zM256 192h64v-64h-64v64zM320 192h64v-64h-64v64zM384 192h64v-64h-64v64z M448 192h64v-64h-64v64zM512 192h64v-64h-64v64zM576 192h64v-64h-64v64zM640 192h64v-64h-64v64zM704 192h64v-64h-64v64zM768 192h64v-64h-64v64zM832 192h64v-64h-64v64zM896 192h64v-64h-64v64zM64 128h64v-64h-64v64zM128 128h64v-64h-64v64zM192 128h64v-64h-64v64z M256 128h64v-64h-64v64zM320 128h64v-64h-64v64zM384 128h64v-64h-64v64zM448 128h64v-64h-64v64zM512 128h64v-64h-64v64zM576 128h64v-64h-64v64zM640 128h64v-64h-64v64zM704 128h64v-64h-64v64zM768 128h64v-64h-64v64zM832 128h64v-64h-64v64zM128 64h64v-64h-64v64z M192 64h64v-64h-64v64zM256 64h64v-64h-64v64zM320 64h64v-64h-64v64zM576 64h64v-64h-64v64zM640 64h64v-64h-64v64zM704 64h64v-64h-64v64zM768 64h64v-64h-64v64z" />
<glyph unicode="x" d="M0 768h64v-64h-64v64zM64 768h64v-64h-64v64zM128 768h64v-64h-64v64zM512 768h64v-64h-64v64zM576 768h64v-64h-64v64zM640 768h64v-64h-64v64zM0 704h64v-64h-64v64zM64 704h64v-64h-64v64zM128 704h64v-64h-64v64zM192 704h64v-64h-64v64zM448 704h64v-64h-64v64z M512 704h64v-64h-64v64zM576 704h64v-64h-64v64zM640 704h64v-64h-64v64zM64 640h64v-64h-64v64zM128 640h64v-64h-64v64zM192 640h64v-64h-64v64zM256 640h64v-64h-64v64zM384 640h64v-64h-64v64zM448 640h64v-64h-64v64zM512 640h64v-64h-64v64zM576 640h64v-64h-64v64z M128 576h64v-64h-64v64zM192 576h64v-64h-64v64zM256 576h64v-64h-64v64zM320 576h64v-64h-64v64zM384 576h64v-64h-64v64zM448 576h64v-64h-64v64zM512 576h64v-64h-64v64zM192 512h64v-64h-64v64zM256 512h64v-64h-64v64zM320 512h64v-64h-64v64zM384 512h64v-64h-64v64z M448 512h64v-64h-64v64zM256 448h64v-64h-64v64zM320 448h64v-64h-64v64zM384 448h64v-64h-64v64zM256 384h64v-64h-64v64zM320 384h64v-64h-64v64zM384 384h64v-64h-64v64zM192 320h64v-64h-64v64zM256 320h64v-64h-64v64zM320 320h64v-64h-64v64zM384 320h64v-64h-64v64z M448 320h64v-64h-64v64zM128 256h64v-64h-64v64zM192 256h64v-64h-64v64zM256 256h64v-64h-64v64zM320 256h64v-64h-64v64zM384 256h64v-64h-64v64zM448 256h64v-64h-64v64zM512 256h64v-64h-64v64zM64 192h64v-64h-64v64zM128 192h64v-64h-64v64zM192 192h64v-64h-64v64z M256 192h64v-64h-64v64zM384 192h64v-64h-64v64zM448 192h64v-64h-64v64zM512 192h64v-64h-64v64zM576 192h64v-64h-64v64zM0 128h64v-64h-64v64zM64 128h64v-64h-64v64zM128 128h64v-64h-64v64zM192 128h64v-64h-64v64zM448 128h64v-64h-64v64zM512 128h64v-64h-64v64z M576 128h64v-64h-64v64zM640 128h64v-64h-64v64zM0 64h64v-64h-64v64zM64 64h64v-64h-64v64zM128 64h64v-64h-64v64zM512 64h64v-64h-64v64zM576 64h64v-64h-64v64zM640 64h64v-64h-64v64z" />
<glyph unicode="y" d="M0 768h64v-64h-64v64zM64 768h64v-64h-64v64zM128 768h64v-64h-64v64zM512 768h64v-64h-64v64zM576 768h64v-64h-64v64zM640 768h64v-64h-64v64zM0 704h64v-64h-64v64zM64 704h64v-64h-64v64zM128 704h64v-64h-64v64zM512 704h64v-64h-64v64zM576 704h64v-64h-64v64z M640 704h64v-64h-64v64zM0 640h64v-64h-64v64zM64 640h64v-64h-64v64zM128 640h64v-64h-64v64zM512 640h64v-64h-64v64zM576 640h64v-64h-64v64zM640 640h64v-64h-64v64zM0 576h64v-64h-64v64zM64 576h64v-64h-64v64zM128 576h64v-64h-64v64zM512 576h64v-64h-64v64z M576 576h64v-64h-64v64zM640 576h64v-64h-64v64zM0 512h64v-64h-64v64zM64 512h64v-64h-64v64zM128 512h64v-64h-64v64zM512 512h64v-64h-64v64zM576 512h64v-64h-64v64zM640 512h64v-64h-64v64zM0 448h64v-64h-64v64zM64 448h64v-64h-64v64zM128 448h64v-64h-64v64z M512 448h64v-64h-64v64zM576 448h64v-64h-64v64zM640 448h64v-64h-64v64zM0 384h64v-64h-64v64zM64 384h64v-64h-64v64zM128 384h64v-64h-64v64zM512 384h64v-64h-64v64zM576 384h64v-64h-64v64zM640 384h64v-64h-64v64zM0 320h64v-64h-64v64zM64 320h64v-64h-64v64z M128 320h64v-64h-64v64zM192 320h64v-64h-64v64zM256 320h64v-64h-64v64zM320 320h64v-64h-64v64zM384 320h64v-64h-64v64zM448 320h64v-64h-64v64zM512 320h64v-64h-64v64zM576 320h64v-64h-64v64zM640 320h64v-64h-64v64zM64 256h64v-64h-64v64zM128 256h64v-64h-64v64z M192 256h64v-64h-64v64zM256 256h64v-64h-64v64zM320 256h64v-64h-64v64zM384 256h64v-64h-64v64zM448 256h64v-64h-64v64zM512 256h64v-64h-64v64zM576 256h64v-64h-64v64zM640 256h64v-64h-64v64zM128 192h64v-64h-64v64zM192 192h64v-64h-64v64zM256 192h64v-64h-64v64z M320 192h64v-64h-64v64zM384 192h64v-64h-64v64zM448 192h64v-64h-64v64zM512 192h64v-64h-64v64zM576 192h64v-64h-64v64zM640 192h64v-64h-64v64zM512 128h64v-64h-64v64zM576 128h64v-64h-64v64zM640 128h64v-64h-64v64zM512 64h64v-64h-64v64zM576 64h64v-64h-64v64z M640 64h64v-64h-64v64zM128 0h64v-64h-64v64zM192 0h64v-64h-64v64zM256 0h64v-64h-64v64zM320 0h64v-64h-64v64zM384 0h64v-64h-64v64zM448 0h64v-64h-64v64zM512 0h64v-64h-64v64zM576 0h64v-64h-64v64zM640 0h64v-64h-64v64zM128 -64h64v-64h-64v64zM192 -64h64v-64h-64 v64zM256 -64h64v-64h-64v64zM320 -64h64v-64h-64v64zM384 -64h64v-64h-64v64zM448 -64h64v-64h-64v64zM512 -64h64v-64h-64v64zM576 -64h64v-64h-64v64zM128 -128h64v-64h-64v64zM192 -128h64v-64h-64v64zM256 -128h64v-64h-64v64zM320 -128h64v-64h-64v64zM384 -128h64v-64 h-64v64zM448 -128h64v-64h-64v64zM512 -128h64v-64h-64v64z" />
<glyph unicode="z" horiz-adv-x="768" d="M0 768h64v-64h-64v64zM64 768h64v-64h-64v64zM128 768h64v-64h-64v64zM192 768h64v-64h-64v64zM256 768h64v-64h-64v64zM320 768h64v-64h-64v64zM384 768h64v-64h-64v64zM448 768h64v-64h-64v64zM512 768h64v-64h-64v64zM576 768h64v-64h-64v64zM0 704h64v-64h-64v64z M64 704h64v-64h-64v64zM128 704h64v-64h-64v64zM192 704h64v-64h-64v64zM256 704h64v-64h-64v64zM320 704h64v-64h-64v64zM384 704h64v-64h-64v64zM448 704h64v-64h-64v64zM512 704h64v-64h-64v64zM576 704h64v-64h-64v64zM0 640h64v-64h-64v64zM64 640h64v-64h-64v64z M128 640h64v-64h-64v64zM192 640h64v-64h-64v64zM256 640h64v-64h-64v64zM320 640h64v-64h-64v64zM384 640h64v-64h-64v64zM448 640h64v-64h-64v64zM512 640h64v-64h-64v64zM576 640h64v-64h-64v64zM320 576h64v-64h-64v64zM384 576h64v-64h-64v64zM448 576h64v-64h-64v64z M512 576h64v-64h-64v64zM256 512h64v-64h-64v64zM320 512h64v-64h-64v64zM384 512h64v-64h-64v64zM448 512h64v-64h-64v64zM192 448h64v-64h-64v64zM256 448h64v-64h-64v64zM320 448h64v-64h-64v64zM384 448h64v-64h-64v64zM128 384h64v-64h-64v64zM192 384h64v-64h-64v64z M256 384h64v-64h-64v64zM320 384h64v-64h-64v64zM64 320h64v-64h-64v64zM128 320h64v-64h-64v64zM192 320h64v-64h-64v64zM256 320h64v-64h-64v64zM0 256h64v-64h-64v64zM64 256h64v-64h-64v64zM128 256h64v-64h-64v64zM192 256h64v-64h-64v64zM0 192h64v-64h-64v64zM64 192 h64v-64h-64v64zM128 192h64v-64h-64v64zM192 192h64v-64h-64v64zM256 192h64v-64h-64v64zM320 192h64v-64h-64v64zM384 192h64v-64h-64v64zM448 192h64v-64h-64v64zM512 192h64v-64h-64v64zM576 192h64v-64h-64v64zM0 128h64v-64h-64v64zM64 128h64v-64h-64v64zM128 128h64 v-64h-64v64zM192 128h64v-64h-64v64zM256 128h64v-64h-64v64zM320 128h64v-64h-64v64zM384 128h64v-64h-64v64zM448 128h64v-64h-64v64zM512 128h64v-64h-64v64zM576 128h64v-64h-64v64zM0 64h64v-64h-64v64zM64 64h64v-64h-64v64zM128 64h64v-64h-64v64zM192 64h64v-64h-64 v64zM256 64h64v-64h-64v64zM320 64h64v-64h-64v64zM384 64h64v-64h-64v64zM448 64h64v-64h-64v64zM512 64h64v-64h-64v64zM576 64h64v-64h-64v64z" />
<glyph unicode="{" horiz-adv-x="512" d="M128 1152h64v-64h-64v64zM192 1152h64v-64h-64v64zM256 1152h64v-64h-64v64zM320 1152h64v-64h-64v64zM64 1088h64v-64h-64v64zM128 1088h64v-64h-64v64zM192 1088h64v-64h-64v64zM256 1088h64v-64h-64v64zM320 1088h64v-64h-64v64zM64 1024h64v-64h-64v64zM128 1024h64 v-64h-64v64zM192 1024h64v-64h-64v64zM256 1024h64v-64h-64v64zM320 1024h64v-64h-64v64zM64 960h64v-64h-64v64zM128 960h64v-64h-64v64zM192 960h64v-64h-64v64zM64 896h64v-64h-64v64zM128 896h64v-64h-64v64zM192 896h64v-64h-64v64zM64 832h64v-64h-64v64zM128 832h64 v-64h-64v64zM192 832h64v-64h-64v64zM64 768h64v-64h-64v64zM128 768h64v-64h-64v64zM192 768h64v-64h-64v64zM64 704h64v-64h-64v64zM128 704h64v-64h-64v64zM192 704h64v-64h-64v64zM0 640h64v-64h-64v64zM64 640h64v-64h-64v64zM128 640h64v-64h-64v64zM0 576h64v-64h-64 v64zM64 576h64v-64h-64v64zM128 576h64v-64h-64v64zM0 512h64v-64h-64v64zM64 512h64v-64h-64v64zM128 512h64v-64h-64v64zM64 448h64v-64h-64v64zM128 448h64v-64h-64v64zM192 448h64v-64h-64v64zM64 384h64v-64h-64v64zM128 384h64v-64h-64v64zM192 384h64v-64h-64v64z M64 320h64v-64h-64v64zM128 320h64v-64h-64v64zM192 320h64v-64h-64v64zM64 256h64v-64h-64v64zM128 256h64v-64h-64v64zM192 256h64v-64h-64v64zM64 192h64v-64h-64v64zM128 192h64v-64h-64v64zM192 192h64v-64h-64v64zM64 128h64v-64h-64v64zM128 128h64v-64h-64v64z M192 128h64v-64h-64v64zM256 128h64v-64h-64v64zM320 128h64v-64h-64v64zM64 64h64v-64h-64v64zM128 64h64v-64h-64v64zM192 64h64v-64h-64v64zM256 64h64v-64h-64v64zM320 64h64v-64h-64v64zM128 0h64v-64h-64v64zM192 0h64v-64h-64v64zM256 0h64v-64h-64v64zM320 0h64v-64 h-64v64z" />
<glyph unicode="|" horiz-adv-x="320" d="M0 1152h64v-64h-64v64zM64 1152h64v-64h-64v64zM128 1152h64v-64h-64v64zM0 1088h64v-64h-64v64zM64 1088h64v-64h-64v64zM128 1088h64v-64h-64v64zM0 1024h64v-64h-64v64zM64 1024h64v-64h-64v64zM128 1024h64v-64h-64v64zM0 960h64v-64h-64v64zM64 960h64v-64h-64v64z M128 960h64v-64h-64v64zM0 896h64v-64h-64v64zM64 896h64v-64h-64v64zM128 896h64v-64h-64v64zM0 832h64v-64h-64v64zM64 832h64v-64h-64v64zM128 832h64v-64h-64v64zM0 768h64v-64h-64v64zM64 768h64v-64h-64v64zM128 768h64v-64h-64v64zM0 704h64v-64h-64v64zM64 704h64 v-64h-64v64zM128 704h64v-64h-64v64zM0 640h64v-64h-64v64zM64 640h64v-64h-64v64zM128 640h64v-64h-64v64zM0 576h64v-64h-64v64zM64 576h64v-64h-64v64zM128 576h64v-64h-64v64zM0 512h64v-64h-64v64zM64 512h64v-64h-64v64zM128 512h64v-64h-64v64zM0 448h64v-64h-64v64z M64 448h64v-64h-64v64zM128 448h64v-64h-64v64zM0 384h64v-64h-64v64zM64 384h64v-64h-64v64zM128 384h64v-64h-64v64zM0 320h64v-64h-64v64zM64 320h64v-64h-64v64zM128 320h64v-64h-64v64zM0 256h64v-64h-64v64zM64 256h64v-64h-64v64zM128 256h64v-64h-64v64zM0 192h64 v-64h-64v64zM64 192h64v-64h-64v64zM128 192h64v-64h-64v64zM0 128h64v-64h-64v64zM64 128h64v-64h-64v64zM128 128h64v-64h-64v64zM0 64h64v-64h-64v64zM64 64h64v-64h-64v64zM128 64h64v-64h-64v64zM0 0h64v-64h-64v64zM64 0h64v-64h-64v64zM128 0h64v-64h-64v64z" />
<glyph unicode="}" horiz-adv-x="512" d="M0 1152h64v-64h-64v64zM64 1152h64v-64h-64v64zM128 1152h64v-64h-64v64zM192 1152h64v-64h-64v64zM0 1088h64v-64h-64v64zM64 1088h64v-64h-64v64zM128 1088h64v-64h-64v64zM192 1088h64v-64h-64v64zM256 1088h64v-64h-64v64zM0 1024h64v-64h-64v64zM64 1024h64v-64h-64 v64zM128 1024h64v-64h-64v64zM192 1024h64v-64h-64v64zM256 1024h64v-64h-64v64zM128 960h64v-64h-64v64zM192 960h64v-64h-64v64zM256 960h64v-64h-64v64zM128 896h64v-64h-64v64zM192 896h64v-64h-64v64zM256 896h64v-64h-64v64zM128 832h64v-64h-64v64zM192 832h64v-64 h-64v64zM256 832h64v-64h-64v64zM128 768h64v-64h-64v64zM192 768h64v-64h-64v64zM256 768h64v-64h-64v64zM128 704h64v-64h-64v64zM192 704h64v-64h-64v64zM256 704h64v-64h-64v64zM192 640h64v-64h-64v64zM256 640h64v-64h-64v64zM320 640h64v-64h-64v64zM192 576h64v-64 h-64v64zM256 576h64v-64h-64v64zM320 576h64v-64h-64v64zM192 512h64v-64h-64v64zM256 512h64v-64h-64v64zM320 512h64v-64h-64v64zM128 448h64v-64h-64v64zM192 448h64v-64h-64v64zM256 448h64v-64h-64v64zM128 384h64v-64h-64v64zM192 384h64v-64h-64v64zM256 384h64v-64 h-64v64zM128 320h64v-64h-64v64zM192 320h64v-64h-64v64zM256 320h64v-64h-64v64zM128 256h64v-64h-64v64zM192 256h64v-64h-64v64zM256 256h64v-64h-64v64zM128 192h64v-64h-64v64zM192 192h64v-64h-64v64zM256 192h64v-64h-64v64zM0 128h64v-64h-64v64zM64 128h64v-64h-64 v64zM128 128h64v-64h-64v64zM192 128h64v-64h-64v64zM256 128h64v-64h-64v64zM0 64h64v-64h-64v64zM64 64h64v-64h-64v64zM128 64h64v-64h-64v64zM192 64h64v-64h-64v64zM256 64h64v-64h-64v64zM0 0h64v-64h-64v64zM64 0h64v-64h-64v64zM128 0h64v-64h-64v64zM192 0h64v-64 h-64v64z" />
<glyph unicode="~" d="M64 576h64v-64h-64v64zM128 576h64v-64h-64v64zM192 576h64v-64h-64v64zM256 576h64v-64h-64v64zM0 512h64v-64h-64v64zM64 512h64v-64h-64v64zM128 512h64v-64h-64v64zM192 512h64v-64h-64v64zM256 512h64v-64h-64v64zM320 512h64v-64h-64v64zM512 512h64v-64h-64v64z M576 512h64v-64h-64v64zM640 512h64v-64h-64v64zM0 448h64v-64h-64v64zM64 448h64v-64h-64v64zM128 448h64v-64h-64v64zM256 448h64v-64h-64v64zM320 448h64v-64h-64v64zM384 448h64v-64h-64v64zM512 448h64v-64h-64v64zM576 448h64v-64h-64v64zM640 448h64v-64h-64v64z M0 384h64v-64h-64v64zM64 384h64v-64h-64v64zM128 384h64v-64h-64v64zM320 384h64v-64h-64v64zM384 384h64v-64h-64v64zM448 384h64v-64h-64v64zM512 384h64v-64h-64v64zM576 384h64v-64h-64v64zM640 384h64v-64h-64v64zM384 320h64v-64h-64v64zM448 320h64v-64h-64v64z M512 320h64v-64h-64v64zM576 320h64v-64h-64v64z" />
<glyph unicode="&#xa1;" horiz-adv-x="320" d="M0 960h64v-64h-64v64zM64 960h64v-64h-64v64zM128 960h64v-64h-64v64zM0 896h64v-64h-64v64zM64 896h64v-64h-64v64zM128 896h64v-64h-64v64zM0 832h64v-64h-64v64zM64 832h64v-64h-64v64zM128 832h64v-64h-64v64zM0 640h64v-64h-64v64zM64 640h64v-64h-64v64zM128 640 h64v-64h-64v64zM0 576h64v-64h-64v64zM64 576h64v-64h-64v64zM128 576h64v-64h-64v64zM0 512h64v-64h-64v64zM64 512h64v-64h-64v64zM128 512h64v-64h-64v64zM0 448h64v-64h-64v64zM64 448h64v-64h-64v64zM128 448h64v-64h-64v64zM0 384h64v-64h-64v64zM64 384h64v-64h-64 v64zM128 384h64v-64h-64v64zM0 320h64v-64h-64v64zM64 320h64v-64h-64v64zM128 320h64v-64h-64v64zM0 256h64v-64h-64v64zM64 256h64v-64h-64v64zM128 256h64v-64h-64v64zM0 192h64v-64h-64v64zM64 192h64v-64h-64v64zM128 192h64v-64h-64v64zM0 128h64v-64h-64v64zM64 128 h64v-64h-64v64zM128 128h64v-64h-64v64zM0 64h64v-64h-64v64zM64 64h64v-64h-64v64zM128 64h64v-64h-64v64zM0 0h64v-64h-64v64zM64 0h64v-64h-64v64zM128 0h64v-64h-64v64zM0 -64h64v-64h-64v64zM64 -64h64v-64h-64v64zM128 -64h64v-64h-64v64z" />
<glyph unicode="&#xa2;" horiz-adv-x="896" d="M320 1088h64v-64h-64v64zM384 1088h64v-64h-64v64zM320 1024h64v-64h-64v64zM384 1024h64v-64h-64v64zM128 960h64v-64h-64v64zM192 960h64v-64h-64v64zM256 960h64v-64h-64v64zM320 960h64v-64h-64v64zM384 960h64v-64h-64v64zM448 960h64v-64h-64v64zM512 960h64v-64 h-64v64zM576 960h64v-64h-64v64zM64 896h64v-64h-64v64zM128 896h64v-64h-64v64zM192 896h64v-64h-64v64zM256 896h64v-64h-64v64zM320 896h64v-64h-64v64zM384 896h64v-64h-64v64zM448 896h64v-64h-64v64zM512 896h64v-64h-64v64zM576 896h64v-64h-64v64zM640 896h64v-64 h-64v64zM0 832h64v-64h-64v64zM64 832h64v-64h-64v64zM128 832h64v-64h-64v64zM192 832h64v-64h-64v64zM256 832h64v-64h-64v64zM320 832h64v-64h-64v64zM384 832h64v-64h-64v64zM448 832h64v-64h-64v64zM512 832h64v-64h-64v64zM576 832h64v-64h-64v64zM640 832h64v-64h-64 v64zM704 832h64v-64h-64v64zM0 768h64v-64h-64v64zM64 768h64v-64h-64v64zM128 768h64v-64h-64v64zM320 768h64v-64h-64v64zM384 768h64v-64h-64v64zM576 768h64v-64h-64v64zM640 768h64v-64h-64v64zM704 768h64v-64h-64v64zM0 704h64v-64h-64v64zM64 704h64v-64h-64v64z M128 704h64v-64h-64v64zM320 704h64v-64h-64v64zM384 704h64v-64h-64v64zM576 704h64v-64h-64v64zM640 704h64v-64h-64v64zM704 704h64v-64h-64v64zM0 640h64v-64h-64v64zM64 640h64v-64h-64v64zM128 640h64v-64h-64v64zM320 640h64v-64h-64v64zM384 640h64v-64h-64v64z M0 576h64v-64h-64v64zM64 576h64v-64h-64v64zM128 576h64v-64h-64v64zM320 576h64v-64h-64v64zM384 576h64v-64h-64v64zM0 512h64v-64h-64v64zM64 512h64v-64h-64v64zM128 512h64v-64h-64v64zM320 512h64v-64h-64v64zM384 512h64v-64h-64v64zM0 448h64v-64h-64v64zM64 448 h64v-64h-64v64zM128 448h64v-64h-64v64zM320 448h64v-64h-64v64zM384 448h64v-64h-64v64zM576 448h64v-64h-64v64zM640 448h64v-64h-64v64zM704 448h64v-64h-64v64zM0 384h64v-64h-64v64zM64 384h64v-64h-64v64zM128 384h64v-64h-64v64zM320 384h64v-64h-64v64zM384 384h64 v-64h-64v64zM576 384h64v-64h-64v64zM640 384h64v-64h-64v64zM704 384h64v-64h-64v64zM0 320h64v-64h-64v64zM64 320h64v-64h-64v64zM128 320h64v-64h-64v64zM192 320h64v-64h-64v64zM256 320h64v-64h-64v64zM320 320h64v-64h-64v64zM384 320h64v-64h-64v64zM448 320h64v-64 h-64v64zM512 320h64v-64h-64v64zM576 320h64v-64h-64v64zM640 320h64v-64h-64v64zM704 320h64v-64h-64v64zM64 256h64v-64h-64v64zM128 256h64v-64h-64v64zM192 256h64v-64h-64v64zM256 256h64v-64h-64v64zM320 256h64v-64h-64v64zM384 256h64v-64h-64v64zM448 256h64v-64 h-64v64zM512 256h64v-64h-64v64zM576 256h64v-64h-64v64zM640 256h64v-64h-64v64zM128 192h64v-64h-64v64zM192 192h64v-64h-64v64zM256 192h64v-64h-64v64zM320 192h64v-64h-64v64zM384 192h64v-64h-64v64zM448 192h64v-64h-64v64zM512 192h64v-64h-64v64zM576 192h64v-64 h-64v64zM320 128h64v-64h-64v64zM384 128h64v-64h-64v64zM320 64h64v-64h-64v64zM384 64h64v-64h-64v64z" />
<glyph unicode="&#xa3;" horiz-adv-x="896" d="M192 1088h64v-64h-64v64zM256 1088h64v-64h-64v64zM320 1088h64v-64h-64v64zM384 1088h64v-64h-64v64zM448 1088h64v-64h-64v64zM512 1088h64v-64h-64v64zM576 1088h64v-64h-64v64zM128 1024h64v-64h-64v64zM192 1024h64v-64h-64v64zM256 1024h64v-64h-64v64zM320 1024 h64v-64h-64v64zM384 1024h64v-64h-64v64zM448 1024h64v-64h-64v64zM512 1024h64v-64h-64v64zM576 1024h64v-64h-64v64zM640 1024h64v-64h-64v64zM64 960h64v-64h-64v64zM128 960h64v-64h-64v64zM192 960h64v-64h-64v64zM256 960h64v-64h-64v64zM320 960h64v-64h-64v64z M384 960h64v-64h-64v64zM448 960h64v-64h-64v64zM512 960h64v-64h-64v64zM576 960h64v-64h-64v64zM640 960h64v-64h-64v64zM704 960h64v-64h-64v64zM64 896h64v-64h-64v64zM128 896h64v-64h-64v64zM192 896h64v-64h-64v64zM576 896h64v-64h-64v64zM640 896h64v-64h-64v64z M704 896h64v-64h-64v64zM64 832h64v-64h-64v64zM128 832h64v-64h-64v64zM192 832h64v-64h-64v64zM576 832h64v-64h-64v64zM640 832h64v-64h-64v64zM704 832h64v-64h-64v64zM64 768h64v-64h-64v64zM128 768h64v-64h-64v64zM192 768h64v-64h-64v64zM64 704h64v-64h-64v64z M128 704h64v-64h-64v64zM192 704h64v-64h-64v64zM0 640h64v-64h-64v64zM64 640h64v-64h-64v64zM128 640h64v-64h-64v64zM192 640h64v-64h-64v64zM256 640h64v-64h-64v64zM320 640h64v-64h-64v64zM384 640h64v-64h-64v64zM0 576h64v-64h-64v64zM64 576h64v-64h-64v64z M128 576h64v-64h-64v64zM192 576h64v-64h-64v64zM256 576h64v-64h-64v64zM320 576h64v-64h-64v64zM384 576h64v-64h-64v64zM0 512h64v-64h-64v64zM64 512h64v-64h-64v64zM128 512h64v-64h-64v64zM192 512h64v-64h-64v64zM256 512h64v-64h-64v64zM320 512h64v-64h-64v64z M384 512h64v-64h-64v64zM64 448h64v-64h-64v64zM128 448h64v-64h-64v64zM192 448h64v-64h-64v64zM64 384h64v-64h-64v64zM128 384h64v-64h-64v64zM192 384h64v-64h-64v64zM64 320h64v-64h-64v64zM128 320h64v-64h-64v64zM192 320h64v-64h-64v64zM64 256h64v-64h-64v64z M128 256h64v-64h-64v64zM192 256h64v-64h-64v64zM0 192h64v-64h-64v64zM64 192h64v-64h-64v64zM128 192h64v-64h-64v64zM192 192h64v-64h-64v64zM256 192h64v-64h-64v64zM320 192h64v-64h-64v64zM384 192h64v-64h-64v64zM448 192h64v-64h-64v64zM512 192h64v-64h-64v64z M576 192h64v-64h-64v64zM640 192h64v-64h-64v64zM704 192h64v-64h-64v64zM0 128h64v-64h-64v64zM64 128h64v-64h-64v64zM128 128h64v-64h-64v64zM192 128h64v-64h-64v64zM256 128h64v-64h-64v64zM320 128h64v-64h-64v64zM384 128h64v-64h-64v64zM448 128h64v-64h-64v64z M512 128h64v-64h-64v64zM576 128h64v-64h-64v64zM640 128h64v-64h-64v64zM704 128h64v-64h-64v64zM0 64h64v-64h-64v64zM64 64h64v-64h-64v64zM128 64h64v-64h-64v64zM192 64h64v-64h-64v64zM256 64h64v-64h-64v64zM320 64h64v-64h-64v64zM384 64h64v-64h-64v64zM448 64h64 v-64h-64v64zM512 64h64v-64h-64v64zM576 64h64v-64h-64v64zM640 64h64v-64h-64v64zM704 64h64v-64h-64v64z" />
<glyph unicode="&#xa9;" horiz-adv-x="1024" d="M128 1088h64v-64h-64v64zM192 1088h64v-64h-64v64zM256 1088h64v-64h-64v64zM320 1088h64v-64h-64v64zM384 1088h64v-64h-64v64zM448 1088h64v-64h-64v64zM512 1088h64v-64h-64v64zM576 1088h64v-64h-64v64zM640 1088h64v-64h-64v64zM704 1088h64v-64h-64v64zM64 1024h64 v-64h-64v64zM128 1024h64v-64h-64v64zM192 1024h64v-64h-64v64zM256 1024h64v-64h-64v64zM320 1024h64v-64h-64v64zM384 1024h64v-64h-64v64zM448 1024h64v-64h-64v64zM512 1024h64v-64h-64v64zM576 1024h64v-64h-64v64zM640 1024h64v-64h-64v64zM704 1024h64v-64h-64v64z M768 1024h64v-64h-64v64zM0 960h64v-64h-64v64zM64 960h64v-64h-64v64zM128 960h64v-64h-64v64zM704 960h64v-64h-64v64zM768 960h64v-64h-64v64zM832 960h64v-64h-64v64zM0 896h64v-64h-64v64zM64 896h64v-64h-64v64zM768 896h64v-64h-64v64zM832 896h64v-64h-64v64zM0 832 h64v-64h-64v64zM64 832h64v-64h-64v64zM320 832h64v-64h-64v64zM384 832h64v-64h-64v64zM448 832h64v-64h-64v64zM512 832h64v-64h-64v64zM576 832h64v-64h-64v64zM768 832h64v-64h-64v64zM832 832h64v-64h-64v64zM0 768h64v-64h-64v64zM64 768h64v-64h-64v64zM256 768h64 v-64h-64v64zM320 768h64v-64h-64v64zM384 768h64v-64h-64v64zM448 768h64v-64h-64v64zM512 768h64v-64h-64v64zM576 768h64v-64h-64v64zM768 768h64v-64h-64v64zM832 768h64v-64h-64v64zM0 704h64v-64h-64v64zM64 704h64v-64h-64v64zM256 704h64v-64h-64v64zM320 704h64v-64 h-64v64zM384 704h64v-64h-64v64zM448 704h64v-64h-64v64zM512 704h64v-64h-64v64zM576 704h64v-64h-64v64zM768 704h64v-64h-64v64zM832 704h64v-64h-64v64zM0 640h64v-64h-64v64zM64 640h64v-64h-64v64zM256 640h64v-64h-64v64zM320 640h64v-64h-64v64zM384 640h64v-64h-64 v64zM768 640h64v-64h-64v64zM832 640h64v-64h-64v64zM0 576h64v-64h-64v64zM64 576h64v-64h-64v64zM256 576h64v-64h-64v64zM320 576h64v-64h-64v64zM384 576h64v-64h-64v64zM768 576h64v-64h-64v64zM832 576h64v-64h-64v64zM0 512h64v-64h-64v64zM64 512h64v-64h-64v64z M256 512h64v-64h-64v64zM320 512h64v-64h-64v64zM384 512h64v-64h-64v64zM768 512h64v-64h-64v64zM832 512h64v-64h-64v64zM0 448h64v-64h-64v64zM64 448h64v-64h-64v64zM256 448h64v-64h-64v64zM320 448h64v-64h-64v64zM384 448h64v-64h-64v64zM448 448h64v-64h-64v64z M512 448h64v-64h-64v64zM576 448h64v-64h-64v64zM768 448h64v-64h-64v64zM832 448h64v-64h-64v64zM0 384h64v-64h-64v64zM64 384h64v-64h-64v64zM256 384h64v-64h-64v64zM320 384h64v-64h-64v64zM384 384h64v-64h-64v64zM448 384h64v-64h-64v64zM512 384h64v-64h-64v64z M576 384h64v-64h-64v64zM768 384h64v-64h-64v64zM832 384h64v-64h-64v64zM0 320h64v-64h-64v64zM64 320h64v-64h-64v64zM320 320h64v-64h-64v64zM384 320h64v-64h-64v64zM448 320h64v-64h-64v64zM512 320h64v-64h-64v64zM576 320h64v-64h-64v64zM768 320h64v-64h-64v64z M832 320h64v-64h-64v64zM0 256h64v-64h-64v64zM64 256h64v-64h-64v64zM768 256h64v-64h-64v64zM832 256h64v-64h-64v64zM0 192h64v-64h-64v64zM64 192h64v-64h-64v64zM128 192h64v-64h-64v64zM704 192h64v-64h-64v64zM768 192h64v-64h-64v64zM832 192h64v-64h-64v64zM64 128 h64v-64h-64v64zM128 128h64v-64h-64v64zM192 128h64v-64h-64v64zM256 128h64v-64h-64v64zM320 128h64v-64h-64v64zM384 128h64v-64h-64v64zM448 128h64v-64h-64v64zM512 128h64v-64h-64v64zM576 128h64v-64h-64v64zM640 128h64v-64h-64v64zM704 128h64v-64h-64v64zM768 128 h64v-64h-64v64zM128 64h64v-64h-64v64zM192 64h64v-64h-64v64zM256 64h64v-64h-64v64zM320 64h64v-64h-64v64zM384 64h64v-64h-64v64zM448 64h64v-64h-64v64zM512 64h64v-64h-64v64zM576 64h64v-64h-64v64zM640 64h64v-64h-64v64zM704 64h64v-64h-64v64z" />
</font>
</defs>
</svg>
