<?xml version="1.0" standalone="no"?>
<!DOCTYPE svg PUBLIC "-//W3C//DTD SVG 1.1//EN" "http://www.w3.org/Graphics/SVG/1.1/DTD/svg11.dtd" >
<svg xmlns="http://www.w3.org/2000/svg" xmlns:xlink="http://www.w3.org/1999/xlink" version="1.1">
<metadata></metadata>
<defs>
<font id="ibm_plex_monoregular" horiz-adv-x="1006" >
<font-face units-per-em="2048" ascent="1638" descent="-410" />
<missing-glyph horiz-adv-x="500" />
<glyph horiz-adv-x="0" />
<glyph horiz-adv-x="0" />
<glyph unicode="&#xd;" />
<glyph unicode=" " />
<glyph unicode="!" d="M477 391l-47 440v342h148v-342l-47 -440h-54zM503 -15q-68 0 -95.5 28.5t-27.5 71.5v31q0 43 27.5 71.5t95.5 28.5q69 0 97 -28t28 -72v-31q0 -43 -28 -71.5t-97 -28.5z" />
<glyph unicode="&#x22;" d="M292 777v466h127v-466h-127zM589 777v466h127v-466h-127z" />
<glyph unicode="#" d="M248 362h-221v112h242l39 225h-221v110h240l64 364h123l-206 -1173h-124zM700 1173h123l-64 -364h222v-110h-242l-39 -225h220v-112h-240l-63 -362h-123z" />
<glyph unicode="$" d="M468 -19q-139 8 -231.5 64.5t-152.5 140.5l102 85q61 -76 128 -118t156 -51v438l-39 8q-87 15 -146 46t-94 73.5t-50 95.5t-15 110q0 143 91.5 224.5t250.5 93.5v171h104v-171q116 -9 201.5 -57t148.5 -133l-106 -76q-45 61 -103 97.5t-142 45.5v-411l51 -8 q85 -15 144 -46t95 -73.5t51 -96t15 -112.5q0 -148 -91.5 -237t-263.5 -103v-170h-104v170zM262 873q0 -82 48 -129t160 -71v397q-101 -10 -154.5 -60t-53.5 -137zM791 319q0 91 -51 137.5t-169 67.5v-420q105 12 162.5 67t57.5 148z" />
<glyph unicode="%" d="M284 598q-111 0 -180.5 74.5t-69.5 222.5t69.5 222.5t180.5 74.5q110 0 180 -74.5t70 -222.5q0 -147 -70 -222t-180 -75zM284 689q60 0 98 41.5t38 122.5v84q0 81 -38 122.5t-98 41.5q-61 0 -98.5 -41.5t-37.5 -122.5v-84q0 -81 37.5 -122.5t98.5 -41.5zM856 1173h121 l-269 -505h-120zM299 503h121l-269 -503h-121zM724 -20q-111 0 -180.5 75t-69.5 222q0 148 69.5 222.5t180.5 74.5t180.5 -74.5t69.5 -222.5q0 -147 -69.5 -222t-180.5 -75zM724 71q61 0 98.5 41.5t37.5 122.5v84q0 80 -38 122.5t-98 42.5q-61 0 -98.5 -42.5t-37.5 -122.5 v-84q0 -80 37.5 -122t98.5 -42z" />
<glyph unicode="&#x26;" d="M364 -20q-77 0 -136.5 25t-101 69.5t-63 103.5t-21.5 126q0 44 10 91t35 91.5t66.5 85.5t104.5 73q-46 60 -77.5 124t-31.5 140q0 64 24.5 116t65.5 89.5t96.5 57.5t117.5 20q56 0 102 -16t81.5 -41t60 -57t35.5 -64l-110 -57q-23 52 -66.5 86.5t-108.5 34.5 q-76 0 -120.5 -46t-44.5 -119v-13q0 -27 6.5 -52t21 -52.5t37.5 -59.5t54 -73l152 -186l122 -151h9q11 65 14.5 149t6.5 165h237v-113h-126q-5 -40 -10 -75t-11.5 -69t-15 -68.5t-23.5 -72.5l204 -242h-159l-146 173h-9q-24 -87 -96 -140t-186 -53zM399 99q73 0 128.5 30.5 t87.5 83.5l-293 353q-77 -49 -109 -110.5t-32 -133.5v-25q0 -91 60.5 -144.5t157.5 -53.5z" />
<glyph unicode="'" d="M440 777v466h127v-466h-127z" />
<glyph unicode="(" d="M344 522q0 123 27.5 236.5t75.5 210.5t112 175.5t135 131.5h136q-74 -56 -139 -128.5t-114.5 -159t-78 -186.5t-28.5 -208v-144q0 -107 28.5 -207t78 -186.5t114.5 -159.5t139 -129h-136q-71 52 -135 131t-112 176.5t-75.5 210.5t-27.5 236z" />
<glyph unicode=")" d="M663 522q0 -123 -27.5 -236t-75.5 -210.5t-111.5 -176.5t-134.5 -131h-136q72 56 137.5 129t115.5 159.5t78 186.5t28 207v144q0 108 -28 208t-78 186.5t-115.5 159.5t-137.5 128h136q71 -54 134.5 -132t111.5 -175t75.5 -210.5t27.5 -236.5z" />
<glyph unicode="*" d="M294 121l-96 70l209 286l-335 111l35 111l335 -108v363h124v-363l334 108l36 -111l-335 -111l208 -286l-96 -70l-210 289z" />
<glyph unicode="+" d="M440 104v351h-336v114h336v351h127v-351h337v-114h-337v-351h-127z" />
<glyph unicode="," d="M431 229h218l-194 -466h-112z" />
<glyph unicode="-" d="M260 440v141h487v-141h-487z" />
<glyph unicode="." d="M503 -15q-68 0 -95.5 28.5t-27.5 71.5v31q0 43 27.5 71.5t95.5 28.5q69 0 97 -28t28 -72v-31q0 -43 -28 -71.5t-97 -28.5z" />
<glyph unicode="/" d="M151 -232l585 1508h120l-584 -1508h-121z" />
<glyph unicode="0" d="M503 -20q-107 0 -184 41t-127.5 118t-74 190t-23.5 257q0 143 23.5 256t74 190.5t127.5 118.5t184 41q108 0 185.5 -41t128 -118.5t73.5 -190.5t23 -256q0 -144 -23 -257t-73.5 -190t-128 -118t-185.5 -41zM503 102q71 0 121.5 28t81.5 78t46.5 121.5t15.5 160.5v191 q0 87 -15.5 159.5t-46.5 123t-81.5 78.5t-121.5 28q-70 0 -120 -28t-81 -78.5t-46.5 -122.5t-15.5 -160v-191q0 -89 15.5 -160.5t46.5 -121.5t81 -78t120 -28zM503 487q-59 0 -81.5 23.5t-22.5 56.5v37q0 34 23 58t81 24q60 0 82.5 -24t22.5 -58v-37q0 -33 -22.5 -56.5 t-82.5 -23.5z" />
<glyph unicode="1" d="M143 0v123h336v945h-12l-296 -275l-82 89l310 291h221v-1050h309v-123h-786z" />
<glyph unicode="2" d="M902 0h-783v144l392 353q85 77 140.5 158.5t55.5 172.5v20q0 106 -55.5 164t-164.5 58q-107 0 -165 -55t-87 -145l-126 47q16 51 45.5 101t75.5 89t110.5 62t149.5 23q87 0 155 -25t114.5 -70.5t70.5 -107.5t24 -136q0 -67 -19 -126t-53.5 -112.5t-82 -105t-106.5 -101.5 l-327 -285h636v-123z" />
<glyph unicode="3" d="M453 675q123 0 184.5 54.5t61.5 140.5v12q0 94 -59.5 141t-155.5 47q-94 0 -152 -41.5t-95 -108.5l-106 81q22 35 53.5 69.5t75 61.5t99.5 43.5t128 16.5q76 0 141.5 -19t114 -57t76 -93t27.5 -126q0 -57 -17.5 -102.5t-48.5 -79.5t-73 -57t-89 -35v-6q49 -10 94.5 -33 t80.5 -59t56 -87.5t21 -116.5q0 -76 -29.5 -139t-82.5 -107.5t-127.5 -69.5t-165.5 -25q-77 0 -136.5 16.5t-106 45.5t-81 64t-61.5 74l106 80q24 -35 49 -63.5t58 -49.5t75 -33t97 -12q125 0 191 57t66 163v14q0 104 -64.5 161t-194.5 57h-139v121h129z" />
<glyph unicode="4" d="M635 0v230h-578v124l507 819h205v-827h175v-116h-175v-230h-134zM183 346h452v717h-7z" />
<glyph unicode="5" d="M841 1050h-524l-33 -449h11q44 59 98 93.5t147 34.5q77 0 142 -24.5t112 -71.5t74 -113.5t27 -151.5t-27 -157t-79 -123t-125.5 -79.5t-168.5 -28.5q-74 0 -131.5 16.5t-102.5 45.5t-78.5 64t-59.5 74l106 80q24 -35 48 -63.5t55.5 -49.5t72 -33t94.5 -12q120 0 185 66 t65 181v13q0 116 -65.5 181.5t-188.5 65.5q-83 0 -129.5 -28t-85.5 -70l-118 16l41 646h638v-123z" />
<glyph unicode="6" d="M505 -20q-93 0 -166 31t-124.5 89t-79.5 142t-28 188q0 131 39.5 246t101 210t137 168t147.5 119h181q-96 -69 -170.5 -134.5t-131.5 -137t-95.5 -153t-63.5 -184.5l8 -3q42 72 111 120t178 48q77 0 141 -25.5t111 -72t73 -114t26 -149.5q0 -85 -28.5 -157t-80 -123 t-124.5 -79.5t-162 -28.5zM503 99q121 0 188 65.5t67 184.5v13q0 119 -66.5 185t-188.5 66q-120 0 -186.5 -65.5t-66.5 -185.5v-13q0 -119 66.5 -184.5t186.5 -65.5z" />
<glyph unicode="7" d="M290 0l459 1051h-514v-218h-126v340h782v-125l-449 -1048h-152z" />
<glyph unicode="8" d="M503 -20q-102 0 -179 26t-128.5 71.5t-77 107.5t-25.5 134q0 121 65 191.5t172 98.5v14q-94 32 -148 103.5t-54 172.5q0 134 99 213.5t276 79.5q178 0 277.5 -79.5t99.5 -213.5q0 -101 -54.5 -172.5t-149.5 -103.5v-14q108 -28 173.5 -98.5t65.5 -191.5q0 -72 -26 -134 t-78 -107.5t-128.5 -71.5t-179.5 -26zM503 99q125 0 195.5 55.5t70.5 156.5v37q0 101 -69.5 156t-196.5 55q-126 0 -195 -55t-69 -156v-37q0 -101 70 -156.5t194 -55.5zM503 673q114 0 174 49t60 140v23q0 91 -61 139.5t-173 48.5q-110 0 -171 -48.5t-61 -139.5v-23 q0 -91 59.5 -140t172.5 -49z" />
<glyph unicode="9" d="M900 742q0 -131 -39.5 -246t-101.5 -210t-136.5 -168t-146.5 -118h-182q96 69 170.5 134.5t132 137t96 152.5t63.5 184l-9 3q-43 -72 -111.5 -119.5t-177.5 -47.5q-77 0 -141.5 25t-110.5 72t-72.5 113.5t-26.5 149.5q0 86 28 157.5t80 122.5t125 79.5t162 28.5 q92 0 166 -31t125.5 -89t79 -142t27.5 -188zM503 559q121 0 188 65.5t67 184.5v14q0 119 -66.5 184.5t-188.5 65.5q-120 0 -186.5 -65.5t-66.5 -184.5v-14q0 -119 66.5 -184.5t186.5 -65.5z" />
<glyph unicode=":" d="M503 -15q-68 0 -95.5 28.5t-27.5 71.5v31q0 43 27.5 71.5t95.5 28.5q69 0 97 -28t28 -72v-31q0 -43 -28 -71.5t-97 -28.5zM503 650q-68 0 -95.5 28.5t-27.5 71.5v31q0 43 27.5 71.5t95.5 28.5q69 0 97 -28t28 -72v-31q0 -43 -28 -71.5t-97 -28.5z" />
<glyph unicode=";" d="M431 229h218l-194 -466h-112zM503 650q-68 0 -95.5 28.5t-27.5 71.5v31q0 43 27.5 71.5t95.5 28.5q69 0 97 -28t28 -72v-31q0 -43 -28 -71.5t-97 -28.5z" />
<glyph unicode="&#x3c;" d="M143 445v135l722 418v-139l-596 -338v-14l596 -337v-143z" />
<glyph unicode="=" d="M104 625v114h800v-114h-800zM104 289v114h800v-114h-800z" />
<glyph unicode="&#x3e;" d="M143 166l596 337v14l-596 337v144l722 -418v-135l-722 -418v139z" />
<glyph unicode="?" d="M401 361v264q144 6 226.5 62.5t82.5 171.5v23q0 94 -56 141t-154 47q-101 0 -161 -55.5t-84 -141.5l-125 47q16 56 46.5 105.5t76.5 86.5t109 58.5t143 21.5t145 -22.5t110.5 -64t70.5 -100t25 -130.5q0 -79 -28 -139t-74 -101.5t-103.5 -68t-116.5 -35.5v-170h-133z M474 -15q-69 0 -97 28.5t-28 71.5v31q0 43 28 71.5t97 28.5t96.5 -28t27.5 -72v-31q0 -43 -27.5 -71.5t-96.5 -28.5z" />
<glyph unicode="@" d="M763 -188h-207q-128 0 -214.5 43t-139.5 129.5t-75.5 215.5t-22.5 303q0 196 26 328t76.5 212t125.5 114.5t173 34.5q101 0 172.5 -32t117 -87t66.5 -131.5t21 -164.5v-624h-119v95h-9q-16 -43 -55 -79t-113 -36q-102 0 -163 86.5t-61 272.5t61 273.5t163 87.5 q37 0 64.5 -10t48 -26.5t33.5 -37t22 -42.5h9v40q0 143 -60 225.5t-194 82.5q-149 0 -214 -115.5t-65 -368.5v-216q0 -98 13.5 -183t49.5 -147.5t99 -98.5t164 -36h207v-108zM630 234q60 0 96.5 33.5t36.5 96.5v258q0 64 -36.5 97.5t-96.5 33.5q-71 0 -107 -48t-36 -161 v-102q0 -112 36 -160t107 -48z" />
<glyph unicode="A" d="M808 0l-100 335h-411l-99 -335h-146l360 1173h186l359 -1173h-149zM511 1023h-16l-165 -566h345z" />
<glyph unicode="B" d="M148 1173h398q151 0 236.5 -82.5t85.5 -220.5q0 -106 -51 -166.5t-131 -85.5v-5q99 -23 162.5 -88t63.5 -187q0 -71 -23.5 -133t-66.5 -107.5t-101 -71.5t-125 -26h-448v1173zM554 123q98 0 153.5 43.5t55.5 134.5v69q0 89 -55.5 133.5t-153.5 44.5h-265v-425h265z M531 663q89 0 139.5 39.5t50.5 120.5v65q0 80 -50.5 121t-139.5 41h-242v-387h242z" />
<glyph unicode="C" d="M543 -20q-215 0 -320.5 156t-105.5 450t105 450t321 156q80 0 138.5 -21.5t101 -58.5t71 -83.5t50.5 -92.5l-122 -56q-14 38 -34.5 72.5t-48 61t-65.5 41.5t-91 15q-140 0 -208 -105.5t-68 -283.5v-191q0 -176 68 -282t208 -106q54 0 91.5 15.5t65 41t48 60t34.5 73.5 l122 -55q-22 -48 -50.5 -93.5t-71 -82.5t-101 -59t-138.5 -22z" />
<glyph unicode="D" d="M160 1173h327q215 0 320.5 -148t105.5 -439q0 -290 -105.5 -438t-320.5 -148h-327v1173zM481 123q141 0 212 97t71 275v181q0 178 -71 276t-212 98h-180v-927h180z" />
<glyph unicode="E" d="M151 0v1173h722v-123h-581v-395h561v-123h-561v-409h581v-123h-722z" />
<glyph unicode="F" d="M151 0v1173h739v-123h-598v-395h548v-123h-548v-532h-141z" />
<glyph unicode="G" d="M745 156h-8q-15 -34 -35.5 -65.5t-51 -56t-74.5 -39.5t-104 -15q-192 0 -285 154.5t-93 443.5q0 303 102.5 458.5t315.5 155.5q82 0 142.5 -21.5t103.5 -58.5t72 -83.5t47 -92.5l-121 -56q-15 38 -34.5 72.5t-47.5 61t-66.5 41.5t-90.5 15q-141 0 -207 -105.5t-66 -283.5 v-181q0 -89 13.5 -161.5t44.5 -126.5t80 -83.5t121 -29.5q114 0 178 69t64 178v121h-246v113h378v-580h-132v156z" />
<glyph unicode="H" d="M732 532h-456v-532h-142v1173h142v-518h456v518h141v-1173h-141v532z" />
<glyph unicode="I" d="M141 0v112h292v947h-292v114h726v-114h-293v-947h293v-112h-726z" />
<glyph unicode="J" d="M806 1173v-869q0 -74 -25 -134.5t-71.5 -102.5t-110.5 -64.5t-139 -22.5q-134 0 -221.5 69.5t-113.5 195.5l133 29q8 -35 22.5 -66.5t39 -54t60 -36t83.5 -13.5q96 0 149 54.5t53 170.5v721h-423v123h564z" />
<glyph unicode="K" d="M452 574l-168 -198v-376h-141v1173h141v-612h5l155 195l346 417h169l-411 -495l423 -678h-165z" />
<glyph unicode="L" d="M202 0v1173h141v-1050h556v-123h-697z" />
<glyph unicode="M" d="M764 588v371h-14l-247 -603l-246 603h-13v-371v-588h-130v1173h181l207 -518h10l207 518h175v-1173h-130v588z" />
<glyph unicode="N" d="M274 987h-12v-987h-128v1173h201l399 -989h11v989h128v-1173h-200z" />
<glyph unicode="O" d="M503 -20q-107 0 -184 41t-127.5 118t-74 190t-23.5 257q0 143 23.5 256t74 190.5t127.5 118.5t184 41q108 0 185.5 -41t128 -118.5t73.5 -190.5t23 -256q0 -144 -23 -257t-73.5 -190t-128 -118t-185.5 -41zM503 102q71 0 120 28t81 78t46 121.5t14 160.5v191 q0 87 -14 159.5t-46 123t-81 78.5t-120 28q-70 0 -118.5 -28t-80.5 -78.5t-46 -122.5t-14 -160v-191q0 -89 14 -160.5t46 -121.5t80.5 -78t118.5 -28z" />
<glyph unicode="P" d="M151 0v1173h427q163 0 248.5 -89.5t85.5 -248.5q0 -160 -86 -249t-248 -89h-286v-497h-141zM292 620h282q89 0 139 44t50 127v87q0 82 -50 127t-139 45h-282v-430z" />
<glyph unicode="Q" d="M825 -276h-197q-99 0 -145.5 55.5t-46.5 143.5v62q-89 12 -153.5 58t-106.5 122.5t-62 183t-20 237.5q0 143 23.5 256t74 190.5t127.5 118.5t184 41q108 0 185.5 -41t128 -118.5t73.5 -190.5t23 -256q0 -264 -82 -421t-260 -180v-147h254v-114zM503 102q71 0 120 28 t81 78t46 121.5t14 160.5v191q0 87 -14 159.5t-46 123t-81 78.5t-120 28q-70 0 -118.5 -28t-80.5 -78.5t-46 -122.5t-14 -160v-191q0 -89 14 -160.5t46 -121.5t80.5 -78t118.5 -28z" />
<glyph unicode="R" d="M292 0h-141v1173h427q163 0 248.5 -89.5t85.5 -248.5q0 -143 -74 -228.5t-215 -99.5l299 -507h-158l-285 500h-187v-500zM574 620q89 0 139 44t50 127v87q0 82 -50 127t-139 45h-282v-430h282z" />
<glyph unicode="S" d="M500 -20q-158 0 -258.5 58t-166.5 148l103 85q69 -86 145 -128t182 -42q128 0 195.5 58.5t67.5 164.5q0 85 -49 133t-170 69l-131 22q-85 15 -143.5 45t-93.5 72.5t-50 94t-15 107.5q0 161 105.5 243t285.5 82q141 0 237.5 -47t155.5 -132l-99 -86q-48 64 -117 104.5 t-179 40.5q-119 0 -183 -50.5t-64 -151.5q0 -79 48 -128.5t173 -71.5l125 -21q86 -15 145 -46t95 -72.5t51 -93.5t15 -110q0 -163 -106.5 -255t-303.5 -92z" />
<glyph unicode="T" d="M574 1050v-1050h-141v1050h-391v123h924v-123h-392z" />
<glyph unicode="U" d="M276 1173v-705q0 -85 4.5 -152.5t26.5 -115t68 -73t128 -25.5t128.5 25.5t68.5 73t27 115t5 152.5v705h141v-671q0 -131 -12.5 -228.5t-52 -163t-112.5 -98t-193 -32.5q-118 0 -191 32.5t-112.5 98t-52.5 163t-13 228.5v671h142z" />
<glyph unicode="V" d="M408 0l-347 1173h149l166 -587l126 -443h9l125 443l167 587h144l-348 -1173h-191z" />
<glyph unicode="W" d="M151 0l-92 1173h125l50 -673l24 -354h14l154 721h159l154 -721h14l24 354l50 673h122l-93 -1173h-202l-143 700h-14l-143 -700h-203z" />
<glyph unicode="X" d="M966 0h-160l-139 234l-155 255h-7l-159 -255l-148 -234h-155l383 598l-360 575h159l136 -228l146 -237h7l144 237l142 228h154l-363 -574z" />
<glyph unicode="Y" d="M433 0v460l-404 713h160l169 -306l142 -268h7l147 268l167 306h158l-405 -713v-460h-141z" />
<glyph unicode="Z" d="M927 0h-847v126l664 924h-635v123h790v-127l-665 -923h693v-123z" />
<glyph unicode="[" d="M378 -232v1508h470v-103h-354v-1301h354v-104h-470z" />
<glyph unicode="\" d="M736 -232l-585 1508h121l584 -1508h-120z" />
<glyph unicode="]" d="M630 1276v-1508h-470v104h354v1301h-354v103h470z" />
<glyph unicode="^" d="M821 482l-318 574h-6l-317 -574l-105 52l353 639h152l352 -639z" />
<glyph unicode="_" d="M101 -284v124h806v-124h-806z" />
<glyph unicode="`" d="M314 1250l122 58l144 -285l-88 -41z" />
<glyph unicode="a" d="M831 0q-78 0 -111.5 40t-43.5 101h-8q-28 -75 -91 -118t-169 -43q-136 0 -216.5 70.5t-80.5 193.5q0 120 88 185.5t285 65.5h184v86q0 96 -53.5 143.5t-152.5 47.5q-87 0 -142.5 -34t-89.5 -93l-91 67q17 33 45.5 65t70.5 57t96 38.5t119 13.5q152 0 242.5 -77t90.5 -215 v-477h120v-117h-92zM431 93q52 0 95 12t75 33.5t49.5 50.5t17.5 63v142h-184q-121 0 -176.5 -33.5t-55.5 -96.5v-35q0 -67 48 -101.5t131 -34.5z" />
<glyph unicode="b" d="M160 1243h134v-517h7q84 161 266 160q160 0 250 -118.5t90 -334.5q0 -215 -90 -334t-250 -119q-182 0 -266 161h-7v-141h-134v1243zM516 99q117 0 182 71.5t65 188.5v148q0 117 -65 189t-182 72q-45 0 -85.5 -12t-71 -34.5t-48 -55.5t-17.5 -76v-313q0 -43 17.5 -76 t48 -55.5t71 -34.5t85.5 -12z" />
<glyph unicode="c" d="M534 -20q-94 0 -167 32.5t-123 91.5t-76.5 142.5t-26.5 186.5q0 102 27 186.5t77 144t122.5 91t164.5 31.5q126 0 205 -55t116 -144l-108 -57q-23 67 -77.5 104t-135.5 37q-59 0 -105 -19.5t-78 -54.5t-48 -84t-16 -106v-148q0 -57 16 -105.5t48 -84t79.5 -54.5 t106.5 -19q87 0 144.5 40t91.5 111l96 -66q-39 -87 -120.5 -144t-212.5 -57z" />
<glyph unicode="d" d="M713 141h-6q-84 -161 -267 -161q-160 0 -249.5 119t-89.5 334t89.5 334t249.5 119q183 0 267 -160h6v517h135v-1243h-135v141zM492 99q45 0 85.5 12t70.5 34.5t47.5 55.5t17.5 76v313q0 43 -17.5 76t-47.5 55.5t-70.5 34.5t-85.5 12q-117 0 -182 -71.5t-65 -189.5v-148 q0 -117 65 -188.5t182 -71.5z" />
<glyph unicode="e" d="M519 -20q-94 0 -168.5 31.5t-127.5 91.5t-82 143t-29 185q0 104 29.5 188.5t82 144t125 91t162.5 31.5q87 0 158 -31.5t121.5 -88t77.5 -133.5t27 -170v-64h-642v-40q0 -57 18.5 -105.5t53 -84t84 -54.5t110.5 -19q87 0 151 40t98 111l99 -67q-39 -87 -128.5 -143.5 t-219.5 -56.5zM511 776q-56 0 -103 -20t-81.5 -55.5t-54 -83.5t-19.5 -105v-12h497v19q0 57 -17.5 104t-48 81.5t-75 53t-98.5 18.5z" />
<glyph unicode="f" d="M139 114h292v639h-308v114h308v178q0 87 46.5 142.5t145.5 55.5h290v-115h-347v-261h347v-114h-347v-639h309v-114h-736v114z" />
<glyph unicode="g" d="M942 -99q0 -131 -109 -194t-328 -63q-210 0 -301.5 55.5t-91.5 159.5q0 70 37 109t104 57v20q-37 19 -57 47.5t-20 72.5q0 67 45 100.5t112 50.5v6q-80 36 -125 104.5t-45 161.5q0 66 23.5 121t68 94.5t106.5 61t138 21.5q97 0 171 -35v16q0 50 23.5 83.5t80.5 33.5h160 v-117h-195v-59q47 -40 72 -95.5t25 -124.5q0 -66 -24 -121t-68 -94.5t-107 -61.5t-138 -22q-23 0 -43 1.5t-39 4.5q-21 -3 -42.5 -10.5t-40 -20t-30.5 -29.5t-12 -38q0 -39 39 -51.5t100 -12.5h192q168 0 243.5 -63t75.5 -169zM816 -106q0 52 -42 83t-146 31h-301 q-87 -35 -87 -117q0 -57 45 -98t151 -41h131q118 0 183.5 36t65.5 106zM499 393q100 0 148 47t48 124v49q0 77 -48 123t-148 46q-101 0 -148 -46t-47 -123v-49q0 -77 47 -124t148 -47z" />
<glyph unicode="h" d="M165 1243h134v-517h7q13 32 33 61t49.5 51t70 35t94.5 13q136 0 218 -86.5t82 -243.5v-556h-134v532q0 119 -52 177.5t-153 58.5q-40 0 -79 -10.5t-69 -30.5t-48.5 -52t-18.5 -74v-601h-134v1243z" />
<glyph unicode="i" d="M558 1058q-59 0 -82.5 24.5t-23.5 61.5v26q0 37 23.5 61.5t82.5 24.5t82 -24t23 -62v-26q0 -37 -23 -61.5t-82 -24.5zM178 114h312v639h-312v114h447v-753h292v-114h-739v114z" />
<glyph unicode="j" d="M171 -221h420v974h-435v114h570v-1005q0 -87 -46.5 -142.5t-145.5 -55.5h-363v115zM658 1058q-59 0 -82 24.5t-23 61.5v26q0 37 23 61.5t82 24.5q60 0 83 -24t23 -62v-26q0 -37 -23 -61.5t-83 -24.5z" />
<glyph unicode="k" d="M176 1243h135v-785h6l151 143l290 266h164l-359 -340l401 -527h-166l-338 450l-149 -136v-314h-135v1243z" />
<glyph unicode="l" d="M134 114h302v1014h-302v115h437v-1129h302v-114h-739v114z" />
<glyph unicode="m" d="M91 0v867h124v-101h6q21 50 58 85t109 35q75 0 112 -37.5t46 -98.5h5q24 59 67.5 97.5t120.5 38.5q106 0 142 -73.5t36 -211.5v-601h-124v580q0 110 -23 153t-83 43q-54 0 -87.5 -34.5t-33.5 -105.5v-636h-124v580q0 110 -23 153t-81 43q-54 0 -88.5 -34.5t-34.5 -105.5 v-636h-124z" />
<glyph unicode="n" d="M165 0v867h134v-141h7q13 32 33 61t49.5 51t70 35t94.5 13q136 0 218 -86.5t82 -243.5v-556h-134v532q0 119 -52 177.5t-153 58.5q-40 0 -79 -10.5t-69 -30.5t-48.5 -52t-18.5 -74v-601h-134z" />
<glyph unicode="o" d="M503 -20q-91 0 -163.5 31.5t-123.5 91.5t-78 143t-27 187q0 102 27 186.5t78 144t124 91t163 31.5q91 0 164 -31.5t124.5 -91t78.5 -144t27 -186.5q0 -104 -27 -187t-78.5 -143t-124.5 -91.5t-164 -31.5zM503 96q113 0 182 67t69 208v124q0 141 -68.5 208.5t-182.5 67.5 q-112 0 -181 -67.5t-69 -208.5v-124q0 -141 69 -208t181 -67z" />
<glyph unicode="p" d="M160 867h134v-141h7q84 161 266 160q160 0 250 -118.5t90 -334.5q0 -215 -90 -334t-250 -119q-182 0 -266 161h-7v-477h-134v1203zM516 99q117 0 182 71.5t65 188.5v148q0 117 -65 189t-182 72q-45 0 -85.5 -12t-71 -34.5t-48 -55.5t-17.5 -76v-313q0 -43 17.5 -76 t48 -55.5t71 -34.5t85.5 -12z" />
<glyph unicode="q" d="M713 141h-6q-84 -161 -267 -161q-160 0 -249.5 119t-89.5 334t89.5 334t249.5 119q183 0 267 -160h6v141h135v-1203h-135v477zM492 99q45 0 85.5 12t70.5 34.5t47.5 55.5t17.5 76v313q0 43 -17.5 76t-47.5 55.5t-70.5 34.5t-85.5 12q-117 0 -182 -71.5t-65 -189.5v-148 q0 -117 65 -188.5t182 -71.5z" />
<glyph unicode="r" d="M130 114h253v639h-253v114h387v-218h9q27 102 101.5 160t190.5 58h121v-135h-163q-116 0 -187.5 -67t-71.5 -176v-375h336v-114h-723v114z" />
<glyph unicode="s" d="M514 -20q-136 0 -234.5 46t-167.5 123l91 80q63 -66 136.5 -101t177.5 -35q101 0 165.5 36t64.5 113q0 34 -12.5 56.5t-34.5 36t-48.5 20.5t-57.5 13l-136 20q-45 6 -97.5 18t-96.5 38t-73 70t-29 114q0 66 25.5 114t73 80t111 48t139.5 16q117 0 203.5 -36.5 t148.5 -102.5l-87 -82q-15 19 -38 38t-55.5 35t-76 26t-101.5 10q-102 0 -156.5 -35t-54.5 -103q0 -33 12.5 -55.5t34 -36t49.5 -21t57 -12.5l136 -21q47 -6 99 -18t95.5 -38t73 -69.5t29.5 -114.5q0 -129 -99.5 -199.5t-266.5 -70.5z" />
<glyph unicode="t" d="M546 0q-99 0 -145.5 55.5t-46.5 142.5v555h-288v114h214q44 0 61.5 17.5t17.5 60.5v228h130v-306h394v-114h-394v-639h394v-114h-337z" />
<glyph unicode="u" d="M708 141h-6q-13 -32 -33 -61.5t-49.5 -51t-70 -35t-94.5 -13.5q-136 0 -218.5 86.5t-82.5 244.5v556h135v-532q0 -119 52 -177.5t153 -58.5q40 0 78.5 10t69 30.5t48.5 51t18 75.5v601h135v-867h-135v141z" />
<glyph unicode="v" d="M418 0l-311 867h137l124 -364l134 -391h7l134 391l125 364h132l-310 -867h-172z" />
<glyph unicode="w" d="M50 867h120l99 -750h15l147 750h149l147 -750h15l99 750h116l-132 -867h-175l-138 726h-13l-141 -726h-175z" />
<glyph unicode="x" d="M102 0l323 440l-314 427h161l131 -183l104 -145h7l101 145l129 183h155l-318 -425l326 -442h-162l-146 203l-99 138h-6l-96 -138l-141 -203h-155z" />
<glyph unicode="y" d="M784 867h134l-429 -1056q-15 -37 -34 -65t-44 -45.5t-60 -27t-84 -9.5h-128v115h202l98 237l-350 851h137l147 -364l129 -328h7l129 328z" />
<glyph unicode="z" d="M143 0v130l559 623h-540v114h686v-130l-559 -623h576v-114h-722z" />
<glyph unicode="{" d="M535 -232q-70 0 -105.5 39.5t-35.5 98.5v105q0 46 9.5 80t23 60.5t30.5 47.5t32 40q28 33 39 57.5t11 51.5q0 64 -59 93t-172 29h-132v104h132q113 0 172 29.5t59 93.5q0 27 -11 51t-39 58q-15 19 -32 40t-30.5 46.5t-23 60t-9.5 80.5v106q0 59 35.5 98t105.5 39h296 v-103h-320v-130q0 -69 20 -106t47 -72q29 -37 54 -76.5t25 -93.5q0 -70 -49.5 -114t-135.5 -55v-7q85 -11 135 -55t50 -115q0 -54 -25.5 -93.5t-53.5 -75.5q-27 -36 -47 -72.5t-20 -105.5v-130h320v-104h-296z" />
<glyph unicode="|" d="M445 -232v1508h118v-1508h-118z" />
<glyph unicode="}" d="M472 1276q70 0 105.5 -39.5t35.5 -97.5v-106q0 -45 -9.5 -80t-23 -60.5t-30 -46.5t-31.5 -40q-29 -34 -40 -58t-11 -51q0 -64 59 -93.5t173 -29.5h131v-104h-131q-114 0 -173 -29t-59 -93q0 -27 11 -51.5t40 -57.5q15 -19 31.5 -40t30 -47.5t23 -60.5t9.5 -80v-105 q0 -59 -35 -98.5t-106 -39.5h-296v104h321v130q0 69 -20 105.5t-47 72.5q-29 36 -54 75.5t-25 93.5q0 71 49.5 114.5t134.5 55.5v7q-85 11 -134.5 55t-49.5 114q0 54 25 93.5t54 76.5q27 35 47 72t20 106v130h-321v103h296z" />
<glyph unicode="~" d="M675 330q-64 0 -108.5 36.5t-92.5 93.5q-44 57 -78 89t-66 32q-48 0 -81 -52t-60 -181l-102 23q29 155 88 239t158 84q64 0 107.5 -35.5t90.5 -91.5q46 -60 80 -91.5t65 -31.5q56 1 88 64t54 168l102 -22q-37 -180 -97.5 -252t-147.5 -72z" />
<glyph unicode="&#xa0;" />
<glyph unicode="&#xa1;" d="M430 -306v341l47 441h54l47 -441v-341h-148zM503 650q-68 0 -95.5 28.5t-27.5 71.5v31q0 43 27.5 72t95.5 29q69 0 97 -28.5t28 -72.5v-31q0 -43 -28 -71.5t-97 -28.5z" />
<glyph unicode="&#xa2;" d="M468 -191v176q-158 22 -242.5 141t-84.5 307t85.5 307.5t241.5 141.5v176h104v-173q109 -8 178 -62.5t103 -135.5l-108 -57q-22 59 -65.5 95t-108.5 44v-671q72 8 121.5 46.5t78.5 102.5l96 -66q-36 -80 -108 -135.5t-187 -64.5v-172h-104zM285 359q0 -99 47.5 -168.5 t137.5 -88.5v662q-91 -19 -138 -88.5t-47 -168.5v-148z" />
<glyph unicode="&#xa3;" d="M126 0v176q71 29 101.5 86t30.5 136q0 22 -2.5 42t-5.5 41h-163v115h131q-19 58 -36 115t-17 127q0 77 26.5 142.5t78 113t124.5 73t164 25.5q134 0 222 -53t143 -138l-105 -76q-47 69 -110 107t-159 38q-110 0 -175 -55.5t-65 -184.5q0 -69 16 -124.5t34 -109.5h338 v-115h-306q5 -34 5 -66q0 -52 -12.5 -95t-33 -77.5t-44.5 -59.5t-48 -40v-9h646v-134h-778z" />
<glyph unicode="&#xa4;" d="M503 200q-86 0 -157 34l-116 -199l-102 59l124 212q-91 104 -90 280q0 177 90 281l-124 211l102 59l116 -198q71 34 157 34q87 0 159 -34l115 198l103 -59l-124 -211q91 -104 90 -281q0 -176 -90 -280l124 -212l-103 -59l-115 199q-72 -34 -159 -34zM503 312 q91 0 146 54.5t55 165.5v108q0 110 -55 165t-146 55t-145 -55t-54 -165v-108q0 -111 54 -165.5t145 -54.5z" />
<glyph unicode="&#xa5;" d="M126 116h310v312h-310v116h236l-325 629h157l308 -629h7l309 629h153l-326 -629h237v-116h-311v-312h311v-116h-756v116z" />
<glyph unicode="&#xa6;" d="M445 673v603h118v-603h-118zM445 -232v603h118v-603h-118z" />
<glyph unicode="&#xa7;" d="M818 5q0 -61 -24.5 -109.5t-69 -83.5t-106.5 -53.5t-137 -18.5q-78 0 -153 22t-133 72l79 94q40 -34 92 -53t116 -19q96 0 150 39t54 108q0 64 -46.5 102t-132.5 61l-108 31q-139 38 -201 106t-62 154q0 80 49 142.5t139 97.5v8q-66 40 -96.5 97.5t-30.5 124.5 q0 60 24 109t69 84t106.5 53.5t137.5 18.5q77 0 152 -21.5t133 -72.5l-79 -94q-40 34 -92 53.5t-116 19.5q-96 0 -149.5 -39.5t-53.5 -108.5q0 -64 46 -101.5t132 -61.5l108 -30q139 -39 201 -107t62 -153q0 -81 -48.5 -143t-139.5 -98v-9q66 -40 97 -97t31 -124zM745 442 q0 72 -48 115.5t-153 72.5l-105 28q-29 7 -58 18q-51 -35 -81.5 -81t-30.5 -105q0 -72 48.5 -116t152.5 -71l106 -29q28 -7 57 -19q52 35 82 81.5t30 105.5z" />
<glyph unicode="&#xa8;" d="M348 1038q-52 0 -74 22t-22 55v24q0 34 21.5 55.5t74.5 21.5q51 0 73.5 -21.5t22.5 -55.5v-24q0 -33 -22.5 -55t-73.5 -22zM660 1038q-52 0 -74 22t-22 55v24q0 34 22 55.5t74 21.5t74 -21.5t22 -55.5v-24q0 -33 -22 -55t-74 -22z" />
<glyph unicode="&#xa9;" d="M503 30q-105 0 -196.5 38.5t-159.5 111t-107.5 175t-39.5 231.5q0 128 39.5 231t107.5 175t159.5 111t196.5 39q106 0 198 -39t160 -111t107.5 -175.5t39.5 -230.5q0 -129 -39.5 -231.5t-107.5 -175t-160 -111t-198 -38.5zM503 123q86 0 159.5 31.5t126 88t83 132 t30.5 160.5v101q0 86 -30.5 161.5t-83 132t-125.5 88.5t-160 32q-85 0 -158 -32t-126 -88.5t-83 -132t-30 -161.5v-101q0 -85 30 -160.5t83 -132t126 -88t158 -31.5zM512 287q-122 0 -190.5 81.5t-68.5 217.5q0 138 69 218.5t190 80.5q81 0 132 -37t80 -98l-89 -48 q-19 40 -47.5 64t-75.5 24q-65 0 -101 -43t-36 -112v-96q0 -71 35 -113.5t104 -42.5q50 0 80.5 25t54.5 68l83 -53q-28 -59 -83 -97.5t-137 -38.5z" />
<glyph unicode="&#xaa;" d="M721 599q-56 0 -79.5 23.5t-26.5 66.5h-7q-19 -39 -65 -71t-125 -32q-91 0 -138.5 45t-47.5 122q0 91 66 132.5t187 41.5h123v47q0 131 -129 131q-59 0 -98.5 -24.5t-58.5 -62.5l-70 57q11 22 32.5 43t49.5 38t65 26.5t85 9.5q107 0 168 -55t61 -158v-285h64v-95h-56z M482 850q-70 0 -107 -20.5t-37 -58.5v-17q0 -82 102 -82q68 0 118 29.5t50 79.5v69h-126z" />
<glyph unicode="&#xab;" d="M469 94l-346 292v135l346 292l42 -96l-248 -264l248 -264zM854 94l-346 292v135l346 292l42 -96l-248 -264l248 -264z" />
<glyph unicode="&#xac;" d="M761 131v324h-657v114h773v-438h-116z" />
<glyph unicode="&#xad;" d="M260 440v141h487v-141h-487z" />
<glyph unicode="&#xae;" d="M503 581q-63 0 -119.5 23.5t-98 63.5t-65 96.5t-23.5 121.5q0 66 23.5 122t65 97t98 64t119.5 23q64 0 120.5 -23t98 -64t65.5 -97t24 -122q0 -65 -24 -121.5t-65.5 -96.5t-98 -63.5t-120.5 -23.5zM503 650q49 0 90.5 15.5t71.5 44.5t48 69t18 91v34q0 50 -18 90.5 t-48 68.5t-71 44t-91 16q-48 0 -89 -16t-71.5 -44t-48 -68.5t-17.5 -90.5v-34q0 -50 17.5 -90.5t48 -69.5t71.5 -44.5t89 -15.5zM453 732h-67v311h143q47 0 73 -26t26 -70q0 -65 -62 -87l77 -128h-76l-65 118h-49v-118zM514 899q44 0 44 40v11q0 41 -44 41h-61v-92h61z" />
<glyph unicode="&#xaf;" d="M269 1184h470v-114h-470v114z" />
<glyph unicode="&#xb0;" d="M503 618q-60 0 -112 22t-91.5 60.5t-61.5 91.5t-22 113q0 61 22 114t61.5 91.5t92 60t111.5 21.5q61 0 113 -21.5t91.5 -60t61.5 -91.5t22 -114q0 -60 -22 -113t-61.5 -91.5t-91.5 -60.5t-113 -22zM503 726q78 0 124 52t46 127q0 76 -46 128t-124 52q-77 0 -122.5 -52 t-45.5 -128q0 -75 45.5 -127t122.5 -52z" />
<glyph unicode="&#xb1;" d="M440 255v335h-336v114h336v334h127v-334h337v-114h-337v-335h-127zM104 0v114h800v-114h-800z" />
<glyph unicode="&#xb2;" d="M736 553h-457v96l218 176q48 40 76 79.5t28 84.5v11q0 43 -27.5 69t-81.5 26q-59 0 -88 -28.5t-43 -68.5l-90 33q9 30 27 57t45.5 48t66.5 33.5t89 12.5q104 0 159 -51t55 -131q0 -74 -44 -129t-115 -108l-163 -127h345v-83z" />
<glyph unicode="&#xb3;" d="M474 917q64 0 94.5 24.5t30.5 62.5v7q0 42 -29.5 64.5t-79.5 22.5q-48 0 -81.5 -20t-57.5 -55l-72 57q29 42 80 72t135 30q96 0 157 -42t61 -117q0 -61 -38.5 -96.5t-92.5 -46.5v-5q58 -10 99.5 -47t41.5 -104q0 -82 -64.5 -131.5t-175.5 -49.5q-92 0 -144.5 33t-84.5 78 l80 56q24 -37 57 -60.5t92 -23.5q64 0 96.5 27t32.5 76v10q0 92 -129 92h-75v86h67z" />
<glyph unicode="&#xb4;" d="M516 982l-88 41l143 285l123 -58z" />
<glyph unicode="&#xb5;" d="M165 -336v1203h134v-532q0 -236 200 -236q40 0 78 10t67 30.5t46.5 51t17.5 75.5v601h135v-867h-135v141h-6q-15 -34 -34 -63.5t-47 -51t-66 -34t-88 -12.5q-127 0 -173 87h-7l12 -141v-262h-134z" />
<glyph unicode="&#xb6;" d="M453 413q-78 0 -146 28.5t-120.5 79t-82 120t-29.5 152.5q0 82 29.5 151.5t82 120t120.5 79.5t146 29h393v-1423h-120v1314h-152v-1314h-121v663z" />
<glyph unicode="&#xb7;" d="M503 394q-68 0 -95.5 29t-27.5 72v31q0 43 27.5 71.5t95.5 28.5q69 0 97 -28.5t28 -71.5v-31q0 -43 -28 -72t-97 -29z" />
<glyph unicode="&#xb8;" d="M524 -348q-69 0 -108.5 22.5t-57.5 46.5l63 69q15 -19 40.5 -33t62.5 -14q32 0 53 12.5t21 39.5q0 24 -22 41.5t-92 27.5l-48 6l32 164h85l-27 -136l5 -5q32 9 65 9q49 0 81.5 -28t32.5 -82q0 -36 -15 -62.5t-41 -43t-59.5 -25.5t-70.5 -9z" />
<glyph unicode="&#xb9;" d="M295 553v83h184v446l-178 -93l-43 74l212 110h115v-537h164v-83h-454z" />
<glyph unicode="&#xba;" d="M503 586q-127 0 -197.5 80.5t-70.5 223.5q0 141 71.5 221.5t196.5 80.5q127 0 198 -80.5t71 -221.5q0 -143 -71 -223.5t-198 -80.5zM503 675q76 0 115 46.5t39 118.5v99q0 72 -38.5 118.5t-115.5 46.5q-75 0 -113.5 -46.5t-38.5 -118.5v-99q0 -72 38.5 -118.5 t113.5 -46.5z" />
<glyph unicode="&#xbb;" d="M114 189l248 264l-248 264l41 96l346 -292v-135l-346 -292zM498 189l248 264l-248 264l41 96l346 -292v-135l-346 -292z" />
<glyph unicode="&#xbc;" d="M67 694h159v386l-150 -76l-41 74l182 95h114v-479h140v-85h-404v85zM856 1173h121l-269 -505h-120zM299 503h121l-269 -503h-121zM801 107h-273v100l238 356h138v-375h79v-81h-79v-107h-103v107zM801 188v286h-5l-191 -286h196z" />
<glyph unicode="&#xbd;" d="M67 694h159v386l-150 -76l-41 74l182 95h114v-479h140v-85h-404v85zM856 1173h121l-269 -505h-120zM299 503h121l-269 -503h-121zM553 98l189 150q91 73 91 151v9q0 32 -23 54.5t-66 22.5t-69.5 -24.5t-42.5 -67.5l-90 37q19 57 70.5 99.5t139.5 42.5q96 0 144 -47.5 t48 -114.5q0 -71 -44.5 -124.5t-107.5 -102.5l-128 -99h301v-84h-412v98z" />
<glyph unicode="&#xbe;" d="M242 599q-87 0 -135.5 36.5t-76.5 83.5l79 55q21 -38 50.5 -63t82.5 -25q48 0 76 22.5t28 60.5v12q0 38 -30.5 58t-84.5 20h-60v83h60q54 0 79.5 20t25.5 49v12q0 33 -25.5 53t-68.5 20q-79 0 -121 -69l-70 58q30 43 75 70t119 27q91 0 145 -39t54 -107q0 -55 -34.5 -88 t-83.5 -41v-7q54 -8 91 -41.5t37 -92.5q0 -76 -58 -121.5t-154 -45.5zM856 1173h121l-269 -505h-120zM299 503h121l-269 -503h-121zM801 107h-273v100l238 356h138v-375h79v-81h-79v-107h-103v107zM801 188v286h-5l-191 -286h196z" />
<glyph unicode="&#xbf;" d="M502 -326q-81 0 -145.5 23t-109.5 64t-70.5 100t-25.5 131q0 79 28.5 138t74 101.5t103.5 68.5t117 36v169h132v-263q-144 -7 -226.5 -63t-82.5 -171v-23q0 -94 56.5 -141t153.5 -47q101 0 161.5 55t84.5 141l125 -47q-16 -56 -46.5 -105t-77 -86t-109.5 -59t-143 -22z M534 650q-69 0 -96.5 28.5t-27.5 71.5v31q0 43 27.5 72t96.5 29t96.5 -28.5t27.5 -72.5v-31q0 -43 -27.5 -71.5t-96.5 -28.5z" />
<glyph unicode="&#xc0;" d="M808 0l-100 335h-411l-99 -335h-146l360 1173h186l359 -1173h-149zM511 1023h-16l-165 -566h345zM314 1535l122 59l144 -286l-88 -40z" />
<glyph unicode="&#xc1;" d="M808 0l-100 335h-411l-99 -335h-146l360 1173h186l359 -1173h-149zM511 1023h-16l-165 -566h345zM516 1268l-88 40l143 286l123 -59z" />
<glyph unicode="&#xc2;" d="M808 0l-100 335h-411l-99 -335h-146l360 1173h186l359 -1173h-149zM511 1023h-16l-165 -566h345zM588 1570l186 -240l-75 -52l-197 196l-196 -196l-72 52l186 240h168z" />
<glyph unicode="&#xc3;" d="M808 0l-100 335h-411l-99 -335h-146l360 1173h186l359 -1173h-149zM511 1023h-16l-165 -566h345zM626 1314q-43 0 -75 14.5t-59 28.5q-40 22 -68 31t-49 9q-29 0 -50.5 -11.5t-47.5 -33.5l-56 67q24 34 62.5 61.5t97.5 27.5q44 0 76 -15t59 -28q40 -23 67.5 -32t49.5 -9 q29 0 50.5 11.5t47.5 33.5l55 -67q-24 -33 -62 -60.5t-98 -27.5z" />
<glyph unicode="&#xc4;" d="M808 0l-100 335h-411l-99 -335h-146l360 1173h186l359 -1173h-149zM511 1023h-16l-165 -566h345zM348 1323q-52 0 -74 22t-22 56v23q0 34 21.5 55.5t74.5 21.5q51 0 73.5 -21.5t22.5 -55.5v-23q0 -34 -22.5 -56t-73.5 -22zM660 1323q-52 0 -74 22t-22 56v23q0 34 22 55.5 t74 21.5t74 -21.5t22 -55.5v-23q0 -34 -22 -56t-74 -22z" />
<glyph unicode="&#xc5;" d="M808 0l-100 335h-411l-99 -335h-146l360 1173h186l359 -1173h-149zM511 1023h-16l-165 -566h345zM503 1253q-40 0 -76 14.5t-62 40t-41 61t-15 77.5q0 41 15 77t41 61.5t62 40t76 14.5q41 0 77.5 -14.5t62 -40t41 -61t15.5 -77.5t-15.5 -77.5t-41 -61t-62 -40 t-77.5 -14.5zM503 1335q46 0 72 24.5t26 68.5v37q0 43 -26 67t-72 24q-45 0 -70.5 -24t-25.5 -67v-37q0 -44 25.5 -68.5t70.5 -24.5z" />
<glyph unicode="&#xc6;" d="M524 338h-255l-94 -338h-141l346 1173h561v-117h-283v-404h262v-117h-262v-419h283v-116h-417v338zM472 1072l-173 -619h225v619h-52z" />
<glyph unicode="&#xc7;" d="M543 1070q-140 0 -208 -105.5t-68 -283.5v-191q0 -176 68 -282t208 -106q54 0 91.5 15.5t65 41t48 60t34.5 73.5l122 -55q-22 -47 -49.5 -92.5t-69 -81.5t-98 -59t-133.5 -24l-15 -82l5 -5q32 9 65 9q49 0 82 -28t33 -82q0 -36 -15 -62.5t-41.5 -43t-60 -25.5t-70.5 -9 q-69 0 -108 22.5t-58 46.5l64 69q14 -19 39.5 -33t62.5 -14q32 0 53 12.5t21 39.5q0 24 -22 41.5t-92 27.5l-47 6l22 115q-180 26 -267.5 178.5t-87.5 422.5q0 294 105 450t321 156q80 0 138.5 -21.5t101 -58.5t71 -83.5t50.5 -92.5l-122 -56q-14 38 -34.5 72.5t-48 61 t-65 41.5t-91.5 15z" />
<glyph unicode="&#xc8;" d="M151 0v1173h722v-123h-581v-395h561v-123h-561v-409h581v-123h-722zM322 1535l122 59l144 -286l-88 -40z" />
<glyph unicode="&#xc9;" d="M151 0v1173h722v-123h-581v-395h561v-123h-561v-409h581v-123h-722zM524 1268l-88 40l143 286l123 -59z" />
<glyph unicode="&#xca;" d="M151 0v1173h722v-123h-581v-395h561v-123h-561v-409h581v-123h-722zM596 1570l186 -240l-75 -52l-197 196l-196 -196l-72 52l186 240h168z" />
<glyph unicode="&#xcb;" d="M151 0v1173h722v-123h-581v-395h561v-123h-561v-409h581v-123h-722zM356 1323q-52 0 -74 22t-22 56v23q0 34 21.5 55.5t74.5 21.5q51 0 73.5 -21.5t22.5 -55.5v-23q0 -34 -22.5 -56t-73.5 -22zM668 1323q-52 0 -74 22t-22 56v23q0 34 22 55.5t74 21.5t74 -21.5t22 -55.5 v-23q0 -34 -22 -56t-74 -22z" />
<glyph unicode="&#xcc;" d="M141 0v112h292v947h-292v114h726v-114h-293v-947h293v-112h-726zM314 1535l122 59l144 -286l-88 -40z" />
<glyph unicode="&#xcd;" d="M141 0v112h292v947h-292v114h726v-114h-293v-947h293v-112h-726zM516 1268l-88 40l143 286l123 -59z" />
<glyph unicode="&#xce;" d="M141 0v112h292v947h-292v114h726v-114h-293v-947h293v-112h-726zM588 1570l186 -240l-75 -52l-197 196l-196 -196l-72 52l186 240h168z" />
<glyph unicode="&#xcf;" d="M141 0v112h292v947h-292v114h726v-114h-293v-947h293v-112h-726zM348 1323q-52 0 -74 22t-22 56v23q0 34 21.5 55.5t74.5 21.5q51 0 73.5 -21.5t22.5 -55.5v-23q0 -34 -22.5 -56t-73.5 -22zM660 1323q-52 0 -74 22t-22 56v23q0 34 22 55.5t74 21.5t74 -21.5t22 -55.5v-23 q0 -34 -22 -56t-74 -22z" />
<glyph unicode="&#xd0;" d="M171 564h-134v108h134v501h316q215 0 320.5 -148t105.5 -439q0 -290 -105.5 -438t-320.5 -148h-316v564zM481 123q141 0 212 97t71 275v181q0 178 -71 276t-212 98h-169v-378h237v-108h-237v-441h169z" />
<glyph unicode="&#xd1;" d="M274 987h-12v-987h-128v1173h201l399 -989h11v989h128v-1173h-200zM626 1314q-43 0 -75 14.5t-59 28.5q-40 22 -68 31t-49 9q-29 0 -50.5 -11.5t-47.5 -33.5l-56 67q24 34 62.5 61.5t97.5 27.5q44 0 76 -15t59 -28q40 -23 67.5 -32t49.5 -9q29 0 50.5 11.5t47.5 33.5 l55 -67q-24 -33 -62 -60.5t-98 -27.5z" />
<glyph unicode="&#xd2;" d="M503 -20q-107 0 -184 41t-127.5 118t-74 190t-23.5 257q0 143 23.5 256t74 190.5t127.5 118.5t184 41q108 0 185.5 -41t128 -118.5t73.5 -190.5t23 -256q0 -144 -23 -257t-73.5 -190t-128 -118t-185.5 -41zM503 102q71 0 120 28t81 78t46 121.5t14 160.5v191 q0 87 -14 159.5t-46 123t-81 78.5t-120 28q-70 0 -118.5 -28t-80.5 -78.5t-46 -122.5t-14 -160v-191q0 -89 14 -160.5t46 -121.5t80.5 -78t118.5 -28zM314 1535l122 59l144 -286l-88 -40z" />
<glyph unicode="&#xd3;" d="M503 -20q-107 0 -184 41t-127.5 118t-74 190t-23.5 257q0 143 23.5 256t74 190.5t127.5 118.5t184 41q108 0 185.5 -41t128 -118.5t73.5 -190.5t23 -256q0 -144 -23 -257t-73.5 -190t-128 -118t-185.5 -41zM503 102q71 0 120 28t81 78t46 121.5t14 160.5v191 q0 87 -14 159.5t-46 123t-81 78.5t-120 28q-70 0 -118.5 -28t-80.5 -78.5t-46 -122.5t-14 -160v-191q0 -89 14 -160.5t46 -121.5t80.5 -78t118.5 -28zM516 1268l-88 40l143 286l123 -59z" />
<glyph unicode="&#xd4;" d="M503 -20q-107 0 -184 41t-127.5 118t-74 190t-23.5 257q0 143 23.5 256t74 190.5t127.5 118.5t184 41q108 0 185.5 -41t128 -118.5t73.5 -190.5t23 -256q0 -144 -23 -257t-73.5 -190t-128 -118t-185.5 -41zM503 102q71 0 120 28t81 78t46 121.5t14 160.5v191 q0 87 -14 159.5t-46 123t-81 78.5t-120 28q-70 0 -118.5 -28t-80.5 -78.5t-46 -122.5t-14 -160v-191q0 -89 14 -160.5t46 -121.5t80.5 -78t118.5 -28zM588 1570l186 -240l-75 -52l-197 196l-196 -196l-72 52l186 240h168z" />
<glyph unicode="&#xd5;" d="M503 -20q-107 0 -184 41t-127.5 118t-74 190t-23.5 257q0 143 23.5 256t74 190.5t127.5 118.5t184 41q108 0 185.5 -41t128 -118.5t73.5 -190.5t23 -256q0 -144 -23 -257t-73.5 -190t-128 -118t-185.5 -41zM503 102q71 0 120 28t81 78t46 121.5t14 160.5v191 q0 87 -14 159.5t-46 123t-81 78.5t-120 28q-70 0 -118.5 -28t-80.5 -78.5t-46 -122.5t-14 -160v-191q0 -89 14 -160.5t46 -121.5t80.5 -78t118.5 -28zM626 1314q-43 0 -75 14.5t-59 28.5q-40 22 -68 31t-49 9q-29 0 -50.5 -11.5t-47.5 -33.5l-56 67q24 34 62.5 61.5 t97.5 27.5q44 0 76 -15t59 -28q40 -23 67.5 -32t49.5 -9q29 0 50.5 11.5t47.5 33.5l55 -67q-24 -33 -62 -60.5t-98 -27.5z" />
<glyph unicode="&#xd6;" d="M503 -20q-107 0 -184 41t-127.5 118t-74 190t-23.5 257q0 143 23.5 256t74 190.5t127.5 118.5t184 41q108 0 185.5 -41t128 -118.5t73.5 -190.5t23 -256q0 -144 -23 -257t-73.5 -190t-128 -118t-185.5 -41zM503 102q71 0 120 28t81 78t46 121.5t14 160.5v191 q0 87 -14 159.5t-46 123t-81 78.5t-120 28q-70 0 -118.5 -28t-80.5 -78.5t-46 -122.5t-14 -160v-191q0 -89 14 -160.5t46 -121.5t80.5 -78t118.5 -28zM348 1323q-52 0 -74 22t-22 56v23q0 34 21.5 55.5t74.5 21.5q51 0 73.5 -21.5t22.5 -55.5v-23q0 -34 -22.5 -56t-73.5 -22 zM660 1323q-52 0 -74 22t-22 56v23q0 34 22 55.5t74 21.5t74 -21.5t22 -55.5v-23q0 -34 -22 -56t-74 -22z" />
<glyph unicode="&#xd7;" d="M503 430l-273 -274l-82 83l273 273l-273 274l82 82l273 -274l274 274l83 -82l-274 -274l274 -273l-83 -83z" />
<glyph unicode="&#xd8;" d="M503 -20q-152 0 -245 81l-78 -135l-101 61l101 171q-44 77 -65 184.5t-21 243.5q0 143 23.5 256t74 190.5t127.5 118.5t184 41q151 0 246 -80l79 134l101 -60l-101 -172q44 -77 64.5 -184.5t20.5 -243.5q0 -144 -23 -257t-73.5 -190t-128 -118t-185.5 -41zM244 490 q0 -57 4.5 -106t18.5 -92l417 700q-32 37 -76.5 57.5t-104.5 20.5q-70 0 -118.5 -28t-80.5 -78.5t-46 -122.5t-14 -160v-191zM503 102q71 0 120 28t81 78t46 121.5t14 160.5v191q0 58 -5 107.5t-19 91.5l-416 -700q32 -37 76 -57.5t103 -20.5z" />
<glyph unicode="&#xd9;" d="M276 1173v-705q0 -85 4.5 -152.5t26.5 -115t68 -73t128 -25.5t128.5 25.5t68.5 73t27 115t5 152.5v705h141v-671q0 -131 -12.5 -228.5t-52 -163t-112.5 -98t-193 -32.5q-118 0 -191 32.5t-112.5 98t-52.5 163t-13 228.5v671h142zM314 1535l122 59l144 -286l-88 -40z" />
<glyph unicode="&#xda;" d="M276 1173v-705q0 -85 4.5 -152.5t26.5 -115t68 -73t128 -25.5t128.5 25.5t68.5 73t27 115t5 152.5v705h141v-671q0 -131 -12.5 -228.5t-52 -163t-112.5 -98t-193 -32.5q-118 0 -191 32.5t-112.5 98t-52.5 163t-13 228.5v671h142zM516 1268l-88 40l143 286l123 -59z" />
<glyph unicode="&#xdb;" d="M276 1173v-705q0 -85 4.5 -152.5t26.5 -115t68 -73t128 -25.5t128.5 25.5t68.5 73t27 115t5 152.5v705h141v-671q0 -131 -12.5 -228.5t-52 -163t-112.5 -98t-193 -32.5q-118 0 -191 32.5t-112.5 98t-52.5 163t-13 228.5v671h142zM588 1570l186 -240l-75 -52l-197 196 l-196 -196l-72 52l186 240h168z" />
<glyph unicode="&#xdc;" d="M276 1173v-705q0 -85 4.5 -152.5t26.5 -115t68 -73t128 -25.5t128.5 25.5t68.5 73t27 115t5 152.5v705h141v-671q0 -131 -12.5 -228.5t-52 -163t-112.5 -98t-193 -32.5q-118 0 -191 32.5t-112.5 98t-52.5 163t-13 228.5v671h142zM348 1323q-52 0 -74 22t-22 56v23 q0 34 21.5 55.5t74.5 21.5q51 0 73.5 -21.5t22.5 -55.5v-23q0 -34 -22.5 -56t-73.5 -22zM660 1323q-52 0 -74 22t-22 56v23q0 34 22 55.5t74 21.5t74 -21.5t22 -55.5v-23q0 -34 -22 -56t-74 -22z" />
<glyph unicode="&#xdd;" d="M433 0v460l-404 713h160l169 -306l142 -268h7l147 268l167 306h158l-405 -713v-460h-141zM516 1268l-88 40l143 286l123 -59z" />
<glyph unicode="&#xde;" d="M151 0v1173h141v-244h286q163 0 248.5 -90t85.5 -245q0 -154 -86 -244t-248 -90h-286v-260h-141zM292 383h286q89 0 138.5 43.5t49.5 124.5v87q0 80 -49.5 124t-138.5 44h-286v-423z" />
<glyph unicode="&#xdf;" d="M171 0v1045q0 87 46.5 142.5t144.5 55.5h231v-116h-287v-260h576v-133l-291 -378q173 -12 271 -92.5t98 -239.5q0 -87 -30.5 -154.5t-88 -113t-138.5 -69t-182 -23.5h-111v115h111q151 0 224 53.5t73 172.5v42q0 112 -78 160t-250 48h-27v115l296 383h-453v-753h-135z " />
<glyph unicode="&#xe0;" d="M831 0q-78 0 -111.5 40t-43.5 101h-8q-28 -75 -91 -118t-169 -43q-136 0 -216.5 70.5t-80.5 193.5q0 120 88 185.5t285 65.5h184v86q0 96 -53.5 143.5t-152.5 47.5q-87 0 -142.5 -34t-89.5 -93l-91 67q17 33 45.5 65t70.5 57t96 38.5t119 13.5q152 0 242.5 -77t90.5 -215 v-477h120v-117h-92zM431 93q52 0 95 12t75 33.5t49.5 50.5t17.5 63v142h-184q-121 0 -176.5 -33.5t-55.5 -96.5v-35q0 -67 48 -101.5t131 -34.5zM287 1250l122 58l144 -285l-88 -41z" />
<glyph unicode="&#xe1;" d="M831 0q-78 0 -111.5 40t-43.5 101h-8q-28 -75 -91 -118t-169 -43q-136 0 -216.5 70.5t-80.5 193.5q0 120 88 185.5t285 65.5h184v86q0 96 -53.5 143.5t-152.5 47.5q-87 0 -142.5 -34t-89.5 -93l-91 67q17 33 45.5 65t70.5 57t96 38.5t119 13.5q152 0 242.5 -77t90.5 -215 v-477h120v-117h-92zM431 93q52 0 95 12t75 33.5t49.5 50.5t17.5 63v142h-184q-121 0 -176.5 -33.5t-55.5 -96.5v-35q0 -67 48 -101.5t131 -34.5zM489 982l-88 41l143 285l123 -58z" />
<glyph unicode="&#xe2;" d="M831 0q-78 0 -111.5 40t-43.5 101h-8q-28 -75 -91 -118t-169 -43q-136 0 -216.5 70.5t-80.5 193.5q0 120 88 185.5t285 65.5h184v86q0 96 -53.5 143.5t-152.5 47.5q-87 0 -142.5 -34t-89.5 -93l-91 67q17 33 45.5 65t70.5 57t96 38.5t119 13.5q152 0 242.5 -77t90.5 -215 v-477h120v-117h-92zM431 93q52 0 95 12t75 33.5t49.5 50.5t17.5 63v142h-184q-121 0 -176.5 -33.5t-55.5 -96.5v-35q0 -67 48 -101.5t131 -34.5zM561 1285l186 -240l-75 -53l-197 197l-196 -197l-72 53l186 240h168z" />
<glyph unicode="&#xe3;" d="M831 0q-78 0 -111.5 40t-43.5 101h-8q-28 -75 -91 -118t-169 -43q-136 0 -216.5 70.5t-80.5 193.5q0 120 88 185.5t285 65.5h184v86q0 96 -53.5 143.5t-152.5 47.5q-87 0 -142.5 -34t-89.5 -93l-91 67q17 33 45.5 65t70.5 57t96 38.5t119 13.5q152 0 242.5 -77t90.5 -215 v-477h120v-117h-92zM431 93q52 0 95 12t75 33.5t49.5 50.5t17.5 63v142h-184q-121 0 -176.5 -33.5t-55.5 -96.5v-35q0 -67 48 -101.5t131 -34.5zM599 1027q-43 0 -75 15.5t-59 29.5q-40 22 -68 31t-49 9q-29 0 -50.5 -12t-47.5 -34l-56 67q24 34 62.5 62t97.5 28 q44 0 76 -15.5t59 -28.5q40 -22 67.5 -31t49.5 -9q29 0 50.5 11.5t47.5 33.5l55 -67q-24 -34 -62 -62t-98 -28z" />
<glyph unicode="&#xe4;" d="M831 0q-78 0 -111.5 40t-43.5 101h-8q-28 -75 -91 -118t-169 -43q-136 0 -216.5 70.5t-80.5 193.5q0 120 88 185.5t285 65.5h184v86q0 96 -53.5 143.5t-152.5 47.5q-87 0 -142.5 -34t-89.5 -93l-91 67q17 33 45.5 65t70.5 57t96 38.5t119 13.5q152 0 242.5 -77t90.5 -215 v-477h120v-117h-92zM431 93q52 0 95 12t75 33.5t49.5 50.5t17.5 63v142h-184q-121 0 -176.5 -33.5t-55.5 -96.5v-35q0 -67 48 -101.5t131 -34.5zM321 1038q-52 0 -74 22t-22 55v24q0 34 21.5 55.5t74.5 21.5q51 0 73.5 -21.5t22.5 -55.5v-24q0 -33 -22.5 -55t-73.5 -22z M633 1038q-52 0 -74 22t-22 55v24q0 34 22 55.5t74 21.5t74 -21.5t22 -55.5v-24q0 -33 -22 -55t-74 -22z" />
<glyph unicode="&#xe5;" d="M831 0q-78 0 -111.5 40t-43.5 101h-8q-28 -75 -91 -118t-169 -43q-136 0 -216.5 70.5t-80.5 193.5q0 120 88 185.5t285 65.5h184v86q0 96 -53.5 143.5t-152.5 47.5q-87 0 -142.5 -34t-89.5 -93l-91 67q17 33 45.5 65t70.5 57t96 38.5t119 13.5q152 0 242.5 -77t90.5 -215 v-477h120v-117h-92zM431 93q52 0 95 12t75 33.5t49.5 50.5t17.5 63v142h-184q-121 0 -176.5 -33.5t-55.5 -96.5v-35q0 -67 48 -101.5t131 -34.5zM476 968q-40 0 -76 13.5t-62 40t-41 61.5t-15 77t15 77.5t41 61.5t62 40.5t76 14.5q41 0 77.5 -14.5t62 -40.5t41 -61.5 t15.5 -77.5t-15.5 -77t-41 -61.5t-62 -40t-77.5 -13.5zM476 1050q46 0 72 24t26 68v37q0 44 -26 68t-72 24q-45 0 -70.5 -24t-25.5 -68v-37q0 -43 25.5 -67.5t70.5 -24.5z" />
<glyph unicode="&#xe6;" d="M237 -20q-96 0 -158.5 63.5t-62.5 188.5q0 131 77 197t223 66h105v90q0 112 -36 156.5t-100 44.5t-100 -37t-59 -95l-89 54q13 34 36 66t54 57t72 40t91 15q76 0 128 -33.5t81 -96.5h4q34 72 88.5 101t120.5 29q131 0 198 -99.5t67 -296.5v-91h-433v-41q0 -119 41 -195 t120 -76q32 0 58.5 12.5t45.5 33.5t33 48t25 56l97 -46q-13 -38 -36 -76t-55.5 -68.5t-75.5 -48.5t-95 -18q-85 0 -147.5 50t-97.5 141h-5q-24 -99 -80 -145t-135 -46zM260 84q40 0 70.5 14t50.5 39t30 55.5t10 65.5v141h-86q-93 0 -144.5 -33t-51.5 -111v-25q0 -68 27 -107 t94 -39zM705 790q-77 0 -119 -58.5t-42 -178.5v-58h323v58q0 120 -42.5 178.5t-119.5 58.5z" />
<glyph unicode="&#xe7;" d="M532 886q126 0 205 -55t116 -144l-108 -57q-23 67 -77.5 104t-135.5 37q-59 0 -105 -19.5t-78 -54.5t-48 -84t-16 -106v-148q0 -57 16 -105.5t48 -84t79.5 -54.5t106.5 -19q87 0 144.5 40t91.5 111l96 -66q-39 -85 -116.5 -141t-202.5 -60l-17 -82l4 -5q32 9 66 9 q48 0 81 -28t33 -82q0 -36 -14.5 -62.5t-41 -43t-60 -25.5t-70.5 -9q-69 0 -108.5 22.5t-58.5 46.5l64 69q15 -19 40.5 -33t62.5 -14q32 0 53 12.5t21 39.5q0 24 -22 41.5t-92 27.5l-47 6l23 115q-154 24 -239 143t-85 305q0 102 27 186.5t77 144t122.5 91t164.5 31.5z" />
<glyph unicode="&#xe8;" d="M519 -20q-94 0 -168.5 31.5t-127.5 91.5t-82 143t-29 185q0 104 29.5 188.5t82 144t125 91t162.5 31.5q87 0 158 -31.5t121.5 -88t77.5 -133.5t27 -170v-64h-642v-40q0 -57 18.5 -105.5t53 -84t84 -54.5t110.5 -19q87 0 151 40t98 111l99 -67q-39 -87 -128.5 -143.5 t-219.5 -56.5zM511 776q-56 0 -103 -20t-81.5 -55.5t-54 -83.5t-19.5 -105v-12h497v19q0 57 -17.5 104t-48 81.5t-75 53t-98.5 18.5zM317 1250l122 58l144 -285l-88 -41z" />
<glyph unicode="&#xe9;" d="M519 -20q-94 0 -168.5 31.5t-127.5 91.5t-82 143t-29 185q0 104 29.5 188.5t82 144t125 91t162.5 31.5q87 0 158 -31.5t121.5 -88t77.5 -133.5t27 -170v-64h-642v-40q0 -57 18.5 -105.5t53 -84t84 -54.5t110.5 -19q87 0 151 40t98 111l99 -67q-39 -87 -128.5 -143.5 t-219.5 -56.5zM511 776q-56 0 -103 -20t-81.5 -55.5t-54 -83.5t-19.5 -105v-12h497v19q0 57 -17.5 104t-48 81.5t-75 53t-98.5 18.5zM519 982l-88 41l143 285l123 -58z" />
<glyph unicode="&#xea;" d="M519 -20q-94 0 -168.5 31.5t-127.5 91.5t-82 143t-29 185q0 104 29.5 188.5t82 144t125 91t162.5 31.5q87 0 158 -31.5t121.5 -88t77.5 -133.5t27 -170v-64h-642v-40q0 -57 18.5 -105.5t53 -84t84 -54.5t110.5 -19q87 0 151 40t98 111l99 -67q-39 -87 -128.5 -143.5 t-219.5 -56.5zM511 776q-56 0 -103 -20t-81.5 -55.5t-54 -83.5t-19.5 -105v-12h497v19q0 57 -17.5 104t-48 81.5t-75 53t-98.5 18.5zM591 1285l186 -240l-75 -53l-197 197l-196 -197l-72 53l186 240h168z" />
<glyph unicode="&#xeb;" d="M519 -20q-94 0 -168.5 31.5t-127.5 91.5t-82 143t-29 185q0 104 29.5 188.5t82 144t125 91t162.5 31.5q87 0 158 -31.5t121.5 -88t77.5 -133.5t27 -170v-64h-642v-40q0 -57 18.5 -105.5t53 -84t84 -54.5t110.5 -19q87 0 151 40t98 111l99 -67q-39 -87 -128.5 -143.5 t-219.5 -56.5zM511 776q-56 0 -103 -20t-81.5 -55.5t-54 -83.5t-19.5 -105v-12h497v19q0 57 -17.5 104t-48 81.5t-75 53t-98.5 18.5zM351 1038q-52 0 -74 22t-22 55v24q0 34 21.5 55.5t74.5 21.5q51 0 73.5 -21.5t22.5 -55.5v-24q0 -33 -22.5 -55t-73.5 -22zM663 1038 q-52 0 -74 22t-22 55v24q0 34 22 55.5t74 21.5t74 -21.5t22 -55.5v-24q0 -33 -22 -55t-74 -22z" />
<glyph unicode="&#xec;" d="M178 114h312v639h-312v114h447v-753h292v-114h-739v114zM368 1250l122 58l144 -285l-88 -41z" />
<glyph unicode="&#xed;" d="M178 114h312v639h-312v114h447v-753h292v-114h-739v114zM570 982l-88 41l143 285l123 -58z" />
<glyph unicode="&#xee;" d="M178 114h312v639h-312v114h447v-753h292v-114h-739v114zM642 1285l186 -240l-75 -53l-197 197l-196 -197l-72 53l186 240h168z" />
<glyph unicode="&#xef;" d="M178 114h312v639h-312v114h447v-753h292v-114h-739v114zM402 1038q-52 0 -74 22t-22 55v24q0 34 21.5 55.5t74.5 21.5q51 0 73.5 -21.5t22.5 -55.5v-24q0 -33 -22.5 -55t-73.5 -22zM714 1038q-52 0 -74 22t-22 55v24q0 34 22 55.5t74 21.5t74 -21.5t22 -55.5v-24 q0 -33 -22 -55t-74 -22z" />
<glyph unicode="&#xf0;" d="M771 1189l-146 -103q51 -51 101 -116.5t87.5 -145t60.5 -174t23 -203.5q0 -235 -104 -351t-284 -116q-94 0 -168 30t-125 87t-78 137t-27 179t27 179t74.5 137t113 87t144.5 30q102 0 169.5 -46.5t107.5 -113.5l7 3q-41 104 -98 184.5t-127 147.5l-167 -117l-63 75 l154 107q-55 44 -115.5 83t-124.5 74h212q28 -19 59.5 -40t64.5 -48l158 109zM503 96q113 0 182 63.5t69 194.5v118q0 131 -68.5 195t-182.5 64q-112 0 -181 -64t-69 -195v-118q0 -131 69 -194.5t181 -63.5z" />
<glyph unicode="&#xf1;" d="M165 0v867h134v-141h7q13 32 33 61t49.5 51t70 35t94.5 13q136 0 218 -86.5t82 -243.5v-556h-134v532q0 119 -52 177.5t-153 58.5q-40 0 -79 -10.5t-69 -30.5t-48.5 -52t-18.5 -74v-601h-134zM631 1027q-43 0 -75 15.5t-59 29.5q-40 22 -68 31t-49 9q-29 0 -50.5 -12 t-47.5 -34l-56 67q24 34 62.5 62t97.5 28q44 0 76 -15.5t59 -28.5q40 -22 67.5 -31t49.5 -9q29 0 50.5 11.5t47.5 33.5l55 -67q-24 -34 -62 -62t-98 -28z" />
<glyph unicode="&#xf2;" d="M503 -20q-91 0 -163.5 31.5t-123.5 91.5t-78 143t-27 187q0 102 27 186.5t78 144t124 91t163 31.5q91 0 164 -31.5t124.5 -91t78.5 -144t27 -186.5q0 -104 -27 -187t-78.5 -143t-124.5 -91.5t-164 -31.5zM503 96q113 0 182 67t69 208v124q0 141 -68.5 208.5t-182.5 67.5 q-112 0 -181 -67.5t-69 -208.5v-124q0 -141 69 -208t181 -67zM314 1250l122 58l144 -285l-88 -41z" />
<glyph unicode="&#xf3;" d="M503 -20q-91 0 -163.5 31.5t-123.5 91.5t-78 143t-27 187q0 102 27 186.5t78 144t124 91t163 31.5q91 0 164 -31.5t124.5 -91t78.5 -144t27 -186.5q0 -104 -27 -187t-78.5 -143t-124.5 -91.5t-164 -31.5zM503 96q113 0 182 67t69 208v124q0 141 -68.5 208.5t-182.5 67.5 q-112 0 -181 -67.5t-69 -208.5v-124q0 -141 69 -208t181 -67zM516 982l-88 41l143 285l123 -58z" />
<glyph unicode="&#xf4;" d="M503 -20q-91 0 -163.5 31.5t-123.5 91.5t-78 143t-27 187q0 102 27 186.5t78 144t124 91t163 31.5q91 0 164 -31.5t124.5 -91t78.5 -144t27 -186.5q0 -104 -27 -187t-78.5 -143t-124.5 -91.5t-164 -31.5zM503 96q113 0 182 67t69 208v124q0 141 -68.5 208.5t-182.5 67.5 q-112 0 -181 -67.5t-69 -208.5v-124q0 -141 69 -208t181 -67zM588 1285l186 -240l-75 -53l-197 197l-196 -197l-72 53l186 240h168z" />
<glyph unicode="&#xf5;" d="M503 -20q-91 0 -163.5 31.5t-123.5 91.5t-78 143t-27 187q0 102 27 186.5t78 144t124 91t163 31.5q91 0 164 -31.5t124.5 -91t78.5 -144t27 -186.5q0 -104 -27 -187t-78.5 -143t-124.5 -91.5t-164 -31.5zM503 96q113 0 182 67t69 208v124q0 141 -68.5 208.5t-182.5 67.5 q-112 0 -181 -67.5t-69 -208.5v-124q0 -141 69 -208t181 -67zM626 1027q-43 0 -75 15.5t-59 29.5q-40 22 -68 31t-49 9q-29 0 -50.5 -12t-47.5 -34l-56 67q24 34 62.5 62t97.5 28q44 0 76 -15.5t59 -28.5q40 -22 67.5 -31t49.5 -9q29 0 50.5 11.5t47.5 33.5l55 -67 q-24 -34 -62 -62t-98 -28z" />
<glyph unicode="&#xf6;" d="M503 -20q-91 0 -163.5 31.5t-123.5 91.5t-78 143t-27 187q0 102 27 186.5t78 144t124 91t163 31.5q91 0 164 -31.5t124.5 -91t78.5 -144t27 -186.5q0 -104 -27 -187t-78.5 -143t-124.5 -91.5t-164 -31.5zM503 96q113 0 182 67t69 208v124q0 141 -68.5 208.5t-182.5 67.5 q-112 0 -181 -67.5t-69 -208.5v-124q0 -141 69 -208t181 -67zM348 1038q-52 0 -74 22t-22 55v24q0 34 21.5 55.5t74.5 21.5q51 0 73.5 -21.5t22.5 -55.5v-24q0 -33 -22.5 -55t-73.5 -22zM660 1038q-52 0 -74 22t-22 55v24q0 34 22 55.5t74 21.5t74 -21.5t22 -55.5v-24 q0 -33 -22 -55t-74 -22z" />
<glyph unicode="&#xf7;" d="M104 455v114h800v-114h-800zM503 87q-59 0 -81.5 23.5t-22.5 57.5v37q0 34 23 57t81 23q60 0 82.5 -23t22.5 -57v-37q0 -34 -22.5 -57.5t-82.5 -23.5zM503 739q-59 0 -81.5 23.5t-22.5 56.5v37q0 34 23 57.5t81 23.5q60 0 82.5 -23.5t22.5 -57.5v-37q0 -33 -22.5 -56.5 t-82.5 -23.5z" />
<glyph unicode="&#xf8;" d="M79 -10l116 141q-40 59 -62 135.5t-22 166.5q0 102 27 186.5t78 144t124 91t163 31.5q74 0 135 -21.5t109 -60.5l106 130l76 -57l-116 -141q40 -60 62 -136t22 -167q0 -104 -27 -187t-78.5 -143t-124.5 -91.5t-164 -31.5q-73 0 -133.5 22t-109.5 60l-106 -129zM503 771 q-112 0 -181 -67.5t-69 -208.5v-124q0 -83 26 -139l394 481q-62 58 -170 58zM503 96q113 0 182 67t69 208v124q0 84 -25 140l-394 -482q61 -57 168 -57z" />
<glyph unicode="&#xf9;" d="M708 141h-6q-13 -32 -33 -61.5t-49.5 -51t-70 -35t-94.5 -13.5q-136 0 -218.5 86.5t-82.5 244.5v556h135v-532q0 -119 52 -177.5t153 -58.5q40 0 78.5 10t69 30.5t48.5 51t18 75.5v601h135v-867h-135v141zM311 1250l122 58l144 -285l-88 -41z" />
<glyph unicode="&#xfa;" d="M708 141h-6q-13 -32 -33 -61.5t-49.5 -51t-70 -35t-94.5 -13.5q-136 0 -218.5 86.5t-82.5 244.5v556h135v-532q0 -119 52 -177.5t153 -58.5q40 0 78.5 10t69 30.5t48.5 51t18 75.5v601h135v-867h-135v141zM513 982l-88 41l143 285l123 -58z" />
<glyph unicode="&#xfb;" d="M708 141h-6q-13 -32 -33 -61.5t-49.5 -51t-70 -35t-94.5 -13.5q-136 0 -218.5 86.5t-82.5 244.5v556h135v-532q0 -119 52 -177.5t153 -58.5q40 0 78.5 10t69 30.5t48.5 51t18 75.5v601h135v-867h-135v141zM585 1285l186 -240l-75 -53l-197 197l-196 -197l-72 53l186 240 h168z" />
<glyph unicode="&#xfc;" d="M708 141h-6q-13 -32 -33 -61.5t-49.5 -51t-70 -35t-94.5 -13.5q-136 0 -218.5 86.5t-82.5 244.5v556h135v-532q0 -119 52 -177.5t153 -58.5q40 0 78.5 10t69 30.5t48.5 51t18 75.5v601h135v-867h-135v141zM345 1038q-52 0 -74 22t-22 55v24q0 34 21.5 55.5t74.5 21.5 q51 0 73.5 -21.5t22.5 -55.5v-24q0 -33 -22.5 -55t-73.5 -22zM657 1038q-52 0 -74 22t-22 55v24q0 34 22 55.5t74 21.5t74 -21.5t22 -55.5v-24q0 -33 -22 -55t-74 -22z" />
<glyph unicode="&#xfd;" d="M784 867h134l-429 -1056q-15 -37 -34 -65t-44 -45.5t-60 -27t-84 -9.5h-128v115h202l98 237l-350 851h137l147 -364l129 -328h7l129 328zM516 982l-88 41l143 285l123 -58z" />
<glyph unicode="&#xfe;" d="M160 1243h134v-517h7q84 161 266 160q160 0 250 -118.5t90 -334.5q0 -215 -90 -334t-250 -119q-182 0 -266 161h-7v-477h-134v1579zM516 99q117 0 182 71.5t65 188.5v148q0 117 -65 189t-182 72q-45 0 -85.5 -12t-71 -34.5t-48 -55.5t-17.5 -76v-313q0 -43 17.5 -76 t48 -55.5t71 -34.5t85.5 -12z" />
<glyph unicode="&#xff;" d="M784 867h134l-429 -1056q-15 -37 -34 -65t-44 -45.5t-60 -27t-84 -9.5h-128v115h202l98 237l-350 851h137l147 -364l129 -328h7l129 328zM348 1038q-52 0 -74 22t-22 55v24q0 34 21.5 55.5t74.5 21.5q51 0 73.5 -21.5t22.5 -55.5v-24q0 -33 -22.5 -55t-73.5 -22z M660 1038q-52 0 -74 22t-22 55v24q0 34 22 55.5t74 21.5t74 -21.5t22 -55.5v-24q0 -33 -22 -55t-74 -22z" />
<glyph unicode="&#x110;" d="M171 564h-134v108h134v501h316q215 0 320.5 -148t105.5 -439q0 -290 -105.5 -438t-320.5 -148h-316v564zM481 123q141 0 212 97t71 275v181q0 178 -71 276t-212 98h-169v-378h237v-108h-237v-441h169z" />
<glyph unicode="&#x131;" d="M178 114h312v639h-312v114h447v-753h292v-114h-739v114z" />
<glyph unicode="&#x152;" d="M485 0q-214 0 -318.5 147.5t-104.5 438.5t104.5 439t318.5 148h456v-117h-283v-404h262v-117h-262v-419h283v-116h-456zM524 116v940h-32q-143 0 -215 -98.5t-72 -281.5v-181q0 -181 72 -280t215 -99h32z" />
<glyph unicode="&#x153;" d="M295 80q67 0 105.5 60t38.5 204v178q0 145 -38.5 204.5t-105.5 59.5t-104.5 -59.5t-37.5 -204.5v-178q0 -144 37.5 -204t104.5 -60zM867 495v58q0 120 -39.5 178.5t-114.5 58.5q-73 0 -112.5 -58.5t-39.5 -178.5v-58h306zM717 -20q-71 0 -126.5 37t-93.5 106h-5 q-67 -143 -207 -143q-67 0 -115.5 31.5t-81 91.5t-48.5 143t-16 187q0 102 16 186.5t48.5 144t81 91t115.5 31.5q74 0 128.5 -39t85.5 -118h4q37 87 94.5 122t128.5 35q126 0 188.5 -99.5t62.5 -296.5v-91h-416v-41q0 -121 41 -196t119 -75q30 0 53.5 12.5t41 33.5t29 48 t22.5 56l97 -46q-11 -38 -32.5 -76t-51.5 -68.5t-71.5 -48.5t-91.5 -18z" />
<glyph unicode="&#x178;" d="M433 0v460l-404 713h160l169 -306l142 -268h7l147 268l167 306h158l-405 -713v-460h-141zM348 1323q-52 0 -74 22t-22 56v23q0 34 21.5 55.5t74.5 21.5q51 0 73.5 -21.5t22.5 -55.5v-23q0 -34 -22.5 -56t-73.5 -22zM660 1323q-52 0 -74 22t-22 56v23q0 34 22 55.5 t74 21.5t74 -21.5t22 -55.5v-23q0 -34 -22 -56t-74 -22z" />
<glyph unicode="&#x237;" d="M171 -221h420v974h-435v114h570v-1005q0 -87 -46.5 -142.5t-145.5 -55.5h-363v115z" />
<glyph unicode="&#x2c6;" d="M588 1285l186 -240l-75 -53l-197 197l-196 -197l-72 53l186 240h168z" />
<glyph unicode="&#x2da;" d="M503 968q-40 0 -76 13.5t-62 40t-41 61.5t-15 77t15 77.5t41 61.5t62 40.5t76 14.5q41 0 77.5 -14.5t62 -40.5t41 -61.5t15.5 -77.5t-15.5 -77t-41 -61.5t-62 -40t-77.5 -13.5zM503 1050q46 0 72 24t26 68v37q0 44 -26 68t-72 24q-45 0 -70.5 -24t-25.5 -68v-37 q0 -43 25.5 -67.5t70.5 -24.5z" />
<glyph unicode="&#x2dc;" d="M626 1027q-43 0 -75 15.5t-59 29.5q-40 22 -68 31t-49 9q-29 0 -50.5 -12t-47.5 -34l-56 67q24 34 62.5 62t97.5 28q44 0 76 -15.5t59 -28.5q40 -22 67.5 -31t49.5 -9q29 0 50.5 11.5t47.5 33.5l55 -67q-24 -34 -62 -62t-98 -28z" />
<glyph unicode="&#x2000;" horiz-adv-x="819" />
<glyph unicode="&#x2001;" horiz-adv-x="1639" />
<glyph unicode="&#x2002;" horiz-adv-x="819" />
<glyph unicode="&#x2003;" horiz-adv-x="1639" />
<glyph unicode="&#x2004;" horiz-adv-x="546" />
<glyph unicode="&#x2005;" horiz-adv-x="409" />
<glyph unicode="&#x2006;" horiz-adv-x="273" />
<glyph unicode="&#x2007;" horiz-adv-x="273" />
<glyph unicode="&#x2008;" horiz-adv-x="204" />
<glyph unicode="&#x2009;" horiz-adv-x="327" />
<glyph unicode="&#x200a;" horiz-adv-x="91" />
<glyph unicode="&#x2010;" d="M260 440v141h487v-141h-487z" />
<glyph unicode="&#x2011;" d="M260 440v141h487v-141h-487z" />
<glyph unicode="&#x2012;" d="M260 440v141h487v-141h-487z" />
<glyph unicode="&#x2013;" d="M101 449v123h806v-123h-806z" />
<glyph unicode="&#x2014;" d="M0 449v123h1008v-123h-1008z" />
<glyph unicode="&#x2018;" d="M521 1243h112l-89 -466h-217z" />
<glyph unicode="&#x2019;" d="M463 1243h217l-193 -466h-112z" />
<glyph unicode="&#x201a;" d="M431 229h218l-194 -466h-112z" />
<glyph unicode="&#x201c;" d="M332 1243h112l-89 -466h-217zM733 1243h112l-89 -466h-217z" />
<glyph unicode="&#x201d;" d="M274 1243h217l-193 -466h-112zM675 1243h217l-193 -466h-112z" />
<glyph unicode="&#x201e;" d="M273 229h218l-194 -466h-112zM675 229h218l-194 -466h-112z" />
<glyph unicode="&#x2022;" d="M503 312q-112 0 -158 50.5t-46 124.5v47q0 74 46 124t158 50q113 0 159 -50t46 -124v-47q0 -74 -46 -124.5t-159 -50.5z" />
<glyph unicode="&#x2026;" d="M180 -7q-59 0 -82.5 24.5t-23.5 61.5v49q0 37 23.5 61t82.5 24t82 -24t23 -61v-49q0 -37 -23 -61.5t-82 -24.5zM503 -7q-59 0 -82 24.5t-23 61.5v49q0 37 23.5 61t81.5 24q60 0 83 -24t23 -61v-49q0 -37 -23 -61.5t-83 -24.5zM828 -7q-59 0 -82.5 24.5t-23.5 61.5v49 q0 37 23.5 61t82.5 24t82.5 -24t23.5 -61v-49q0 -37 -23.5 -61.5t-82.5 -24.5z" />
<glyph unicode="&#x202f;" horiz-adv-x="327" />
<glyph unicode="&#x2039;" d="M631 94l-346 292v135l346 292l42 -96l-248 -264l248 -264z" />
<glyph unicode="&#x203a;" d="M335 189l248 264l-248 264l41 96l346 -292v-135l-346 -292z" />
<glyph unicode="&#x2044;" d="M856 1173h121l-269 -505h-120zM299 503h121l-269 -503h-121z" />
<glyph unicode="&#x205f;" horiz-adv-x="409" />
<glyph unicode="&#x2070;" d="M503 543q-126 0 -184.5 82.5t-58.5 237.5q0 153 59 236t184 83q127 0 185.5 -83t58.5 -236q0 -154 -58.5 -237t-185.5 -83zM503 628q73 0 102.5 49t29.5 131v109q0 82 -29.5 130.5t-102.5 48.5q-72 0 -101 -48t-29 -131v-109q0 -82 29 -131t101 -49zM503 813 q-28 0 -38 11.5t-10 28.5v19q0 16 10.5 28t37.5 12q29 0 39.5 -12t10.5 -28v-19q0 -17 -10.5 -28.5t-39.5 -11.5z" />
<glyph unicode="&#x2074;" d="M564 553v120h-317v88l275 412h143v-419h94v-81h-94v-120h-101zM564 1077h-6l-219 -323h225v323z" />
<glyph unicode="&#x2075;" d="M697 1088h-301l-18 -223h7q23 37 53 59.5t88 22.5q87 0 146 -51t59 -142q0 -94 -63.5 -152.5t-177.5 -58.5q-89 0 -140 33t-81 78l75 56q26 -37 57.5 -60.5t90.5 -23.5q64 0 96 30.5t32 83.5v9q0 54 -32 84t-96 30q-43 0 -69.5 -15t-44.5 -34l-88 13l24 346h383v-85z" />
<glyph unicode="&#x2076;" d="M507 543q-113 0 -174.5 64.5t-61.5 176.5q0 67 21.5 126t57 108.5t78 89t84.5 65.5h142q-60 -39 -105.5 -74.5t-79 -72.5t-56 -78t-33.5 -92l6 -2q22 36 58.5 63t99.5 27q86 0 143 -51.5t57 -139.5q0 -95 -65 -152.5t-172 -57.5zM507 623q59 0 93.5 28.5t34.5 87.5v8 q0 59 -34.5 87.5t-93.5 28.5t-93 -28.5t-34 -87.5v-8q0 -59 34 -87.5t93 -28.5z" />
<glyph unicode="&#x2077;" d="M378 553l248 535h-260v-114h-90v199h456v-88l-242 -532h-112z" />
<glyph unicode="&#x2078;" d="M503 543q-117 0 -179 51t-62 128q0 61 38 99t96 52v7q-50 16 -81 52.5t-31 90.5q0 72 57 115.5t162 43.5q106 0 163.5 -43.5t57.5 -115.5q0 -55 -31 -90.5t-82 -52.5v-7q61 -14 97.5 -52.5t36.5 -98.5q0 -77 -62 -128t-180 -51zM503 912q116 0 117 88v14q0 87 -117 87 q-115 0 -115 -87v-14q0 -88 115 -88zM503 623q64 0 97 25t33 71v20q0 45 -33 70.5t-97 25.5q-63 0 -95.5 -25.5t-32.5 -70.5v-20q0 -45 32.5 -70.5t95.5 -25.5z" />
<glyph unicode="&#x2079;" d="M736 941q0 -68 -22 -126.5t-56.5 -108t-77.5 -89t-85 -64.5h-141q58 38 103 73.5t78.5 72.5t56.5 78t34 91l-6 2q-21 -37 -57 -64t-100 -27q-87 0 -143 52t-56 142q0 94 63.5 151.5t172.5 57.5q111 0 173.5 -64.5t62.5 -176.5zM499 860q59 0 93 28.5t34 87.5v10 q0 59 -34 87t-93 28t-93.5 -28t-34.5 -87v-10q0 -59 34.5 -87.5t93.5 -28.5z" />
<glyph unicode="&#x2080;" d="M503 -10q-126 0 -184.5 83t-58.5 238q0 152 59 235.5t184 83.5q127 0 185.5 -83.5t58.5 -235.5q0 -154 -58.5 -237.5t-185.5 -83.5zM503 75q73 0 102.5 49t29.5 131v109q0 82 -29.5 131t-102.5 49q-72 0 -101 -48.5t-29 -131.5v-109q0 -82 29 -131t101 -49zM503 260 q-28 0 -38 12t-10 29v18q0 16 10.5 28t37.5 12q29 0 39.5 -11.5t10.5 -28.5v-18q0 -16 -10.5 -28.5t-39.5 -12.5z" />
<glyph unicode="&#x2081;" d="M295 0v84h184v445l-178 -93l-43 75l212 109h115v-536h164v-84h-454z" />
<glyph unicode="&#x2082;" d="M736 0h-457v96l218 176q48 40 76 80.5t28 83.5v11q0 43 -27.5 69.5t-81.5 26.5q-59 0 -88 -29t-43 -69l-90 34q9 30 27 57t45.5 47.5t66.5 33.5t89 13q104 0 159 -51.5t55 -131.5q0 -74 -44 -128.5t-115 -108.5l-163 -126h345v-84z" />
<glyph unicode="&#x2083;" d="M474 364q64 0 94.5 24.5t30.5 63.5v6q0 42 -29.5 65t-79.5 23q-48 0 -81.5 -20.5t-57.5 -55.5l-72 57q29 42 80 72.5t135 30.5q96 0 157 -42t61 -118q0 -61 -38.5 -96t-92.5 -47v-5q58 -10 99.5 -46.5t41.5 -104.5q0 -82 -64.5 -131.5t-175.5 -49.5q-92 0 -144.5 33.5 t-84.5 77.5l80 57q24 -37 57 -60.5t92 -23.5q64 0 96.5 27t32.5 75v10q0 93 -129 93h-75v85h67z" />
<glyph unicode="&#x2084;" d="M564 0v121h-317v87l275 412h143v-418h94v-81h-94v-121h-101zM564 524h-6l-219 -322h225v322z" />
<glyph unicode="&#x2085;" d="M396 535l-18 -223h7q23 37 53 59.5t88 22.5q87 0 146 -51t59 -141q0 -95 -63.5 -153.5t-177.5 -58.5q-89 0 -140 33.5t-81 77.5l75 57q26 -37 57.5 -60.5t90.5 -23.5q64 0 96 30t32 84v9q0 54 -32 84t-96 30q-43 0 -69.5 -15.5t-44.5 -33.5l-88 12l24 346h383v-85h-301z " />
<glyph unicode="&#x2086;" d="M507 -10q-113 0 -174.5 64.5t-61.5 177.5q0 67 21.5 126t57 108.5t78 88.5t84.5 65h142q-60 -39 -105.5 -74t-79 -72.5t-56 -78.5t-33.5 -91l6 -1q22 35 58.5 61.5t99.5 26.5q86 0 143 -51t57 -140q0 -94 -65 -152t-172 -58zM507 71q59 0 93.5 28.5t34.5 86.5v9 q0 59 -34.5 87.5t-93.5 28.5t-93 -29t-34 -87v-9q0 -59 34 -87t93 -28z" />
<glyph unicode="&#x2087;" d="M378 0l248 535h-260v-112h-90v197h456v-88l-242 -532h-112z" />
<glyph unicode="&#x2088;" d="M503 -10q-117 0 -179 51.5t-62 128.5q0 60 38 98t96 53v6q-50 17 -81 53.5t-31 89.5q0 72 57 116t162 44q106 0 163.5 -43.5t57.5 -116.5q0 -54 -31 -90t-82 -53v-6q61 -15 97.5 -53t36.5 -98q0 -77 -62 -128.5t-180 -51.5zM503 71q64 0 97 25t33 70v20q0 45 -33 70.5 t-97 25.5q-63 0 -95.5 -25t-32.5 -71v-20q0 -45 32.5 -70t95.5 -25zM503 359q116 0 117 88v15q0 87 -117 87q-115 0 -115 -87v-15q0 -88 115 -88z" />
<glyph unicode="&#x2089;" d="M736 388q0 -67 -22 -126t-56.5 -108.5t-77.5 -89t-85 -64.5h-141q58 39 103 74t78.5 72t56.5 78.5t34 91.5l-6 1q-21 -37 -57 -64t-100 -27q-87 0 -143 52t-56 142q0 94 63.5 152t172.5 58q111 0 173.5 -65t62.5 -177zM499 308q59 0 93 28t34 87v10q0 59 -34 87.5 t-93 28.5t-93.5 -28.5t-34.5 -87.5v-10q0 -59 34.5 -87t93.5 -28z" />
<glyph unicode="&#x20ac;" d="M543 -20q-215 0 -320.5 156t-105.5 450t105 450t321 156q80 0 138.5 -21.5t101 -58.5t71 -83.5t50.5 -92.5l-118 -54q-15 40 -35 74.5t-48 60.5t-67.5 41t-92.5 15q-121 0 -188.5 -79t-85.5 -215h383v-116h-388v-154h388v-116h-383q19 -136 85.5 -215t188.5 -79 q54 0 93 15.5t67 41t48 60t35 74.5l118 -53q-22 -48 -50.5 -93.5t-71 -82.5t-101 -59t-138.5 -22z" />
<glyph unicode="&#x2122;" d="M171 704v391h-144v78h376v-78h-145v-391h-87zM474 704v469h109l109 -226h5l109 226h104v-469h-80v213l1 139h-6l-133 -261l-133 261h-6l1 -139v-213h-80z" />
<glyph unicode="&#x2150;" d="M67 694h159v386l-150 -76l-41 74l182 95h114v-479h140v-85h-404v85zM856 1173h121l-269 -505h-120zM299 503h121l-269 -503h-121zM860 476h-217v-108h-92v195h411v-91l-211 -472h-108z" />
<glyph unicode="&#x2151;" d="M67 694h159v386l-150 -76l-41 74l182 95h114v-479h140v-85h-404v85zM856 1173h121l-269 -505h-120zM299 503h121l-269 -503h-121zM613 0q106 72 171.5 137t85.5 150l-10 2q-19 -34 -53 -60.5t-93 -26.5q-76 0 -125.5 46.5t-49.5 127.5q0 86 58 141t157 55q101 0 158 -60 t57 -161q0 -61 -19.5 -114.5t-49.5 -98t-67 -79.5t-74 -59h-146zM754 279q48 0 78.5 25.5t30.5 71.5v18q0 46 -30 72t-79 26t-79 -26t-30 -72v-18q0 -45 30 -71t79 -26z" />
<glyph unicode="&#x2153;" d="M67 694h159v386l-150 -76l-41 74l182 95h114v-479h140v-85h-404v85zM856 1173h121l-269 -505h-120zM299 503h121l-269 -503h-121zM744 -10q-87 0 -135.5 36t-76.5 83l79 56q21 -39 50.5 -64.5t82.5 -25.5q48 0 76 23t28 62v11q0 39 -30.5 58t-84.5 19h-60v85h60 q54 0 79.5 20t25.5 48v12q0 34 -25.5 54t-68.5 20q-79 0 -121 -69l-70 58q30 43 75 69.5t119 26.5q91 0 145 -39t54 -107q0 -55 -34.5 -87.5t-83.5 -41.5v-7q54 -8 91 -41.5t37 -92.5q0 -76 -58 -121t-154 -45z" />
<glyph unicode="&#x2154;" d="M51 707l189 152q91 72 91 150v9q0 32 -23 54.5t-66 22.5t-69.5 -24.5t-42.5 -67.5l-90 37q19 57 70.5 99.5t139.5 42.5q96 0 144 -48t48 -115q0 -70 -44.5 -124t-107.5 -102l-128 -99h301v-85h-412v98zM856 1173h121l-269 -505h-120zM299 503h121l-269 -503h-121z M744 -10q-87 0 -135.5 36t-76.5 83l79 56q21 -39 50.5 -64.5t82.5 -25.5q48 0 76 23t28 62v11q0 39 -30.5 58t-84.5 19h-60v85h60q54 0 79.5 20t25.5 48v12q0 34 -25.5 54t-68.5 20q-79 0 -121 -69l-70 58q30 43 75 69.5t119 26.5q91 0 145 -39t54 -107q0 -55 -34.5 -87.5 t-83.5 -41.5v-7q54 -8 91 -41.5t37 -92.5q0 -76 -58 -121t-154 -45z" />
<glyph unicode="&#x2155;" d="M67 694h159v386l-150 -76l-41 74l182 95h114v-479h140v-85h-404v85zM856 1173h121l-269 -505h-120zM299 503h121l-269 -503h-121zM752 -10q-83 0 -130.5 35.5t-70.5 80.5l76 57q22 -37 49.5 -62.5t75.5 -25.5q52 0 81.5 29t29.5 74v5q0 43 -30 68.5t-78 25.5 q-38 0 -61.5 -15t-36.5 -30l-89 13l22 318h349v-86h-269l-15 -197h9q18 37 45 59t80 22q77 0 129.5 -45t52.5 -130t-57.5 -140.5t-161.5 -55.5z" />
<glyph unicode="&#x2156;" d="M51 707l189 152q91 72 91 150v9q0 32 -23 54.5t-66 22.5t-69.5 -24.5t-42.5 -67.5l-90 37q19 57 70.5 99.5t139.5 42.5q96 0 144 -48t48 -115q0 -70 -44.5 -124t-107.5 -102l-128 -99h301v-85h-412v98zM856 1173h121l-269 -505h-120zM299 503h121l-269 -503h-121z M752 -10q-83 0 -130.5 35.5t-70.5 80.5l76 57q22 -37 49.5 -62.5t75.5 -25.5q52 0 81.5 29t29.5 74v5q0 43 -30 68.5t-78 25.5q-38 0 -61.5 -15t-36.5 -30l-89 13l22 318h349v-86h-269l-15 -197h9q18 37 45 59t80 22q77 0 129.5 -45t52.5 -130t-57.5 -140.5t-161.5 -55.5z " />
<glyph unicode="&#x2157;" d="M242 599q-87 0 -135.5 36.5t-76.5 83.5l79 55q21 -38 50.5 -63t82.5 -25q48 0 76 22.5t28 60.5v12q0 38 -30.5 58t-84.5 20h-60v83h60q54 0 79.5 20t25.5 49v12q0 33 -25.5 53t-68.5 20q-79 0 -121 -69l-70 58q30 43 75 70t119 27q91 0 145 -39t54 -107q0 -55 -34.5 -88 t-83.5 -41v-7q54 -8 91 -41.5t37 -92.5q0 -76 -58 -121.5t-154 -45.5zM856 1173h121l-269 -505h-120zM299 503h121l-269 -503h-121zM752 -10q-83 0 -130.5 35.5t-70.5 80.5l76 57q22 -37 49.5 -62.5t75.5 -25.5q52 0 81.5 29t29.5 74v5q0 43 -30 68.5t-78 25.5 q-38 0 -61.5 -15t-36.5 -30l-89 13l22 318h349v-86h-269l-15 -197h9q18 37 45 59t80 22q77 0 129.5 -45t52.5 -130t-57.5 -140.5t-161.5 -55.5z" />
<glyph unicode="&#x2158;" d="M299 717h-273v99l238 357h138v-375h79v-81h-79v-108h-103v108zM299 798v285h-5l-191 -285h196zM856 1173h121l-269 -505h-120zM299 503h121l-269 -503h-121zM752 -10q-83 0 -130.5 35.5t-70.5 80.5l76 57q22 -37 49.5 -62.5t75.5 -25.5q52 0 81.5 29t29.5 74v5 q0 43 -30 68.5t-78 25.5q-38 0 -61.5 -15t-36.5 -30l-89 13l22 318h349v-86h-269l-15 -197h9q18 37 45 59t80 22q77 0 129.5 -45t52.5 -130t-57.5 -140.5t-161.5 -55.5z" />
<glyph unicode="&#x2159;" d="M67 694h159v386l-150 -76l-41 74l182 95h114v-479h140v-85h-404v85zM856 1173h121l-269 -505h-120zM299 503h121l-269 -503h-121zM757 -10q-101 0 -158 60.5t-57 161.5q0 60 19.5 114t50 98t67 79.5t73.5 59.5h146q-54 -37 -96.5 -71t-74 -67.5t-54 -70.5t-31.5 -78l9 -2 q19 34 53.5 60.5t93.5 26.5q76 0 125.5 -47t49.5 -128q0 -85 -58.5 -140.5t-157.5 -55.5zM757 71q49 0 79.5 26t30.5 71v18q0 45 -30.5 71.5t-79.5 26.5q-48 0 -78.5 -26t-30.5 -72v-18q0 -45 30.5 -71t78.5 -26z" />
<glyph unicode="&#x215a;" d="M250 599q-83 0 -130.5 35.5t-70.5 80.5l76 57q22 -36 49.5 -61t75.5 -25q52 0 81.5 28t29.5 74v5q0 43 -30 68t-78 25q-38 0 -61.5 -15t-36.5 -30l-89 13l22 319h349v-87h-269l-15 -196h9q18 37 45 59t80 22q77 0 129.5 -45.5t52.5 -129.5q0 -85 -57.5 -141t-161.5 -56z M856 1173h121l-269 -505h-120zM299 503h121l-269 -503h-121zM757 -10q-101 0 -158 60.5t-57 161.5q0 60 19.5 114t50 98t67 79.5t73.5 59.5h146q-54 -37 -96.5 -71t-74 -67.5t-54 -70.5t-31.5 -78l9 -2q19 34 53.5 60.5t93.5 26.5q76 0 125.5 -47t49.5 -128 q0 -85 -58.5 -140.5t-157.5 -55.5zM757 71q49 0 79.5 26t30.5 71v18q0 45 -30.5 71.5t-79.5 26.5q-48 0 -78.5 -26t-30.5 -72v-18q0 -45 30.5 -71t78.5 -26z" />
<glyph unicode="&#x215b;" d="M67 694h159v386l-150 -76l-41 74l182 95h114v-479h140v-85h-404v85zM856 1173h121l-269 -505h-120zM299 503h121l-269 -503h-121zM755 -10q-104 0 -158.5 46t-54.5 117q0 57 34 90.5t88 46.5v7q-47 15 -77.5 47t-30.5 81q0 64 52 105.5t147 41.5q96 0 148.5 -41.5 t52.5 -105.5q0 -49 -30.5 -81t-77.5 -47v-7q54 -13 87.5 -46.5t33.5 -90.5q0 -71 -54.5 -117t-159.5 -46zM755 326q49 0 75 21t26 56v12q0 35 -25.5 56t-75.5 21q-48 0 -74 -21t-26 -56v-12q0 -35 26 -56t74 -21zM755 71q52 0 81 22.5t29 60.5v16q0 38 -28.5 60.5 t-81.5 22.5q-51 0 -80 -22.5t-29 -60.5v-16q0 -38 29 -60.5t80 -22.5z" />
<glyph unicode="&#x215c;" d="M242 599q-87 0 -135.5 36.5t-76.5 83.5l79 55q21 -38 50.5 -63t82.5 -25q48 0 76 22.5t28 60.5v12q0 38 -30.5 58t-84.5 20h-60v83h60q54 0 79.5 20t25.5 49v12q0 33 -25.5 53t-68.5 20q-79 0 -121 -69l-70 58q30 43 75 70t119 27q91 0 145 -39t54 -107q0 -55 -34.5 -88 t-83.5 -41v-7q54 -8 91 -41.5t37 -92.5q0 -76 -58 -121.5t-154 -45.5zM856 1173h121l-269 -505h-120zM299 503h121l-269 -503h-121zM755 -10q-104 0 -158.5 46t-54.5 117q0 57 34 90.5t88 46.5v7q-47 15 -77.5 47t-30.5 81q0 64 52 105.5t147 41.5q96 0 148.5 -41.5 t52.5 -105.5q0 -49 -30.5 -81t-77.5 -47v-7q54 -13 87.5 -46.5t33.5 -90.5q0 -71 -54.5 -117t-159.5 -46zM755 326q49 0 75 21t26 56v12q0 35 -25.5 56t-75.5 21q-48 0 -74 -21t-26 -56v-12q0 -35 26 -56t74 -21zM755 71q52 0 81 22.5t29 60.5v16q0 38 -28.5 60.5 t-81.5 22.5q-51 0 -80 -22.5t-29 -60.5v-16q0 -38 29 -60.5t80 -22.5z" />
<glyph unicode="&#x215d;" d="M250 599q-83 0 -130.5 35.5t-70.5 80.5l76 57q22 -36 49.5 -61t75.5 -25q52 0 81.5 28t29.5 74v5q0 43 -30 68t-78 25q-38 0 -61.5 -15t-36.5 -30l-89 13l22 319h349v-87h-269l-15 -196h9q18 37 45 59t80 22q77 0 129.5 -45.5t52.5 -129.5q0 -85 -57.5 -141t-161.5 -56z M856 1173h121l-269 -505h-120zM299 503h121l-269 -503h-121zM755 -10q-104 0 -158.5 46t-54.5 117q0 57 34 90.5t88 46.5v7q-47 15 -77.5 47t-30.5 81q0 64 52 105.5t147 41.5q96 0 148.5 -41.5t52.5 -105.5q0 -49 -30.5 -81t-77.5 -47v-7q54 -13 87.5 -46.5t33.5 -90.5 q0 -71 -54.5 -117t-159.5 -46zM755 326q49 0 75 21t26 56v12q0 35 -25.5 56t-75.5 21q-48 0 -74 -21t-26 -56v-12q0 -35 26 -56t74 -21zM755 71q52 0 81 22.5t29 60.5v16q0 38 -28.5 60.5t-81.5 22.5q-51 0 -80 -22.5t-29 -60.5v-16q0 -38 29 -60.5t80 -22.5z" />
<glyph unicode="&#x215e;" d="M358 1085h-217v-108h-92v196h411v-91l-211 -473h-108zM856 1173h121l-269 -505h-120zM299 503h121l-269 -503h-121zM755 -10q-104 0 -158.5 46t-54.5 117q0 57 34 90.5t88 46.5v7q-47 15 -77.5 47t-30.5 81q0 64 52 105.5t147 41.5q96 0 148.5 -41.5t52.5 -105.5 q0 -49 -30.5 -81t-77.5 -47v-7q54 -13 87.5 -46.5t33.5 -90.5q0 -71 -54.5 -117t-159.5 -46zM755 326q49 0 75 21t26 56v12q0 35 -25.5 56t-75.5 21q-48 0 -74 -21t-26 -56v-12q0 -35 26 -56t74 -21zM755 71q52 0 81 22.5t29 60.5v16q0 38 -28.5 60.5t-81.5 22.5 q-51 0 -80 -22.5t-29 -60.5v-16q0 -38 29 -60.5t80 -22.5z" />
<glyph unicode="&#x25fc;" horiz-adv-x="864" d="M0 865h865v-865h-865v865z" />
<glyph unicode="&#xfb01;" d="M181 753h-117v114h117v178q0 87 46.5 142.5t145.5 55.5h190v-115h-247v-261h527v-867h-135v753h-392v-753h-135v753zM776 1058q-59 0 -82.5 24.5t-23.5 61.5v26q0 37 23.5 61.5t82.5 24.5t82.5 -24t23.5 -62v-26q0 -37 -23.5 -61.5t-82.5 -24.5z" />
<glyph unicode="&#xfb02;" d="M181 753h-117v114h117v178q0 87 46.5 142.5t145.5 55.5h207v-115h-264v-261h264v-114h-264v-753h-135v753zM708 1243h135v-1243h-135v1243z" />
<glyph d="M713 141h-6q-84 -161 -267 -161q-160 0 -249.5 119t-89.5 334t89.5 334t249.5 119q183 0 267 -160h6v141h135v-867h-135v141zM492 99q45 0 85.5 12t70.5 34.5t47.5 55.5t17.5 76v313q0 43 -17.5 76t-47.5 55.5t-70.5 34.5t-85.5 12q-117 0 -182 -71.5t-65 -189.5v-148 q0 -117 65 -188.5t182 -71.5z" />
<glyph d="M848 29q0 -180 -99 -282.5t-282 -102.5q-106 0 -182.5 33t-128.5 86l79 93q44 -45 101 -70t132 -25q245 0 245 259v145h-6q-84 -162 -267 -162q-78 0 -141.5 31.5t-107 88.5t-67 138.5t-23.5 183.5q0 103 23.5 184t67 138.5t106.5 88t142 30.5q183 0 267 -160h6v141h135 v-838zM492 123q45 0 85.5 11.5t70.5 34t47.5 55.5t17.5 77v289q0 43 -17.5 76t-47.5 55.5t-70.5 34.5t-85.5 12q-117 0 -182 -71.5t-65 -189.5v-124q0 -117 65 -188.5t182 -71.5z" />
<glyph d="M503 -20q-107 0 -184 41t-127.5 118t-74 190t-23.5 257q0 143 23.5 256t74 190.5t127.5 118.5t184 41q108 0 185.5 -41t128 -118.5t73.5 -190.5t23 -256q0 -144 -23 -257t-73.5 -190t-128 -118t-185.5 -41zM503 1070q-70 0 -120 -28t-81 -78.5t-46.5 -122.5t-15.5 -160 v-191q0 -28 2 -55.5t5 -53.5l485 531q-28 75 -85 116.5t-144 41.5zM503 102q71 0 121.5 28t81.5 78t46.5 121.5t15.5 160.5v191q0 29 -2 57t-5 53l-485 -531q28 -76 84.5 -117t142.5 -41z" />
<glyph d="M503 -20q-107 0 -184 41t-127.5 118t-74 190t-23.5 257q0 143 23.5 256t74 190.5t127.5 118.5t184 41q108 0 185.5 -41t128 -118.5t73.5 -190.5t23 -256q0 -144 -23 -257t-73.5 -190t-128 -118t-185.5 -41zM503 102q71 0 120 28t81 78t46 121.5t14 160.5v191 q0 87 -14 159.5t-46 123t-81 78.5t-120 28q-70 0 -118.5 -28t-80.5 -78.5t-46 -122.5t-14 -160v-191q0 -89 14 -160.5t46 -121.5t80.5 -78t118.5 -28z" />
<glyph d="M713 141h-6q-84 -161 -267 -161q-160 0 -249.5 119t-89.5 334t89.5 334t249.5 119q183 0 267 -160h6v141h135v-867h-135v141zM492 99q45 0 85.5 12t70.5 34.5t47.5 55.5t17.5 76v313q0 43 -17.5 76t-47.5 55.5t-70.5 34.5t-85.5 12q-117 0 -182 -71.5t-65 -189.5v-148 q0 -117 65 -188.5t182 -71.5zM496 982l-88 41l143 285l123 -58z" />
<glyph d="M713 141h-6q-84 -161 -267 -161q-160 0 -249.5 119t-89.5 334t89.5 334t249.5 119q183 0 267 -160h6v141h135v-867h-135v141zM492 99q45 0 85.5 12t70.5 34.5t47.5 55.5t17.5 76v313q0 43 -17.5 76t-47.5 55.5t-70.5 34.5t-85.5 12q-117 0 -182 -71.5t-65 -189.5v-148 q0 -117 65 -188.5t182 -71.5zM568 1285l186 -240l-75 -53l-197 197l-196 -197l-72 53l186 240h168z" />
<glyph d="M713 141h-6q-84 -161 -267 -161q-160 0 -249.5 119t-89.5 334t89.5 334t249.5 119q183 0 267 -160h6v141h135v-867h-135v141zM492 99q45 0 85.5 12t70.5 34.5t47.5 55.5t17.5 76v313q0 43 -17.5 76t-47.5 55.5t-70.5 34.5t-85.5 12q-117 0 -182 -71.5t-65 -189.5v-148 q0 -117 65 -188.5t182 -71.5zM328 1038q-52 0 -74 22t-22 55v24q0 34 21.5 55.5t74.5 21.5q51 0 73.5 -21.5t22.5 -55.5v-24q0 -33 -22.5 -55t-73.5 -22zM640 1038q-52 0 -74 22t-22 55v24q0 34 22 55.5t74 21.5t74 -21.5t22 -55.5v-24q0 -33 -22 -55t-74 -22z" />
<glyph d="M713 141h-6q-84 -161 -267 -161q-160 0 -249.5 119t-89.5 334t89.5 334t249.5 119q183 0 267 -160h6v141h135v-867h-135v141zM492 99q45 0 85.5 12t70.5 34.5t47.5 55.5t17.5 76v313q0 43 -17.5 76t-47.5 55.5t-70.5 34.5t-85.5 12q-117 0 -182 -71.5t-65 -189.5v-148 q0 -117 65 -188.5t182 -71.5zM294 1250l122 58l144 -285l-88 -41z" />
<glyph d="M713 141h-6q-84 -161 -267 -161q-160 0 -249.5 119t-89.5 334t89.5 334t249.5 119q183 0 267 -160h6v141h135v-867h-135v141zM492 99q45 0 85.5 12t70.5 34.5t47.5 55.5t17.5 76v313q0 43 -17.5 76t-47.5 55.5t-70.5 34.5t-85.5 12q-117 0 -182 -71.5t-65 -189.5v-148 q0 -117 65 -188.5t182 -71.5zM483 968q-40 0 -76 13.5t-62 40t-41 61.5t-15 77t15 77.5t41 61.5t62 40.5t76 14.5q41 0 77.5 -14.5t62 -40.5t41 -61.5t15.5 -77.5t-15.5 -77t-41 -61.5t-62 -40t-77.5 -13.5zM483 1050q46 0 72 24t26 68v37q0 44 -26 68t-72 24 q-45 0 -70.5 -24t-25.5 -68v-37q0 -43 25.5 -67.5t70.5 -24.5z" />
<glyph d="M713 141h-6q-84 -161 -267 -161q-160 0 -249.5 119t-89.5 334t89.5 334t249.5 119q183 0 267 -160h6v141h135v-867h-135v141zM492 99q45 0 85.5 12t70.5 34.5t47.5 55.5t17.5 76v313q0 43 -17.5 76t-47.5 55.5t-70.5 34.5t-85.5 12q-117 0 -182 -71.5t-65 -189.5v-148 q0 -117 65 -188.5t182 -71.5zM606 1027q-43 0 -75 15.5t-59 29.5q-40 22 -68 31t-49 9q-29 0 -50.5 -12t-47.5 -34l-56 67q24 34 62.5 62t97.5 28q44 0 76 -15.5t59 -28.5q40 -22 67.5 -31t49.5 -9q29 0 50.5 11.5t47.5 33.5l55 -67q-24 -34 -62 -62t-98 -28z" />
<glyph d="M171 753h-124v114h124v8q0 87 22.5 159.5t67.5 123t108.5 78t144.5 27.5q162 0 247 -106t85 -282v-103h-78q-101 0 -155 -32t-54 -107q0 -61 34.5 -86t95.5 -45l40 -13q119 -39 175 -93.5t56 -160.5q0 -129 -76 -192t-212 -63q-93 0 -159 30t-120 97l86 77 q38 -54 88.5 -75.5t112.5 -21.5q75 0 115 32t40 102q0 47 -22.5 87.5t-91.5 62.5l-43 14q-47 14 -91 31t-77.5 43t-55 66.5t-21.5 102.5q0 117 76 179.5t206 65.5v13q0 137 -48.5 200.5t-154.5 63.5q-208 0 -208 -264v-886h-133v753z" />
<glyph d="M503 599q-115 0 -168 77t-53 215t53 214.5t168 76.5q116 0 169.5 -76.5t53.5 -214.5q0 -139 -53.5 -215.5t-169.5 -76.5zM503 684q63 0 89 42t26 114v102q0 72 -26 114t-89 42q-62 0 -87.5 -42t-25.5 -114v-102q0 -72 25.5 -114t87.5 -42zM503 843q-28 0 -38 12t-10 28 v16q0 16 10.5 28t37.5 12q29 0 39.5 -12t10.5 -28v-16q0 -16 -10.5 -28t-39.5 -12z" />
<glyph d="M317 694h159v386l-150 -76l-41 74l182 95h114v-479h140v-85h-404v85z" />
<glyph d="M301 707l189 152q91 72 91 150v9q0 32 -23 54.5t-66 22.5t-69.5 -24.5t-42.5 -67.5l-90 37q19 57 70.5 99.5t139.5 42.5q96 0 144 -48t48 -115q0 -70 -44.5 -124t-107.5 -102l-128 -99h301v-85h-412v98z" />
<glyph d="M492 599q-87 0 -135.5 36.5t-76.5 83.5l79 55q21 -38 50.5 -63t82.5 -25q48 0 76 22.5t28 60.5v12q0 38 -30.5 58t-84.5 20h-60v83h60q54 0 79.5 20t25.5 49v12q0 33 -25.5 53t-68.5 20q-79 0 -121 -69l-70 58q30 43 75 70t119 27q91 0 145 -39t54 -107q0 -55 -34.5 -88 t-83.5 -41v-7q54 -8 91 -41.5t37 -92.5q0 -76 -58 -121.5t-154 -45.5z" />
<glyph d="M549 717h-273v99l238 357h138v-375h79v-81h-79v-108h-103v108zM549 798v285h-5l-191 -285h196z" />
<glyph d="M500 599q-83 0 -130.5 35.5t-70.5 80.5l76 57q22 -36 49.5 -61t75.5 -25q52 0 81.5 28t29.5 74v5q0 43 -30 68t-78 25q-38 0 -61.5 -15t-36.5 -30l-89 13l22 319h349v-87h-269l-15 -196h9q18 37 45 59t80 22q77 0 129.5 -45.5t52.5 -129.5q0 -85 -57.5 -141t-161.5 -56z " />
<glyph d="M505 599q-101 0 -158 61t-57 161q0 61 19.5 114.5t50 98t67 80t73.5 59.5h146q-54 -37 -96.5 -71t-74 -67.5t-54 -70.5t-31.5 -79l9 -2q19 34 53.5 61t93.5 27q76 0 125.5 -47t49.5 -128q0 -85 -58.5 -141t-157.5 -56zM505 680q49 0 79.5 26t30.5 71v19q0 45 -30.5 71.5 t-79.5 26.5q-48 0 -78.5 -26.5t-30.5 -71.5v-19q0 -45 30.5 -71t78.5 -26z" />
<glyph d="M608 1085h-217v-108h-92v196h411v-91l-211 -473h-108z" />
<glyph d="M503 599q-104 0 -158.5 46.5t-54.5 117.5q0 57 34 90t88 47v7q-47 15 -77.5 47t-30.5 81q0 64 52 105.5t147 41.5q96 0 148.5 -42t52.5 -105q0 -49 -30.5 -81t-77.5 -47v-7q54 -13 87.5 -47t33.5 -90q0 -71 -54.5 -117.5t-159.5 -46.5zM503 936q49 0 75 20.5t26 56.5v11 q0 35 -25.5 56t-75.5 21q-48 0 -74 -21t-26 -56v-11q0 -36 26 -56.5t74 -20.5zM503 680q52 0 81 23t29 61v15q0 39 -28.5 61.5t-81.5 22.5q-51 0 -80 -22.5t-29 -61.5v-15q0 -38 29 -61t80 -23z" />
<glyph d="M361 609q106 72 171.5 137t85.5 151l-10 2q-19 -34 -53 -61t-93 -27q-76 0 -125.5 47t-49.5 128q0 85 58 140.5t157 55.5q101 0 158 -60.5t57 -161.5q0 -60 -19.5 -113.5t-49.5 -98t-67 -80t-74 -59.5h-146zM502 888q48 0 78.5 26.5t30.5 71.5v18q0 46 -30 71.5t-79 25.5 t-79 -25.5t-30 -71.5v-18q0 -45 30 -71.5t79 -26.5z" />
<glyph d="M503 -10q-115 0 -168 76.5t-53 215.5q0 138 53 214t168 76q116 0 169.5 -76t53.5 -214q0 -139 -53.5 -215.5t-169.5 -76.5zM503 74q63 0 89 42t26 114v103q0 72 -26 114t-89 42q-62 0 -87.5 -42t-25.5 -114v-103q0 -72 25.5 -114t87.5 -42zM503 234q-28 0 -38 11.5 t-10 28.5v15q0 16 10.5 28t37.5 12q29 0 39.5 -11.5t10.5 -28.5v-15q0 -17 -10.5 -28.5t-39.5 -11.5z" />
<glyph d="M317 84h159v386l-150 -76l-41 74l182 95h114v-479h140v-84h-404v84z" />
<glyph d="M301 98l189 150q91 73 91 151v9q0 32 -23 54.5t-66 22.5t-69.5 -24.5t-42.5 -67.5l-90 37q19 57 70.5 99.5t139.5 42.5q96 0 144 -47.5t48 -114.5q0 -71 -44.5 -124.5t-107.5 -102.5l-128 -99h301v-84h-412v98z" />
<glyph d="M492 -10q-87 0 -135.5 36t-76.5 83l79 56q21 -39 50.5 -64.5t82.5 -25.5q48 0 76 23t28 62v11q0 39 -30.5 58t-84.5 19h-60v85h60q54 0 79.5 20t25.5 48v12q0 34 -25.5 54t-68.5 20q-79 0 -121 -69l-70 58q30 43 75 69.5t119 26.5q91 0 145 -39t54 -107 q0 -55 -34.5 -87.5t-83.5 -41.5v-7q54 -8 91 -41.5t37 -92.5q0 -76 -58 -121t-154 -45z" />
<glyph d="M549 107h-273v100l238 356h138v-375h79v-81h-79v-107h-103v107zM549 188v286h-5l-191 -286h196z" />
<glyph d="M500 -10q-83 0 -130.5 35.5t-70.5 80.5l76 57q22 -37 49.5 -62.5t75.5 -25.5q52 0 81.5 29t29.5 74v5q0 43 -30 68.5t-78 25.5q-38 0 -61.5 -15t-36.5 -30l-89 13l22 318h349v-86h-269l-15 -197h9q18 37 45 59t80 22q77 0 129.5 -45t52.5 -130t-57.5 -140.5t-161.5 -55.5 z" />
<glyph d="M505 -10q-101 0 -158 60.5t-57 161.5q0 60 19.5 114t50 98t67 79.5t73.5 59.5h146q-54 -37 -96.5 -71t-74 -67.5t-54 -70.5t-31.5 -78l9 -2q19 34 53.5 60.5t93.5 26.5q76 0 125.5 -47t49.5 -128q0 -85 -58.5 -140.5t-157.5 -55.5zM505 71q49 0 79.5 26t30.5 71v18 q0 45 -30.5 71.5t-79.5 26.5q-48 0 -78.5 -26t-30.5 -72v-18q0 -45 30.5 -71t78.5 -26z" />
<glyph d="M608 476h-217v-108h-92v195h411v-91l-211 -472h-108z" />
<glyph d="M503 -10q-104 0 -158.5 46t-54.5 117q0 57 34 90.5t88 46.5v7q-47 15 -77.5 47t-30.5 81q0 64 52 105.5t147 41.5q96 0 148.5 -41.5t52.5 -105.5q0 -49 -30.5 -81t-77.5 -47v-7q54 -13 87.5 -46.5t33.5 -90.5q0 -71 -54.5 -117t-159.5 -46zM503 326q49 0 75 21t26 56v12 q0 35 -25.5 56t-75.5 21q-48 0 -74 -21t-26 -56v-12q0 -35 26 -56t74 -21zM503 71q52 0 81 22.5t29 60.5v16q0 38 -28.5 60.5t-81.5 22.5q-51 0 -80 -22.5t-29 -60.5v-16q0 -38 29 -60.5t80 -22.5z" />
<glyph d="M361 0q106 72 171.5 137t85.5 150l-10 2q-19 -34 -53 -60.5t-93 -26.5q-76 0 -125.5 46.5t-49.5 127.5q0 86 58 141t157 55q101 0 158 -60t57 -161q0 -61 -19.5 -114.5t-49.5 -98t-67 -79.5t-74 -59h-146zM502 279q48 0 78.5 25.5t30.5 71.5v18q0 46 -30 72t-79 26 t-79 -26t-30 -72v-18q0 -45 30 -71t79 -26z" />
<glyph d="M626 1314q-43 0 -75 14.5t-59 28.5q-40 22 -68 31t-49 9q-29 0 -50.5 -11.5t-47.5 -33.5l-56 67q24 34 62.5 61.5t97.5 27.5q44 0 76 -15t59 -28q40 -23 67.5 -32t49.5 -9q29 0 50.5 11.5t47.5 33.5l55 -67q-24 -33 -62 -60.5t-98 -27.5z" />
<glyph d="M269 1469h470v-114h-470v114z" />
<glyph d="M348 1323q-52 0 -74 22t-22 56v23q0 34 21.5 55.5t74.5 21.5q51 0 73.5 -21.5t22.5 -55.5v-23q0 -34 -22.5 -56t-73.5 -22zM660 1323q-52 0 -74 22t-22 56v23q0 34 22 55.5t74 21.5t74 -21.5t22 -55.5v-23q0 -34 -22 -56t-74 -22z" />
<glyph d="M516 1268l-88 40l143 286l123 -59z" />
<glyph d="M314 1535l122 59l144 -286l-88 -40z" />
<glyph d="M588 1570l186 -240l-75 -52l-197 196l-196 -196l-72 52l186 240h168z" />
<glyph d="M503 1253q-40 0 -76 14.5t-62 40t-41 61t-15 77.5q0 41 15 77t41 61.5t62 40t76 14.5q41 0 77.5 -14.5t62 -40t41 -61t15.5 -77.5t-15.5 -77.5t-41 -61t-62 -40t-77.5 -14.5zM503 1335q46 0 72 24.5t26 68.5v37q0 43 -26 67t-72 24q-45 0 -70.5 -24t-25.5 -67v-37 q0 -44 25.5 -68.5t70.5 -24.5z" />
</font>
</defs>
</svg>
